<?xml version="1.0" encoding="utf-8"?>
<!-- Generator: Adobe Illustrator 19.0.0, SVG Export Plug-In . SVG Version: 6.00 Build 0)  -->
<svg version="1.1" id="boomSVG" xmlns="http://www.w3.org/2000/svg" xmlns:xlink="http://www.w3.org/1999/xlink" x="0px" y="0px"
	 viewBox="0 0 600 800" style="enable-background:new 0 0 600 800;" xml:space="preserve">
<style type="text/css">
	.st0{fill:#DF4D29;stroke:#972221;stroke-width:5;stroke-miterlimit:10;}
	.st1{fill:#F5BC31;stroke:#F5BC31;stroke-width:5;stroke-miterlimit:10;}
	.st2{fill:#FAF2BC;stroke:#F5BC31;stroke-width:5;stroke-miterlimit:10;}
</style>
<polygon id="etoile1" class="st0" points="314,189.5 344.7,312.2 432.7,221.2 397.9,342.9 519.5,308.1 428.6,396.1 551.3,426.8 
	428.6,457.5 519.5,545.4 397.9,510.7 432.7,632.3 344.7,541.4 314,664.1 283.3,541.4 195.3,632.3 230.1,510.7 108.5,545.4 
	199.4,457.5 76.7,426.8 199.4,396.1 108.5,308.1 230.1,342.9 195.3,221.2 283.3,312.2 "/>
<polygon id="etoile2" class="st1" points="308,316 320.1,372.5 363.4,332.9 344.6,387.6 402.7,374.2 358,412.4 415.4,428.9 
	356.8,440.3 398,482.2 341.3,463.9 355.3,519.9 315.5,476.8 298.6,532 286.5,475.5 243.2,515.1 262,460.4 203.8,473.8 248.5,435.6 
	191.2,419.1 249.7,407.7 208.5,365.8 265.3,384.1 251.3,328.1 291,371.2 "/>
<polygon id="etoile3" class="st2" points="304.5,385.8 309.1,407.2 325.6,392.2 318.4,412.9 340.5,407.9 323.5,422.4 345.3,428.6 
	323.1,433 338.7,448.9 317.2,441.9 322.5,463.2 307.4,446.8 301,467.7 296.4,446.3 279.9,461.3 287.1,440.6 265,445.7 282,431.2 
	260.2,424.9 282.4,420.6 266.8,404.7 288.4,411.6 283,390.4 298.1,406.7 "/>
</svg>
