<svg id="Calque_1" data-name="Calque 1" xmlns="http://www.w3.org/2000/svg" xmlns:xlink="http://www.w3.org/1999/xlink" viewBox="0 0 122.8251 193.2862">
  <defs>
    <symbol id="Fleur_Yin_Yang" data-name="Fleur Yin Yang" viewBox="0 0 143.784 226.269">
      <path d="M74.3091,79.7862s-14.0576,56.9932-.1064,80.99,14.4511,44.4951-3.0488,61.9922" style="fill: none;stroke: #39b54a;stroke-linecap: round;stroke-linejoin: round;stroke-width: 7px"/>
      <path d="M116.939,51.8727c22.0078-28.6094,3.5781-47.0337-25.0332-25.03-4.6739-35.79-30.7325-35.79-35.4063,0C27.8853,4.839,9.46,23.2623,31.4644,51.8727c-35.792,4.6723-35.792,30.73,0,35.4008C9.459,115.8844,27.8853,134.31,56.5,112.3058c4.6738,35.789,30.7324,35.789,35.4063,0,28.6133,22.0039,47.041,3.5786,25.0332-25.0323C152.7319,82.6022,152.7329,56.547,116.939,51.8727Z" style="fill: #ab4a9c"/>
      <path d="M59.5913,27.2452l-0.7021,5.3662-4.291-3.2993C41.273,19.0655,31.2388,18.548,27.2036,22.5807c-4.0327,4.0337-3.5151,14.0674,6.7324,27.3921l3.3,4.2915-5.3662.7C15.1983,57.14,7.7373,63.8693,7.7373,69.5738S15.1992,82.0069,31.87,84.1822l5.3662,0.7022-3.3,4.2895C23.6875,102.4982,23.17,112.5333,27.2046,116.567s14.0684,3.5151,27.3936-6.7319l4.291-3.2993,0.7021,5.3667c2.1748,16.668,8.9063,24.13,14.6114,24.13s12.4346-7.4619,14.6113-24.13l0.7-5.3667,4.291,3.2993c13.3271,10.2471,23.3613,10.7656,27.3965,6.7319,4.0332-4.0337,3.5166-14.0688-6.7325-27.3931l-3.3-4.2895,5.3672-.7022c16.669-2.1753,24.13-8.9043,24.13-14.6084s-7.4609-12.4331-24.13-14.6093l-5.3672-.7,3.3-4.2915c10.2471-13.3238,10.7657-23.3575,6.7325-27.39-4.0352-4.0346-14.0694-3.5171-27.3965,6.73l-4.291,3.2993-0.7-5.3662C86.6372,10.5773,79.9068,3.1163,74.2027,3.1163S61.7661,10.5773,59.5913,27.2452Z" style="fill: #86328c"/>
      <path d="M59.5913,27.2452l-0.7021,5.3662-4.291-3.2993C41.273,19.0655,31.2388,18.548,27.2036,22.5807c-4.0327,4.0337-3.5151,14.0674,6.7324,27.3921l3.3,4.2915-5.3662.7C15.1983,57.14,7.7373,63.8693,7.7373,69.5738S15.1992,82.0069,31.87,84.1822l5.3662,0.7022-3.3,4.2895C23.6875,102.4982,23.17,112.5333,27.2046,116.567s14.0684,3.5151,27.3936-6.7319l4.291-3.2993,0.7021,5.3667c2.1748,16.668,8.9063,24.13,14.6114,24.13s12.4346-7.4619,14.6113-24.13l0.7-5.3667,4.291,3.2993c13.3271,10.2471,23.3613,10.7656,27.3965,6.7319,4.0332-4.0337,3.5166-14.0688-6.7325-27.3931l-3.3-4.2895,5.3672-.7022c16.669-2.1753,24.13-8.9043,24.13-14.6084s-7.4609-12.4331-24.13-14.6093l-5.3672-.7,3.3-4.2915c10.2471-13.3238,10.7657-23.3575,6.7325-27.39-4.0352-4.0346-14.0694-3.5171-27.3965,6.73l-4.291,3.2993-0.7-5.3662C86.6372,10.5773,79.9068,3.1163,74.2027,3.1163S61.7661,10.5773,59.5913,27.2452Z" style="fill: #86328c"/>
      <path d="M62.6821,27.6485L61.28,38.3824l-8.5811-6.5976c-12.5615-9.6612-20.81-9.4785-23.291-7-2.4785,2.48-2.66,10.7275,6.999,23.2871l6.6006,8.581L32.272,58.0558c-15.7139,2.05-21.4165,8.0117-21.4165,11.518s5.7026,9.4673,21.4165,11.5191l10.7353,1.4-6.6006,8.581c-9.66,12.5611-9.4775,20.8091-6.998,23.2891s10.7275,2.6611,23.29-6.999l8.5811-6.5987,1.4023,10.733c2.0518,15.7128,8.0137,21.415,11.5205,21.415s9.4688-5.7022,11.52-21.4141l1.4023-10.7339,8.58,6.5987c12.5635,9.66,20.8105,9.4775,23.291,6.999s2.6621-10.728-6.999-23.2891l-6.6-8.581,10.7363-1.4c15.7129-2.0518,21.416-8.0127,21.416-11.5191s-5.7031-9.4677-21.416-11.518L105.397,56.6534l6.6-8.581c9.6611-12.56,9.4785-20.8076,6.999-23.2871s-10.7275-2.6607-23.291,7l-8.58,6.5976L85.7232,27.6495C83.6714,11.9366,77.7095,6.235,74.2027,6.235S64.7339,11.9366,62.6821,27.6485Z" style="fill: #f9a01b"/>
      <path d="M66.6577,28.1671L64.353,45.8014,50.2554,34.96C39.29,26.5284,33.3071,27.03,32.2632,27.6407a3.6044,3.6044,0,0,0-.3008,1.6929c0,2.6475,1.3047,8.0811,7.6221,16.2959L50.4273,59.7262,32.7915,62.0289c-13.68,1.7866-17.5835,6.3584-17.9087,7.5449,0.3262,1.1856,4.23,5.7588,17.9077,7.544L50.4273,79.42,39.5845,93.5172c-6.3174,8.2144-7.6221,13.6475-7.6221,16.2954a3.5947,3.5947,0,0,0,.3018,1.6943c1.0429,0.61,7.0254,1.1133,17.9912-7.3193L64.353,93.3463,66.6568,110.98c1.7861,13.6782,6.3594,17.5811,7.5459,17.9082,1.1865-.3271,5.76-4.23,7.5449-17.9072,0.002-.0127,2.3047-17.6333,2.3047-17.6333l14.0966,10.84c10.9659,8.4316,16.9483,7.9307,17.9922,7.32a3.5842,3.5842,0,0,0,.3018-1.6934c0-2.648-1.3047-8.0821-7.6231-16.2974L97.978,79.42l17.6368-2.3022c13.6767-1.7852,17.581-6.3574,17.9072-7.544-0.3262-1.1865-4.23-5.7583-17.9072-7.5439-0.0137-.001-17.6368-2.3047-17.6368-2.3047L108.82,45.6295c6.3184-8.2148,7.6231-13.6484,7.6231-16.2959a3.6007,3.6007,0,0,0-.3018-1.6929c-1.0459-.61-7.0254-1.1113-17.9922,7.3194L84.0513,45.8014,81.7486,28.1681c-1.7861-13.6773-6.3594-17.5811-7.5459-17.9072C73.0161,10.587,68.4429,14.4908,66.6577,28.1671Z" style="fill: #f15a22"/>
      <path d="M89.0991,38.7438a34.6092,34.6092,0,1,0-18.3359,65.71,35.1094,35.1094,0,0,0,3.5459.1807A34.6,34.6,0,0,0,89.0991,38.7438Z" style="fill: #b2d235"/>
      <path d="M88.1616,40.7276a32.4128,32.4128,0,1,0-17.1738,61.54c1.0908,0.1094,2.1982.168,3.3213,0.168A32.4034,32.4034,0,0,0,88.1616,40.7276Z" style="fill: #39b54a"/>
      <path d="M86.8472,43.5079a29.329,29.329,0,1,0,16.8105,26.5034A29.173,29.173,0,0,0,86.8472,43.5079Z" style="fill: #602d91"/>
      <path d="M68.1265,58.4855s-1.2373,6.3711,6.6572,10.2719c7.8936,3.897,8.37,7.0352,8.37,11.0288,0,3.3033-2.3506,12.5845-11.4453,15.4844a25.9418,25.9418,0,0,0,2.6006.1319A25.3753,25.3753,0,0,0,85.1567,47.08C68.5366,45.6295,68.1265,58.4855,68.1265,58.4855Z" style="fill: #fff"/>
      <path d="M48.9155,70.0113a25.3957,25.3957,0,0,0,22.793,25.2593c9.0947-2.9,11.4453-12.1811,11.4453-15.4844,0-3.9936-.4765-7.1318-8.37-11.0288-7.8945-3.9008-6.6572-10.2719-6.6572-10.2719s0.41-12.856,17.03-11.4058A25.3514,25.3514,0,0,0,48.9155,70.0113Z" style="fill: #231f20"/>
      <circle cx="70.4038" cy="83.4207" r="3.4229" style="fill: #fff"/>
      <circle cx="80.9661" cy="57.3448" r="3.4234" style="fill: #231f20"/>
      <path d="M142.1528,146.7775s4.2481,28.3837-60.375,34.6894" style="fill: #00974a"/>
      <path d="M81.7778,181.4669s12.376-34.6894,60.375-34.6894" style="fill: #39b54a"/>
      <path d="M75,169.1544S63,126.1593,0,137.1583" style="fill: #39b54a"/>
      <path d="M0,137.1583s9,46.874,75,31.9961" style="fill: #00974a"/>
    </symbol>
  </defs>
  <title>fleur</title>
  <use width="143.7841" height="226.2687" transform="translate(0 0) scale(0.8542)" xlink:href="#Fleur_Yin_Yang"/>
</svg>
