<?xml version="1.0" encoding="utf-8"?>
<!-- Generator: Adobe Illustrator 19.0.0, SVG Export Plug-In . SVG Version: 6.00 Build 0)  -->
<svg version="1.1" id="Layer_1" xmlns="http://www.w3.org/2000/svg" xmlns:xlink="http://www.w3.org/1999/xlink" x="0px" y="0px"
	 viewBox="0 0 2500 800" style="enable-background:new 0 0 2500 800;" xml:space="preserve">
<style type="text/css">
	.st0{fill:#C0C0C2;}
	.st1{fill:#D8D6D7;}
	.st2{fill:#9099A6;}
	.st3{fill:#ECEBEB;}
	.st4{fill:#98ADBE;}
</style>
<g id="XMLID_1_">
	<path id="XMLID_227_" class="st0" d="M225.8,260.9c13.6,0.2,22.5,10.5,34.7,13.7c3.8,1.9,7.7,3.9,11.5,5.8
		c-2.8,4.1-1.8,7.6,1.9,10.8c5.8,4.9,8.3,8.9,0.4,15.1c-4.9,3.9,3.9,24.6,9.5,23.4c11.5-2.6,14,6.2,20.4,10.4
		c8.5,5.6,8.7,9.9,0.1,15c-3.4,2-6.7,4.4-3.9,8.6c2.1,3.3,5.5,5.1,9.8,4.3c2.8-0.5,6.1-0.6,8.3-2c22.4-13.9,41.1,8.8,62.5,5.7
		c1.7-0.3,4.9,3,6.1,5.2c6.3,11.5,14.5,18.8,29.6,20.2c11.4,1.1,13.5,11.2,5.3,18.7c-12.8,11.7-11.1,32.9,4.6,40.8
		c12.1,6.1,25.2,11.2,38.6,13.9c9.6,1.9,21.6,4.7,29.7-4.5c8.1-9.1,2.1-17-3-25.5c-4.9-8.2-5.6-16.2,7.1-20.1
		c6.5-2,11-7.2,14.5-12.7c2-3.2,4-5.8,8.4-6.4c14.3-1.9,16-14.3,17.1-23.1c1-8.5-10.9-7.9-18-9.4c-16.9-3.6-30.8-20.9-29.5-36.8
		c0.4-4.3,1-9.1,5.8-9.8c18.7-3,19.4-16.3,20.1-29.5c0.6-11,4.7-17.2,18-14.1c8.6,2,12.7-0.1,7.8-8.8c-1.8-3.2-1.4-6.1,1-8.7
		c3.1-3.3,7.3-3.3,10.5-1.2c9.6,5.9,21.6,5.4,31,10c15.8,7.7,31.5,16.6,39,33.3c1.8,4.1,2.7,9.8,9.6,6.3c7.1-3.6,11.3-2.3,14.8,4.6
		c3.6,7.2,8.1,14.5-0.8,20.3c-8,5.3-4.4,9.6-0.4,14.4c5.2,6.3,12.2,9.8,20.5,11.6c21.8,4.7,43.1,10.6,66,9.6
		c10.4-0.5,26.9-12.9,25-22.4c-1.3-6.2-1-11.7,2.4-16.8c12.2-18.1,6.3-33.4-7.7-47.8c-4.4-4.5-5.7-10.3-5.2-16.4
		c5.1-0.2,9.7,1.1,12.3,5.3c7.1,11.5,15.5,22.9,16,36.5c0.4,11.8,5.6,17.1,17.8,17.3c3.2,5.3,9,7.7,13.5,11.5
		c9.4,7.9,24,8.4,30.8,18.8c9.2,14,18.7,28,26.5,42.5c4.5,8.5,3.1,20.5,6.9,30.5c1.1,3-1.5,5.8-4.8,7.5c-9,4.7-6.1,10-1.9,16.7
		c7.4,11.8,20,17.4,31,24.6c8.5,5.5,15.7-4.4,23.9-5.8c4.2-0.8,8.6-0.6,13-0.5c9.2,0.2,18-1.7,27-3.2c28-4.7,56-7.5,73.9,20.5
		c1.7,2.7,4.2,4.9,6.3,7.4c4.8,6,10.8,6.3,16,1.4c16-15,36.8-18,57.6-20.5c8.9-1.1,14.7-3.7,15.6-12.6c1-9.7,6.5-13.6,16.8-10.7
		c3.3,0.9,6.5,0.7,9.9-0.2c17.9-4.8,33.3-1.7,41.7,14c11.9,22,34,25.9,54.8,32.8c6.7,2.2,10-1.2,8.1-8.1
		c-2.4-8.4,3.1-13.5,10.5-11.7c10.4,2.4,21.5,7.1,27.5,15.3c6,8.2,2.9,17.4-4.2,26c-7.7,9.3,1.6,20.7-0.9,31.1
		c-0.2,0.7,4.9,3.7,7.1,3.4c10.7-1.5,21.9-2.3,31.6-6.4c6.6-2.8,4.2-12.1,5.9-18.5c4-15.3,0.9-34.4,23.5-40.6c4.4-1.2,4.2-4.9,2.8-9
		c-4.2-12.4,0.9-17.8,15-16.8c13.3,1,26.5,2.3,40,1.4c24.7-1.5,47.7,2.7,69.6,16.5c21.1,13.3,43.6,26.9,71.3,26.3
		c6.9-0.1,9.8,3.7,12.8,8.9c5.9,10.4,13.2,19.7,26.5,23.3c9.3,2.5,17.5,3.3,21.3-6.9c3.4-9.1,8-18.9-3.8-26.3
		c-3.2-2-7.1-4.1-5.7-8.4c1.4-4.1,5.9-4.1,9.7-4.3c9.4-0.3,11.4-4,8.1-12.3c-2.9-7.3,0.1-15.1,1.5-22.5c1-5.3,6.4-6.6,11.5-4.3
		c4.8,2.2,3.6,5.6,0.9,8.9c-7.5,9-1,10.6,7,11.2c7.2,0.5,14.9-1.6,21.4,1.6c10.3,5.1,17.8,1.3,24.1-5.6c4.5-4.9,9.5-8.2,16.2-6.2
		c9.8,3,19.1-0.7,28.6-0.9c9.2-0.2,14.6-9.6,9-16.4c-5.9-7.1-12.9-15.4-24.5-13.9c-7,0.9-12-2.5-17.9-4.2c-4.5-1.3-7.7-3.7-7.5-8.6
		c0.2-4,2.5-6.8,6-8.6c4.4-2.3,7.6-0.2,11.6,2.1c12.5,7.2,29.5,8.3,35.8,23.8c0.2,0.6,1.7,0.7,2.6,1.1c14.1,6.3,44.5,1,56.2-9.2
		c4.7-4.1,8.4-11.1,17.9-5.3c18.8,11.6,39.1,17.1,61.2,8c4.6-1.9,8.6-3.3,13.2,0.5c10.3,8.3,19.5,17.7,24.9,29
		c3.6,7.6,7.6,10.9,15.8,10.2c22.2-1.9,34.4,10.6,44,26.7c2.2,3.6,4.9,5.5,9.2,5c3.7-0.4,5.7-2.7,6.9-6c4.3-11.9-0.5-22.8-12.3-29.2
		c-6.2-3.4-12.2-7.2-17.7-11.5c-4.8-3.7-4-12.8-0.7-11.8c10.8,3.2,23-8.1,29.6-0.8c11.1,12.4,31.1,14.8,37.9,31.2
		c1.7,4.1,5.9,4.3,9.9,3c7.5-2.4,14.2-0.3,20.8,2.7c11.2,5.1,21.3,3.8,30.4-4.4c7.7-6.9,18.4-8.1,25.1-2.3
		c12.9,11.3,28.2,9,42.9,10.7c7.6,0.8,12.3-2.5,16.1-8.9c9.1-15.6,13.7-16.4,30.6-6.8c4.1,2.3,9.4,7.1,12.9,3.8
		c10.1-9.5,21.5-4.1,32.4-4.3c9.6-0.2,15.7,2.1,18.5,12.6c3.4,13.2,13.5,15.8,26,8.4c5-3,10.3-3.9,16.1-5c26-4.7,49.2,4.6,73,11.5
		c7.7,2.2,14.8,12.5,23.3,4.7c8.5-7.7,1.2-17.6,0.1-26.5c-0.1-0.9-0.4-1.8-0.9-2.6c-13-18.4-16.1-37.3-2.7-56.8
		c7.9,4.6,14.2,10.4,18.1,18.6c3,6.4,8.5,11.1,15.1,13.9c11.5,4.9,12.8,13.6,8.4,22.4c-3.6,7.4-3.6,13.6-0.6,20.6
		c0.4,0.8,0.6,1.7,0.9,2.6c10.5,36.4,6.4,41.3-33.7,43.3c-11.1,0.6-21.7,2-31.9-4c-4.6-2.8-10.3-1.4-15.4,0.3
		c-15.8,5.1-31.2,4.1-46.4-2c-9.1-3.7-10.2,0.5-8.7,7.4c1.9,9,16.3,19.5,26.5,19.3c18.8-0.3,18.7-0.2,14,16
		c-2.1,7.2-2.4,14.3,9.7,12.2c1.4-0.2,3.6-0.7,4.2-0.1c13.6,15.6,35.4,22.5,46.2,41.9c11.3,20.3-3.3,30.4-13.9,42.9
		c-2.3,2.7-5.8,4.1-9,3.3c-14.9-3.7-29.4,3.3-44.2,1.2c-0.9-0.1-2.1-0.3-2.9,0.1c-38.4,16.3-78.7,2.1-118.2,6
		c-26,2.6-53.6-1.1-80.5-1.4c-7.6-0.1-13.8-3.6-20.8-5.3c-21.2-5.1-42,0.6-63,1.2c-13.3,0.4-26.3,5.6-39.3,5.9
		c-22,0.6-39.8-17.5-43-39.8c6.8-2.8,13.7-5.5,20.5-8.3c13.6-6,29.3-6.5,42-15.2c8.6-5.9,19.7-8.5,30.2-4.5
		c13.4,5.1,25.3,0.8,35.5-5.4c8.7-5.3,16.9-7.7,26.9-7.1c10.8,0.6,17-2.9,14-14.2c-2.4-9,2.3-12.5,11.4-12.7
		c2.9-0.1,5.7-0.8,8.6-0.8c15.9,0.2,32.5,1.6,25.8-21.9c-1.2-4.2,4.8-6.2,7.7-9.1c3.7-3.7,4.2-8.2,1.6-12.5
		c-2.9-4.9-8.1-3.2-11.5-1.3c-13.2,7.6-24.4,5.1-38.6-0.2c-14.7-5.4-32.7-9.8-48.7-0.7c-13.4,7.6-25.6,4.4-37.7-1.9
		c-13.5-7-24.7-9-33.3,6.8c-3.8,7-12.5,9.6-21.3,9.2c-15.4-0.6-30.8,1.7-46.1-1.7c-2.9-0.7-5.9-0.8-8.3,1c-22.3,16-45.8,8.1-69,3
		c-31.7-7-60.3-22.9-92.8-27.6c-12.3-1.8-24.4-3.1-35.3,2.5c-18.1,9.3-36,7.6-54.5,2.3c-4.7-1.3-10.4-5.4-14.3,0.4
		c-3.6,5.3-5.8,11.4-2.7,17.9c4.9,10.2,14.1,15.8,25.2,15.1c16.9-1.1,31.4,8.1,49.9,5.9c-4.1,6.8-8.6,4.9-12.4,5.1
		c-32,1.8-64.1-2.6-96.1,0.5c-8.1,0.8-16.1,2.5-24.1,4.2c-10.3,2.2-20.1,1.1-29.7-2.6c-25.6-9.9-50.7-21.3-79.7-18.1
		c-5.4,0.6-10.2-2.2-15-4.2c-12.8-5.4-25.8-10-40.3-9.2c-3.7,0.2-7.8-0.4-11.3-1.7c-42.1-15.5-76.5,1.7-109.7,22.9
		c-4.6,2.9-8.2,7.4-13.9,9.1c-2.9,0.9-5.2,2.7-4.9,5.9c0.3,3.5,3.4,4.4,6.3,4.2c25.7-2,46.8,15.8,72.5,14.4c5.6-0.3,11.4,3,11.9,9.7
		c0.4,6.2-4.6,8.4-9.7,10.3c-6.8,2.6-13.9,4.6-21.1,3.5c-12.5-1.9-24.9,0.5-37.1-0.2c-34-2-68.2-2.2-101.8-8.5
		c-9.4-1.8-18.8-4.3-26.5-10.2c-8.5-6.5-8.2-16.9,1.1-22.1c10-5.6,15.4-17.2,31.5-15.1c7.1,0.9,5.8-12-0.7-14
		c-16.5-4.9-28.8-14.4-40.4-25.5c-1.7-1.6-5.4-1.7-8.3-1.9c-18.5-1.3-35.5-5.2-49.6-17.8c-7.2-6.4-16.1-1.2-24.5,0.6
		c-9.6,2.1-14.4,5.6-13.6,15.2c0.3,3.8-2.7,6.6-6.5,8.2c-33.8,14.4-68.1,16.9-104.7,9.3c-28-5.8-55.6-13.5-86.3-5.8
		c-27.1,6.9-56.4,0.4-84.6-2.6c-9.6-1-19.2-0.8-28.8-1.5c-4.6-0.3-8.7-1.8-10.5-5.9c-2.2-5,2.3-7.2,5.7-9.6c6-4.3,14.7-8.8,9.2-16.8
		c-5.7-8.1-14.6-4.3-21.9-0.2c-17.9,10-36.7,15.4-57.7,11.1c-3.3-0.7-7-0.4-9.8-1.8c-27.5-14-56.5-9.7-85.9-9
		c-15.4,0.4-31.1-1-46.9-0.3c-11,0.5-18.5,6.9-27.6,10.8c-3.1,1.3-3.8,4.4-1.8,6.9c8.9,11.3-1,10.6-8.4,12.5
		c-19.5,5.2-38.5,2.3-58.2,0.2c-25.7-2.7-50.9-8.9-77-8.8c-12.7,0-24.7,1.6-36.8,5.4c-23.4,7.5-33-0.4-30.9-22.6
		c1.1-11.3-2-22.8,3.1-34.1c2.3-5-1.2-10.9-5.7-14.5c-19.2-15.3-42.9-22.6-65.9-31c-3-0.1-6-0.3-8.9-0.4
		c-7.2-13.8-22.8-13.6-34.8-14.5c-30.5-2.4-44.3-20.3-53.7-43.7c-2.6-6.5-5.7-12.1-10.2-17.5c-16.8-20.3-18.1-46.4-4.1-68.2
		C186.3,260.2,211.7,253.7,225.8,260.9z M2302.3,644.2c8.5,0,14.3,0.1,20.1,0c3.7-0.1,8.3,0.8,10.1-3.4c1.7-4-2.2-6.4-4.5-9.3
		c-7.5-9.5-19.8-7.9-30-11.2c-11.6-3.9-14.3-10.8-4.8-18.3c7.8-6.1,2.7-7.7-2.2-10.1c-4.9-2.4-10.3-1.5-15.6-1.8
		c-11.1-0.7-20.6-4.3-25.4-14.4c-1.3-2.8-6.2-5.7-2-9.5c3.4-3.1,6.8-1.3,10.5,0.3c5.4,2.2,13.1,7.7,16.8,2c4.9-7.4-7.3-5.3-9.8-9.8
		c-7-12.3-20.7-11.8-32.8-13.5c-9.9-1.3-21.2,6.8-20.4,11.9c1.9,11.7-3.4,19.3-8.1,28.7c-7.8,15.8-21.3,24.8-39.6,25.3
		c-17.2,0.4-34.9,0.3-50.2,10.7c-7.8,5.3-7.6,9.8,0.2,12.5c12.2,4.3,20.3,13.2,29.8,20.6c8,6.3,16.7,11.8,27.4,8.4
		c16.7-5.2,33.8-9.1,48.6-19.2c12.6-8.6,28.2-14.8,43-7.9C2277.1,642.7,2290.5,644.9,2302.3,644.2z M221.4,312.2
		c1.9-11.7-0.3-19.7-9.7-22.9c-10.9-3.8-7.4,7.9-11.9,11.4c-1.1,0.9-2.1,1.8-3.2,2.7c-5.4,4.1-6.1,8.6-2,14c2.8,3.6,4.4,8,7,11.8
		c5.6,8.2,10.8,16.8,17.4,24.2c4.5,5,12.1,7.4,17.9,2c6-5.6,1.2-9.4-3.9-14.1C224,332.8,221.7,321.2,221.4,312.2z M854.7,409.3
		c-6.7-4.1-13.4-4.7-19.9-5.7c-8.3-1.4-7.2-10.2-12.7-13.7c-3.5-2.2-5.8-9.1-11.4-4.2c-4.8,4.1-7,9.2-1.2,15.1
		c4.5,4.5,10.1,8.2,12.2,14.7c2.9,9,10,8.8,17.2,5.2C844.4,418.1,850,415.3,854.7,409.3z"/>
	<path id="XMLID_223_" class="st1" d="M2417.8,417.8c-13.4,19.5-10.3,38.4,2.7,56.8c0.5,0.7,0.8,1.7,0.9,2.6
		c1.2,8.9,8.5,18.8-0.1,26.5c-8.5,7.7-15.6-2.5-23.3-4.7c-23.8-6.8-47-16.2-73-11.5c-5.8,1-11.1,2-16.1,5c-12.5,7.4-22.5,4.8-26-8.4
		c-2.7-10.5-8.8-12.8-18.5-12.6c-10.9,0.2-22.3-5.1-32.4,4.3c-3.5,3.2-8.8-1.5-12.9-3.8c-16.9-9.6-21.5-8.8-30.6,6.8
		c-3.7,6.4-8.5,9.7-16.1,8.9c-14.8-1.6-30,0.7-42.9-10.7c-6.6-5.8-17.4-4.7-25.1,2.3c-9.1,8.2-19.2,9.5-30.4,4.4
		c-6.6-3.1-13.3-5.1-20.8-2.7c-4,1.3-8.2,1-9.9-3c-6.8-16.4-26.7-18.8-37.9-31.2c-6.6-7.3-18.8,3.9-29.6,0.8c-3.3-1-4,8.2,0.7,11.8
		c5.5,4.3,11.5,8.1,17.7,11.5c11.8,6.4,16.6,17.3,12.3,29.2c-1.2,3.3-3.2,5.6-6.9,6c-4.3,0.5-7-1.4-9.2-5
		c-9.6-16.1-21.8-28.6-44-26.7c-8.3,0.7-12.2-2.6-15.8-10.2c-5.4-11.3-14.7-20.7-24.9-29c-4.6-3.7-8.6-2.4-13.2-0.5
		c-22.1,9.1-42.4,3.6-61.2-8c-9.5-5.9-13.2,1.2-17.9,5.3c-11.7,10.1-42.1,15.4-56.2,9.2c-0.9-0.4-2.3-0.5-2.6-1.1
		c-6.3-15.5-23.3-16.6-35.8-23.8c-4.1-2.3-7.2-4.4-11.6-2.1c-3.5,1.8-5.9,4.7-6,8.6c-0.2,4.9,3,7.3,7.5,8.6
		c5.9,1.7,10.9,5.1,17.9,4.2c11.6-1.5,18.6,6.8,24.5,13.9c5.7,6.8,0.2,16.2-9,16.4c-9.5,0.2-18.8,3.9-28.6,0.9
		c-6.7-2-11.7,1.2-16.2,6.2c-6.3,6.9-13.8,10.7-24.1,5.6c-6.5-3.2-14.2-1.1-21.4-1.6c-8-0.6-14.5-2.2-7-11.2
		c2.7-3.3,3.9-6.7-0.9-8.9c-5.1-2.3-10.5-0.9-11.5,4.3c-1.4,7.4-4.5,15.2-1.5,22.5c3.3,8.3,1.3,12-8.1,12.3
		c-3.9,0.1-8.4,0.1-9.7,4.3c-1.4,4.2,2.4,6.3,5.7,8.4c11.8,7.4,7.2,17.1,3.8,26.3c-3.8,10.2-12.1,9.3-21.3,6.9
		c-13.3-3.6-20.6-12.9-26.5-23.3c-3-5.3-5.9-9.1-12.8-8.9c-27.7,0.6-50.2-13-71.3-26.3c-21.8-13.8-44.9-18-69.6-16.5
		c-13.6,0.9-26.7-0.4-40-1.4c-14.2-1-19.3,4.4-15,16.8c1.4,4.1,1.7,7.8-2.8,9c-22.6,6.2-19.5,25.3-23.5,40.6
		c-1.7,6.4,0.7,15.7-5.9,18.5c-9.6,4.1-20.9,4.9-31.6,6.4c-2.3,0.3-7.3-2.7-7.1-3.4c2.5-10.5-6.7-21.8,0.9-31.1
		c7.1-8.6,10.2-17.8,4.2-26c-6-8.2-17.2-12.9-27.5-15.3c-7.4-1.7-12.8,3.3-10.5,11.7c1.9,6.9-1.4,10.3-8.1,8.1
		c-20.8-6.9-42.9-10.8-54.8-32.8c-8.4-15.6-23.9-18.8-41.7-14c-3.4,0.9-6.5,1.2-9.9,0.2c-10.3-2.9-15.8,1-16.8,10.7
		c-0.9,8.9-6.7,11.5-15.6,12.6c-20.8,2.5-41.7,5.5-57.6,20.5c-5.3,5-11.2,4.6-16-1.4c-2-2.5-4.6-4.7-6.3-7.4
		c-17.9-28-45.9-25.2-73.9-20.5c-9,1.5-17.8,3.4-27,3.2c-4.3-0.1-8.8-0.2-13,0.5c-8.2,1.5-15.4,11.3-23.9,5.8
		c-11-7.1-23.6-12.8-31-24.6c-4.2-6.7-7.1-12,1.9-16.7c3.3-1.7,5.9-4.5,4.8-7.5c-3.8-10.1-2.4-22.1-6.9-30.5
		C858.6,384,849,370,839.8,356c-6.8-10.4-21.4-10.9-30.8-18.8c-4.5-3.8-10.3-6.3-13.5-11.5c13.7-12.5,7.8-25.4,0.6-38
		c-9.9-17.5-9.6-21.1,5.6-35.3c2.7,3,4.9,6.7,8.2,9c7.4,5.1,16.2,1.5,17-6.5c1.7-17.7,12.9-30.5,27.9-38.9c10.7-5.9,19-12.1,25.6-22
		c8.6-13,16.8-14.4,33.2-7.9c5.5,2.2,10.4,0.2,13.3-2.7c15.5-15.7,36.8-10.1,55.4-13.8c4.1-0.8,11.5-2.5,12.8,2.5
		c1.6,5.7-6,7.4-10.3,9.4c-14.4,6.6-30.4,7.6-42.2,22.3c-8.1,10.1-16,17.9-18.4,31.1c-1.9,10.3,3.3,16.9,6.5,25.2
		c4.7,12.4,12.8,10.7,22.6,7.1c1.7-0.6,4.9,0.6,6.5,1.9c5.9,4.9,13.1,7.1,20.2,10c17,6.8,17.7,10,8.4,25.2c-1.4,2.3-4,5.1-3.5,7.2
		c2.9,14.5,2.5,26.3-18.7,24.7c-4,18-16,11.2-29.5,12c-16.2,0.9-36.7,6.5-42.1,28.5c-3.7,14.9-0.7,20.9,15.8,19.8
		c6.7-0.5,14.4-1.9,16.8,6.4c2.2,7.5-5.7,8.1-10.2,10.9c-1.6,1-3.5,1.6-5.1,2.5c-2.9,1.6-6.3,3.2-5.1,7.2c1.3,4.3,5.2,5.3,9.2,4.5
		c6.6-1.3,13-2.7,19.8-0.3c13,4.7,24.9,1.3,36-5.4c3.7-2.2,7.7-5,12-2.7c17.4,8.9,36.1,6.1,54.7,6.6c22.7,0.6,27.7-2.6,31.8-24.1
		c0.5-2.9,0.6-8.3,4.8-6.2c8.7,4.5,23.6-4.1,27,11.6c0.8,3.5,5.6,5,9.2,1.2c3.7-3.9,8.6-5.7,13.5-7.4c4.4-1.6,6.1-4.7,3.9-8.6
		c-3.5-6.3-3.1-13.1-4.1-19.7c-1.3-8.2-12.4-15.1-6.7-23.6c4.9-7.4,16.6-7.8,23.7-14.1c5.1-4.5,12.8-5.4,19.1-2.5
		c32.2,14.8,60,34.9,81,62.2c5.1,6.6,8.5,8.3,13.7,1c3-4.1,5.8-8.2,8.8-12.3c2.1-2.9,3.4-7.5,0.3-8.4c-10.2-2.9-14.8-15.1-23.4-15.9
		c-24.4-2.5-28.7-24.4-43.7-35.7c-4.6-3.4-4.4-10.5-0.9-15.1c5.1-6.7,8.7,1.3,13.1,2.1c11,2.1,20.3,15,33.9,4.1
		c4.3-3.5,8.1,2.4,8.2,6.3c0.2,9.7,7,13.8,14.4,18.4c4.5,2.8,8.3,7.7,13.1,1.9c3.9-4.8,3.1-10.6-2.4-14.3c-9.4-6.2-7.3-12.2-1-19.1
		c4.5-4.9,7.1-10.8,4.6-17.5c-2.1-5.8-12.3-10.7-4.5-17.4c5.6-4.9,7.7-12.4,15.5-15.5c7.2-2.9,9.6-9.3,11.5-16.2
		c2.2-8.4-1-13-9.6-12.1c-17.6,1.8-19.2-7.2-17-19.7c4.5,0.9,9,5.4,13.7,0.3c3.1-0.1,6.2-0.2,9.2-0.3c1.9,2.8,4.9,3.3,8.2,3.2
		c2.3,1.8,4.6,3.6,6.9,5.5c2.6,10.6,6.9,14.2,14.9,3.3c3.4-4.7,9.4-7.7,10.4-13.9c20.1-2.2,40.6,3.3,60.6-2.2
		c-4,10.1-12.5,9.1-21.5,8c-11.2-1.3-25.3-2.3-28.9,8.9c-3.3,10.3-5.8,22.1-1.9,34.2c4.4,14,7.1,28.2,13.6,41.9
		c5.2,11,10.7,21.9,16.2,32.7c2.4,4.8,3.9,9.9-0.6,13.7c-4.7,4-8.9-0.1-12.8-2.5c-3.6-2.2-7-4.8-10.7-6.8c-4.2-2.3-8.3-4.1-13.4-0.9
		c-4.9,3.1-4.8,6.7-4.3,11.6c0.7,7.1,0.6,14.4-0.5,21.4c-2.4,15.4,2.3,23.3,18.4,25.9c18.2,3,35.1,12.1,48.7,20.7
		c13.7,8.6,24.5,7.8,37.8,7.9c23.7,0.1,47-7.3,71.2-1.6c16,3.7,32.5,7.4,49.5,5.8c5.5-0.5,11.2,1.7,14.1,5.7
		c9.9,13.5,17.3,8.3,26.6-1.1c9.5-9.5,19-18,35.5-19.5c14.5-1.3,32.9-4.9,42.5-12.8c11.4-9.4,21.3-13.2,35-13.3
		c8.4,0,10.1-3.5,5.1-10.2c-12.5-16.6-23.4-35.1-50.6-30.4c-1.3,0.2-2.9-0.4-4.2-0.9c-3.7-1.6-7-3.9-6.6-8c0.5-4.5,5.2-5.7,8.7-5.5
		c6.9,0.4,13.1-0.3,19.3-3.3c3.7-1.8,7.5,0.1,10.2,3.2c11,12.5,27.7,18.5,39.5,30.1c3.7,3.6,8.4,4.4,13.2,1.8
		c4.2-2.3,5.8-5.7,4.4-10.3c-1.1-3.5-1.8-7.5,0.4-10.5c8.2-11.3,2-16.8-8.7-21.7c-10.6-4.9-15.8-15.7-13-24.2
		c4.1-12.5,4.5-24.3,3-36.8c7.8,1,13.6-3.9,20.3-5.9c5.9-1.8,13.8-5,16.9,1.5c6.1,12.5,16,12.6,27.3,9.7c14.5-3.7,29.7,3.4,43.8-2.7
		c9.7-4.2,15.8-3,20.3,7.1c5.5,12,16,12.6,25.5,2.4c3.4-3.8,6.9-9.5,12.1-8.6c18.2,3.3,35.8-4.8,54-1.5c12.3,2.2,30.9-6.5,34.3-14.9
		c0.9-0.3,1.8-0.6,2.8-0.9c1.9,0,3.8-0.1,5.8-0.1c4,3.6,6.9,2.9,8.7-1.9c3.9-0.2,7.9-0.4,11.8-0.7c3.3,3.5,7.5,2.9,11.6,2.3
		c10.8-3.2,21.2-4.6,29,5.8c-24.4-2.7-24.3-2.7-19,15.4c0.1,0.5-1.1,1.3-1.8,2.1c-1.2-0.3-2.7-0.5-3.9-1.1
		c-19.1-9.5-19-9.5-28.8,7.2c-0.9,1.5-2.4,2.9-4,3.6c-11.1,4.8-12.9,15.5-16.8,24.2c-5.3,12,10.9,39.8,23.7,39.8
		c12.3,0,25.6,2.1,36.7-0.9c15.3-4.2,24.9,1,32.3,10.6c5.6,7.1,13,11.6,19.6,17.1c4.1,3.4,9.1,8.4,14.8,2.9
		c4.9-4.8,6.5-11.2,2.7-17.4c-1.6-2.6-4.5-4.6-7.3-6.3c-5.7-3.6-9-8-7.5-14.7c1.4-6,7.1-6.9,12.1-8.1c8.5-2,17-1.2,25.7,0.2
		c11.3,1.8,20.4-5,25.7-12c4.9-6.5-7.4-6.9-10.6-11.4c-1.9-2.6-3.9-5.1-5.7-7.7c-9.6-14.1-25.4-19.4-42-13.4
		c-4.1,1.5-7.5,2.3-10.5-0.8c-7.1-7.4-16.8-10-26.3-13.3c-4.6-1.6-10.7-3.6-6.4-10.4c4,1.8,8.1,3.2,12.5,1.6
		c9.9-3.5,17.2-2,22.5,7.6c2.4,4.2,8.2,7,13.7,6.2c22.7-3.1,39.1,7.5,54.4,20.8c9.7,8.5,30.7,7.4,38.8-2.2c4.7-5.6,10-8.2,17.4-6.4
		c3.7,0.9,8,2.6,11.1,0.2c10.4-7.8,22.7-5.8,34.5-6.8c2.1,0.2,4.2,0.4,6.3,0.6c7.4,7.8,16.3,13.7,27.1,16c9,1.9,13.7,6.7,17.1,14.2
		c3.4,7.5,3.9,16.9,13.4,21.1c4.8,4.5,9.6,9.1,14.4,13.6c4.7,11.6,1.5,24.1,5.1,35.9c2.8,9.3,7.2,14.1,18.5,11.3
		c10.6-2.6,18.9,4.4,28.3,7c0.6,3,2.5,4.7,5.7,5C2408.1,406.7,2413,412.3,2417.8,417.8z M2298.5,403.6c12,1.1,18.8-1.5,21.3-8.8
		c6.7-19.9,19.9-40.1-1.1-59.7c-1.6-1.5-3.2-3.7-3.6-5.7c-2.8-14.2-14-21.8-25.4-29.5c-8.6-5.8-17.6-10.4-27.4-2.7
		c-9.8,7.7-17.3,15.4-11.8,29.9c5.2,13.5,15.2,25,17.7,39.5c0.4,2.6,2.7,5.4,0.3,7.6c-2.9,2.7-5.1-0.3-7.3-1.7
		c-9.6-5.6-16.4-5.7-17,7.3c-0.1,2.2-0.6,4.7-1.9,6.3c-3.4,4.2-10,8.9-2.8,13.2c8,4.8,16.1,15.6,26.2,10.1
		C2277.9,402.8,2289.3,400.8,2298.5,403.6z M1246.5,420.3c-1.5-3.4-0.8-9.7-8-9.7c-5,0-5.8,4.1-4.4,7.8c1.5,4.2-1,11,6.6,11.5
		C1246.7,430.3,1246.2,425.2,1246.5,420.3z"/>
	<path id="XMLID_222_" class="st2" d="M1247.7,633c-19.8,2.6-38.8-4.4-58.4-8.5c-18.3-3.8-37.2-2.2-55.7-0.4
		c-9.4,0.9-17.3,0.1-26.3-3.6c-15.7-6.5-33.2-5.3-49.3-0.6c-34.4,10-68,12.7-102.7,0.4c-13.9-4.9-26-13.6-40.8-16.1
		c-29.5-5.1-58.4-2.8-85.7,9.1c-8.4,3.7-16.6,5.2-25.1,3.2c-18-4.4-36.2-5.3-54.4-4.4c-21.1,1.1-42-3-63.2-0.5
		c-8.5,1-17.2-1.3-22.2-9.7c-4.2-7.1-10-8-16.4-2.4c-7.7,6.8-12.6,4.6-15.8-4c-0.2-0.4-0.4-0.8-0.6-1.2
		c-12.9-22.3-14.4-23.1-41.8-20.7c-11,1-19.4-6.8-22.1-20.4c-2.3-11.7,5.7-15,15.5-16.7c6.6-1.1,13.6-1.2,18.6-6.1
		c2.6-2.6,6.6-5.9,4.8-9.2c-8.4-14.9,4.7-9.9,11.6-12.3c23.5-8.2,48.5-4.2,69.4,1.9c33.6,9.8,70.7,8.7,101.3,28.5
		c8.6,5.6,21.1,5.1,32.3,5.1c45.3-0.1,90.6-0.2,135.9,0c34.6,0.2,68.1,8.6,102.2,11.8c20.3,1.9,40.8,5.4,61.3,0.1
		c6-1.5,12.4-2.2,14.2,4.9c10.3,40.3,46.9,42.5,80.5,47.5c24.2,3.6,48.3,7.6,72.3,12c3.4,0.6,8.9,0.7,9,5.2c0.1,4.8-5.2,4.1-8.8,4.7
		C1274.5,633,1261.6,633.9,1247.7,633z"/>
	<path id="XMLID_221_" class="st2" d="M2010,635.7c-6.8,2.8-13.6,5.5-20.5,8.3c-21.3,15.7-47.5,13.1-72,16.4
		c-3.8-0.1-7.6-0.3-11.4-0.4c-13.7-8.5-37.2-7-46.4,2.9c-2,0.1-3.9,0.2-5.9,0.3c-5.9-1.9-71.6-3.1-76.7-1.4
		c-17.8,5.9-18.5,10.8-9.3,25.1c8.7,13.5,19.8,18.6,35.8,16.7c3.8-0.4,7.8-0.2,11.5,0.5c3.6,0.7,8.5,1.4,7.6,6.3
		c-0.7,3.9-4.3,6-8.5,5.9c-10-0.2-19.3,2.7-30.1-1.2c-12-4.3-26.2-2.2-37.4,6.2c-3.6,2.7-7.8,3-11.9,4.3c-12,3.8-26.7-2.9-37,9.2
		c-2.6,3.1-9.4,0.7-10.7-5.1c-4.1-17,14.9-33.1,33.4-28.2c1.4,0.4,2.7,1.1,4.1,1.1c3.8-0.1,6-3.9,4.5-5.3c-8.9-8.7,15.8-18.9-1-25.8
		c-9.8-4-17.6-8.8-21.7-17.9c-2.6-5.7-7-6.8-12.7-6.3c-17.9,1.5-34-3.2-50.9-9c-17.3-6-37.1-2.5-55.8-1.2
		c-5.3,0.4-10.5,1.6-15.7,1.7c-28.7,0.6-36-4.5-44.3-30c-2-6.1,0.2-7.2,6.2-6.2c9.4,1.6,18.9,3.1,28.5,3.9c6,0.5,12.6-1.1,12.9-7.9
		c0.3-6.1-5.7-7.3-11.3-8.1c-43.5-6.4-87.1-9.8-131.1-5.6c-14.8,1.4-29.4-3.4-44.4-1.9c-5.4,0.5-11.8-2.6-12.7-9
		c-0.7-5.8,5.3-7.2,9.6-8.5c22-7,44.2-11.9,67.9-13.3c43-2.6,84.1,5.7,123.9,17.8c16.7,5,36.7,7.5,49.1,23.1
		c4.4,5.5,13.9,7.6,21.2,7.2c17-1.1,31,5.1,44.4,13.1c6.6,4,12.7,3.9,20.4,2.2c27.8-6.2,55.9-12.8,84.9-7.4
		c8.9,1.6,16.8,1.4,24.8-3.4c14-8.2,30.1-8.7,46-8.8c9.4,0,17.5-2.1,26.1-5.9c17.5-7.7,34.1-10.2,54.5-1.5
		c24.1,10.3,50.7,4.9,75.1-6.1c18.7-8.4,36.1-20,59.9-9.8c11.1,4.7,24.5,7.4,37,10.3c4.6,1.1,9.8,2.5,10.6,7.9
		c0.7,4.9-5.2,4.5-7.5,7c-12.2,12.6-26.8,13.1-44.3,12.7c-17.2-0.5-37.6-3.5-51.7,13.4C2023.1,628.1,2011.8,626.7,2010,635.7z"/>
	<path id="XMLID_220_" class="st2" d="M280.6,417.2c3,0.1,6,0.3,8.9,0.4c3.8,9.8,13.2,13.5,22,17.9c4.2,2.1,9,3.2,13.2,5.3
		c20.5,10.4,21.1,19.4,1.2,30.3c-12.7,7-3.9,11.7,1.7,15.6c13.3,9.2,19.2,31.8,11.3,44c-2.9,4.4-6.8,6.1-11.4,7.3
		c-17,4.3-34,5.7-51.1,0.1c-9.6-3.2-19-3.1-27.3,3.3c-6.8,5.3-14.7,5.9-23.1,5.7c-6.3-0.2-11.7-1-11.9-8.4c-0.1-3.2-1-7.3-4.4-7.8
		c-9.9-1.6-16.9-9-24.5-11.9c-17.1-6.4-10.4-17.4-7.7-24.4c6.3-16.2,4.9-34.9,18-48.9c2.4-2.6,0.4-6.3-2.9-8
		c-9.4-4.9-10.8-13.4-13.9-22.1c-8-22.1-28.6-34.1-48-46.7c-1.1-1.8-2.2-3.7-3.3-5.5c0.8-7.3,6.9-11.5,11.2-16.8
		c1.9-2.3,3.5-4.5,6.9-3.3c3.2,1.1,3.9,3.6,3.6,6.5c-1.4,12,6.2,16.3,17.2,19.1c14,3.5,24.5,10.7,28.3,25.3
		c2.3,8.6,8.4,17.7,19.5,17.2C236.7,410.2,258.8,412,280.6,417.2z"/>
	<path id="XMLID_219_" class="st2" d="M1941.9,683c13.2,1.5,24.7,0.7,33.2-9.3c2.8-3.2,9.4-4.2,11.7-0.8
		c10.3,14.8,30.8,10.7,43.2,21.4c1.9,1.7,6.9,1.7,9.7,0.7c23.6-8.5,49.8-3.3,73.4-12c10-3.7,17.9,4.7,27.8,4.7c23-0.1,46,1.5,69,2.5
		c3.1,0.1,7.9-1.1,8.6,2.9c0.8,4.8-4.6,4.9-7.9,6c-9.3,3.1-19.1,1.5-28.6,1.7c-7.2,0.2-14.4-0.1-21.4,2.3c-9.4,3.2-13.5,8-8.5,17.4
		c2.7,5.2,4.6,10.9,6.3,16.5c3.7,12.6-2.5,18.8-15.3,23.9c-25.5,10.2-51.3,8.1-77.6,5.9c-6-0.5-12.5,1-18.4,2.5
		c-6.1,1.6-12.3,1.5-16.6-1.8c-8.8-6.9-19.3-7.7-29.6-8.6c-10.7-1-19.3-3.9-25.1-12.9c-2.1-3.3-5.7-6-10.4-6.7
		c-16.6-2.4-19.4-8.6-8.1-22.3c8.3-10,4.8-17.3-2.7-24.8C1951.4,688.8,1944.7,691,1941.9,683z"/>
	<path id="XMLID_218_" class="st0" d="M1906.1,660c3.8,0.1,7.6,0.3,11.4,0.4c-0.2,4.5,0,8.6-6.2,10.6c-28.3,9.2-57.2,13.3-87.1,10.9
		c-5-0.4-10.5-1.4-11.3-6.4c-0.9-5.6,5.7-4.7,9.1-6.5c9.9-5.3,22-0.4,31.9-5.9c2-0.1,3.9-0.2,5.9-0.3c8.9-2.2,17.7-3,26.9-0.5
		C1893.1,664.1,1900,663.5,1906.1,660z"/>
	<path id="XMLID_217_" class="st0" d="M2403.3,401.2c-3.2-0.3-5.1-2-5.7-5C2401,396.4,2402.8,398.1,2403.3,401.2z"/>
	<path id="XMLID_214_" class="st3" d="M1276.1,209.2c-2.2,12.5-0.6,21.5,17,19.7c8.6-0.9,11.8,3.7,9.6,12.1
		c-1.8,6.9-4.3,13.3-11.5,16.2c-7.8,3.1-9.8,10.7-15.5,15.5c-7.8,6.8,2.3,11.7,4.5,17.4c2.5,6.7-0.1,12.6-4.6,17.5
		c-6.3,6.9-8.3,12.9,1,19.1c5.5,3.7,6.3,9.5,2.4,14.3c-4.8,5.9-8.6,0.9-13.1-1.9c-7.5-4.6-14.3-8.7-14.4-18.4
		c-0.1-3.9-3.8-9.8-8.2-6.3c-13.6,10.9-22.8-2-33.9-4.1c-4.4-0.9-8.1-8.8-13.1-2.1c-3.5,4.6-3.7,11.6,0.9,15.1
		c15,11.3,19.3,33.2,43.7,35.7c8.6,0.9,13.1,13,23.4,15.9c3.1,0.9,1.8,5.5-0.3,8.4c-3,4.1-5.8,8.2-8.8,12.3c-5.2,7.2-8.6,5.6-13.7-1
		c-21-27.3-48.8-47.4-81-62.2c-6.4-2.9-14-2-19.1,2.5c-7.2,6.3-18.8,6.7-23.7,14.1c-5.7,8.6,5.4,15.4,6.7,23.6
		c1,6.6,0.7,13.4,4.1,19.7c2.2,3.9,0.4,7-3.9,8.6c-5,1.8-9.9,3.5-13.5,7.4c-3.6,3.9-8.5,2.3-9.2-1.2c-3.4-15.7-18.3-7.1-27-11.6
		c-4.2-2.2-4.2,3.3-4.8,6.2c-4,21.5-9.1,24.7-31.8,24.1c-18.5-0.5-37.3,2.4-54.7-6.6c-4.3-2.2-8.3,0.5-12,2.7
		c-11.1,6.7-23,10-36,5.4c-6.8-2.4-13.2-1-19.8,0.3c-4,0.8-7.9-0.2-9.2-4.5c-1.2-3.9,2.1-5.6,5.1-7.2c1.7-0.9,3.5-1.5,5.1-2.5
		c4.5-2.8,12.4-3.3,10.2-10.9c-2.4-8.2-10.2-6.9-16.8-6.4c-16.5,1.2-19.4-4.8-15.8-19.8c5.4-22,25.8-27.6,42.1-28.5
		c13.6-0.8,25.5,6,29.5-12c21.2,1.7,21.7-10.1,18.7-24.7c-0.4-2.1,2.1-4.9,3.5-7.2c9.3-15.1,8.5-18.3-8.4-25.2
		c-7.1-2.8-14.3-5-20.2-10c-1.6-1.3-4.8-2.5-6.5-1.9c-9.9,3.6-17.9,5.3-22.6-7.1c-3.2-8.3-8.4-14.9-6.5-25.2
		c2.4-13.2,10.3-21,18.4-31.1c11.7-14.6,27.7-15.7,42.2-22.3c4.3-2,11.9-3.6,10.3-9.4c-1.4-5-8.7-3.4-12.8-2.5
		c-18.6,3.7-39.9-1.9-55.4,13.8c-2.9,2.9-7.8,4.9-13.3,2.7c-16.4-6.5-24.5-5.1-33.2,7.9c-6.6,9.9-14.9,16-25.6,22
		c-15,8.3-26.2,21.2-27.9,38.9c-0.8,8-9.6,11.7-17,6.5c-3.3-2.3-5.5-6-8.2-9c-15.2,14.2-15.6,17.9-5.6,35.3
		c7.2,12.6,13.1,25.6-0.6,38c-12.2-0.2-17.4-5.5-17.8-17.3c-0.5-13.6-8.9-25-16-36.5c-2.6-4.2-7.2-5.5-12.3-5.3
		c-5.1-3.3-9.8-8-15.5-9.6c-11.2-3.2-15.4-10.8-16-20.1c-0.3-5.8-6.8-13.8,0.3-17.2c6.8-3.2,15.2,1.6,20.8,6.6
		c11.9,10.6,23.5,17.7,37.9,3.7c0.9-0.8,2.7-0.8,4.1-1.1c23.2-4.3,23.2-4.3,23.2-25.9c0-7.6,0-15.3,0-22.9c0-4.5,0.6-8.7,3.7-12.7
		c19.9-25.8,19.8-25.8,25-52.4c1-0.9,2-1.7,3-2.6c11.5,1.5,12.5-5.1,11.7-13.1c10.4-1.6,18.1-11.6,28.8-10.1
		c9.6,1.4,19.7,4,28.5,6.9c22.2,7.5,45.6,8.1,67.8,15.2c21.5,6.9,43.1,12.4,61.8,25.2c6.1,4.2,13.6,7.8,21.4,3.5
		c7.8-4.3,15.1-9.2,22.1-14.8c29.1-23.3,55-36.9,90.8-6.5c2.5,2.1,4.8,4.8,8.6,1.9c2.6,0.2,5.2,0.3,7.8,0.5
		c8.3,4.8,15.3,15.3,26.8,5.1c2.8,0.1,5.6,0.1,8.3,0.2c3.4,6.4,10.7,8.6,16.1,12.8c6.8,5.4,17.2,8.9,18.2,17.8
		c1.5,13.3,7.2,12.6,17.9,8.4c12.1-4.8,17.8-0.1,18.3,11.9c0.5,13.7-10.1,16.7-21.8,20C1271.5,201.8,1273.8,205.5,1276.1,209.2z
		 M1013.6,273.9c-6.8,0.2-12.2-4.1-14.9,2.4c-1.6,3.9-1.3,8.1,1.5,11.6c5.5,6.8,14.9,7.5,22.3,11.3c5,2.5,4.5-6.6,8.3-9
		c4.1-2.6,8.2-5.1,4.3-10.6c-3.4-4.9-7.4-8.2-14.2-7C1017.7,273.1,1014.4,273.7,1013.6,273.9z"/>
	<path id="XMLID_209_" class="st1" d="M832.7,115c-5.2,26.6-5.1,26.6-25,52.4c-3.1,4-3.7,8.2-3.7,12.7c0,7.6,0,15.3,0,22.9
		c0,21.6,0,21.6-23.2,25.9c-1.4,0.3-3.3,0.3-4.1,1.1c-14.4,14-26,6.9-37.9-3.7c-5.6-5-14-9.7-20.8-6.6c-7.1,3.3-0.6,11.4-0.3,17.2
		c0.5,9.3,4.8,16.9,16,20.1c5.7,1.7,10.3,6.3,15.5,9.6c-0.5,6.1,0.8,11.8,5.2,16.4c14,14.4,20,29.7,7.7,47.8
		c-3.4,5.1-3.6,10.6-2.4,16.8c1.9,9.5-14.6,21.9-25,22.4c-22.9,1-44.3-4.9-66-9.6c-8.3-1.8-15.3-5.2-20.5-11.6
		c-4-4.8-7.6-9.1,0.4-14.4c8.9-5.9,4.4-13.2,0.8-20.3c-3.5-6.9-7.7-8.2-14.8-4.6c-6.9,3.5-7.7-2.2-9.6-6.3
		c-7.5-16.7-23.3-25.5-39-33.3c-9.4-4.6-21.4-4.1-31-10c-3.3-2-7.5-2-10.5,1.2c-2.5,2.6-2.9,5.5-1,8.7c5,8.7,0.8,10.8-7.8,8.8
		c-13.3-3.1-17.4,3.1-18,14.1c-0.7,13.2-1.4,26.5-20.1,29.5c-4.8,0.8-5.5,5.5-5.8,9.8c-1.3,15.9,12.6,33.3,29.5,36.8
		c7.2,1.5,19,0.9,18,9.4c-1,8.8-2.8,21.2-17.1,23.1c-4.5,0.6-6.4,3.2-8.4,6.4c-3.5,5.5-8.1,10.7-14.5,12.7
		c-12.7,3.9-12.1,11.9-7.1,20.1c5.1,8.5,11.1,16.4,3,25.5c-8.2,9.2-20.2,6.4-29.7,4.5c-13.3-2.7-26.5-7.8-38.6-13.9
		c-15.7-7.9-17.4-29.1-4.6-40.8c8.2-7.5,6.2-17.7-5.3-18.7c-15.1-1.4-23.4-8.8-29.6-20.2c-1.2-2.2-4.4-5.4-6.1-5.2
		c-21.4,3.2-40-19.6-62.5-5.7c-2.3,1.4-5.5,1.5-8.3,2c-4.3,0.8-7.6-1-9.8-4.3c-2.8-4.3,0.5-6.6,3.9-8.6c8.5-5.1,8.4-9.4-0.1-15
		c-6.4-4.2-8.9-13-20.4-10.4c-5.6,1.2-14.5-19.5-9.5-23.4c7.9-6.2,5.4-10.2-0.4-15.1c-3.7-3.1-4.7-6.6-1.9-10.8
		c9.6-0.9,19.3-1.8,28.9-2.7c1.1,1.9-0.7,8.1,4.8,3.5c1.8-1.5,1-5.9,1.1-9c0.6-25.7,0.6-25.7,25.6-32.3c2,1,3.9,1.9,5.9,2.9
		c8.1,13.5,12.3,2.3,17.6-2.3c2.1-0.2,4.1-0.3,6.2-0.5c11.3,0.9,20.1,8.3,31,10.3c9.4,3.1,17.7,7.3,21.4,16.8c1.2,3,4.4,4.3,7.8,4.9
		c9.2,14,35.7,21.5,45.4,10.5c8.6-9.7,17.6-18.3,26.8-27c9.1-8.7,16.9-26.1,10-43.3c-6.3-15.6,1.2-22.5,19-21.6
		c10.1,0.5,13.5,6.9,17.8,13.6c5.2,8.2,7.1,8.3,13.6,2.4c2.1-3.4,4.2-6.7,6.3-10.1c5.8-0.1,11.6-0.2,17.5-0.3
		c16.9,11,19.3,11.1,40-3.6c9.3-6.6,16.6-8.5,28.3-2.7c9.3,4.7,22.3,7.8,32.8-1.4c2.9,0.2,5.8,0.4,8.7,0.5
		c2.5,4.3,2.4,14.2,11.3,4.5c7.8-2,15.7-4,23.5-6c7.6,5.2,15.4,10.2,22.8,15.7c7.9,5.9,13.8,2.1,17.9-3.8
		c5.2-7.4,14.4-17.2,7.5-24.3c-6-6.1-8.4-13.5-13.9-19.3c4.9-14.9,15-21.6,32.3-19.5c14.5,1.7,23.1-6.3,28-18.4c0,0,0.6-0.6,0.6-0.6
		C823.3,116.6,828,115.8,832.7,115z M480.3,396.9c0.5,4.2-1.5,9.7,3.9,13c2.3,1.4,4.7,0.4,6.5-1.2c7.2-6.5,14.5-13,21.2-19.8
		c3.4-3.5,3.9-8.2,1.6-12.6c-2.6-4.9-7.7-4.7-12.5-4.6C489.8,372,480.5,383.2,480.3,396.9z M453.1,380.1c-5.2,0.2-10.4,0.4-15.6,0.8
		c-4.8,0.3-8.7,2.1-8.7,7c-0.1,5.7,3.6,8.2,9.4,6.9c6.4-1.4,9.5,1.8,12.5,6.4c7,10.6,12.4,10.5,19.5,0.2c2.4-3.5,5.7-7.5,1.5-10.7
		C466.2,386.4,462.2,379.1,453.1,380.1z M618,223c10.1-2.8,20.7-5.4,31-8.7c5.9-1.9,3.1-5.2,0.5-8.3c-8.9-10.3-23.3-8.9-37.3,3.7
		c-2.8,2.5-6.2,5.3-4.6,9.1C609.1,222.6,613.6,222.8,618,223z"/>
	<path id="XMLID_208_" class="st3" d="M1735.4,258.3c1.5,12.4,1.1,24.2-3,36.8c-2.8,8.5,2.4,19.3,13,24.2
		c10.7,4.9,16.9,10.4,8.7,21.7c-2.2,3.1-1.4,7-0.4,10.5c1.4,4.6-0.2,8-4.4,10.3c-4.8,2.6-9.5,1.8-13.2-1.8
		c-11.8-11.6-28.5-17.6-39.5-30.1c-2.7-3.1-6.5-5-10.2-3.2c-6.2,3-12.4,3.7-19.3,3.3c-3.5-0.2-8.3,1-8.7,5.5c-0.4,4.1,2.9,6.4,6.6,8
		c1.3,0.6,2.9,1.2,4.2,0.9c27.2-4.8,38.1,13.8,50.6,30.4c5,6.7,3.3,10.2-5.1,10.2c-13.8,0.1-23.6,3.9-35,13.3
		c-9.6,7.9-28,11.4-42.5,12.8c-16.5,1.5-26.1,10-35.5,19.5c-9.3,9.3-16.7,14.5-26.6,1.1c-3-4-8.7-6.2-14.1-5.7
		c-17,1.6-33.6-2-49.5-5.8c-24.3-5.7-47.5,1.8-71.2,1.6c-13.4-0.1-24.1,0.8-37.8-7.9c-13.6-8.5-30.5-17.7-48.7-20.7
		c-16.1-2.7-20.8-10.5-18.4-25.9c1.1-7,1.2-14.4,0.5-21.4c-0.5-4.9-0.6-8.5,4.3-11.6c5-3.2,9.2-1.4,13.4,0.9c3.7,2,7.1,4.6,10.7,6.8
		c3.9,2.4,8.1,6.6,12.8,2.5c4.5-3.9,3-9,0.6-13.7c-5.5-10.9-11-21.7-16.2-32.7c-6.5-13.7-9.1-27.9-13.6-41.9
		c-3.8-12.1-1.3-23.9,1.9-34.2c3.6-11.3,17.7-10.2,28.9-8.9c9,1,17.5,2.1,21.5-8c2.8,0,5.7,0,8.5,0c5.2,9.2,13.6,1.1,20.6,3.2
		c18.4,5.4,37.8,7.7,54.3,18c2.9,9.8,11.5,7.6,18.9,7.8c11.8,0.3,36.1,15.2,35,25.2c-2.4,21.8,21.6,22.8,28.9,36.4
		c1,1.9,4.5,2.4,6.2,0.1c5.1-7.1,12.8-4.7,19.7-4.9c17.6-0.4,33.9-8.1,45.4-17.4c14.9-12,23.3-30.8,37.1-44.8
		c4.8-0.1,9.6-0.2,14.4-0.3c4.7,5.8,6.3,12.4,6.2,19.6c-0.9,8.9,3.7,11.2,12.3,9.3C1716.9,255,1726.3,253.6,1735.4,258.3z"/>
	<path id="XMLID_207_" class="st1" d="M1674.7,228.5c-13.9,14-22.3,32.8-37.1,44.8c-11.5,9.3-27.8,17-45.4,17.4
		c-6.9,0.2-14.6-2.2-19.7,4.9c-1.7,2.3-5.2,1.8-6.2-0.1c-7.3-13.5-31.3-14.6-28.9-36.4c1.1-10-23.2-24.8-35-25.2
		c-7.4-0.2-16,2-18.9-7.8l0.8-0.7c5.6,2.6,11.2,2.6,16.8,0.1c6.7,1.1,13.3,2.2,20,3.2c5.6,9.8,12.6,9.3,20.5,2.4c2-0.1,4-0.2,6-0.3
		c24.3-0.8,47-14.4,72.2-8.3c0,0,0.6,0.5,0.5,0.5c-0.7,10,5.8,12,15,13.7c15.8,2.8,26.5-7.6,39.6-11.3
		C1674.8,226.5,1674.8,227.5,1674.7,228.5z"/>
	<path id="XMLID_206_" class="st4" d="M280.6,417.2c-21.8-5.2-43.9-7-66.5-5.9c-11.1,0.5-17.2-8.6-19.5-17.2
		c-3.8-14.7-14.3-21.8-28.3-25.3c-11.1-2.8-18.6-7.1-17.2-19.1c0.3-3-0.4-5.4-3.6-6.5c-3.4-1.2-5.1,1.1-6.9,3.3
		c-4.3,5.3-10.4,9.5-11.2,16.8c-10.2-3.6-21.2-20.8-18.7-29.9c1.6-5.9,6.2-6.9,12.4-5.8c13.2,2.4,19.2-3.2,17.8-15.5
		c-1.5-12.7,2-22.5,14.9-29.3c5.6-2.9,10.1-8.4,13.8-13.5c11.8-16.8,28.9-20.6,48.9-19.2c7.9,0.6,9.6,4.6,9.4,10.7
		c-14.1-7.2-39.5-0.7-47.9,12.3c-14.1,21.8-12.7,47.9,4.1,68.2c4.5,5.4,7.6,11,10.2,17.5c9.3,23.3,23.2,41.3,53.7,43.7
		C257.8,403.6,273.4,403.3,280.6,417.2z"/>
	<path id="XMLID_205_" class="st4" d="M422.2,272c-3.4-0.6-6.6-1.9-7.8-4.9c-3.7-9.6-12-13.7-21.4-16.8
		c-6.3-12.6-18.2-13.7-30.9-13.3c0.5-5.8,3.7-8.2,9.7-6.4c16.1,5,27.1,1.2,31.1-15.3c0.4-1.6,1.6-3.7,3.1-4.4
		c11.5-5.7,10.8-15.6,10.8-25.6c-0.1-18.6,3-20,22.1-15c19.6,5.1,38.6,9.6,60.1,2.1c13.1-4.6,29.9-0.4,45,0.8
		c5.5,0.4,8.4,5.8,10,10.6c1.6,4.8,3.1,9.4,7.2,12.9c-2.1,3.4-4.2,6.7-6.3,10.1c-9.1-4.3-11.4-13.9-18.3-20.2
		c-10.7-9.7-27.8-13.5-37.8-4.7c-10.6,9.3-22,9.2-34.6,9.1c-18.9-0.2-34.8,24-25.7,39.9c3.3,5.7,4.2,9.5-2.1,13.5
		c-7.1,4.5-9.8,11.1-7.7,18.8C430.2,268.7,428.8,271.8,422.2,272z"/>
	<path id="XMLID_204_" class="st0" d="M1674.7,228.5c0.1-1,0.1-2,0.2-3c2.7-1.7,5.5-3.4,8.2-5.1c3.1,0,6.1-0.1,9.2-0.1
		c6.1,3.7,11.9,8,19.7,8.3c1.4,6.8-3.6,16.9,4,19.7c12.2,4.6,26.6,6.4,38.3-1.9c10.5-7.5,17.8-8.4,27.9,1.4c6.9,6.7,17,8.3,29,4.1
		c20.8-7.2,42.8-8.5,63.1,3.6c0,6.6,2.3,14.3,10.1,8.6c11.1-8.1,25.8-9.9,35.6-19.6c3.2,0,6.3,0,9.5,0c5.8,8.5,14.8,4.6,22.7,5
		c2,0,3.9,0,5.9,0c2.9,0,5.7,0,8.6,0c3-0.1,5.9-0.2,8.9-0.3c3.2,0,4.9-1.6,5.4-4.4c3,0.1,6,0.2,9,0.3c-3.4,8.3-22,17.1-34.3,14.9
		c-18.2-3.3-35.8,4.8-54,1.5c-5.2-1-8.7,4.8-12.1,8.6c-9.4,10.3-20,9.7-25.5-2.4c-4.6-10.1-10.6-11.3-20.3-7.1
		c-14.1,6.1-29.3-1-43.8,2.7c-11.3,2.9-21.2,2.8-27.3-9.7c-3.2-6.5-11-3.3-16.9-1.5c-6.7,2-12.5,6.9-20.3,5.9
		c-9.1-4.6-18.5-3.3-27.9-1.1c-8.5,1.9-13.2-0.5-12.3-9.3c5.9-1.6,12-4.5,10-10.7c-2-6.2-7.5-11.1-16.2-8.9
		C1684.3,228.4,1679.5,228.5,1674.7,228.5z"/>
	<path id="XMLID_203_" class="st4" d="M2059.7,249.8c-7.7-10.4-18.1-9-29-5.8c-0.1-1.6-0.2-3.2-0.3-4.8c12.7-9.4,24.6-4.5,35.5,2.7
		c7.1,4.6,10.8,7.9,18.1-1.5c8.5-10.9,22.5-5.8,34.9-4.2c9.6,1.2,9.3,6.9,10.1,13.4c1.2,9.6,9.2,14.4,17.5,18.2
		c8.3,3.9,15.3,8.7,20.9,16c7.6,9.8,26.1,10.3,33.7,0.8c8.7-10.9,21.2-13.3,34-15.3c7.1-1.1,14.4-0.8,21.5-1.8
		c7.9-1.1,10.5,2.5,10.8,9c-11.8,1-24.1-0.9-34.5,6.8c-3.2,2.4-7.4,0.7-11.1-0.2c-7.4-1.8-12.7,0.8-17.4,6.4
		c-8.1,9.7-29.1,10.7-38.8,2.2c-15.4-13.3-31.7-23.9-54.4-20.8c-5.5,0.8-11.3-2-13.7-6.2c-5.3-9.5-12.6-11.1-22.5-7.6
		c-4.3,1.5-8.5,0.2-12.5-1.6C2061.5,253.6,2060.6,251.7,2059.7,249.8z"/>
	<path id="XMLID_202_" class="st4" d="M832.7,115c-4.7,0.8-9.4,1.6-14.2,2.5c14.9-32.2,53.3-36.5,85.6-29.9
		c27.2,5.6,53.1,18,82.1,15.2c1.8-0.2,4.3,0,5.5,1c12.1,10.1,27.2,14.9,41.4,21.4c14,6.4,35.5,4.1,42.3-9.7c3.9-7.9,9.9-9,17.2-11.8
		c19.5-7.5,38.8-6.7,59-4.1c14.6,1.9,18.3,12.8,25.5,21.1c-3.7,3-6.1,0.2-8.6-1.9c-35.8-30.4-61.7-16.8-90.8,6.5
		c-7,5.6-14.3,10.5-22.1,14.8c-7.8,4.3-15.3,0.7-21.4-3.5c-18.7-12.8-40.3-18.3-61.8-25.2c-22.2-7.1-45.6-7.8-67.8-15.2
		c-8.8-2.9-18.9-5.5-28.5-6.9c-10.6-1.5-18.4,8.5-28.8,10.1c-6.6,2.3-9,7.8-11.7,13.1C834.7,113.2,833.7,114.1,832.7,115z"/>
	<path id="XMLID_201_" class="st4" d="M723.3,187.6c-7.8,2-15.7,4-23.5,6c-2.9-0.7-4.9-2.2-5.5-5.1c12.5-9.4,20.9-24.2,39.8-25.4
		c6.9-0.4,9.6-7,12-12.3c7.5-16.3,18.9-26.2,39.6-23.5c12,1.5,20.6-9,32.3-9.2c-4.9,12.1-13.5,20.1-28,18.4
		c-17.3-2.1-27.4,4.6-32.3,19.5c-6.1,5.7,2,17.1-7.3,20.2C740.8,179.2,733.1,185.5,723.3,187.6z"/>
	<path id="XMLID_200_" class="st4" d="M1276.1,209.2c-2.3-3.7-4.6-7.4-7.3-11.7c11.7-3.3,22.3-6.3,21.8-20
		c-0.4-12-6.2-16.8-18.3-11.9c-10.7,4.2-16.4,5-17.9-8.4c-1-8.9-11.4-12.5-18.2-17.8c-5.4-4.2-12.7-6.4-16.1-12.8
		c19.8-0.1,31.6,12.7,42,25.2c6.2,7.4,11,10.2,20,6.8c10.2-3.9,14.1-0.5,13.8,9.5c-0.4,10.3,1.1,20.8-8,29
		c-5.3,4.8-2.5,8.8,1.9,12.5C1285.1,214.6,1280.6,210.1,1276.1,209.2z"/>
	<path id="XMLID_199_" class="st4" d="M679.7,188.6c-10.5,9.2-23.4,6-32.8,1.4c-11.7-5.8-19-3.9-28.3,2.7
		c-20.8,14.7-23.2,14.6-40,3.6c18.5,3.4,32.4-4.5,46.8-14.2c6.6-4.5,16.4-7.2,25.8,1.5C658.1,190,671,182,679.7,188.6z"/>
	<path id="XMLID_198_" class="st4" d="M2331.3,328.3c-9.5-4.2-10.1-13.6-13.4-21.1c-3.4-7.5-8.1-12.3-17.1-14.2
		c-10.8-2.3-19.7-8.3-27.1-16c10.4-5.3,19.6-1.6,27.9,4C2318.8,292.6,2328.7,308.5,2331.3,328.3z"/>
	<path id="XMLID_197_" class="st1" d="M1483.4,226.2c-16.5-10.3-35.9-12.7-54.3-18c-7-2.1-15.5,6-20.6-3.2c11.9-7.1,24.2,0.1,36.1-1
		c15.9-1.4,28.8,2.7,39,14c0.2,2.5,0.4,4.9,0.6,7.4L1483.4,226.2z"/>
	<path id="XMLID_196_" class="st4" d="M1619.7,222.7c-25.3-6.2-47.9,7.5-72.2,8.3c-0.1-8.5,7-10.3,13.4-11.2
		c15.1-2.1,30.4-3.3,45.7-4.5C1612.6,214.8,1618.1,216,1619.7,222.7z"/>
	<path id="XMLID_195_" class="st0" d="M332.4,240c-25,6.6-25,6.6-25.6,32.3c-0.1,3.1,0.7,7.4-1.1,9c-5.5,4.6-3.7-1.6-4.8-3.5
		c-0.3-4.8,1.1-9.9-2.8-14c-0.9-6.2-1.8-12.4-2.6-18.5c9.3-6.5,20.6-6.2,31.3-8.4C328.6,237.8,330.5,238.9,332.4,240z"/>
	<path id="XMLID_194_" class="st4" d="M1920,244.7c-9.8,9.7-24.5,11.4-35.6,19.6c-7.7,5.7-10.1-2.1-10.1-8.6
		C1889,249.8,1903.3,242.9,1920,244.7z"/>
	<path id="XMLID_193_" class="st4" d="M1683.1,220.5c-2.7,1.7-5.5,3.4-8.2,5.1c-13.2,3.8-23.8,14.2-39.6,11.3
		c-9.1-1.6-15.7-3.6-15-13.7c15.6,10.2,30.7,11.3,46-1.1C1670.6,218.5,1676.9,215.6,1683.1,220.5z"/>
	<path id="XMLID_192_" class="st4" d="M298.2,263.7c3.9,4.2,2.5,9.2,2.8,14c-9.6,0.9-19.3,1.8-28.9,2.7c-3.8-1.9-7.7-3.9-11.5-5.8
		c0.9-3.7,3.7-6.3,7.1-4.2C280.6,278.2,289.1,270.2,298.2,263.7z"/>
	<path id="XMLID_191_" class="st4" d="M1339.4,207.2c-1,6.2-7,9.3-10.4,13.9c-8,10.9-12.3,7.3-14.9-3.3
		C1324.6,218.7,1328.3,205.4,1339.4,207.2z"/>
	<path id="XMLID_190_" class="st4" d="M326.8,236.8c-10.6,2.2-22,1.9-31.3,8.4c-1.5-12,7.2-13.5,16.4-12.9
		C317,232.5,322.5,233.3,326.8,236.8z"/>
	<path id="XMLID_189_" class="st0" d="M362.2,236.9c12.7-0.3,24.6,0.8,30.9,13.3c-10.9-2-19.7-9.4-31-10.3
		C362.1,239,362.1,238,362.2,236.9z"/>
	<path id="XMLID_188_" class="st4" d="M1211.8,126.3c-11.5,10.2-18.5-0.3-26.8-5.1C1194.9,118.3,1202.9,124.3,1211.8,126.3z"/>
	<path id="XMLID_187_" class="st4" d="M1484.2,225.5c-0.2-2.5-0.4-4.9-0.6-7.4c7,0.1,15.2-2.1,17.4,7.5
		C1495.4,228.1,1489.8,228.1,1484.2,225.5z"/>
	<path id="XMLID_186_" class="st4" d="M1952.2,249.7c-7.9-0.3-16.8,3.5-22.7-5C1938.5,240.7,1945.9,242.8,1952.2,249.7z"/>
	<path id="XMLID_185_" class="st4" d="M1712,228.6c-7.8-0.3-13.6-4.6-19.7-8.3C1702.6,215.4,1709.2,218.2,1712,228.6z"/>
	<path id="XMLID_184_" class="st0" d="M355.9,240.5c-5.3,4.6-9.6,15.9-17.6,2.3C344.2,242.5,349.7,239,355.9,240.5z"/>
	<path id="XMLID_183_" class="st4" d="M1541.4,231.3c-7.9,6.9-14.9,7.4-20.5-2.4C1527.5,232,1535.1,227,1541.4,231.3z"/>
	<path id="XMLID_182_" class="st0" d="M694.3,188.5c0.6,2.9,2.6,4.4,5.5,5.1c-8.9,9.7-8.9-0.1-11.3-4.5
		C690.4,188.9,692.3,188.7,694.3,188.5z"/>
	<path id="XMLID_181_" class="st0" d="M2030.4,239.3c0.1,1.6,0.2,3.2,0.3,4.8c-4.2,0.6-8.4,1.2-11.6-2.3
		C2022.3,238.9,2026.5,239.5,2030.4,239.3z"/>
	<path id="XMLID_180_" class="st4" d="M1966.7,249.7c-2.9,0-5.7,0-8.6,0C1961,243.9,1963.8,243.9,1966.7,249.7z"/>
	<path id="XMLID_179_" class="st4" d="M1307.2,212.4c-3.3,0.1-6.2-0.4-8.2-3.2C1303.5,206.4,1306.1,207.8,1307.2,212.4z"/>
	<path id="XMLID_178_" class="st0" d="M2007.2,242.4c-1.8,4.8-4.7,5.6-8.7,1.9c-0.1-0.8-0.2-1.6-0.2-2.4
		C2001.3,242.1,2004.2,242.3,2007.2,242.4z"/>
	<path id="XMLID_177_" class="st4" d="M1998.3,241.9c0.1,0.8,0.2,1.6,0.2,2.4c-1.9,0-3.8,0.1-5.8,0.1
		C1993.6,241.6,1994.6,239.4,1998.3,241.9z"/>
	<path id="XMLID_176_" class="st4" d="M1981,245.1c-0.6,2.8-2.2,4.4-5.4,4.4C1976.2,246.7,1978.1,245.3,1981,245.1z"/>
	<path id="XMLID_175_" class="st1" d="M2302.3,644.2c-11.8,0.7-25.2-1.5-38.9-7.8c-14.9-6.9-30.4-0.7-43,7.9
		c-14.7,10.1-31.9,14-48.6,19.2c-10.7,3.3-19.3-2.2-27.4-8.4c-9.5-7.4-17.5-16.3-29.8-20.6c-7.8-2.8-7.9-7.3-0.2-12.5
		c15.3-10.4,33-10.2,50.2-10.7c18.2-0.5,31.8-9.5,39.6-25.3c4.7-9.5,10-17,8.1-28.7c-0.8-5.1,10.5-13.2,20.4-11.9
		c12.1,1.6,25.8,1.2,32.8,13.5c2.5,4.5,14.7,2.4,9.8,9.8c-3.8,5.7-11.4,0.3-16.8-2c-3.7-1.5-7.1-3.3-10.5-0.3
		c-4.2,3.8,0.6,6.7,2,9.5c4.8,10.1,14.3,13.7,25.4,14.4c5.2,0.4,10.7-0.6,15.6,1.8c4.8,2.4,9.9,4,2.2,10.1
		c-9.4,7.4-6.8,14.4,4.8,18.3c10.1,3.4,22.5,1.7,30,11.2c2.2,2.8,6.1,5.2,4.5,9.3c-1.8,4.2-6.4,3.3-10.1,3.4
		C2316.6,644.3,2310.9,644.2,2302.3,644.2z"/>
	<path id="XMLID_174_" class="st1" d="M221.4,312.2c0.3,9,2.6,20.7,11.7,29.2c5.1,4.7,9.9,8.5,3.9,14.1c-5.8,5.4-13.5,3-17.9-2
		c-6.6-7.4-11.8-16-17.4-24.2c-2.6-3.8-4.2-8.1-7-11.8c-4.1-5.5-3.4-9.9,2-14c1.1-0.8,2.1-1.8,3.2-2.7c4.4-3.5,0.9-15.2,11.9-11.4
		C221.1,292.5,223.3,300.5,221.4,312.2z"/>
	<path id="XMLID_173_" class="st1" d="M854.7,409.3c-4.6,6-10.3,8.8-15.7,11.4c-7.2,3.6-14.3,3.7-17.2-5.2
		c-2.1-6.5-7.7-10.2-12.2-14.7c-5.8-5.9-3.6-11,1.2-15.1c5.6-4.9,7.9,2,11.4,4.2c5.5,3.5,4.4,12.3,12.7,13.7
		C841.3,404.6,848,405.2,854.7,409.3z"/>
	<path id="XMLID_172_" class="st3" d="M2059.7,249.8c0.9,1.9,1.9,3.8,2.8,5.7c-4.3,6.9,1.9,8.8,6.4,10.4c9.5,3.3,19.1,6,26.3,13.3
		c2.9,3,6.4,2.2,10.5,0.8c16.6-6,32.4-0.7,42,13.4c1.8,2.6,3.8,5.1,5.7,7.7c3.2,4.4,15.6,4.9,10.6,11.4c-5.3,7-14.4,13.8-25.7,12
		c-8.7-1.4-17.2-2.2-25.7-0.2c-5,1.2-10.7,2.1-12.1,8.1c-1.6,6.7,1.8,11.1,7.5,14.7c2.7,1.7,5.7,3.8,7.3,6.3
		c3.7,6.2,2.2,12.6-2.7,17.4c-5.7,5.6-10.7,0.5-14.8-2.9c-6.7-5.5-14.1-10-19.6-17.1c-7.4-9.5-17-14.7-32.3-10.6
		c-11.1,3-24.4,0.9-36.7,0.9c-12.7,0-29-27.9-23.7-39.8c3.9-8.7,5.7-19.4,16.8-24.2c1.6-0.7,3.2-2.1,4-3.6
		c9.8-16.8,9.8-16.8,28.8-7.2c1.2,0.6,2.6,0.8,3.9,1.1c0.8-0.9,2-1.7,1.8-2.1C2035.3,247.2,2035.3,247.2,2059.7,249.8z"/>
	<path id="XMLID_171_" class="st3" d="M2298.5,403.6c-9.2-2.8-20.6-0.8-32.8,5.8c-10.1,5.5-18.3-5.3-26.2-10.1
		c-7.2-4.3-0.6-9,2.8-13.2c1.3-1.6,1.8-4.2,1.9-6.3c0.6-12.9,7.4-12.9,17-7.3c2.3,1.3,4.4,4.4,7.3,1.7c2.4-2.2,0.1-5-0.3-7.6
		c-2.5-14.4-12.5-25.9-17.7-39.5c-5.5-14.5,2-22.2,11.8-29.9c9.8-7.7,18.8-3,27.4,2.7c11.4,7.6,22.6,15.3,25.4,29.5
		c0.4,2.1,2,4.2,3.6,5.7c21,19.6,7.9,39.8,1.1,59.7C2317.4,402.1,2310.5,404.6,2298.5,403.6z"/>
	<path id="XMLID_170_" class="st3" d="M1246.5,420.3c-0.3,4.9,0.2,10-5.9,9.6c-7.5-0.5-5-7.4-6.6-11.5c-1.4-3.7-0.6-7.8,4.4-7.8
		C1245.7,410.6,1245,416.9,1246.5,420.3z"/>
	<path id="XMLID_169_" class="st4" d="M1906.1,660c-6.1,3.5-13,4.1-19.5,2.4c-9.2-2.5-18-1.7-26.9,0.5
		C1868.9,653,1892.4,651.5,1906.1,660z"/>
	<path id="XMLID_168_" class="st1" d="M1013.6,273.9c0.9-0.2,4.1-0.8,7.4-1.4c6.7-1.2,10.8,2.1,14.2,7c3.9,5.6-0.2,8.1-4.3,10.6
		c-3.9,2.4-3.4,11.5-8.3,9c-7.4-3.7-16.8-4.5-22.3-11.3c-2.8-3.4-3.1-7.7-1.5-11.6C1001.3,269.8,1006.8,274.1,1013.6,273.9z"/>
	<path id="XMLID_167_" class="st1" d="M835.7,112.4c2.7-5.3,5.1-10.9,11.7-13.1C848.2,107.3,847.2,113.9,835.7,112.4z"/>
	<path id="XMLID_166_" class="st0" d="M422.2,272c6.5-0.2,7.9-3.3,6.4-8.9c-2.1-7.7,0.6-14.3,7.7-18.8c6.3-4,5.4-7.8,2.1-13.5
		c-9.1-15.8,6.7-40.1,25.7-39.9c12.5,0.2,24,0.2,34.6-9.1c10-8.8,27.1-5,37.8,4.7c6.8,6.2,9.2,15.9,18.3,20.2
		c-6.5,5.9-8.3,5.9-13.6-2.4c-4.3-6.7-7.7-13.1-17.8-13.6c-17.9-0.9-25.3,6.1-19,21.6c6.9,17.1-0.9,34.6-10,43.3
		c-9.2,8.7-18.2,17.3-26.8,27C457.9,293.5,431.4,286,422.2,272z"/>
	<path id="XMLID_165_" class="st0" d="M723.3,187.6c9.8-2.1,17.5-8.4,27-11.5c9.3-3,1.2-14.4,7.3-20.2c5.5,5.8,7.9,13.2,13.9,19.3
		c7,7.1-2.3,16.9-7.5,24.3c-4.1,5.9-10,9.7-17.9,3.8C738.7,197.8,730.9,192.8,723.3,187.6z"/>
	<path id="XMLID_164_" class="st3" d="M480.3,396.9c0.3-13.7,9.6-24.9,20.7-25.2c4.8-0.1,10-0.3,12.5,4.6c2.3,4.4,1.8,9.1-1.6,12.6
		c-6.8,6.9-14.1,13.3-21.2,19.8c-1.8,1.6-4.2,2.6-6.5,1.2C478.8,406.6,480.7,401.2,480.3,396.9z"/>
	<path id="XMLID_163_" class="st0" d="M453.1,380.1c9.1-1,13.1,6.2,18.7,10.6c4.1,3.2,0.9,7.2-1.5,10.7
		c-7.1,10.3-12.5,10.4-19.5-0.2c-3-4.6-6.1-7.7-12.5-6.4c-5.8,1.2-9.5-1.3-9.4-6.9c0.1-4.9,3.9-6.7,8.7-7
		C442.7,380.6,447.9,380.4,453.1,380.1z"/>
	<path id="XMLID_162_" class="st3" d="M618,223c-4.4-0.2-8.8-0.4-10.4-4.1c-1.6-3.8,1.8-6.6,4.6-9.1c14-12.7,28.4-14,37.3-3.7
		c2.6,3,5.3,6.4-0.5,8.3C638.7,217.7,628,220.3,618,223z"/>
	<path id="XMLID_161_" class="st1" d="M1689.1,228.3c8.7-2.3,14.1,2.7,16.2,8.9c2,6.1-4.1,9.1-10,10.7
		C1695.4,240.7,1693.8,234.1,1689.1,228.3z"/>
</g>
</svg>
