<?xml version="1.0" encoding="utf-8"?>
<!-- Generator: Adobe Illustrator 19.0.0, SVG Export Plug-In . SVG Version: 6.00 Build 0)  -->
<svg version="1.1" id="Layer_1" xmlns="http://www.w3.org/2000/svg" xmlns:xlink="http://www.w3.org/1999/xlink" x="0px" y="0px"
	 viewBox="0 0 2500 900" style="enable-background:new 0 0 2500 900;" xml:space="preserve">
<style type="text/css">
	.st0{fill:#55292E;}
	.st1{fill:#962120;}
</style>
<g>
	<path class="st0" d="M1022.4,170.6c0.9,1.1,1.8,2.1,2.7,3.2c0.8,0.1,1.6,0.1,2.4,0.2c1.1,0.3,2.4,0.3,3.2,0.9c1.7,1.3,3,3,4.5,4.5
		c0.2-0.3,0.3-0.7,0.5-1c1.3-0.3,2.7-0.7,4.3-1.1c0.3-0.7,0.8-1.9,1-2.4c2.5,0.4,5.1,0.5,7.5,1.2c1.5,0.4,2.6,1.8,4,2.8
		c-0.8,1.5-1.5,2.8-2.3,4.3c-0.3-0.3-0.9-0.8-1.9-1.9c0.1,2.1,0.1,3.6,0.1,5.2c-1.9,0.6-3.8,1.4-3.4,3.6c0.2,1.3,1.5,2.4,2.7,4.2
		c0.3-3.4,0.4-5.7,0.6-7.9c1.9,2,2.7,0.3,3.3-2c0.3,0.3,0.6,0.6,0.9,0.9c0.1,2.8,0.2,5.7,0.2,8.8c2.3,0,4.7,0.2,5.1,3.3
		c-2-1.3-3.9-1.5-5.7,0.2c0.8,0.8,1.4,1.5,1.8,1.9c1.4-0.8,2.7-1.4,3.9-2.1c0.8,0.9,2.1,1.7,2.4,2.7c0.8,2.7,1.8,4.1,4.9,2.6
		c1.4-0.7,3.1-0.7,4.8-1.1c0,0.7-0.2,2.1,0,3.5c0,0.5,0.6,1.1,1.1,1.4c0.2,0.1,1.2-0.3,1.2-0.6c0.1-0.4-0.3-1-0.5-1.5
		c-0.2-0.6-0.3-1.2-0.4-1.6c3.3,1.3,6.2,2.4,9.1,3.6c0.2-0.4,0.4-0.8,0.6-1.2c-2.8-1.5-5.5-2.9-8.3-4.4c-0.3-0.1-0.7-0.5-0.7-0.6
		c0.9-3.2-1.5-4-3.5-5.5c-2.4-1.8-2.5-4.4,0.1-6.7c-4,1.9-5.8-1.3-8.8-3.2c2.9-0.3,4.5-3.9,7.7-1.4c0.1,0.1,1.6-1.5,2.8-2.7
		c-0.2-0.1,0.3,0.2,0.9,0.6c0.1-0.8,0.1-1.4,0.1-2.1c0.3-0.1,0.6-0.1,0.9-0.2c0.2,1,0.3,2.1,0.7,3c0.3,0.6,1,1.2,1.7,1.6
		c0.6,0.4,1.4,0.5,2.4,0.9c-0.1-0.8-0.2-1.7-0.3-2.4c1.9-1,3.8-1.9,5.6-2.8c0.3,0.3,0.6,0.5,0.9,0.8c-1.1,1.8-2.2,3.6-3.4,5.7
		c1,0.7,2,1.5,3,2.3c-2.7,4.9-0.2,9,2.4,13.3c-5,1.1-1.6,4.8-2.6,7.4c0.7,0,1.3,0.1,2.1,0.1c0.1-0.4,0.1-0.7,0.1-1
		c0.1-0.9,0.1-1.7,0.3-2.6c0-0.1,1.6-0.1,1.7,0.1c0.2,0.8,0.4,1.9,0.1,2.5c-1.4,2.4-0.5,3.9,1.7,5.1c0.7-1.4,1.3-2.7,2.1-3.9
		c0.5-0.7,1.3-1.2,1.9-1.7c0.4,0.7,0.8,1.4,1,2.1c0.2,0.4,0.1,0.8,0.1,1c-0.9,0.2-1.7,0.3-2.5,0.5c0.7,1.6,1.4,3.1,2.1,4.8
		c-0.7,0.1-1.8,0.4-3.8,0.7c2.9,2.6,5.3,4.8,8.2,7.4c-1,0.8-2.6,2.2-4.3,3.7c0.7,2-0.7,3.7-2.6,3.5c-1.2,1.5-1.9,2.9-3,3.8
		c-2.6,2.1-4.3,9.6-2.7,12.7c-1.1,1.5-2.2,2.9-3.2,4.3c-0.3-0.1-0.6-0.3-0.9-0.4c0.2,3.4,7.3,1.5,5.1,6.8c-4-1.3-4.5,3-7.1,4.6
		c6.7,2.8,11.7,2.2,13.1-0.8c1.4,0.7,2.9,1.4,4.4,2.1c0.2-0.3,0.4-0.6,0.6-0.9c-0.3-0.8-0.6-1.5-1.2-3.1c1.6,1.1,2.5,2.2,3.4,2.2
		c0.9,0,1.9-0.9,2.7-1.3c0.4,0.8,1,1.7,1.5,2.7c-0.5-3.7,3.3-3.5,4.5-5.4c0.8-1.3,2.4-2,4-3.3c0.8,0.5,2.2,1.3,3.2,1.9
		c8.1-1.9,16.1-3.8,23.8-5.7c1.7,1.3,3.2,2.5,4,3.2c2.2-1,3.6-1.8,5.2-2.3c2-0.5,2.6,0.6,2.2,2.6c-0.2,1.3,0.3,2.7,0.7,4
		c0.4,1,1.1,1.9,1.7,2.8c-0.3,0.2-0.5,0.4-0.8,0.5c1,0.8,1.9,1.6,2.9,2.4c-4.8-1.2-7,2.8-8.7,5.2c-2,2.9-4.4,3.7-7.9,4.7
		c0.5,1.3,1.1,2.5,1.7,3.9c-0.9,0.5-2.3,1.2-3.7,1.9c0-0.2,0-0.5,0-0.7c0.7-6.3-0.5-7.5-6.5-5.4c-2.3,0.8-4.4,2.1-6.3,3.5
		c-0.4,0.3-0.1,2.6,0.4,2.9c1.5,0.9,3.4,1.2,5.2,1.7c5.1,1.4,8.7,5,11.8,9c1.1,1.4,0.3,2.5-1.4,2.7c-1.8,0.2-3.7,0.3-5.5,0.5
		c0,0.3,0,0.6-0.1,0.9c1.5,0.7,3,1.3,4.7,2.1c-1.4,0.9-2.4,1.5-3.3,2c0.2,5.9,3.6,9.2,8.5,11.1c-1.1,3.6,0.2,8.2-4.9,9.3
		c-0.8-1.3-1.4-2.9-2.6-0.2c-0.9,2.1-2,4.1-2.6,5.3c1.5,3.2,2.8,5.8,4.4,9.1c-4,0.3-7.7,0.6-12.1,1c1.9,3.3,3.5,6,5.2,8.9
		c-0.5,0-0.9,0-1.8,0.1c1,0.8,1.7,1.4,2.4,2c-0.1,0.2-0.1,0.5-0.2,0.6c-1.4,0.7-3.9,0.7-1.8,3.3c-1.2,0.5-3.1,1.8-3.6,1.4
		c-2.7-2.1-3.7-0.3-5.2,1.5c-2.7,3.3-5.2,7.7-8.8,9.1c-3.6,1.5-4.7,4.6-8,6.9c-0.4-0.7-0.9-1.5-1.4-2.2c-4,0.9-7.7,1.7-11.4,2.6
		c0-0.3,0-0.5-0.1-0.8c-0.6,0.7-1.3,1.4-1.7,2.1c-0.4,0.7-0.7,1.5-0.9,2.4c-0.1,0.5,0.4,1.2,0.2,1.5c-2.6,3.1-1.6,7.1-2.4,10.6
		c-0.1,0.6,0.8,2,1.5,2.2c1.3,0.5,2.8,0.4,4.6,0.6c-0.2,2.6,1.9,3.8,5.1,3.9c0.2-0.6,0.3-1.2,0.7-2.7c0.7,1.4,1.3,2.1,1.2,2.6
		c-0.5,3,0.9,3.6,3.6,4.1c2.2,0.4,4.1,2.1,6.3,3.3c0.1-0.3,0.4-1,0.4-1.1c1.8-0.5,3.2-0.9,4.3-1.2c0.5,0.9,1.1,2.1,1.7,3.3
		c0.7-0.9,1.4-1.8,2-2.7c-0.2-0.2-0.4-0.4-0.6-0.7c1.3-0.3,2.5-0.8,3.8-0.9c3.5-0.3,3.5-0.3,3.4-2.8c2.1,0.2,4.3,0.4,6.4,0.5
		c0.1-0.3,0.1-0.7,0.2-1c-2.2-1.2-4.3-2.3-6.5-3.5c0.2-0.4,0.3-0.8,0.5-1.2c0.9,0.3,1.9,0.5,2.6,1c1.3,1,2.1,1.6,4.2,0.8
		c1.9-0.7,5.2-1.4,6.8,2.1c0.6-0.7,1-1.2,1.7-2c-0.5,5.7,4.3,1.9,5.7,3.7c-0.1,1.4-0.1,2.7-0.2,4c-1.5-0.7-3.1-1.4-4.6-2.1
		c-0.3,0.4-0.5,0.9-0.8,1.3c0.9,0.7,1.6,1.9,2.6,2c0.8,0.2,1.8-0.8,2.7-1.3c1,0.5,2.1,0.9,3.1,1.4c1.2,0.5,2.4,1,3.6,1.8
		c1.1-0.9,2.1-2.3,4-0.2c1,1,2.7,1,2.3-1.5c-0.2-1.3-0.3-2.7-0.1-4c0.1-0.5,0.9-0.9,1.2-1.2c-1.3-1.9-2.7-3.9-4.4-6.3
		c1.4-0.6,2.5-1.2,3.6-1.7c2.2-3.5,4.6-7.2,6.9-10.8c1.5,0.2,2.9,0.4,4.3,0.5c0.6,0,1.5-0.3,1.6-0.7c1.5-4.2,4.2-8.4,1-13
		c-0.2-0.3-0.1-0.8-0.2-1.3c-1-0.3-1.9-0.5-3-0.8c0.9-3.2,1.7-6.2,2.4-9.1c-1.8-0.3-3.9,0.1-4.9-0.8c-2.2-2,0.1-3.5,1.3-4.9
		c2-2.3,1.9-3-1.2-4.2c0.1,0.6,0.1,1.1,0.2,1.5c0.1,0.4,0.3,0.7,0.4,1c-2,1.5-2.9,0.4-3.7-1.2c-1.1-2.3-2.3-4.7-5.2-4.2
		c-0.1-2.4-0.1-4.6-0.2-7.2c0.2,0,1.2-0.3,2.4-0.6c-0.4-1-0.7-1.9-1.1-2.7c1.3,0.3,2.6,0.5,3.9,0.8c-0.2,0.1-0.3,0.2-0.5,0.3
		c2.3,1.9,4.7,3.8,7.4,6c0.9-1.8,1.4-2.8,2-4.2c0.4,4.2,0.7,4.5,4.8,5c-0.6-4.3-1.2-8.5-1.8-12.9c-2.4-0.4-3.2,0.6-2.1,4.2
		c-3.3-2.2-5.8-3.7-8-5.6c-0.6-0.5-0.6-2.6-0.1-3.3c0.7-0.9,2.3-1.1,4-1.8c-0.1-1.1-0.2-2.5-0.4-4.7c1.1,0.7,1.9,1.2,2.8,1.8
		c0.9-1.9,2.1-4.3,3.3-6.7c-0.2-0.2-0.5-0.4-0.7-0.7c-1.4,0.5-2.7,0.9-4.3,1.4c0.1-0.6,0.3-1.3,0.4-2.1c-0.3,0.1-0.5,0.2-0.8,0.4
		c-0.8-1.7-1.9-3.4-2.4-5.2c-0.1-0.6,1.3-1.8,2.2-2.2c0.6-0.2,1.5,0.6,2.3,0.9c-0.1,0.3-0.1,0.6-0.2,0.9c1.6-0.2,3.2-0.3,4.4-0.4
		c0.3,1.7,0.5,2.9,0.7,4.2c1.9-0.4,3.9-0.7,6.4-1.2c-1.5-1.8-2.3-2.9-3.2-3.9c2.8-1,3.9-3.8,2.7-6.5c-0.7-1.6,0.3-2.9,2.2-3
		c1.2-0.1,2.3-0.6,4.1-1.1c0,0,0.5,0.6,1.4,1.9c0-4.5,3-3.2,5-3.4c0.5,1.6,1,3.1,1.5,4.6c0.2-0.2,0.3-0.4,0.5-0.6
		c1.6,1.6,3.1,3.1,4.9,4.9c1.5-2.1,2.5-3.5,3.7-5.1c0.8,0.4,1.8,0.8,2.7,1.2c2.8-2.1,5.6-4.1,8.6-6.3c0.1,0.4,0.3,0.8,0.5,1.4
		c2.8-2,5-2.4,6.5,1.6c0.6,1.5,2.7,2.5,3.9,3.5c1.3-0.7,2.7-1.5,4.6-2.5c-0.4,4.3-0.8,8-1.2,11.6c-0.2,0-0.4,0.1-0.7,0.1
		c-0.4-0.9-0.7-1.8-1.3-3.3c-0.7,1.1-1.7,2-1.5,2.7c0.3,1.5,1.2,2.9,2.1,4.9c0,0-0.5,0.8-1,1.6c0.3,0,0.5-0.1,0.8-0.1
		c0.2,1,0.7,2.1,0.7,3.1c0,2.8-0.6,5.7-0.4,8.5c0.2,3.2,4.3,5.1,7.8,3.3c1.5-0.8,4.1-0.3,4.5-3.1c0-0.4,2.9-0.8,4.2-0.5
		c1.9,0.4,2.8-0.1,3.8-1.6c1.7-2.7,3.3-2.5,5.7,0.8c0-4.5-4.2-7.2-3.4-11.4c1.6,0.7,2.9,1.2,4.2,1.8c-0.2,0.4-0.4,1-0.7,1.6
		c0.3,0.2,0.6,0.4,0.8,0.6c3-3.2,3-8.9,6.3-9.9c4.2,0.3,7,0.3,9.7,0.8c2.7,0.5,6.3-1.1,7.9,3.2c0.4,1.2,3.5,1.9,4.9-2
		c0.1,2.2,0.1,3.2,0.1,5.1c1.2-2.1,1.9-3.3,2.7-4.8c0.8,0.6,1.7,1.2,2.8,2c0.6-2.4,5-3.1,2.7-6.1c0.8-2.3,1.6-4.2,2-6.2
		c1.1-4.7,3.2-5.7,8-4.3c1.6,0.5,4.1,0.6,5.1-0.3c1.4-1.2,2.8-4.1,2.2-5.3c-1-2.1-3.4-4.1-5.6-5c-2.4-1-5.4-0.7-5.4-4.2
		c0-1.2,0.4-3.4,0.9-3.5c2.7-0.5,1.5-2.6,1.9-3.5c-0.9-0.6-1.7-1.1-2.2-1.4c1.8-1.3,3.5-2.5,5.4-3.8c0.3,0.2,1.3,1.2,2.3,1.2
		c0.9,0,1.7-1.3,2.3-2.3c5.2-0.8,9.2,2.6,13.7,4.7c1.1,0.5,2.7,0.2,4,0.3c-0.3-1.1-0.5-2.2-0.8-3.3c1.4-0.6,3.2-1.6,5-2.3
		c0.5-0.2,1.4,0.4,2,0.8c0.2,0.1-0.2,1-0.4,1.6c-0.5-0.2-1-0.4-2.4-0.9c0.8,2.1,2,4,2.3,5.9c0.6,3.4,3.9,1.1,5.6,2.5
		c1.8-0.4,4-0.9,6.6-1.5c3.3,5.1,5.6-0.5,8.6-1.8c-0.1-0.7-0.4-1.6-0.7-3.2c2,0.4,3.7,0.8,5.3,1.2c0.1,0.3,0.2,0.7,0.3,1
		c2-1.7,4-3.5,6.7-5.9c-1.4-0.9-2.3-1.4-3.2-2c0,0,0.1,0.2,0.1,0.2c-0.6-3.1-0.4-3.5,2.3-3.8c-0.1-0.6-0.2-1.2-0.4-2
		c0.6,0.3,1,0.5,1.3,0.7c0.4,0.2,0.7,0.5,1.2,1c0.3-1.1,0.2-2.4,0.7-2.8c0.5-0.4,1.7,0,2.8,0.1c-0.4-1.3-0.4-2.7,1.9-1.9
		c-0.3-1.5-0.5-2.8-0.8-4.4c1.5,0.2,2.8,0.6,4,0.5c1.4-0.2,3,0.7,4.3-1.5c0.7-1.2,3.7-3.5,6.6-1.4c0.4,0.3,1.7-0.7,2.7-1.1
		c-0.1,0.5-0.2,1.4-0.4,3.1c2.5-2.2,4.4-3.8,6.1-5.3c2,0.6,3.1,4.6,6.5,2c2.5,1.8,5.1-2.9,7.7,0.3c0.4,0.4,2.2-0.3,3.8-0.6
		c-0.3,1-0.6,2-1,3.1c1.8,0.1,3.7,0.1,5.9,0.2c-1.3-1.5-2.4-2.8-3.5-4c0.2-0.2,0.4-0.4,0.6-0.6c2.7,0.5,5.5,0.9,8.6,1.5
		c0.2-0.7,0.6-2.2,0.9-3.8c0.4,0.1,0.7,0.1,1.1,0.2c0.2,1.2,0.4,2.5,0.7,4.4c1.4-1.1,2.6-2,4.2-3.2c1.1,1,3,2.4,4.5,4
		c2.7,2.9-1.6,4.4-1.5,6.8c0.3-0.1,0.6-0.2,0.8-0.3c1.4,3.9,2.7,7.9,4.1,11.8c1.4-2.5,3-5.3,4.3-7.6c2,1,4,1.9,6.1,2.9
		c0.2-0.1,0.3-0.2,0.5-0.3c-0.7-0.9-1.5-1.8-1.9-2.4c1.1-0.6,2.2-1.3,3.4-2c0,0.6,0,1.4-0.1,2.6c0.9-0.6,1.7-1.1,2.8-1.9
		c-0.7,1.4-1.2,2.5-2,4.2c1.3-0.9,2.1-1.5,3.7-2.6c-1.5,2.6-2.3,4.6-3.7,6.2c-1.4,1.6-3.2,2.8-4.1,3.5c1.5,3.6,2.6,6.4,3.9,9.5
		c0.8,0,2,0.1,3.3,0.1c0.7-1.2,1.4-2.4,1.7-2.9c2.8,0.9,5.2,1.7,7.6,2.5c-0.3,0.2-0.9,0.6-1.3,0.9c0.5,1.8,0.9,3.5,1.3,5.2
		c-0.3,0.1-0.6,0.2-0.9,0.3c0.6,0.1,1.1,0.2,1.7,0.3c-0.2,0.4-0.2,0.7-0.3,0.8c-2.1,0.9-4.8,1.1-4.7,4.4c0,0.3-0.6,0.8-0.9,0.8
		c-4.9,1.1-4.7,4.7-4,8.6c-4-1.2-3.1,3-4.7,3.8c3.1,2.9,6.1,5.6,9.2,8.6c0.4-0.6,0.7-1,1.4-2.2c0.4,1.8,1.3,3.3,0.9,4.3
		c-0.7,1.9,0.3,2.2,1.6,2.9c1.4,0.8,2.5,2.1,3.8,3c1,0.7,2.1,1.1,2.6,2c1.9,2.2,4.2,4.3,5.7,6.8c1.6,2.6,2.4,5.7,3.6,8.7
		c2.5-0.3,4.6-1.9,6.4,1.2c0.6,1.1,4,0.6,6.4,0.9c-0.4,2.7,0,4.1,2.9,4.1c1.4,0,3.1,1.8,4.1,3.3c1.3,1.8,0,2.3-2.1,2.8
		c1.2,0.5,2.4,1,3.5,1.5c0.8-1,1.4-1.8,2.1-2.7c1.1,0.5,2,1,2.9,1.5c1.7-3.1,3-4.6,5.9-1.4c0.7-0.4,1.4-0.9,2.7-1.7
		c1.3,2,2.5,3.9,3.9,5.8c0.6,0.8,1.7,2,2.1,1.8c1.1-0.4,1.8-1.5,2.8-2.4c0.3,3.5,7.6,0.4,5.9,6.4c1.1,0.6,2.3,1.2,3.4,1.8
		c0.3,1.5,0.7,3.2,1,4.5c-1.4,0.8-3,1.7-4.5,2.7c2.9,1.5,5.3,2.8,8,4.2c0.1-0.1,0.8-0.6,1.6-1.1c1,0.6,2,1.2,3.9,2.4
		c-1,0.3-1.9,0.6-2.7,0.8c4.1,0.6,3-2,3-4.2c5.8,1.4,11.4,2.8,17.6,4.2c-0.8-0.8-1.2-1.3-1.3-1.4c2.6-2.9,4.4-6.8,8.7-7.1
		c1.4-0.2,2.9-0.4,4.3-0.6c2.3-0.3,4.6-0.9,6.9-0.8c0.8,0,1.5,1.6,2.7,2.9c1.7-0.9,3.9-2,6-3.1c2.3-0.3,4.1,4.8,7.3,0.4
		c3.2,3,1.5,5.8-0.1,8.6c-1.1,2-2.1,4.1-3.3,6.5c2.1-0.2,3.4-0.2,4.8-0.3c0.7,3.8-1.6,8.1,3.3,10.4c-1.8,2.3-4.2,4.2-4.6,6.4
		c-0.5,2.3,1,4.9,1.6,7.2c2.5,0.4,4.7,0.7,7.2,1.1c-0.1,0.2-0.6,0.8-0.5,1.4c0.2,1.3-0.7,2.8,1.8,3.4c1.5,0.3,2.9,2.3,2.3,4.9
		c-0.8,3.4-1.6,6.3-5.4,7.5c-0.4,0.1-0.6,1-0.9,1.5c-0.6,1-0.9,2.4-1.7,3c-2.8,1.8-4.7,4.4-7.1,6.7c-1.6,1.5-4.6,1.4-7.5,2.2
		c-0.9,2.4-3.6,3.4-10.1,2.6c1-0.6,2-1.1,3-1.6c-0.1-0.2-0.1-0.4-0.2-0.5c-0.4,0-0.8,0-1.5,0c0.5-1.3,0.9-2.5,1.8-4.7
		c-3.7,0.3-6.5,0.5-9.8,0.7c1.3-2.9,2.2-5.7-1.2-7.8c-1.9-1.2-3.9-2.4-5.8-3.7c-0.5-0.4-1.3-0.8-1.4-1.4c-0.6-3.6-3.2-2.9-5.3-2.5
		c-3.1,0.6-6.3,1.4-9.1,2.8c-2.3,1.1-4.2,3.2-6.4,5c-1.4-1.9-2.9-2.1-5.2-1.1c-1.6,0.8-3.9,0.5-5.8,0.2c-3.3-0.5-5.1,0.8-6.2,4
		c-0.7,2-2.2,3.8-3.3,5.7c-1.1,2-2.2,4-3.3,5.9c-0.2,0.3-0.6,0.5-1.2,1c-0.1-1.2-0.3-2.1-0.3-2.5c-2.4-0.7-4.4-1.5-6.4-1.8
		c-1.7-0.3-4.1-0.8-5.2,0.1c-1.3,1.1-2.5,3.2-1.4,5.6c1.2,3,2,6.1,3,9.2c0,0-0.3,0-0.3,0c-0.2,0.5-0.5,0.9-0.7,1.4
		c2.2,0.8,4.3,2.2,6.5,2.2c2.1,0,3.5,0.2,4.1,2.3c0.5,1.7,1.3,2.6,3.3,2.3c1.5-0.2,3,0,3,2.4c0,0.7,1.7,1.7,2.8,2.2
		c1.9,0.9,4.2,1.2,2,4.3c-1.5,2.1-2,4.8-2.9,7.1c1.3,2.4,2.5,4.7,4,7.5c-1.2,1.1-1.8,3.4,0.1,5.2c1.5,1.4,3.7,2,5.9,3.1
		c-1,0.7-2.1,1.1-2.8,1.8c-0.6,0.6-1.2,2.1-1.2,2.1c3.3,1.8,0.9,4.3,0.9,6.6c0.4-0.5,0.9-1.1,1.2-1.5c2.1,2.2,2.6,4.1-0.6,6
		c-0.9,0.5-2.2,1.9-0.9,3.7c0.4,0.6-0.3,1.9-0.5,3.2c1-0.3,1.8-0.6,2.6-0.9c-2,3.2-3.9,6.4-6,9.8c0.6,0.9,1.3,1.8,2.3,3.1
		c-1.6,0.2-2.9,0.3-4.4,0.5c-0.4,1.2-0.8,2.6-1.3,4c0.8-0.1,1.4-0.3,2-0.4c-0.6,5.5-3.3,8-6.2,7c-1.6,0.9-2.6,1.7-3.7,2
		c-1.8,0.6-3.7,1.1-5.5,1.4c-2.4,0.3-4.3,1.3-5.7,3.4c-0.2,0.3-0.7,0.5-1.1,0.7c-1.8,0.8-4.7,1.2-5.2,2.5c-0.9,2.6-0.6,5.7-0.8,8.9
		c1.7-0.4,2.9-0.7,4.1-1c0.1,0.2,0.2,0.3,0.3,0.5c-2.4,1.9-4.7,3.8-7,5.8c-1.6,1.4-2.8,2.9-4.9,4c-1.2,0.6-1.7,3.8-1.6,5.8
		c0.1,3.5-1.8,6.1-5.5,6.5c-0.1-4-0.2-7.9-0.3-11.5c-2.3,0.1-3.8,0.1-5.7,0.2c-0.7,1.5-1.6,3.4-2.6,5.5c0,1.1,4.2,1.4,0.9,3.6
		c0.4,0.3,0.6,0.5,0.9,0.7c1.1,0.5,3.6-0.1,2.6,2.1c-0.5,1.1-2.7,2.4-3.8,2.2c-1.8-0.4-3.3-1.9-4.8-2.9c-2.3,1.9-5.2,3.8-7.6,6.2
		c-1.6,1.6-3.2,1.7-5.3,1.8c-2.3,0.1-4.6,1.1-6.9,1.6c-1.1,0.3-2.1,0.4-3.4,0.6c0.1,1.5,3.5,3.2,0,5c-0.5-1-1-2-1.4-2.9
		c-3.1,1-6.5,5.6-6.5,8.9c-1.6,0.4-3.3,0.8-5.1,1.2c0.1,1.5,0.2,2.7,0.4,4.3c-0.9-0.2-1.6-0.4-2.4-0.5c-0.9,2.6-4.3,3.1-8.9,1.5
		c0.3-1.5,0.8-2.9,0.7-4.3c-0.2-2.4-0.1-4,3.4-2c-4-4.5-0.2-8.1,0.7-12.2c-8.7-0.4-17-0.8-25.1-1.2c-0.6-1.7-1.1-3.2-1.7-4.8
		c0.7-0.5,1.5-1.1,2.8-2c-1.5-0.4-2.4-0.7-3.1-0.9c0.1-2.2,0.2-4.3,0.4-6.3c-2.7,0.9-5,1.7-7.5,2.6c-0.1-1.2-0.1-2-0.4-2.8
		c-0.2-0.7-0.5-1.7-1.1-1.9c-2.7-0.9-5.5-1.7-8.2-2.2c-2.9-0.5-3.9,0.7-3.1,4.5c0.5,2.5,0,4.1-1.4,6.4c-1.4,2.3-1,5.6-1.5,8.4
		c-0.2,1-0.5,1.9-1,3.6c-0.6-1.2-0.9-1.7-1-2c-2,1.6-4.1,3.1-6,4.8c-0.5,0.4-0.7,1.7-0.4,2.3c0.3,0.6,1.3,0.9,2.5,1.7
		c0.1,0.4,0.2,1.5,0.4,2.8c-4,0.3-3.5,3.3-3,5.7c0.6,2.9-0.1,5-2,7.2c-1.1,1.3-1.8,3-2.4,4.6c-1.4,4-3.3,6.1-7.9,7.9
		c-0.5-0.8-1-1.6-1.7-2.7c-1.2,1.9-2.3,3.6-3.1,4.9c-3.1-1.7-5.2-3-6.7-3.8c-2.1,0.9-3.6,1.5-5.1,2.2c-0.2-0.3-0.4-0.5-0.7-0.8
		c0.2,1,0.5,2.1,0.4,3.1c-0.1,1.6-0.1,3.4-0.7,4.8c-0.9,2.2-2.4,4,0.1,6.1c0.5,0.5,0.3,2,0.2,3c-0.3,2.7-1.1,5.4-1,8.1
		c0.1,3.4,0.7,6.8,1.2,10.1c0.1,0.7,0.7,1.3,1.4,2.7c-1.9,1.7-4,3.9-6.5,5.6c-2.8,1.9-4.7,7-3,9.8c0.4,0.6,1.4,1.3,2.1,1.2
		c2.2-0.1,6.9,2,7.3,4c0.7,3.2,0.8,6.6,1,9.9c0.2,2.1-0.2,4.3,0.4,6.3c1.5,5.3-0.4,11-5,14.1c-0.9,0.6-1.8,1.4-2.2,2.4
		c-1.1,3-3.1,5.1-5.6,6.9c-1.9,1.3-3.3,2.2-4.8-0.5c-0.4-0.7-1.3-1.1-1.9-1.7c-1.3,1-2.3,2-3.5,2.7c-0.5,0.3-1.6,0.7-1.8,0.5
		c-2.2-2.7-4.5-1-6.9-0.5c-0.7,0.2-1.5-0.2-3-0.5c-0.5,1-1.2,2.7-2,4.3c-0.6,1.3-1.1,3-2.2,3.6c-3,1.7-6.5,2.5-9.2,4.4
		c-4.2,2.8-9,2.2-13.5,2.9c-5.2,0.8-10.5,0.9-15.8,0.9c-1.7,0-3.4-1.1-5.1-1.7c-2.6-0.9-4.9-2.8-8.1-1c-1.8,1-4.4,0.9-7.2,1.4
		c-0.6-0.9-1.4-2.2-2.3-3.6c4.1-1.7,2.1-8.4,8.4-7.6c-0.3-0.5-0.5-1-0.8-1.5c-3.4,0.4-7,0.1-10,1.3c-3.7,1.5-6.6,0.9-9.8-0.6
		c-0.8-0.4-2-0.9-2.7-0.6c-4.6,2.2-8.2-1.4-12.3-2.1c-0.6-0.1-0.9-1.2-1.4-1.6c-1-0.7-2.1-1.7-3.3-1.8c-2.9-0.2-5.9,0.1-8.9-0.1
		c-1.1-0.1-2.4-0.8-3.1-1.6c-2.2-2.4-4.1-2.1-5.8,0c0.6,1.4,1.1,2.6,1.6,3.7c-1.4,0-2.9,0.2-4.2,0c-1.3-0.2-2.6-1-4.6-1.8
		c4.2-1.7,2.7-4,1.7-5.7c2-0.8,3.9-1.4,5.7-2.4c0.4-0.2,0.6-2.1,0.2-2.5c-2-2-4.2-3.7-6.5-5.4c-3-2.3-6.3-1.6-8.1,1.6
		c-1.5,2.6-3.5,1.6-5.7,1.1c-1.9-0.4-4.1-0.1-6.1,0.2c-0.3,0-0.7,1.5-0.5,2.2c1.8,5.8-1.1,9.8-5.3,13.1c-0.8,0.6-2.7-0.2-4.2-0.4
		c0-0.3,0-0.7,0-1c-0.4,0.1-0.8,0.2-1.2,0.4c-1.9,0.6-2.2,4.3-5.4,2.5c-1.7-1-3.8-1.4-5.5-2.4c-3.2-1.8-4.9-1.2-5.2,2.3
		c-0.2,1.8-0.5,2.5-2.5,3c-2.8,0.6-5.3,2.3-8,3.4c-0.6,0.3-1.4,0.8-1.8,0.5c-4.7-2.2-9.2-0.5-13.8,0.5c-1.1,0.3-2.6-0.2-3.7-0.8
		c-2.6-1.5-5-3.5-7.7-5c-1.9-1-4.3-1.3-6.3-2.3c-1.7-0.8-3.2-1.8-4.7-2.9c-1.8-1.3-2.8-3.9-6-2.2c-1.2,0.6-3.2,0-4.8-0.4
		c-1.5-0.4-2.8-1.3-3.8-2.7c-0.9-0.1-2.1,0-2.8-0.5c-2.8-1.8-5.4-3.9-8.2-5.8c-0.6-0.4-1.9-1-2.2-0.7c-2.6,2-4.2,0.6-5.9-1.2
		c-0.8-0.8-1.9-1.4-3.2-2.4c0.2,1.5,0.3,2.5,0.3,3c-1.5,1.4-2.7,2.5-4.3,4c-0.6-1.2-1.2-2.5-2-4.3c-0.6-0.1-1.8-0.4-2.9-0.6
		c-0.5,1.1-1,2.2-1.9,4.1c-0.7-1.4-1-1.9-1.2-2.4c-0.7-2.1-2-2.9-4-1.9c-3.1,1.6-5.9,1.2-8.5-1.1c-1.8-1.6-3.7-3-6.6-2.6
		c-2.4,0.3-2.6,0.1-1.7,2.5c0.2,0.5-0.2,1.2-0.4,2c-3.5-0.4-6.9-0.4-9.3-3.5c-0.7-0.9-2.3-1.2-3.5-1.6c-2.5-1-5-2-7.6-2.8
		c-1.1-0.3-2.5,0-3.8,0c-2.5-3.1-2.5-3.1-15.2-5.7c-0.1,1.1-0.3,2.1-0.4,3.1c-8,1.6-13-2-15.8-9.4c0.3-0.2,1-0.8,1.6-1.3
		c0.1-0.1,0.1-0.2,0.2-0.9c-1.9,0.4-3.7,0.5-5.4,1c-2.5,0.8-4.9,1.7-7.3,2.8c-3.3,1.5-3.4,3.6-1.3,6.7c1.6,2.4,3,4,6.4,2.5
		c-0.4,1.9-1,3.4-1,4.8c0,1.1,0.7,2.3,0.9,3.5c0.4,1.9,1.3,3.9,0.9,5.7c-0.6,2.9,1.2,3,3,3.9c-0.6-2.3,0.9-5.8,2.3-6.1
		c1.3-0.3,4.6,2.7,5.2,4c0.8,1.7,2,3.3,3.4,4.5c1.6,1.3,3.5,2.2,5.8,3.6c-1.3,0.9-2,1.4-2.7,1.9c0.3,0.5,0.7,1.1,1.1,1.8
		c-3.5-0.4-6.9-0.7-10.2-1.1c0,0.3-0.1,0.5-0.1,0.8c0.9,0.3,1.9,0.5,2.8,0.8c-0.3,1.2-0.7,2.4-1.1,3.8c-1.9-0.5-3.9-1-6.1-1.5
		c-0.7,1.2-1.4,2.6-1.8,3.3c-4.1-2.9-7.9-5.8-12-8c-0.9-0.5-3.5,0.8-4.4,2c-3,3.5-6,7.2-8.1,11.2c-1.8,3.4-4,3.7-7.1,2.9
		c-1.6,3.4-3.2,6.8-4.8,10.3c1.2,0,2.7,0.1,4.2,0.1c0.1,0.2,0.2,0.5,0.3,0.7c-1,0.5-2,1.3-3.1,1.5c-4.8,0.7-9.5,1.5-14.3,1.8
		c-2.1,0.1-4.4-0.4-5.1-3.1c-3.1,0.9-3.7,2.4-1.2,4.3c2.5,2,2.2,3.1,0,5c-1.5,1.3-2,3.1-1,5.6c0.7,1.7-0.5,4.2-0.6,6.3
		c-0.1,1.6,0.1,3.2,0.1,5c-0.9,0-2.5,0.1-4.7,0.1c0.2,1.5,0.4,2.9,0.6,4.7c-1.3-0.5-2.5-1.1-3.5-1.5c-2.2,1.9-4.2,3.7-6.3,5.5
		c-1.5,1.3-1.1,2.6,0.1,4c1.5,1.7,1.8,3.2-0.5,4.8c-1.4,1-2.3,2.8-3.4,4.2c-1.4,1.8-3.1,4.1-4.5,5.1c-3.3,2.2-4.2,6-7,8.3
		c-0.2,0.2-0.6,0.4-0.7,0.7c-1.2,6.4-6.8,8.1-11.4,11c-1.8,1.1-3.6,2.2-5.1,3.6c-3.5,3.2-7.4,4.9-12.1,4.9c-2.1,0-4.1,1-5.3,3
		c-0.5,0.8-1.2,1.5-1.8,2.2c-5-3.5-7.2-3.3-12.2,0.4c-0.7,0.6-2.1,0.3-3.2,0.4c-0.9,0-1.7-0.1-2.7,0.5c0.6,0.1,1.2,0.2,1.9,0.3
		c0.2,0.3,0.3,0.7,0.5,1c-2.8,1.9-5.4,4.4-8.5,5.6c-2.1,0.8-4.9-0.3-7.4-0.4c-2.1,0-4,2.2-6.2,0.4c-1.2-1-3.3-2.3-3.2-3.2
		c0.2-1.4,2-2.5,3.1-3.7c0.7-0.8,1.4-1.5,1.7-2.8c-2.5,1.7-4,1.7-6.4-0.3c-1.5-1.2-4.6-0.5-7-0.6c-4.5-0.1-8.7-0.2-12.2-4.2
		c-2.3-2.5-5.9-3.9-9.1-5.5c-0.8-0.4-2.5,0.1-3.2,0.7c-1.7,1.7-2.8,1.1-4-0.5c-1.3-1.7-2.6-3.3-3.8-5c-0.4-0.6-0.6-1.6-0.4-2.3
		c1.4-3.8,0.6-5-3-7.5c-1.8-1.2-3.2-3.6-3.8-5.8c-0.9-3.2-0.8-6.7-1.4-9.9c-0.2-1.2-1.3-2.7-2.4-3.1c-2.9-1.3-6.1-2.2-9.1-3.2
		c-2.5-0.9-3.8-0.2-5,2.4c-1.1,2.3-3.3,4.7-5.6,5.5c-2.4,0.8-4.5-1.4-5.9-3.8c-1.1-1.9-2.3-3.7-3.7-5.3c-0.5-0.6-1.8-1.2-2.4-1
		c-1,0.4-2.1,1.3-2.5,2.2c-0.8,2.2,0.8,6.2,3.3,7.8c-2.1,1.6-4,3.1-5.8,4.7c-1,1-1.6,2.4-2.6,3.4c-1.5,1.7-3,3.9-4.9,4.6
		c-3.7,1.3-5.6,3.6-4.9,7.8c-3.6,1.6-7.3,3.2-11.5,5c4.2,0.6,7.7,1.2,11.2,1.7c0,0.3,0,0.7-0.1,1c-0.7,0.1-1.5,0.2-2.5,0.3
		c0.2,0.7,0.4,1.5,0.6,2.1c-0.2,0.2-0.2,0.4-0.3,0.4c-6.2,2-3.1,6.7-3.3,10.6c-0.1,1.4-1.6,3.3-2.9,3.8c-1.9,0.8-4.3,1-6.4,0.8
		c-4-0.3-8,0.9-12.1-0.3c-2.3-0.7-3.7,1.5-2.7,4.1c0.9,2.3,1,4.6-1,6c-1.9,1.4-4.2,2.4-6.6,0.4c-0.9-0.7-2.5-0.5-3.7-1
		c-0.9-0.3-1.6-1.2-2.4-1.6c-0.9-0.5-2.7-1.2-2.9-1c-1.8,2.7-5.8,3.4-6.2,7.4c-0.2,1.5-1.7,2.7-2.6,4.1c-0.5,0.8-0.8,1.9-1.6,2.4
		c-1.6,1.2-3.4,2.9-5.2,3.1c-2.5,0.3-2.4-2.3-2.7-4.1c-0.1-1-0.3-1.9-0.6-3.8c-1.4,1.3-2.3,2.2-3.4,3c-1.8,1.4-3.5,2.9-5.5,3.9
		c-2,1-4.3,1.6-6.5,2c-1.1,0.2-2.4,0-3.4-0.5c-1.9-1-3.4-1.3-5.5-0.1c-2.6,1.5-5.5,3-8.5,0.2c-0.7-0.6-2.6-0.5-3.7-0.1
		c-4.4,1.7-8.3,1.3-12.3-1.2c-1.2-0.8-3.1-0.7-4.6-0.7c-1.7,0-3.5,0.8-5.2,0.7c-1-0.1-2.7-1.3-2.7-2.1c-0.4-3.7-1.9-6.3-5.3-8
		c-1.1-0.6-1.7-1.6-1.7-3.2c0-2.5-1.3-5-1-7.4c0.3-2.4,2.3-4.4,3-6.8c0.4-1.6,0.5-4.1-0.5-5.2c-2.1-2.5-3.4-4.8-2.4-8.2
		c0.6-2-3-5.9-5.4-6.2c-5-0.6-8.9-3.2-12.9-6c-3.3-2.2-6.6-5.8-11.6-2.8c-0.9,0.5-3.1-1.1-4.6-1.6c-1-0.4-2.1-0.6-3.3-0.5
		c-4-3.7-6.3-9.7-13.7-10.4c0.7,1.2,1.3,2.1,1.8,2.9c-1.2,0.5-2.4,1.2-3.6,1.4c-0.7,0.1-1.8-0.3-2.2-0.9c-1.6-2.9-3.1-5.9-4.5-8.7
		c1.5-1,2.4-1.6,3.1-2.1c-2.3-1.4-5-2.3-5.9-4c-1-1.8-0.3-4.6-0.4-6.9c5.7-0.5,5.7-0.5,4.4-5.5c-0.5-1.8-0.8-3.4,1.1-5
		c2.1-1.8,1.2-3.4-2.1-4.1c0.1-4.4,0.1-4.4-5.2-3.9c0.2,0.7,0.3,1.4,0.5,2.4c-2.2-1.2-4.2-2.2-5.6-2.9c1.6-3.8,3-7.2,4.2-10.1
		c-1.6-1.1-2.8-1.8-3.6-2.4c0.3-1.3,0.6-2.4,0.9-3.4c-0.9,0-1.7,0-3.1,0.1c-1.3-2.6-2.8-5.6-4.4-8.7c-0.3-0.6-1.1-1-1.5-1.6
		c-0.6-0.7-1.6-1.6-1.6-2.3c0.1-0.8,1.2-1.6,2-2.6c-3.5-3.6-3.5-8.1-2.3-13.1c-1.7-2.9-3.7-6.3-5.6-9.7c3.8-2,4-4.1,1.4-7.6
		c-1-1.3-2.5-2.2-1.4-4.2c0.2-0.4-0.2-1.3-0.6-1.8c-1.4-2.2-2.8-4.5-4.4-6.2c-2.4-1.8-4.9-3.4-7.1-5.3c-1.8-1.5-3.2-3.5-5.1-5
		c-2-1.7-4.2-3.2-6.5-4.4c-2.7-1.5-3.2-1-3.1,2c0,0.8-0.1,1.7-0.3,3.2c-1.1-0.7-2.2-1.1-2.3-1.6c-0.4-3.6-3.7-6.5-2.2-10.5
		c0.2-0.6-0.2-1.5-0.2-2.3c-0.2-2.2-0.3-4.3,1.7-6c0.7-0.6,0.5-2.2,0.4-3.4c0-1-0.3-1.9-0.5-2.8c1.5-0.7,2.8-1.3,4.2-1.9
		c-2.4-0.7-5.5-0.8-6.4-2.2c-1.1-1.7-0.4-4.6-1.2-7.1c-0.3,0.4-0.6,0.9-0.9,1.3c0-0.3,0-0.6,0-0.9c-2.3,0-4.7-0.1-7-0.1
		c-1.7,0-6.6-4-7.2-6c-0.6-1.9-1.2-3.7-1.8-5.5c-0.3,0.1-0.6,0.2-0.9,0.3c0,0.6,0,1.7-0.1,1.7c-3.9,0-4.3,4.8-7.7,5.6
		c-0.6,0.1-1.2,0.1-1.8,0.2c-1.1,0.3-2.4,0.5-3.4,1.1c-3.3,1.9-6.4,4.1-9.7,6c-0.9,0.5-2.8,0.6-3.5,0c-2.7-2.3-5.8-1.3-8.7-1.6
		c-4.1-0.4-5.6-1.4-6.4-4.6c-2-0.4-3.7-0.8-5.4-1.2c-2.7-0.7-5.5-1.4-8.4-2.1c-0.1-2.4-2-4-5.1-4.1c-1.6,0-3.3-0.2-4.8-0.7
		c-0.7-0.3-1.7-1.8-1.5-2.4c0.9-2.7-0.9-2.7-2.6-3c-1.7-0.2-3.4-0.4-5.5-0.7c-0.1,0.2-0.2,1-0.4,1.7c-4.6-0.4-4.8,0-3,4.4
		c1,0,2-0.1,3.4-0.1c-1.6,1.9-2.7,3.5-4.1,4.9c-2.1,1.9-11.9-0.4-12.5-3.2c-1.1-4.7-4.7-6.8-8.2-9c-1-0.7-3.6-0.5-4.3,0.3
		c-2.4,2.5-4.4,0.8-6.2-0.1c-4.5-2.3-9.1-4.8-13.2-7.8c-2.5-1.8-4.8-4.6-6.1-7.4c-0.9-2.1-2.2-2.8-3.8-2.9c-2-0.1-4.2,0.2-6.2,0.8
		c-1.7,0.4-2.2,0-2.2-1.6c0-1.5,0.1-3-0.2-4.5c-0.2-1.1-1.1-2.1-1.6-3.1c-0.6,1.1-1.1,2.2-1.6,3.1c-1.7-1.6-2.9-6.4-1.8-8.9
		c1.7-3.9,0.5-5.8-3.6-6.5c-0.8-0.1-1.6-1.1-2.4-1.1c-1.6-0.2-3.2-0.5-4.8-0.7c-0.4-0.1-0.9-0.6-1.2-0.5c-5.1,1.2-8.8-2.4-13.2-3.7
		c-0.8-0.2-2-0.6-2.5-0.3c-3.6,2.5-7.5,0-11.1,0.7c-3.7,0.7-5.8-1.8-7.7-4c-2.6-3.1-5.3-3.4-8.8-1.8c-2.5,1.2-4.5-0.4-6.6-1.6
		c-4.4-2.4-7.4-6-9.7-10.4c-0.3-0.6-2.6-1-3.2-0.5c-3,2.2-6.1,2.3-9.6,1.3c-1.3-0.4-2.9-0.2-4.4-0.2c-2.5-2-5.2-4.2-8-6.3
		c-3.9-2.9-8.1-5.4-11.5-8.7c-1.2-1.2-0.7-4.2-0.9-6.4c0-0.6,0.4-1.2,0.7-1.8c-1.4-0.5-2.6-1-3.8-1.5c-1.9-0.7-5.1,2-5.6,4.7
		c-0.8,4.5-1.9,5.2-6.6,4.3c-0.9-0.2-1.9,0.1-2.8,0.3c-1.3,0.2-2.6,0.5-3.9,0.8c-0.1-0.3-0.2-0.6-0.3-0.9c0.6-0.3,1.2-0.5,1.8-0.8
		c-2-2.8-5.8-3.7-8.2-1.3c-1.5,1.5-2.4,0.9-3.7,0.4c-3.4-1.3-3.8-1.1-4.4,2.5c0,0.3-0.5,0.5-0.1,0.1c1.8,2.3,3.4,4.5,5.2,6.5
		c0.6,0.7,1.6,1.1,2.7,1.8c-0.2,1.2-0.4,2.6-0.5,3.7c1.4,0.5,2.6,0.8,3.7,1.5c2,1.3,4.1,2.5,5.7,4.3c0.9,1,0.6,2.9,1,4.8
		c-2.4-0.1-4.1-0.3-5.9-0.3c-3.1,0-6.3,0-9.4,0c-2,0-3.9-2.5-6.1-0.5c-1.3-2-2.9-3.9-3.8-6.1c-0.5-1.1,0-2.7,0.1-4.5
		c0.2,0,1.4-0.3,3.4-0.7c-1.3-0.5-1.8-0.7-2.2-0.9c0-0.2,0-0.4-0.1-0.6c1.1-0.2,2.1-0.3,3.2-0.5c-0.4-1-0.9-2-1.1-2.4
		c-1.7-0.3-2.9-0.5-4.2-0.8c-2.7,0.7,1.6,6.3-4.1,5.7c0.6-0.8,1-1.4,1.4-1.9c-0.2-0.1-0.3-0.2-0.5-0.3c-0.8-0.3-2.4-0.5-2.4-0.8
		c0-1.4,0.1-3,0.7-4.3c0.5-1.1,1.8-2,2.7-2.9c-0.2-0.3-0.4-0.6-0.6-0.9c-0.9,0.4-1.8,0.7-2.7,1.1c-1.2,0.6-2.3,1.7-3.4,1.6
		c-1.9-0.1-1.5-1.6-1.1-2.9c0.1-0.4-0.7-0.9-0.7-1.4c0-0.7,0.3-1.3,0.8-2.9c-1.2-0.8-3.2-2.2-5.6-3.9c0.7-5-4.7-4.6-7.4-6.1
		c-3.5-1.9-3.9-1.2-5-3.6c-3.1-1.1-5.3-1.9-7.6-2.7c0.1-0.3,0.2-0.6,0.3-1c-0.4,0.1-0.8,0.2-1.2,0.4c-1.2,0.6-2.7,2-3.4,1.7
		c-2.2-1.2-4.4-2.7-5.8-4.6c-1.1-1.6-0.9-4-1.3-6c-0.4-1.9-0.6-4-1.4-5.7c-0.6-1.3-2-2.3-3.2-3.1c-2.6-1.6-4.5-3.3-2.1-6.7
		c-1-0.2-1.8-0.3-2.2-0.4c-0.1-0.9,0.1-2-0.3-2.4c-4.1-4.3-8.3-8.5-12.7-12.5c-0.5-0.5-1.8,0-3.1,0c-0.3-2.2-2.9-2.9-5.3-4.5
		c-3-2-4.7-5.8-6.9-8.8c-0.1-0.2,0.1-0.8,0.4-1.2c0.2-0.4,0.9-0.6,0.9-0.9c-0.2-3.5,0.8-8-1-10.3c-2.7-3.5-1.1-7.1-2.2-10.6
		c0.5,0.3,1.1,0.7,1.8,1.1c0.7-2,1.1-4.5,4.3-3.6c-0.1-0.6-0.4-1.5-0.6-2.3c2-0.1,4-0.1,6-0.2c-0.2,0.2-0.4,0.4-0.6,0.6
		c1.2,1.5,2.4,4.3,3.6,4.3c2.2,0.1,5.2-0.3,6-3.3c0.1-0.5-0.9-1.3-1.5-2.2c0.6-1.7,1.4-3.8,2.6-6.9c-1.2,1.1-1.7,1.5-2.2,2
		c-1.1-3.8,1-6.2,5.7-6.8c0.7-0.1,1.4-0.1,2-0.5c3.5-1.9,6.8-4.1,11-1.7c0.4,0.2,1.4,0.2,1.6,0c3.2-4.8,8.7-3,13.1-4.3
		c1.3-0.4,4.7,0.6,5.3,3.6c-2-2-3.6,0-5.3,0.6c0.1-0.6,0.1-1.2,0.2-2c-1.6,0.7-3.1,1.4-4.9,2.2c1.1,1.1,2,2,2.4,2.4
		c1-1.2,1.7-2,2.3-2.8c1.4,6.5,4.9,0.6,7.3,1.2c-0.7-0.6-1.5-1.2-2.2-1.8c1.4-2.3,3.5-3,6-2.6c1.9,0.3,3.4,0.4,3-2.3
		c-0.2-1.3,3.3-3.1,4.7-2c2.4,1.8,4.8,1.4,6.8,0.2c3.5-2.1,5.4,1,7.9,2c1.8,0.7,3,1.5,5,0c1.9-1.4,2.5,0.4,2.7,2.1
		c0.1,1.3,0.5,2.5,0.7,3.7c0.3-0.3,0.7-0.6,1-1c1.2,0.3,2.7,0.1,3.5,0.8c1.4,1.2,2.2,1.4,4,0.6c2.1-1,4.7-1.1,6.1-1.4
		c1.2-4.2,2.4-7.7,3.2-11.3c0.3-1.3,0-2.7-0.1-4.3c1.1,1,2.2,2,3.4,3c1.4,1.1,2.3,1.9,2.4-1c0-1,1.6-1.9,2.6-2.8
		c1.1-1,2.4-1.9,4.3-3.4c0.3,0.3,0.8,1.1,2,2.5c-0.2-1.8-0.3-3-0.5-4.4c0.4-0.3,1.1-0.8,1.9-1.4c0.5,0.9,1,1.8,1.2,2.2
		c3.2-2.3,6.3-4.7,8.9-6.6c0.6-2.8,1.1-5.5,1.8-8.1c0.1-0.2,1.3-0.4,1.8-0.2c2.2,1.1,2.7,0.8,3.4-1.5c0.5-1.6,1.5-3,2.5-5
		c0.7,1.4,0.9,2,1.2,2.6c2.3-3.5,3.7-7.7,8.4-8.8c0.9-0.2,2.1-0.4,2.7,0.1c0.5,0.4,0.3,1.7,0.6,2.5c1.2,3.5,2.5,7.1,3.9,10.5
		c0.2,0.4,1.5,0.6,2.3,0.5c0.9-0.1,4.5-4.7,5-5.5c0.4-0.6,1.3-1.1,2.1-1.3c1.2-0.2,3,0.4,3.6-0.3c3.4-3.5,6.1-0.9,9,0.6
		c0.2-0.8,0.4-1.5,0.5-2c3.5-0.1,6.7-0.2,9.8-0.3c0.4-1.1,0.9-2.5,1.4-3.9c-3.7-0.8-3.1-4.3-2.9-6.9c0.2-1.8,2.3-3.5,3.7-5.1
		c0.2-0.3,1.5,0,2,0.4c1.8,1.5,3.5,3.1,4.9,4.3c2.4-1.6,4.4-2.6,6.1-4.1c3-2.6,2.7,2.8,5.2,1.2c-0.5,1.8-0.8,2.9-1.2,4.3
		c1.3-0.3,2.2-0.5,3.1-0.7c0,0.9-0.4,1.9,0,2.5c1.4,2.5,2.8,5.2,4.9,7.2c0.8,0.8,3.4-0.2,5.1-0.5c0.9-0.1,2.1-1,2.6-0.6
		c3.9,2.6,5.7-1.4,8.9-2c0.1,0.7,0.3,2,0.5,3.1c0.5-0.1,1.7-0.6,2.2-0.3c1.7,1.2,3.1,2.8,4.8,4.1c2.3,1.8,3.2-0.2,4.3-1.8
		c0,0-0.1,0.1-0.1,0.1c1.4,2.6,3.5,1.1,5.2,0.7c0.4-0.1,0.9-1.6,0.7-1.7c-1-1-1.4-3.5-3.7-1.8l-0.2,0c-1.3-1.8,0-2.8,1.3-3.7
		c3.8-2.9,4-3.6,2.4-7.9c-0.2-0.6-0.4-1.3-0.5-1.9c-1-3.8-0.8-4.1,2.4-4.3c1.5-1.6,2.6-2.9,3.9-4.4c1.6,2.1,2.8,3.7,4,5.3
		c0.3,0.4,1.2,0.8,1.4,0.7c2.3-1.8,3.3,0.2,3.9,1.6c1,2.5,3.8,1.8,5,3.7c1.1-2.5,2-4.8,3.1-7.3c0.2,1.8,0.3,3.7,0.6,6.2
		c1.9-2.1,3.8-4.2,5.8-6.5c0.7,0.5,1.4,1,2.5,1.7c-1.1-3.1,0.8-2.6,3.1-1.9c-0.3-2.8-0.6-5.2-1-8.2c-0.2-0.2-0.9-1-1.5-1.7
		c3.6-1.1,7-2.4,10.5-3.3c1.4-0.4,3-0.1,4.5-0.2c0.2,0.3,0.3,0.5,0.5,0.8c-1.1,1-2.2,2.1-3.4,3.1c-1.8,1.5-4.4,2.8-0.6,5
		c0.3,0.2,0.2,1,0.3,1.7c1.6,0.1,3.5,0.2,5.4,0.4c0.1-0.4,0.3-0.8,0.4-1.2c-1.1-0.6-2.3-1.1-3.8-1.9c1.4-2.7,5.8-5,4-9.8
		c1-0.3,1.8-0.6,3-1.1c-0.9-1.6-1.6-3.1-2.4-4.5c2.3-0.1,4.3-0.1,7-0.2c0.7,1.6,1.7,3.8,2.7,6c0.3-0.1,0.6-0.2,0.9-0.3
		c-0.7-1.5-1.3-3-1.9-4.5c0.9,0.2,1.9,0.5,2.9,0.8c-0.2-1-0.2-2.1-0.5-3.1c-0.3-0.9-1.1-1.8-1.1-2.7c0-0.7,0.9-2,1.4-1.9
		c2.2,0,4.4,0.4,6.8,0.7c-0.8-2-1.6-3.9-2.4-5.8c-1.7,0.1-3.8,0.3-6.3,0.5c-0.1,1.1-0.2,2.5-0.4,4.4c-1.1-1.5-1.8-2.5-2.6-3.5
		c-1.6-0.5-2.4-3.7-4.8-1.4c-0.9,0.7-1.8,1.6-2.8,2.2c-1.5,0.9-3,1.6-4.4,2.4c0-0.1,0-0.8,0.1-1.5c-1.6,1.4-3.1,3.6-4.6,3.7
		c-2.9,0.2-1.5,1.9-1.9,3.1c-0.2,0.6-0.7,1.1-1.1,1.7c-0.4-0.5-0.8-0.9-1.1-1.4c-0.9-1.7-2.3-3.5-2.5-5.3c-0.1-2,1-4.1,1.4-5.5
		c-1.1-1.8-1.7-3.5-2.9-4.8c-0.8-0.8-2.3-0.9-3.4-1.3l0.1,0.1c1.5-1,2.9-2,5-3.4c-2.2-0.7-4.2-1.2-5.8-1.7c-0.9-1.3-1.8-2.5-2.7-3.8
		c-0.3,0.2-0.7,0.3-1,0.5c-0.1,1.1-0.3,2.1-0.4,3.2l0.1-0.1c-1.1-0.5-2-2.5-3.5-0.5c1.7-2.5,3-5.3,7.1-4c2.8,1,4.5-0.6,5.4-3.5
		c0.3-1,2.3-2.2,3.3-2c2.8,0.5,5.5,2.2,8.3,2.3c2.5,0.1,3.9,1.3,5.6,2.6c0.8,0.6,1.8,0.9,2.7,1.3c-0.3,0.3-0.5,0.7-0.8,1
		c0.8-0.4,1.6-0.8,3.2-1.6c-0.6,1.2-0.9,1.7-1.2,2.2c2,0.3,2,0.3,8.3-6.5c-1.7,0-2.9,0.1-4.3,0.1c0.1-0.6,0.2-1.5,0.3-2.4
		c0.1-0.8,0.1-1.7,0.4-2.9c0.3,2.9,2.2,2.5,4,2.4c4.3-0.2,1.9-4.1,3.4-5.8c-2.4-1.6-4.8-3.2-7-4.7c1.2-2.1,2.6-4.5,3.9-6.9
		c0,0,0.1,0,0.1,0c0.6,1.2,1.3,2.3,2,3.6c-0.9,0.1-1.6,0.2-2.2,0.2c1,1.6,1.7,3.2,2.8,4.3c0.6,0.6,2.1,0.9,3.1,0.7
		c3.4-1,8.5,0.9,10.1,4.2c1.1-0.8,2.2-1.6,3.4-2.3c1.2-0.7,2.5-1.1,3.6-1.6c-0.5,1.7-1.1,3.5-1.6,5.2c0.2,0.3,0.4,0.5,0.7,0.8
		c2.3-1.9,4-1.5,5.5,0.8c-0.3-1.7-0.6-3.5-0.9-5.5c1.2,0.4,2.1,0.8,3.3,1.2c0.2-1.3,0.4-2.5,0.5-3.7c0.2-0.1,0.4-0.2,0.6-0.2
		c0.5,1.2,1.1,2.5,1.8,4.3c1.4-0.6,3.1-1.4,4.7-2.1c-0.1-0.3-0.2-0.6-0.3-1c0.9,0.2,1.9,0.4,2.8,0.6c1.9-3.9-2.4-4.8-2.9-7.5
		c-0.3,0.2-0.7,0.3-1,0.5c0.5,1.1,1,2.1,1.9,3.9c-1.2-0.5-2.5-0.7-2.6-1.2c-0.3-1.2-0.5-3,0.1-3.6c1.1-1.1,2.9-1.5,4.5-2.1
		c0.2,0.3,0.3,0.5,0.5,0.8c0.7-1.3,1.5-2.6,2.3-4.1c0.9,0.2,1.8,0.5,2.6,0.7c-1.9-2.9-3.4-6.4-6-8.5c-1.7-1.4-3.6-1.9-3-4.6
		c-1.5-0.1-3-0.2-4.2-0.3c-0.9-0.5-1.7-1.1-2.6-1.5c-1.7-0.8-3-1.5-2-3.9c0.7-1.7,0.5-3.7,0.9-5.5c0.2-0.9,0.6-2.2,1.2-2.4
		c0.7-0.3,1.9,0.3,2.7,0.8c1.7,1.1,3.4,2.4,4.8,3.5c1.3-1.2,2.5-2.3,3.4-3.2c1.6,0.8,3,1.4,5.2,2.4c-0.9-1.5-1.3-2.3-1.7-3.1
		c0.1-0.2,0.2-0.4,0.3-0.5c3.6-1.8,5.2-5.1,4.3-9.2c-0.3-1.3,1-3.8,2.2-4.6c0.6-0.4,0.8-1.2,1.2-1.8c0.4-0.6,0.7-1.3,1.1-2.2
		c1.4,1.1,2.6,2.1,3.8,3.1c0.5-1.2-0.1-3.8,2.6-2.2c0,0,0.3-0.6,0.6-0.8c1.5-1.3,3-2.6,4.9-4.2c0.5,1.8,0.7,2.7,1,3.6
		c-1,0.7-1.9,1.2-2.8,1.8c3.8,3,6.1-2.3,9.5-1.2c-0.6-2.6-0.8-2.6-4-0.7c-0.4-2.3-1-4.5-1.1-6.8c-0.1-0.9,0.8-2.7,1.3-2.7
		c1.7-0.2,3.6,0.1,5.3,0.6c1.1,0.3,2,1.3,3.5,2.3c-0.5,2.4,1.8,2.1,4.1,2c0.2,0.8,0.4,1.5,0.6,2.1c0.3,0.1,0.6,0.2,0.9,0.3
		c0.5-1.1,1.1-2.3,1.6-3.4c0,0-0.1,0.1-0.1,0.1c0.5,0.8,1.3,1.5,1.4,2.3c0.3,1.6,0.2,3.2,0.2,5c2.1-0.3,3.4-0.5,4.7-0.7
		c0,1.6,0.1,3,0.1,3.9c2.3,1,4.3,1.9,6.5,2.9c-0.3,0.7-0.6,1.3-1.1,2.3c2.2-0.5,4-0.9,6.3-1.3c-2.2-2.4-2-7.7,0.2-9.4
		c2.2-1.7,4.6-0.8,6,0.5c0.4,2.8,0.7,5,1,7.5c2.7,0.4,5.1,1.7,5,5.3c0,0.3,0.3,0.6,0.6,0.8c3.2,1.9,1.7,2.9-0.7,3.8
		c-0.4,0.2-0.7,0.5-1.4,1c1,0.3,1.6,0.6,2.2,0.8c0,0.9-0.3,2.1-0.1,3.1c0.5,1.8,1.3,3.5,2,5.2c1.3-1.3,2.6-2.7,4-3.9
		c0.7-0.6,1.6-1.4,2.4-1.4c2.5,0.1,5.1,0.6,7.6,0.9c0.3,0,0.6-0.1,0.9-0.2c4.8-1.8,6.5-0.4,5.9,4.9c1.5,0.5,2.9,1,4.4,1.6
		c1.1-1.6,2.6-3.6,4.1-5.6c2.3,3.1,4.4,6,6.5,8.8c0.8-0.8,1.6-1.5,2.3-2.2c0.1,0.2,0.1,0.3,0.2,0.5c2.6-0.4,5.3-0.9,7.9-1.2
		c1-0.1,2.1,0.5,2.3,0.6c2.7-0.9,4.8-1.5,7.3-2.3c-0.2-1.1-0.5-2.6-0.8-4.5c-0.7,0.6-1.3,1-2.2,1.7c0.6-2,1.1-3.7,1.5-5.4
		c0.3,0,0.6-0.1,0.8-0.1c1.4,2.4,2.8,4.7,4.1,7.1c1.6,3,3.2,3.4,6.4,1.9c0.8-0.4,1.9-0.2,3-0.3c-2.5-7.4,3.4-3.8,5.9-4.7
		c0,0.7-0.1,1.5-0.1,2.2c0.5,0,0.8,0.2,1.1,0.1c0.5-0.2,1.2-0.9,1.3-0.8c3,2.8,6.6-0.1,9.9,0.9c1,0.3,2.4-0.4,3.6-0.8
		c1.4-0.4,2.8-1.2,4.2-1.2c1.2,0,2.5,1,3.7,1.5c-0.6,0.9-1.3,1.8-1.9,2.8c-0.2,0.3-0.3,0.6-0.6,1.2c3.4-0.4,6,0.4,6.6,4.3
		c1.4-0.4,2.9-0.8,4.3-1.2c-0.2,0.2-0.3,0.4-0.5,0.6c2.7,1.8,5.3,3.5,7.7,5.1c1.4-0.7,2.7-1.3,4-1.8c0.1,0,0.7,1.2,1.3,2.4
		c0.8-1.3,1.5-2.5,2.5-4.2c1.9-0.4,4.8-1,8.1-1.7c-0.9-1.4-1.6-2.7-2.6-4.4c1.8,0.1,3.4,0.1,4.9,0.1c0.9-1.3,1.8-2.7,2.8-4.2
		c0.2,0.1,0.4,0.2,0.6,0.3c-0.5,1.2-0.9,2.3-1.6,4.1c2.2-0.4,4-0.8,5.7-1.1c0.3-1.4,0.6-2.7,1-4.7c4.6,4.8,9.8,3.5,14.8,2.6
		c0.5-0.1,0.8-1.4,1.5-2.8c2.4-0.6,6.6,0,7.7-5.1c1,1.1,1.8,2.1,3.3,3.7c1.3-2.8,2.5-5.3,3.8-7.7c0.3-0.6,0.8-1.2,1.3-1.6
		c1.9-1.5,3.8-2.8,5.6-4.2c-0.2-1.9-3.9-2.7-1-4.8c0.9,0.3,1.8,0.6,2.7,0.9c0-0.8-0.1-1.7,0.1-2.5c0.1-0.5,0.7-0.9,1.1-1.4
		c2.3,2.3,2.5-0.9,4.2-1.6c-0.2,1.3-0.4,2.4-0.7,3.7c2.2-0.9,4.2-1.8,6.2-2.6c0.4-0.1,1-0.3,1.3,0c3,2.7,6.4,1.7,9.8,1
		c0.7-0.2,1.8,0,2.3,0.5c2.9,2.9,6.5,2.9,10.1,2.6c0.3,0,0.8,0,0.9-0.2c1.6-2.3,3.1-4.7,4.9-7.4c0.4,0,1.5-0.1,2.6-0.3
		c0-0.2,0-0.4,0-0.7c-1-0.2-2-0.4-3-0.6c0.5-1.6,1-3,1.4-4.1c2.3,0.6,5,1.4,8.7,2.4c-1.3,0.5-2.1,0.9-2.9,1.2
		c0.2,0.3,0.4,0.5,0.6,0.8c1.3-0.2,2.7-0.5,4-0.7c0,4.4,1,5.2,4.7,3.6c2.2,2.3,4.2,4.8,6.6,6.8c0.7,0.6,2.7-0.4,4-0.6
		c0.7,1,1.4,2,2.2,3.1c0.2-0.1,0.4-0.3,0.6-0.4c-0.7-1.6-1.4-3.2-2.1-4.7c3.7-4.9,9.4-3.6,13-4.7c2.8,0.8,4.7,1.4,7,2.1
		c0.3-1.9,0.5-3.3,0.9-5.5c0.6,2,1,3.2,1.1,3.7c1.8-0.1,3.2,0,4.6-0.1c0.6,0,1.3-0.1,1.9-0.5c2-1.2,4-2.6,6.2-4
		c-0.5-0.7-1.1-1.7-1.3-2.1c0.4-1.6,0.7-2.7,1-3.7c0,0-0.1,0-0.1,0c2.5,2.7,4.9,5.3,7.4,8c-4.8-2.2-4.9-2.2-6.6,2.6
		c0.9-0.3,1.6-0.5,2.3-0.8c0.1,0.2,0.2,0.3,0.3,0.5c-0.8,0.7-1.5,1.3-2.5,2.2c2.2,0.4-0.1,4.7,3.4,4.1c-0.1-2-0.1-3.9-0.2-5.7
		c1.5,0.2,2.6,0.3,3.7,0.4c0-1.1,0-2.2-0.1-3.4c0.6-0.3,1.4-0.5,1.9-1c1-1,1.8-2.1,3.3-3.7c1.2,4,2.5,7.5,3.2,11.2
		c0.5,2.5-1.5,3.8-4.4,3.2c-1.1-0.2-2.1-0.9-3.5-1.6c-0.9,1.3-1.8,2.9-2.9,4.2c-0.3,0.4-1.4,0.1-2.8,0.1c-0.6,1.8-1.5,4.3-2.3,6.7
		c2.1,0.3,4.4,0.6,6.8,1.1c0.2,0.1,0.5,2.1,0.1,2.4c-1.4,1.1-3,1.9-3.9,2.4c0.6,1.7,1,3.1,1.5,4.7c-2.1-1.4-3.5-2.4-5.4-3.6
		c0.2,1.6,0.2,2.4,0.3,3.4c-0.9,0-1.6,0-2.3,0.1c0,0.8,0,1.4,0,1.6c2.6,0.4,5,0.8,7.6,1.1c0,1.8-0.1,4.2-0.2,6.9
		c-1.5,0.4-4,0.8-3.1,4.2c-1.7-0.8-3.3-1.5-4.8-2.2c-0.1,0.2-0.3,0.4-0.4,0.7c0.3,0.4,0.5,0.9,0.9,1.4c-2.7,1.9-7.1,2-7,6.8
		c2.3-0.9,4.5-1.7,6.7-2.6c1.1-0.5,2-1.6,3-1.6c1.4-0.1,2.9,0.6,4.1,1.7c1.4,0.2,2.9,0.5,4.3,0.7c1.7,0.3,3.4,1.3,5.1-0.7
		c0.4-0.5,2.4,0.3,3.7,0.6c1.1,0.3,2.3,0.8,3.4,1.2c2.7,1.1,4.7,0.7,5.6-2.9c0.5,1,0.8,1.5,1.3,2.3c0.4-0.9,0.8-1.6,0.9-1.9
		c1,0.6,2,1.2,3,1.7c0.5,0.2,1,0.6,1.5,0.5c3-0.7,6-1.9,9-2.1c2-0.1,4.1,1.3,5.9,1.9c-0.3-2.9-0.1-3.1,4.1-2.3
		c-0.3,0.6-0.5,1.2-0.8,2c0.7-0.2,1.4-0.3,2-0.6c0.6-0.3,1.1-0.7,2-1.4c0.6,1.2,1.2,2.3,1.8,3.4c0.2,0,0.4,0,0.7,0
		c-0.2-1.4-0.5-2.8-0.5-3.3c3.4,0.3,7,0.5,10.7,0.8c0,1.8,0.2,3.5,2.7,1.3c0.9-0.8,2.1-1.3,3.3-1.6c2.2-0.5,5.5,0.6,4.3-3.9
		c-0.2-0.6,1.8-1.8,3.4-3.3c0,1.8,0,2.7-0.1,3.9c3.1,0.2,6,0.4,9,0.6c0.8-2.1,1-4.4-3.1-4.5c0.2-0.3,0.4-0.6,0.5-0.9
		c2.2,0.5,4.4,1,5.6,1.2c1.4-1.8,2.2-2.9,3-3.9c0.2,0.1,0.5,0.3,0.7,0.4c-0.2,0.6-0.4,1.3-0.5,1.9c2.7-0.7,7,1.4,7.9,3.7
		c2.4-2,6.6-2.3,8.4-0.8c0.4-0.6,0.9-1.3,1.5-2.1c-0.2-0.2-0.7-0.6-1.6-1.4c1.2-0.2,2.1-0.4,3-0.6c-1-0.7-2.1-1.3-2.6-2.2
		c-0.4-0.6,0.1-1.8,0.1-2.7c0.3,0,0.7,0,1,0c0,1,0.1,2,0.1,3.1c3.9-3.4,7.2-2.7,13.8,2.8c0.9-1.3,1.9-2.6,2.7-3.8
		c0.6,0.9,1.3,2,2,3.1c-0.5-3.7-4.5-7.2,0.7-11.1c-1.5-1.1-2.7-2-4-2.9c0.2-0.5,0.5-1.4,1-2.8c-3.8,2-6.8,0.9-9.4-1.1
		c-5.6-4.1-5.8-4.1-10.8,0c-0.9-0.8-1.9-1.6-3.2-2.8c-0.3,1.3-0.6,2.2-0.7,3.1c0,0.8,0.3,1.6,0.5,2.4c-0.3,0.1-0.6,0.1-0.9,0.2
		c-0.3-1.8-0.5-3.6-0.8-5.5c-0.5,0.2-1.2,0.4-1.5,0.8c-3,4.1-7.4,4.2-11.9,4.7c-1.3,0.2-2.7,1.1-3.8,2c-1.7,1.4-2.1,1.5-3.7-0.5
		c-2.9,2.7-3.7,2.9-6.1-0.5c-1.9-2.6-5.4-4.3-4.8-8.4c0-0.2-1.4-0.7-2.1-0.7c-0.4,0-1,0.5-1.2,0.9c-1.4,4.1-4.8,6.7-7,10.2
		c-1.5,2.5-2.4,5.5-6.3,4.5c-2.8-0.7-5.6-1.3-8.7-2.1c-3,0.5-6.5,1.2-10.5,1.9c-0.2,0.6-0.7,1.8-1.2,2.9c1.3,0.6,2.4,1.1,3.8,1.8
		c-3.4,1.2-4.7,0.5-6.5-3.7c-1.1,1.7-2,3.6-3.4,4.8c-0.9,0.8-2.7,0.5-4.1,0.4c-0.2,0-0.3-1.9-0.4-3.3c1.2,0.8,1.7,1.1,2.1,1.4
		c0.9-5,1.8-9.8,2.6-14.1c-1.5,0-3.2-0.1-5.5-0.1c1.6-3.5,3.9-5.4,6.8-6.5c0.6-0.2,1.4-0.3,1.8-0.7c1.7-2.3,3.7-4.6,4.8-7.2
		c0.6-1.5,0.2-3.8-0.5-5.4c-1-2.3-0.7-4,1.6-5.6c-1-0.7-1.8-1.3-2.1-1.5c0.8-1.3,1.5-2.4,2.2-3.5c0.9-1.5,1.7-2.7,3.9-1.8
		c5.1,2.2,6,1.9,9.6-2.3c0.9-1,1.6-2.2,2.6-3c1.8-1.5,3.8-2.4,6.1-0.7c0.7,0.6,1.6,0.8,2.7,1.4c0,0.5,0,1.4,0,1.6
		c1.8,0.9,3.2,1.5,4.4,2.1c1.2-1.3,2.4-3.2,4.1-4.1c1-0.5,2.9,0.8,4.7,1.4c0.2-0.7,0.7-2.4,1.2-4.3c1.4,1.1,2.9,2.3,4.9,3.9
		c-0.9-1.7-1.6-3-2.3-4.4c1.5,0.9,3,1.8,4.3,2.5c-0.9-3.6,3.7-3.1,5.2-4.8c2.7-0.1,6.2,0.8,7.2-0.4c1.6-1.8,1.3-5.1-1.2-7.8
		c3.8,0.7,5.8-0.7,6.5-4.4c0.2,0.9,0.4,1.9,0.7,3.2c0.8-2.2,1-4.3,2.1-5.4c1.2-1.2,3.3-1.5,5.1-1.9c1.3-0.3,2.7-0.3,4-0.5
		c0.8-0.2,1.5-0.7,2.8-1.3c3.7,1.8,7-1.9,11.2-4.1c-3-1.7-1.8-3.1,0.1-4.4c-1.3-2-2.5-3.8-3.8-5.7c2.6-0.5,3.1-1.7,0.6-3.6
		c1.1-0.7,1.8-1.1,2.5-1.6c1.1,3.7,3.9,1.9,6.2,2.3c-0.8,1-1.6,1.9-2.6,3.2c3,0.8,5.8,1.2,8.4,2.3c2.3,0.9,4.3,2.4,6.4,3.7
		c0.2-0.3,0.3-0.5,0.5-0.8c-0.5-0.4-1-0.8-1.7-1.5c1.3-0.3,2.2-0.7,3.2-0.7c2.2,0,3.6-1.1,3.9-3.2c0.4-3.3,2.4-5.2,5.4-6.5
		c0.3,0.6,0.6,1.2,1.1,2.4c0.1-1.4,0.2-2.3,0.4-4c1.4,0.8,2.4,1.4,3.8,2.3c0.2-0.2,0.9-0.6,1.7-1.2c0.5,0.9,1,1.7,1.1,1.9
		c1.8-0.3,4-0.1,4.6-0.9c2.3-3.5,4.7-1.4,6.9-0.6c1.1-1.3,2.1-2.3,3.3-3.8c2.4,2.3,4.6,4.3,7,6.5c3.8-1.3,4.2-1.2,3.9,2.2
		c-0.6-0.6-1-1.1-1.8-1.8c0,1.2,0.1,2.1,0.1,3.3c0.9,0,2.2,0.3,2.7-0.1c2.4-2,4.1-0.2,5.8,1c2.9,2,5.9,2,9.1,1.2
		c0.5-0.1,1.1,0.1,1.8,0.3c0.2-0.9,0.5-2.1,0.9-3.8c0.7,1.4,1.4,3,1.6,2.9c2-0.6,4-1.5,6.8-2.6c3.3,2.2,2.4-3.7,3.8-4
		c3.5,0.9,6.2,1.4,8.7,2.2c0.6,0.2,1,1.2,1.3,1.7c1.3-0.7,2.7-1.4,4.1-2.1c0.9,2.4,0.7,5.6,4.5,5.9c0.3,0,0.6,1.4,1.2,3.2
		c1-2,2.2-3.5,2.5-5.1c0.5-2.2-1.1-4.5-3.9-6c0.8,1.2,1.3,1.9,1.8,2.7c-3.5-0.7-4.3-3.7-1.5-7.4c-0.5,4.8,3.2,5.1,5.7,5.2
		c3.6,0.1,5.4,1.5,5.9,3.7c2.3,0.1,4.1,0.2,5.8,0.3c0,0-0.2-0.1-0.2-0.1C1021.6,171.6,1022,171.1,1022.4,170.6
		C1022.4,170.6,1022.4,170.6,1022.4,170.6z M1241.7,325.6c-2.9-1.7-5.3,0.3-8.3,0.4c3.6,4.3,4.8,4.1,8.3-0.6c-0.1,0.5-0.1,1-0.2,1.7
		c1.6-0.5,2.8-0.9,4.1-1.3c0.1-0.3,0.2-0.6,0.3-0.9c-1.4-0.6-2.7-1.3-4.8-2.2C1241.5,324.2,1241.6,324.9,1241.7,325.6z M703.1,236.2
		c1.6,5.2,3.7,0.7,5.5,0.5c0-0.4,0-0.8,0-1.2c-1.7,0.1-3.5,0.3-5.2,0.4c-0.5-0.7-1.2-2.1-1.3-2c-1.6,0.8-3.1,1.7-4.6,2.7
		c0.1,0.4,0.1,0.8,0.2,1.2c1.2,0.5,2.5,1.4,3.6,1.3C702.1,239,702.5,237.3,703.1,236.2z M538.9,269c0.6,2.2,1.2,4.5,1.7,6.6
		c2.1-0.1,3.9-0.1,5.9-0.2c-1.5-2.4-3.2-4.4-4.2-6.8c-1-2.1-1.8-1.3-2.9-0.4c0.4-1.1,0.9-2.1,1.2-2.8c-1.7-0.6-3.1-1-5.1-1.7
		c-0.7,2.7,1.9,6.7-1.9,9.5c0.3,0.1,0.7,0.3,1,0.4C536,272.2,537.5,270.6,538.9,269z M941,653.9c0.8,0,2.5-0.1,4.1-0.1
		c1.7-0.1,3.5-0.6,5.1-0.2c2.3,0.7,5.6,0.6,5.5,4.6c0,0.4,2.2,0.9,3.4,1.3c0.2,0.1,0.3,0.1,0.5,0.2c0,1,0.1,1.9,0.1,2
		c1.3,0.6,2.4,0.7,3,1.3c4.4,4.2,4.4,4.2,9.1,0.5c0.3-0.3,0.8-0.3,0.9-0.4c2.4,2.3,4.7,4.5,7.4,7.1c0-1.4-0.1-2.4,0.1-2.5
		c1.2-0.5,2.5-0.9,3.9-1.3c-0.1,0.6-0.3,1.1-0.4,1.6c0.2,0.1,0.4,0.2,0.6,0.3c0.5-0.7,1.1-1.4,1.6-2c-1.4-0.9-2.8-1.7-4.3-2.7
		c0.5-7.3-6.3-4-9.9-5.7c1.9-1.9,3.8-3.4,2-6c-1.3-1.8-2.6-3.7-3.9-5.6c1.3-0.8,2.4-1.5,3.5-2.2c-0.1-0.2-0.2-0.5-0.3-0.7
		c-2.2,0.8-4.4,1.7-6.8,2.6c-0.4-1.3-0.7-2.7-1.3-3.9c-0.3-0.7-1.8-1.6-1.9-1.5c-2.3,1.9-4,0.2-5.9-0.7c-2.2-1.1-4.5-1.9-6.8-2.8
		c-0.4-0.1-1.2,0-1.5,0.3c-1.6,1.7-3,3.6-4.6,5.3c-1.1,1.1-2.3,2.2-3.7,2.9c-0.3,0.1-1.5-1.6-2.3-2.5c-0.2,0-0.4,0-0.5,0
		C938.7,646.5,939.8,649.9,941,653.9z M160.9,527.7c-1.7-3.1-4.1-5.5-4.1-7.8c0-4.5-2.4-6.9-5.3-9.3c-2.1-1.7-4.4-3.2-3.8-6.5
		c0.1-0.5-0.7-1.3-1.1-1.9c-1.5-2.1-3.1-4.2-4.6-6.3c-0.7-1-1.3-2.1-2.3-2.8c-2.3-1.7-4.9-3.1-7.2-4.9c-2.5-1.8-7.4-1-9.5,1.4
		c-0.9,1-2.4,1.7-3.8,2.1c-2,0.6-5.1-0.5-5.5,2.3c-0.2,1.5,1.7,3.4,2.7,5.1c0.2-0.3,0.4-0.7,0.6-1c1.5,0.2,3.3-0.1,4.4,0.7
		c2.8,2.1-1.3,4.4,0,7c2.8,0.9,5.7,1.8,9,2.9c0.3-0.4,0.9-1.1,1.5-1.7c2.3,1.2,4.4,3.3,6.6,3.3c3.4,0.1,4.6,1.8,5.8,4.4
		c0.6,1.3,1.7,2.4,2.2,3.1c-0.1,1.5-0.1,2.4-0.2,3.4c0.9-0.1,1.7,0,2.6-0.2c1.7-0.4,3.3-0.9,4.7-1.3c2.7,3-0.3,4.6-2,7.4
		C154.7,527.2,157.3,527.4,160.9,527.7z M1336.6,562.5c4.3,2.8,8.8,5.8,13.2,8.7c0.9-0.9,1.6-1.5,2.5-2.4c0.5,1.3,0.9,2.2,1.5,3.7
		c1.1-1.7,1.9-2.9,2.8-4.3c0.4,0.7,0.8,1.3,1.1,1.9c2.3-3-2.2-7,2.3-10c-0.2,1.3-0.4,2-0.5,2.8c1.1-0.6,1.8-1.4,1.9-2.3
		c0.6-4-6.9-9.9-11.4-9c-0.5,0.1-1.1,0.1-1.7,0c-1.4-0.1-2.9-0.3-4.8-0.5c-0.1-0.1-0.8-0.8-1.4-1.5c-0.6,0.7-1.6,1.3-1.8,2.1
		c-0.5,2.7-1.9,3.9-4.2,3.9C1336.2,557.8,1336.4,559.9,1336.6,562.5z M1064.7,222.9c3,1.4,4.2-4.4,6.6-1c1.2-1.5,2.3-2.9,3.2-3.9
		c-1.6-0.6-3.7-0.7-4.6-1.8c-1.6-1.9-3.2-1.6-5.1-1.1c-1.3,0.3-3.1,0.8-3.9,0.2c-3-2.4-5.3-1.3-7,0.2c-1.7-0.3-2.9-0.5-4.2-0.8
		c0.8,2.3,1.3,3.7,1.8,5.2c0.5,1.5,1,3,1.5,4.5c1.1-0.5,2.2-1.1,3.6-1.8c0.3,1.5,0.4,2.4,0.6,3.7c1.1-1,1.9-1.8,2.1-2
		c2.5,0.9,4.3,1.6,7.1,2.6C1065.7,225.1,1065.3,224.3,1064.7,222.9z M408.2,323.6c-2,1.3-3.9,2.5-5.8,3.7c1.2,1.9,2.3,3.5,3.4,5.2
		c0.4-0.3,1.1-0.9,1.9-1.6c1,1.6,1.8,3,2.8,4.3c0.4,0.5,1.2,1.2,1.8,1.1c4.5-0.3,5.8,0.5,7.6,4.4c0.5,1.2,1.5,2.1,2.2,3.2
		c0.9-1.7,1.6-2.9,1.9-3.6c-1.5-1.4-3-2.8-4.5-4.2c0.8-0.7,1.7-1.4,2.8-2.3c-0.2-2.4-2.3-3.6-4.9-4.4c-1-0.3-1.6-1.7-2.4-2.5
		c-0.5-0.5-1.3-1.4-1.7-1.3C410.8,326.3,408.6,326.5,408.2,323.6z M384,307.1c-3.5-0.3-6.5-2.8-10.5-0.9c-2.2,1-5.2,0.3-9.1,0.4
		c2,2.2,3.4,3.8,4.8,5.4c0.3-0.2,0.6-0.5,0.9-0.7c-0.4,0.5-0.9,1-2,2.2c1.9-0.7,2.8-1.1,3.8-1.5c0.3,0.8,0.5,1.4,0.8,2.2
		c0.3-1.1,0.5-2,0.8-2.8c1.3,0.9,2.4,1.6,3.5,2.3c0.4-1.1,0.6-1.8,0.8-2.4c0.8,0.7,1.6,1.4,2.5,2.3c2-3.3,4.5-0.1,6.8,0
		c-0.4-2.7-0.7-5.3-1-8c-0.3-0.2-0.6-0.5-1-0.7C384.8,305.7,384.3,306.5,384,307.1z M389.3,322.5c3.5,0.4,6.8,1,10.1,0.9
		c1.7,0,3.5-1.1,4.8-2.3c0.5-0.4-0.2-2.8-1-3.7c-1.2-1.5-3-2.5-4.5-3.6c-0.9,4-4.1-0.3-5.9,2.2c0.5,0.9,1.3,2.2,1.9,3.2
		c-0.4,0.8-0.9,1.9-1.4,2.8c-1.4-1.7-2.3-2.8-3.6-4.4C389.6,319.7,389.5,320.9,389.3,322.5z M915.8,659.6c1.3,0.1,2.7,0.6,3.5,0.2
		c4-2.3,5.6-6.1,5.7-10.8c-0.7-0.3-1.6-0.7-2.6-1.1c0.2,0.3,0.4,0.5,0.6,0.8c-1.3,2-2.3,5-4.1,5.7
		C916.3,655.4,915.6,656.6,915.8,659.6z M744.4,247.1c0-0.3,0.1-0.5,0.1-0.8c-1.3-1.3-2.6-2.5-3.9-3.8c-0.1,0.3-0.2,0.6-0.3,0.9
		c-1.4-0.3-2.8-0.6-3.9-0.9c-1.2,0.5-2.4,0.9-3.9,1.5c-1.1,3-1.1,3,6.3,4.8c-0.6-0.9-1.2-1.7-1.8-2.4
		C739.6,246.6,742,246.9,744.4,247.1z M821.7,220c-0.4,3.3,1,5,3.9,4.8c1.7-0.2,3.4-1.3,5-2.2c0.5-0.3,0.7-1.2,1-1.9
		c-0.6-0.3-1.2-0.9-1.9-0.9C827.2,219.8,824.6,220,821.7,220z M959.7,708.2c0.1-0.4,0.2-0.8,0.2-1.2c-1.5-0.7-3.1-2.2-4.5-2
		c-3.9,0.4-5.9,2.9-6.1,7.6C952.6,710.2,955.8,708.4,959.7,708.2z M1139.4,415.7c0.1,0.3,0.2,0.5,0.3,0.8c2.8-1,5.5-1.9,8.3-2.9
		c-0.6,0.4-1.3,0.9-1.9,1.3c-1.2-1.3-2.4-2.6-3.6-3.9c0.5-0.5,0.9-1,1.4-1.5C1142.5,411.6,1141,413.7,1139.4,415.7z M413.7,337.2
		c-3,1.7-0.6,3.9-0.4,5.8c0.1,0.7,1.1,1.8,1.6,1.8c0.8-0.1,1.8-0.8,2.3-1.6c0.3-0.5,0.2-1.6-0.2-2.2
		C416,339.7,414.9,338.7,413.7,337.2z M160.9,514.4c-0.3,0.1-0.7,0.3-1,0.4c0,1.7-0.1,3.5,0.2,5.2c0.2,0.9,1.3,1.6,2.1,2.2
		c0.3,0.2,1.4-0.2,1.4-0.3c0.1-0.9,0.2-1.9-0.2-2.7C162.8,517.5,161.8,515.9,160.9,514.4z M114.1,504.6c0.3-0.1,0.6-0.1,0.9-0.2
		c0.3-0.8,0.9-1.5,0.9-2.3c0-1-0.3-2.1-0.7-3c-0.1-0.3-1.6-0.3-1.7-0.2c-0.4,0.9-0.7,2-0.6,3C113,502.8,113.7,503.7,114.1,504.6z
		 M636.6,829.3c3.9,1.5,4.6,0.7,4.1-5.4C639.1,826,638,827.5,636.6,829.3z M1348,601.6c1.6-1.9,2.8-3.3,4.4-5.2
		c-2.2-0.4-3.6-0.6-4.9-0.9C1347.7,597.2,1347.8,598.8,1348,601.6z M1491,531.3c-0.3-0.1-0.6-0.2-0.9-0.4c-3.4,2.7-3.5,3-2.1,7.1
		C1489.2,535.2,1490.1,533.3,1491,531.3z M1131,285.9c-3.7,0.3-5.2,2.2-4.4,5.5C1128.1,289.5,1129.4,287.9,1131,285.9z M961.2,669.2
		c0-1.5-0.1-2.9-0.1-4.4c-0.2-0.1-0.4-0.2-0.6-0.3c-1,1.5-1.9,3.1-2.9,4.6c0.3,0.2,0.6,0.4,0.9,0.7
		C959.4,669.6,960.3,669.4,961.2,669.2z M762.3,236c-0.9-0.5-1.9-1.1-2.9-1.6c-0.3,0.2-0.7,0.4-1,0.6c0.6,1.7,1.2,3.3,1.9,5.1
		C761.1,238.4,761.7,237.4,762.3,236z M1130.5,291.4c1.8-0.1,3.3-0.1,5.1-0.1c-1-1.5-1.7-2.7-2.5-3.8
		C1132.3,288.7,1131.4,289.9,1130.5,291.4z M111.3,494.9c0.8-1.3,1.4-2.2,1.8-3.2c0.2-0.5,0.2-1.2,0-1.8c-0.1-0.2-1-0.5-1.1-0.4
		c-0.7,1.1-1.4,2.2-1.7,3.4C110.1,493.4,110.9,494.2,111.3,494.9z M805,247c-1.2,0.8-2.4,1.4-3.4,2.2c-0.6,0.5-0.8,1.4-1.2,2.2
		c0.4,0.2,0.8,0.3,1.2,0.5C801.6,249.4,806.8,250.3,805,247z M612.4,273.8c0.1-0.3,0.1-0.6,0.2-0.9c-1-0.8-1.9-1.5-2.5-2
		c-0.9,1.2-1.5,2-2.4,3C609.5,273.9,611,273.9,612.4,273.8z"/>
	<path class="st1" d="M1092,528.3c0.8,0.1,1.6,0.2,2.4,0.3c0.1,0.5,0.4,1.2,0.2,1.6c-0.7,1.2-1.5,2.3-2.5,3.3
		c-0.1,0.1-1.9-0.8-1.9-1.3C1090,530.6,1089,528.3,1092,528.3z"/>
	<path class="st1" d="M756.7,436.5c0,0,0.1,0.2,0.1,0.2C756.8,436.7,756.7,436.5,756.7,436.5z"/>
	<path d="M1097,531.8C1097,531.8,1097.1,531.8,1097,531.8C1097.1,531.8,1097,531.8,1097,531.8z"/>
	<path d="M1098.2,530.4c0,0-0.2-0.1-0.2-0.1C1098,530.2,1098.2,530.4,1098.2,530.4z"/>
</g>
</svg>
