<?xml version="1.0" encoding="utf-8"?>
<!-- Generator: Adobe Illustrator 19.0.0, SVG Export Plug-In . SVG Version: 6.00 Build 0)  -->
<svg version="1.1" id="Layer_1" xmlns="http://www.w3.org/2000/svg" xmlns:xlink="http://www.w3.org/1999/xlink" x="0px" y="0px"
	 viewBox="0 0 2500 900" style="enable-background:new 0 0 2500 900;" xml:space="preserve">
<style type="text/css">
	.st0{fill:#55292E;}
	.st1{fill:#55292E;}
</style>
<g>
	<path class="st0" d="M1314.8,794.6c-0.8-1.2-1.6-2.3-2.4-3.4c-0.8-0.1-1.6-0.3-2.4-0.4c-1-0.4-2.3-0.5-3.1-1.2
		c-1.5-1.5-2.7-3.3-4.1-4.9c-0.2,0.3-0.4,0.7-0.6,1c-1.4,0.2-2.7,0.4-4.4,0.7c-0.3,0.7-1,1.8-1.2,2.3c-2.4-0.6-5-0.9-7.3-1.9
		c-1.4-0.6-2.5-2.1-3.7-3.2c0.9-1.4,1.7-2.6,2.7-4.1c0.3,0.4,0.8,0.9,1.7,2c0.1-2.1,0.2-3.6,0.3-5.2c1.9-0.4,3.9-1,3.7-3.3
		c-0.1-1.3-1.3-2.5-2.3-4.4c-0.6,3.4-0.9,5.6-1.3,7.8c-1.7-2.2-2.7-0.6-3.4,1.7c-0.3-0.3-0.5-0.6-0.8-0.9c0.2-2.8,0.4-5.7,0.6-8.8
		c-2.3-0.2-4.7-0.6-4.8-3.8c1.9,1.5,3.8,1.9,5.7,0.4c-0.7-0.9-1.3-1.6-1.6-2.1c-1.5,0.6-2.8,1.2-4.1,1.7c-0.7-1-1.9-1.9-2.1-2.9
		c-0.5-2.8-1.4-4.2-4.6-3.1c-1.4,0.5-3.1,0.5-4.9,0.7c0.1-0.7,0.4-2.1,0.4-3.5c0-0.5-0.5-1.2-1-1.5c-0.2-0.2-1.2,0.2-1.3,0.5
		c-0.1,0.4,0.3,1,0.4,1.5c0.1,0.6,0.2,1.2,0.2,1.6c-3.1-1.6-5.9-3-8.7-4.4c-0.2,0.4-0.4,0.7-0.7,1.1c2.6,1.7,5.2,3.4,7.8,5.2
		c0.3,0.2,0.7,0.6,0.6,0.7c-1.2,3.1,1.2,4.1,3,5.8c2.2,2,2.1,4.6-0.7,6.7c4.2-1.6,5.6,1.8,8.4,4c-3,0.1-4.9,3.4-7.8,0.7
		c-0.1-0.1-1.8,1.4-3,2.4c0.2,0.1-0.2-0.2-0.9-0.7c-0.1,0.8-0.2,1.4-0.3,2.1c-0.3,0-0.6,0.1-1,0.1c-0.1-1-0.1-2.1-0.4-3
		c-0.2-0.7-0.9-1.3-1.5-1.7c-0.6-0.4-1.4-0.7-2.3-1.1c0,0.8,0,1.7,0.1,2.4c-2,0.8-3.9,1.5-5.9,2.3c-0.3-0.3-0.6-0.6-0.8-0.8
		c1.2-1.7,2.5-3.4,3.9-5.3c-0.9-0.8-1.8-1.7-2.7-2.6c3.2-4.6,1.1-8.9-1.2-13.4c5.1-0.7,2.1-4.7,3.2-7.1c-0.7-0.1-1.3-0.2-2-0.3
		c-0.1,0.4-0.2,0.7-0.2,1c-0.1,0.9-0.2,1.7-0.5,2.5c0,0.1-1.6-0.1-1.6-0.2c-0.1-0.8-0.3-1.9,0.2-2.5c1.6-2.3,0.8-3.8-1.3-5.2
		c-0.9,1.3-1.6,2.6-2.5,3.7c-0.5,0.6-1.4,1-2.1,1.5c-0.3-0.7-0.6-1.5-0.8-2.2c-0.1-0.4,0-0.9,0-1c1-0.1,1.8-0.2,2.6-0.2
		c-0.5-1.6-1.1-3.2-1.6-5c0.7-0.1,1.9-0.2,3.8-0.4c-2.7-2.9-4.9-5.3-7.5-8.1c1-0.7,2.8-2,4.6-3.3c-0.5-2.1,1.1-3.6,2.9-3.3
		c1.3-1.4,2.2-2.7,3.4-3.5c2.7-1.8,5.1-9.1,3.9-12.4c1.2-1.4,2.4-2.7,3.6-4c0.3,0.2,0.6,0.3,0.9,0.5c0.1-3.4-7.2-2.2-4.4-7.3
		c3.9,1.7,4.8-2.6,7.5-3.9c-6.4-3.4-11.5-3.3-13.1-0.4c-1.4-0.8-2.8-1.7-4.2-2.5c-0.2,0.3-0.4,0.6-0.7,0.9c0.2,0.8,0.4,1.6,0.9,3.2
		c-1.5-1.3-2.3-2.4-3.2-2.5c-0.9-0.1-2,0.7-2.8,1c-0.4-0.8-0.8-1.8-1.3-2.8c0.1,3.7-3.6,3.2-5,5c-0.9,1.2-2.6,1.8-4.3,3
		c-0.8-0.5-2.1-1.5-3-2.1c-8.2,1.2-16.4,2.3-24.2,3.5c-1.5-1.5-2.9-2.8-3.7-3.6c-2.2,0.8-3.8,1.5-5.4,1.8c-2.1,0.4-2.6-0.8-2-2.8
		c0.4-1.2,0-2.8-0.3-4.1c-0.3-1-1-2-1.5-2.9c0.3-0.2,0.5-0.3,0.8-0.5c-0.9-0.9-1.7-1.8-2.6-2.7c4.7,1.6,7.2-2.2,9.1-4.4
		c2.3-2.7,4.7-3.3,8.3-3.9c-0.4-1.3-0.8-2.6-1.3-4.1c1-0.4,2.4-1,3.9-1.6c0,0.2,0,0.5,0,0.7c-1.3,6.2-0.2,7.5,6,6
		c2.3-0.6,4.5-1.7,6.6-2.9c0.4-0.3,0.4-2.6-0.2-3c-1.5-1-3.3-1.5-5-2.2c-5-1.9-8.2-5.8-11-10c-1-1.5-0.1-2.5,1.7-2.6
		c1.8,0,3.7,0,5.5,0c0-0.3,0.1-0.6,0.1-0.9c-1.5-0.8-2.9-1.6-4.5-2.5c1.5-0.7,2.6-1.3,3.4-1.7c0.3-5.9-2.7-9.5-7.4-11.9
		c1.5-3.5,0.5-8.1,5.8-8.8c0.6,1.3,1.2,3,2.6,0.4c1.1-2,2.4-3.9,3.1-5.1c-1.2-3.3-2.2-6-3.5-9.5c4.1,0,7.7,0.1,12.1,0.1
		c-1.6-3.4-2.9-6.3-4.3-9.3c0.5,0,0.9,0.1,1.8,0.1c-0.9-0.9-1.5-1.5-2.2-2.2c0.1-0.2,0.1-0.5,0.3-0.6c1.4-0.6,4-0.4,2.1-3.1
		c1.3-0.4,3.3-1.5,3.8-1.1c2.5,2.3,3.6,0.7,5.3-1c3-3.1,5.9-7.2,9.6-8.3c3.8-1.1,5.1-4.2,8.6-6.1c0.4,0.7,0.8,1.6,1.2,2.3
		c4-0.5,7.8-1,11.6-1.5c0,0.3,0,0.5,0,0.8c0.6-0.6,1.4-1.2,1.9-2c0.5-0.7,0.8-1.5,1.1-2.3c0.1-0.5-0.3-1.3-0.1-1.5
		c2.9-2.9,2.2-6.9,3.4-10.3c0.2-0.6-0.6-2-1.3-2.3c-1.3-0.6-2.8-0.7-4.5-1c0.4-2.6-1.5-4-4.7-4.3c-0.2,0.6-0.4,1.1-1,2.6
		c-0.5-1.5-1.1-2.2-0.9-2.7c0.8-2.9-0.5-3.7-3.2-4.4c-2.1-0.6-3.9-2.4-6-3.9c-0.1,0.3-0.5,0.9-0.5,1.1c-1.8,0.3-3.3,0.6-4.4,0.8
		c-0.4-0.9-0.9-2.2-1.4-3.5c-0.8,0.8-1.5,1.7-2.3,2.5c0.2,0.2,0.4,0.5,0.6,0.7c-1.3,0.2-2.6,0.5-3.9,0.5c-3.5,0-3.5,0-3.7,2.5
		c-2.1-0.4-4.2-0.7-6.4-1.1c-0.1,0.3-0.2,0.6-0.2,1c2.1,1.4,4.1,2.7,6.2,4.1c-0.2,0.4-0.4,0.8-0.6,1.2c-0.8-0.4-1.8-0.7-2.5-1.3
		c-1.2-1.1-2-1.8-4.1-1.2c-2,0.6-5.3,0.9-6.6-2.7c-0.7,0.7-1.1,1.1-1.8,1.9c1.1-5.6-4.1-2.3-5.3-4.2c0.2-1.4,0.4-2.7,0.6-3.9
		c1.5,0.8,2.9,1.7,4.4,2.5c0.3-0.4,0.6-0.8,0.9-1.2c-0.8-0.8-1.5-2-2.4-2.3c-0.8-0.2-1.8,0.7-2.8,1.1c-1-0.6-2-1.1-3-1.7
		c-1.2-0.6-2.3-1.2-3.4-2.2c-1.1,0.8-2.3,2.1-4-0.2c-0.9-1.1-2.6-1.2-2.4,1.2c0.1,1.3,0,2.7-0.2,4c-0.1,0.5-1,0.8-1.3,1.1
		c1.1,2,2.3,4.1,3.8,6.7c-1.4,0.5-2.6,1-3.7,1.4c-2.6,3.3-5.3,6.7-7.9,10.1c-1.5-0.3-2.8-0.7-4.2-0.9c-0.5-0.1-1.5,0.2-1.7,0.6
		c-1.9,4.1-4.9,7.9-2.2,12.8c0.2,0.3,0,0.9,0,1.3c1,0.3,1.8,0.7,2.9,1.1c-1.2,3.1-2.2,6.1-3.3,8.8c1.7,0.4,3.9,0.3,4.8,1.3
		c2,2.2-0.4,3.5-1.8,4.8c-2.2,2.1-2.2,2.8,0.8,4.3c0-0.6,0-1.1,0-1.5c-0.1-0.4-0.2-0.8-0.3-1.1c2.1-1.3,2.9-0.2,3.5,1.5
		c0.9,2.4,1.8,4.9,4.7,4.6c-0.2,2.4-0.3,4.6-0.5,7.2c-0.2,0-1.2,0.2-2.4,0.4c0.3,1.1,0.6,2,0.8,2.8c-1.3-0.4-2.5-0.8-3.8-1.2
		c0.2-0.1,0.3-0.2,0.5-0.3c-2.2-2.1-4.3-4.3-6.8-6.7c-1,1.7-1.6,2.7-2.4,4c0-4.2-0.3-4.6-4.3-5.4c0.2,4.3,0.4,8.5,0.6,13
		c2.4,0.6,3.3-0.3,2.5-4c3,2.5,5.4,4.2,7.4,6.3c0.5,0.6,0.4,2.6-0.2,3.3c-0.8,0.8-2.4,0.9-4.2,1.4c0,1.1,0,2.5-0.1,4.7
		c-1-0.8-1.7-1.3-2.6-2c-1.1,1.8-2.5,4.1-3.9,6.4c0.2,0.2,0.4,0.5,0.6,0.7c1.4-0.3,2.8-0.7,4.4-1c-0.2,0.6-0.4,1.3-0.6,2
		c0.3-0.1,0.5-0.2,0.8-0.3c0.7,1.8,1.6,3.6,1.9,5.4c0.1,0.6-1.5,1.7-2.4,2c-0.6,0.2-1.5-0.7-2.3-1.1c0.1-0.3,0.2-0.6,0.3-0.9
		c-1.6,0-3.2,0-4.4,0c-0.1-1.7-0.2-3-0.3-4.3c-2,0.2-3.9,0.4-6.5,0.6c1.3,2,2.1,3.1,2.8,4.2c-2.9,0.8-4.2,3.4-3.3,6.2
		c0.6,1.7-0.5,2.8-2.4,2.8c-1.2,0-2.3,0.4-4.2,0.7c0,0-0.4-0.7-1.2-2c-0.4,4.5-3.2,2.9-5.3,2.9c-0.4-1.6-0.7-3.1-1.1-4.7
		c-0.2,0.2-0.4,0.4-0.5,0.6c-1.4-1.7-2.8-3.4-4.4-5.3c-1.7,1.9-2.8,3.3-4.1,4.8c-0.8-0.4-1.7-0.9-2.6-1.4c-3,1.8-6,3.6-9.2,5.5
		c-0.1-0.4-0.2-0.8-0.4-1.4c-3,1.7-5.2,1.9-6.3-2.2c-0.4-1.6-2.5-2.7-3.6-3.8c-1.3,0.6-2.9,1.2-4.9,2.1c0.8-4.3,1.5-7.9,2.2-11.5
		c0.2,0,0.4,0,0.7-0.1c0.3,0.9,0.6,1.9,1,3.4c0.8-1.1,1.8-1.9,1.8-2.6c-0.2-1.5-0.9-3-1.7-5.1c0,0,0.6-0.8,1.1-1.5
		c-0.3,0-0.5,0-0.8,0.1c-0.1-1-0.5-2.1-0.4-3.1c0.3-2.8,1.1-5.6,1.2-8.4c0.1-3.2-3.8-5.4-7.4-4c-1.5,0.6-4.1-0.1-4.8,2.7
		c-0.1,0.4-2.9,0.6-4.3,0.1c-1.8-0.6-2.8-0.2-3.9,1.3c-1.9,2.5-3.5,2.2-5.6-1.3c-0.4,4.5,3.5,7.5,2.3,11.7c-1.6-0.9-2.7-1.5-4-2.2
		c0.2-0.4,0.5-1,0.8-1.6c-0.3-0.2-0.5-0.4-0.8-0.7c-3.3,2.9-3.8,8.6-7.2,9.3c-4.1-0.7-7-0.9-9.6-1.7c-2.7-0.8-6.4,0.5-7.6-3.9
		c-0.3-1.2-3.3-2.2-5.1,1.5c0.1-2.2,0.2-3.2,0.3-5.1c-1.4,1.9-2.2,3.1-3.1,4.5c-0.8-0.7-1.6-1.4-2.6-2.3c-0.8,2.4-5.3,2.6-3.2,5.8
		c-1,2.2-1.9,4-2.6,6c-1.5,4.6-3.7,5.4-8.4,3.5c-1.5-0.6-4-1-5.1-0.2c-1.5,1.1-3.2,3.9-2.7,5.1c0.8,2.2,3,4.4,5.1,5.5
		c2.3,1.2,5.3,1.2,5,4.7c-0.1,1.2-0.7,3.4-1.2,3.4c-2.7,0.2-1.7,2.5-2.2,3.3c0.9,0.7,1.6,1.3,2,1.6c-2,1.1-3.7,2.1-5.7,3.3
		c-0.3-0.2-1.2-1.3-2.2-1.4c-0.9-0.1-1.8,1.1-2.5,2.1c-5.3,0.3-8.9-3.5-13.2-6c-1.1-0.6-2.6-0.4-4-0.6c0.2,1.1,0.3,2.2,0.5,3.3
		c-1.4,0.5-3.3,1.3-5.2,1.8c-0.5,0.1-1.4-0.5-1.9-1c-0.2-0.2,0.3-1,0.5-1.5c0.5,0.2,1,0.5,2.3,1.1c-0.6-2.2-1.6-4.1-1.7-6.1
		c-0.3-3.5-3.8-1.5-5.4-3c-1.8,0.2-4,0.5-6.7,0.9c-2.8-5.4-5.6,0-8.7,1c0.1,0.7,0.2,1.6,0.4,3.3c-1.9-0.6-3.6-1.1-5.2-1.6
		c-0.1-0.4-0.2-0.7-0.2-1.1c-2.1,1.5-4.3,3.1-7.3,5.2c1.3,1,2.2,1.7,3,2.3c0,0-0.1-0.2-0.1-0.2c0.3,3.1,0,3.6-2.7,3.6
		c0.1,0.6,0.1,1.2,0.2,2c-0.6-0.4-0.9-0.6-1.3-0.8c-0.3-0.3-0.6-0.6-1.1-1.1c-0.4,1.1-0.4,2.3-1,2.8c-0.5,0.4-1.7-0.2-2.8-0.3
		c0.3,1.3,0.2,2.7-2.1,1.7c0.1,1.6,0.2,2.8,0.4,4.5c-1.5-0.4-2.8-0.9-4-0.9c-1.4,0-2.9-1-4.4,1.1c-0.8,1.1-4,3.1-6.7,0.8
		c-0.4-0.3-1.8,0.5-2.8,0.9c0.1-0.5,0.3-1.4,0.7-3.1c-2.7,1.9-4.7,3.4-6.5,4.7c-1.9-0.8-2.6-4.9-6.3-2.6c-2.3-2.1-5.4,2.4-7.7-1
		c-0.3-0.5-2.2,0.1-3.9,0.2c0.4-1,0.8-1.9,1.3-3c-1.7-0.2-3.6-0.5-5.9-0.7c1.2,1.7,2.1,3,3.1,4.3c-0.2,0.2-0.4,0.4-0.7,0.5
		c-2.7-0.7-5.3-1.5-8.4-2.3c-0.2,0.6-0.8,2.2-1.3,3.7c-0.3-0.1-0.7-0.2-1-0.3c-0.1-1.2-0.2-2.5-0.3-4.4c-1.5,1-2.7,1.7-4.5,2.8
		c-1.1-1.1-2.7-2.6-4.1-4.4c-2.4-3.1,2-4.2,2.1-6.7c-0.3,0.1-0.6,0.1-0.9,0.2c-1-4-2-8.1-3-12.1c-1.7,2.4-3.5,5-5,7.1
		c-1.9-1.1-3.8-2.3-5.8-3.5c-0.2,0.1-0.3,0.2-0.5,0.3c0.7,1,1.3,2,1.7,2.5c-1.2,0.5-2.3,1.1-3.6,1.6c0.1-0.6,0.2-1.4,0.3-2.6
		c-1,0.5-1.8,1-3,1.7c0.8-1.4,1.4-2.3,2.4-4c-1.4,0.8-2.3,1.3-3.9,2.2c1.7-2.4,2.8-4.4,4.3-5.9c1.5-1.5,3.5-2.5,4.4-3.1
		c-1.1-3.7-2-6.6-3-9.8c-0.8-0.1-2-0.3-3.2-0.4c-0.8,1.1-1.6,2.3-2,2.8c-2.7-1.2-5-2.2-7.4-3.2c0.3-0.2,0.9-0.6,1.4-0.8
		c-0.3-1.8-0.6-3.6-0.9-5.3c0.3-0.1,0.6-0.1,0.9-0.2c-0.5-0.1-1.1-0.3-1.7-0.5c0.2-0.4,0.3-0.7,0.4-0.7c2.2-0.7,4.9-0.7,5.1-3.9
		c0-0.3,0.6-0.7,1-0.8c5-0.7,5.1-4.3,4.8-8.2c3.8,1.6,3.3-2.7,5-3.4c-2.8-3.1-5.5-6.2-8.4-9.4c-0.4,0.6-0.8,1-1.6,2
		c-0.3-1.9-1-3.4-0.5-4.4c0.8-1.9-0.1-2.2-1.3-3c-1.3-0.9-2.3-2.3-3.5-3.3c-0.9-0.7-2-1.2-2.4-2.2c-1.7-2.4-3.8-4.6-5-7.3
		c-1.3-2.8-1.9-5.9-2.8-9c-2.5,0.1-4.8,1.5-6.2-1.8c-0.5-1.2-3.9-1-6.3-1.5c0.7-2.7,0.4-4.1-2.5-4.4c-1.4-0.1-2.9-2.1-3.8-3.6
		c-1.1-1.9,0.2-2.3,2.3-2.6c-1.1-0.6-2.2-1.2-3.3-1.8c-0.9,0.9-1.5,1.6-2.3,2.5c-1-0.6-1.9-1.2-2.8-1.8c-2,2.9-3.4,4.3-6,0.8
		c-0.8,0.4-1.5,0.8-2.9,1.5c-1.1-2.1-2.1-4.2-3.3-6.1c-0.5-0.8-1.5-2.1-1.9-2c-1.1,0.4-2,1.3-3,2.1c0.1-3.5-7.5-1.1-5.3-6.9
		c-1-0.7-2.1-1.4-3.2-2.1c-0.2-1.6-0.4-3.2-0.6-4.6c1.5-0.7,3.1-1.5,4.8-2.2c-2.8-1.8-5-3.3-7.6-5c-0.1,0.1-0.9,0.5-1.7,0.9
		c-1-0.7-1.9-1.4-3.7-2.7c1-0.2,1.9-0.4,2.7-0.6c-4-1-3.2,1.7-3.4,3.9c-5.7-1.9-11.1-3.8-17.1-5.8c0.7,0.9,1,1.4,1.2,1.5
		c-2.9,2.7-5,6.4-9.3,6.2c-1.4,0.1-2.9,0.2-4.3,0.2c-2.3,0.1-4.7,0.4-6.9,0.2c-0.8-0.1-1.4-1.7-2.4-3.1c-1.8,0.7-4,1.6-6.3,2.5
		c-2.3,0.1-3.7-5.2-7.3-1.1c-2.9-3.3-1-5.9,0.9-8.5c1.3-1.9,2.4-3.8,3.9-6.1c-2.1,0-3.4-0.1-4.8-0.1c-0.3-3.8,2.3-8-2.3-10.7
		c2-2.2,4.6-3.8,5.2-5.9c0.7-2.2-0.5-5-0.9-7.3c-2.4-0.6-4.6-1.2-7-1.8c0.1-0.2,0.7-0.8,0.6-1.4c0-1.3,0.9-2.7-1.5-3.5
		c-1.4-0.5-2.6-2.6-1.8-5c1.1-3.3,2.2-6.2,6-7c0.4-0.1,0.7-1,1-1.4c0.7-1,1.1-2.4,2-2.8c3-1.5,5.1-4,7.6-6c1.7-1.3,4.7-1,7.7-1.5
		c1.1-2.3,3.9-3,10.3-1.7c-1.1,0.5-2.1,0.9-3.1,1.3c0,0.2,0.1,0.4,0.1,0.5c0.4,0,0.8,0.1,1.5,0.1c-0.6,1.3-1.2,2.4-2.2,4.5
		c3.7,0.1,6.5,0.1,9.8,0.2c-1.5,2.8-2.7,5.5,0.4,7.8c1.8,1.4,3.6,2.8,5.4,4.2c0.5,0.4,1.2,1,1.2,1.5c0.2,3.6,3,3.2,5.1,2.9
		c3.2-0.3,6.4-0.9,9.3-2c2.4-0.9,4.5-2.8,6.8-4.4c1.3,2,2.7,2.4,5,1.6c1.7-0.6,3.9-0.1,5.8,0.3c3.3,0.8,5.2-0.3,6.5-3.5
		c0.9-2,2.6-3.5,3.8-5.3c1.3-1.8,2.6-3.7,3.9-5.6c0.2-0.3,0.7-0.5,1.3-0.9c0,1.2,0.1,2.2,0.1,2.5c2.3,0.9,4.2,1.9,6.3,2.4
		c1.7,0.4,4.1,1.2,5.2,0.4c1.4-1,2.7-2.9,2-5.4c-1-3.1-1.4-6.3-2.1-9.5c0,0,0.3,0,0.3,0c0.3-0.4,0.6-0.9,0.8-1.3
		c-2.1-1-4.1-2.6-6.3-2.8c-2.1-0.2-3.5-0.5-3.9-2.6c-0.3-1.8-1-2.7-3-2.6c-1.5,0-3-0.3-2.7-2.7c0.1-0.7-1.5-1.9-2.6-2.5
		c-1.8-1.1-4.1-1.6-1.6-4.5c1.6-1.9,2.4-4.6,3.6-6.8c-1-2.5-2.1-4.9-3.3-7.8c1.3-1,2.1-3.2,0.4-5.2c-1.4-1.5-3.5-2.3-5.6-3.6
		c1.1-0.6,2.1-0.9,3-1.6c0.6-0.5,1.4-2,1.4-2c-3.1-2.1-0.5-4.4-0.3-6.7c-0.5,0.5-1,1-1.3,1.3c-1.9-2.3-2.3-4.4,1.2-5.9
		c0.9-0.4,2.4-1.7,1.2-3.6c-0.4-0.6,0.4-1.9,0.8-3.1c-1,0.2-1.9,0.4-2.7,0.6c2.2-3,4.5-6,6.9-9.2c-0.5-0.9-1.1-1.9-2-3.3
		c1.6,0,2.9,0,4.4-0.1c0.5-1.2,1.1-2.5,1.7-3.9c-0.8,0.1-1.4,0.1-2,0.2c1.1-5.5,4-7.7,6.8-6.4c1.7-0.7,2.7-1.4,3.9-1.7
		c1.8-0.4,3.7-0.8,5.6-0.9c2.4-0.1,4.4-0.9,6-2.9c0.2-0.3,0.8-0.4,1.2-0.5c1.9-0.6,4.8-0.8,5.4-2c1.2-2.5,1.1-5.7,1.6-8.8
		c-1.7,0.2-2.9,0.4-4.1,0.6c-0.1-0.2-0.2-0.3-0.3-0.5c2.5-1.7,5.1-3.4,7.6-5.2c1.7-1.2,3.1-2.7,5.2-3.5c1.3-0.5,2.1-3.6,2.2-5.6
		c0.2-3.5,2.4-5.9,6-6c-0.3,3.9-0.5,7.9-0.7,11.5c2.3,0.1,3.8,0.2,5.7,0.4c0.9-1.5,1.9-3.2,3.1-5.3c0.1-1.1-4.1-1.8-0.5-3.7
		c-0.4-0.3-0.6-0.6-0.9-0.8c-1-0.6-3.6-0.2-2.3-2.4c0.6-1.1,2.9-2.2,4-1.8c1.8,0.5,3.2,2.3,4.5,3.3c2.5-1.7,5.5-3.3,8.1-5.5
		c1.8-1.5,3.4-1.4,5.4-1.3c2.3,0.1,4.7-0.7,7.1-1c1.1-0.2,2.2-0.2,3.5-0.3c0-1.5-3.2-3.5,0.5-5c0.4,1.1,0.8,2.1,1.1,3
		c3.2-0.7,7-5,7.3-8.3c1.7-0.2,3.4-0.5,5.2-0.7c0-1.5,0-2.8,0-4.3c0.8,0.3,1.6,0.5,2.4,0.8c1.1-2.5,4.5-2.7,9-0.6
		c-0.4,1.4-1.1,2.8-1.1,4.2c0,2.4-0.3,4-3.6,1.7c3.6,4.8-0.6,8.1-1.8,12.1c8.6,1.2,16.9,2.4,24.9,3.5c0.4,1.8,0.8,3.3,1.2,4.9
		c-0.8,0.4-1.6,1-3,1.8c1.5,0.6,2.3,0.9,3,1.2c-0.3,2.1-0.6,4.2-0.9,6.3c2.8-0.7,5.1-1.2,7.7-1.9c0,1.2-0.1,2,0.1,2.9
		c0.1,0.7,0.4,1.8,0.9,2c2.6,1.1,5.3,2.2,8,2.9c2.9,0.8,4-0.3,3.5-4.2c-0.3-2.6,0.4-4.1,1.9-6.2c1.6-2.1,1.5-5.4,2.3-8.2
		c0.3-1,0.7-1.9,1.3-3.5c0.5,1.2,0.7,1.8,0.8,2.1c2.1-1.4,4.4-2.7,6.4-4.3c0.5-0.4,0.8-1.6,0.6-2.3c-0.2-0.7-1.2-1.1-2.3-1.9
		c0-0.4-0.1-1.5-0.1-2.8c4,0,3.8-2.9,3.5-5.4c-0.3-2.9,0.6-5,2.7-7c1.2-1.2,2.1-2.8,2.8-4.4c1.8-3.9,3.9-5.8,8.6-7.1
		c0.4,0.8,0.9,1.7,1.4,2.8c1.3-1.8,2.6-3.4,3.5-4.6c2.9,2,4.9,3.4,6.3,4.4c2.2-0.7,3.7-1.2,5.3-1.7c0.2,0.3,0.4,0.6,0.6,0.8
		c-0.1-1-0.3-2.1-0.1-3.1c0.2-1.6,0.4-3.4,1.2-4.7c1.1-2.1,2.8-3.7,0.5-6.1c-0.5-0.5-0.2-2,0-3c0.5-2.7,1.6-5.3,1.8-7.9
		c0.3-3.4-0.1-6.8-0.2-10.2c0-0.7-0.5-1.4-1.1-2.8c2.1-1.5,4.4-3.5,7-4.9c3-1.6,5.3-6.5,3.9-9.5c-0.3-0.7-1.3-1.4-2-1.4
		c-2.2-0.1-6.7-2.6-6.9-4.7c-0.4-3.3-0.2-6.6-0.1-9.9c0-2.1,0.6-4.3,0.2-6.3c-1-5.4,1.4-10.9,6.3-13.6c0.9-0.5,1.9-1.3,2.4-2.2
		c1.4-2.9,3.5-4.8,6.2-6.4c2-1.1,3.5-1.9,4.7,0.9c0.3,0.7,1.1,1.2,1.8,1.9c1.4-0.9,2.5-1.7,3.8-2.4c0.5-0.3,1.7-0.5,1.8-0.3
		c1.9,2.9,4.4,1.5,6.9,1.1c0.7-0.1,1.5,0.4,2.9,0.8c0.6-1,1.4-2.6,2.4-4.1c0.8-1.2,1.4-2.9,2.5-3.4c3.1-1.4,6.7-1.9,9.6-3.5
		c4.4-2.4,9.1-1.4,13.7-1.6c5.3-0.3,10.6,0.1,15.8,0.6c1.7,0.1,3.3,1.4,4.9,2.2c2.5,1.1,4.6,3.3,7.9,1.8c1.9-0.9,4.4-0.5,7.3-0.8
		c0.5,0.9,1.2,2.4,1.9,3.8c-4.2,1.3-2.9,8.1-9.1,6.8c0.2,0.5,0.4,1.1,0.6,1.6c3.4-0.1,7,0.6,10.1-0.4c3.8-1.2,6.6-0.3,9.7,1.5
		c0.8,0.5,1.9,1.1,2.6,0.8c4.8-1.7,8,2.2,12,3.2c0.5,0.1,0.7,1.3,1.3,1.8c0.9,0.8,2,1.9,3.1,2.1c2.9,0.5,5.9,0.4,8.8,0.9
		c1.1,0.2,2.3,1,3,1.9c2,2.6,3.9,2.5,5.7,0.6c-0.5-1.4-0.9-2.7-1.3-3.9c1.4,0.1,2.9,0,4.2,0.4c1.3,0.4,2.5,1.2,4.4,2.2
		c-4.3,1.3-3.1,3.7-2.2,5.5c-2.1,0.6-4.1,1-5.9,1.9c-0.4,0.2-0.8,2-0.4,2.4c1.8,2.1,3.9,4.1,5.9,6c2.8,2.6,6.1,2.2,8.2-0.8
		c1.7-2.4,3.6-1.3,5.8-0.6c1.9,0.6,4,0.5,6.1,0.4c0.3,0,0.8-1.5,0.7-2.1c-1.3-6,2-9.7,6.5-12.5c0.9-0.5,2.7,0.5,4.1,0.8
		c0,0.3-0.1,0.7-0.1,1c0.4-0.1,0.8-0.2,1.2-0.2c1.9-0.4,2.6-4.1,5.6-2c1.6,1.2,3.6,1.7,5.2,2.9c3,2.1,4.7,1.7,5.4-1.8
		c0.3-1.7,0.7-2.5,2.8-2.8c2.8-0.4,5.5-1.8,8.3-2.7c0.6-0.2,1.5-0.6,1.9-0.4c4.5,2.7,9.1,1.4,13.8,0.8c1.1-0.2,2.6,0.4,3.6,1.1
		c2.5,1.8,4.7,4,7.2,5.7c1.8,1.2,4.1,1.7,6,2.8c1.6,0.9,3,2.1,4.4,3.3c1.6,1.5,2.5,4.1,5.7,2.8c1.3-0.5,3.2,0.2,4.7,0.8
		c1.4,0.5,2.7,1.6,3.6,3.1c0.9,0.2,2,0.2,2.7,0.7c2.6,2.1,5,4.4,7.6,6.5c0.6,0.5,1.8,1.2,2.1,0.9c2.7-1.8,4.2-0.2,5.8,1.8
		c0.7,0.9,1.8,1.6,3,2.6c0-1.5,0-2.5,0-3c1.6-1.3,2.9-2.2,4.6-3.6c0.5,1.3,1,2.6,1.6,4.4c0.6,0.2,1.8,0.5,2.8,0.8
		c0.6-1.1,1.2-2.1,2.2-3.9c0.5,1.4,0.8,2,0.9,2.5c0.5,2.2,1.7,3.1,3.8,2.2c3.2-1.3,6-0.7,8.4,1.9c1.7,1.8,3.4,3.3,6.3,3.2
		c2.4-0.1,2.6,0.1,1.9-2.3c-0.1-0.5,0.3-1.2,0.6-1.9c3.4,0.7,6.8,1,8.9,4.4c0.6,1,2.2,1.4,3.4,1.9c2.4,1.2,4.8,2.5,7.3,3.4
		c1.1,0.4,2.5,0.2,3.8,0.3c2.2,3.4,2.2,3.4,14.6,7c0.2-1,0.5-2.1,0.7-3.1c8.1-0.8,12.8,3.2,14.9,10.8c-0.3,0.2-1,0.7-1.7,1.2
		c-0.1,0-0.1,0.2-0.3,0.9c2-0.2,3.8-0.1,5.5-0.5c2.5-0.6,5-1.3,7.5-2.1c3.5-1.2,3.7-3.3,1.9-6.5c-1.4-2.6-2.6-4.3-6.1-3.1
		c0.6-1.9,1.3-3.3,1.5-4.7c0.1-1.1-0.5-2.3-0.6-3.5c-0.2-1.9-0.9-4-0.4-5.8c0.9-2.8-0.9-3.1-2.7-4.2c0.4,2.3-1.4,5.7-2.9,5.9
		c-1.3,0.2-4.3-3.1-4.8-4.4c-0.7-1.7-1.7-3.4-3-4.8c-1.4-1.5-3.3-2.5-5.4-4.1c1.4-0.8,2.1-1.2,2.9-1.7c-0.3-0.6-0.6-1.1-1-1.9
		c3.5,0.7,6.8,1.4,10.1,2.1c0.1-0.2,0.1-0.5,0.2-0.7c-0.9-0.4-1.8-0.7-2.7-1c0.5-1.1,0.9-2.3,1.5-3.7c1.8,0.6,3.8,1.3,5.9,2.1
		c0.8-1.1,1.6-2.4,2.1-3.1c3.9,3.2,7.4,6.5,11.2,9.1c0.8,0.6,3.5-0.5,4.6-1.6c3.3-3.3,6.6-6.6,9.2-10.4c2.1-3.2,4.3-3.3,7.3-2.2
		c1.9-3.2,3.8-6.5,5.8-9.8c-1.2-0.2-2.7-0.3-4.2-0.5c-0.1-0.2-0.2-0.5-0.2-0.7c1.1-0.4,2.1-1.1,3.2-1.2c4.8-0.3,9.6-0.6,14.4-0.5
		c2.1,0.1,4.4,0.8,4.8,3.6c3.2-0.6,3.9-2,1.6-4.2c-2.3-2.2-1.9-3.3,0.5-5c1.6-1.1,2.3-2.9,1.5-5.5c-0.6-1.8,0.9-4.1,1.2-6.3
		c0.3-1.6,0.2-3.2,0.4-5c0.9,0.1,2.5,0.2,4.7,0.3c-0.1-1.5-0.1-3-0.2-4.8c1.2,0.7,2.4,1.3,3.3,1.8c2.3-1.7,4.6-3.3,6.8-4.9
		c1.6-1.2,1.4-2.5,0.3-4c-1.4-1.8-1.5-3.4,1-4.8c1.5-0.9,2.5-2.6,3.8-3.9c1.6-1.7,3.4-3.8,4.9-4.7c3.5-1.9,4.8-5.5,7.7-7.6
		c0.3-0.2,0.6-0.4,0.7-0.7c1.8-6.3,7.6-7.5,12.4-9.9c1.9-1,3.8-1.9,5.4-3.1c3.7-2.8,7.8-4.2,12.5-3.8c2.1,0.2,4.1-0.7,5.6-2.5
		c0.6-0.8,1.3-1.3,2-2c4.7,4,6.8,4,12.1,0.7c0.8-0.5,2.1-0.1,3.2-0.1c0.9,0,1.7,0.3,2.7-0.2c-0.6-0.1-1.2-0.3-1.8-0.4
		c-0.1-0.3-0.3-0.7-0.4-1c3-1.7,5.8-3.9,9-4.8c2.2-0.6,4.9,0.8,7.4,1.1c2.1,0.2,4.2-1.8,6.2,0.2c1.1,1.1,3.1,2.6,2.9,3.5
		c-0.3,1.3-2.2,2.3-3.5,3.4c-0.8,0.7-1.5,1.4-2,2.6c2.6-1.5,4.1-1.3,6.3,0.9c1.4,1.4,4.6,1,7,1.2c4.5,0.5,8.6,1,11.8,5.3
		c2,2.7,5.6,4.5,8.6,6.3c0.7,0.5,2.5,0.2,3.3-0.4c1.9-1.5,2.9-0.8,3.9,0.8c1.1,1.8,2.3,3.5,3.3,5.3c0.3,0.6,0.5,1.7,0.2,2.3
		c-1.7,3.7-1.1,4.9,2.3,7.7c1.7,1.4,2.9,3.9,3.3,6.1c0.6,3.3,0.2,6.7,0.5,10c0.1,1.2,1.1,2.8,2.1,3.4c2.8,1.6,5.8,2.7,8.8,4.1
		c2.4,1.1,3.8,0.5,5.3-2c1.3-2.1,3.7-4.3,6.1-4.9c2.5-0.6,4.4,1.8,5.5,4.4c0.9,2,2,3.9,3.2,5.7c0.4,0.7,1.6,1.4,2.3,1.2
		c1-0.3,2.2-1.1,2.7-2c1-2.1-0.2-6.2-2.6-8.1c2.2-1.5,4.3-2.7,6.2-4.1c1.1-0.9,1.9-2.2,2.9-3.2c1.7-1.5,3.3-3.6,5.3-4.1
		c3.8-1,5.9-3.1,5.6-7.3c3.7-1.2,7.5-2.5,11.9-3.9c-4.1-1-7.5-1.9-11-2.8c0-0.3,0.1-0.7,0.1-1c0.8,0,1.5,0,2.5-0.1
		c-0.1-0.7-0.3-1.5-0.4-2.2c0.2-0.2,0.3-0.3,0.3-0.4c6.3-1.4,3.7-6.4,4.3-10.2c0.2-1.4,1.9-3.1,3.2-3.5c2-0.6,4.3-0.6,6.4-0.2
		c4,0.7,8.1-0.2,12,1.4c2.2,0.9,3.9-1.1,3.1-3.8c-0.7-2.4-0.6-4.6,1.5-5.9c2-1.2,4.4-2,6.6,0.2c0.8,0.8,2.5,0.7,3.6,1.3
		c0.8,0.4,1.4,1.3,2.3,1.8c0.9,0.6,2.6,1.5,2.8,1.3c2-2.5,6-2.9,6.8-6.8c0.3-1.4,1.9-2.6,3-3.9c0.6-0.8,1-1.8,1.8-2.3
		c1.7-1.1,3.6-2.6,5.5-2.6c2.6-0.1,2.2,2.5,2.3,4.3c0,1,0.1,1.9,0.2,3.9c1.6-1.2,2.5-2,3.6-2.7c1.9-1.2,3.8-2.6,5.8-3.4
		c2.1-0.8,4.4-1.2,6.7-1.4c1.1-0.1,2.4,0.3,3.3,0.9c1.8,1.2,3.2,1.6,5.5,0.6c2.7-1.2,5.7-2.4,8.5,0.6c0.6,0.7,2.5,0.8,3.7,0.5
		c4.5-1.3,8.4-0.5,12.1,2.4c1.1,0.9,3,1,4.5,1.1c1.7,0.1,3.6-0.5,5.2-0.2c1,0.2,2.5,1.5,2.5,2.3c0,3.7,1.3,6.5,4.5,8.5
		c1.1,0.7,1.5,1.8,1.4,3.4c-0.2,2.5,0.8,5.1,0.3,7.5c-0.5,2.3-2.7,4.2-3.6,6.5c-0.6,1.6-0.8,4.1,0,5.3c1.9,2.7,2.9,5.1,1.6,8.4
		c-0.8,1.9,2.4,6.1,4.8,6.6c4.9,1,8.5,4,12.3,7.1c3.1,2.5,6.1,6.4,11.3,3.8c0.9-0.5,2.9,1.3,4.5,2c1,0.5,2,0.8,3.3,0.8
		c3.7,4.1,5.4,10.2,12.6,11.6c-0.6-1.3-1.1-2.2-1.5-3.1c1.2-0.4,2.5-0.9,3.8-1.1c0.7-0.1,1.8,0.5,2.1,1.1c1.4,3,2.5,6.1,3.6,9
		c-1.6,0.9-2.5,1.3-3.3,1.8c2.1,1.7,4.7,2.7,5.5,4.6c0.8,1.9-0.1,4.6-0.2,6.9c-5.7,0-5.7,0-4.9,5c0.3,1.8,0.5,3.5-1.6,4.9
		c-2.3,1.6-1.5,3.3,1.7,4.3c-0.5,4.4-0.5,4.4,4.8,4.4c-0.1-0.7-0.2-1.4-0.3-2.5c2.1,1.4,4,2.6,5.3,3.4c-1.9,3.6-3.7,6.9-5.1,9.7
		c1.5,1.2,2.6,2.1,3.4,2.7c-0.5,1.3-0.8,2.3-1.2,3.3c0.9,0.1,1.7,0.1,3.1,0.2c1,2.7,2.2,5.9,3.6,9.1c0.3,0.7,1,1.1,1.4,1.7
		c0.5,0.8,1.5,1.7,1.3,2.4c-0.2,0.8-1.3,1.5-2.3,2.4c3.2,3.9,2.8,8.4,1,13.3c1.4,3.1,3.1,6.6,4.7,10.2c-3.9,1.6-4.4,3.7-2.1,7.5
		c0.8,1.4,2.3,2.4,1,4.3c-0.3,0.4,0.1,1.3,0.4,1.9c1.2,2.4,2.4,4.7,3.8,6.6c2.2,2,4.5,3.8,6.6,5.9c1.7,1.7,2.9,3.8,4.6,5.5
		c1.8,1.8,3.9,3.5,6,5c2.6,1.7,3.1,1.3,3.2-1.7c0-0.8,0.3-1.7,0.6-3.1c1,0.8,2.1,1.3,2.1,1.8c0.1,3.6,3.1,6.8,1.3,10.7
		c-0.3,0.6,0,1.5,0,2.3c0,2.2-0.1,4.3-2.2,5.9c-0.7,0.5-0.7,2.2-0.8,3.3c-0.1,1,0.2,1.9,0.3,2.9c-1.5,0.5-2.9,1-4.3,1.5
		c2.3,0.9,5.4,1.3,6.2,2.8c1,1.8,0,4.6,0.5,7.2c0.3-0.4,0.7-0.8,1-1.2c0,0.3,0,0.6-0.1,0.9c2.3,0.3,4.6,0.6,6.9,0.8
		c1.7,0.1,6.2,4.6,6.6,6.6c0.4,1.9,0.9,3.8,1.3,5.7c0.3-0.1,0.6-0.1,1-0.2c0.1-0.6,0.2-1.7,0.2-1.7c3.9,0.3,4.8-4.4,8.1-4.9
		c0.6-0.1,1.2,0,1.9,0c1.2-0.2,2.4-0.3,3.5-0.8c3.4-1.6,6.8-3.5,10.3-5c1-0.4,2.8-0.3,3.5,0.3c2.4,2.6,5.6,1.8,8.5,2.4
		c4,0.8,5.4,1.9,5.9,5.1c2,0.6,3.7,1.1,5.3,1.7c2.7,0.9,5.3,1.9,8.1,2.9c-0.2,2.4,1.6,4.2,4.8,4.5c1.6,0.2,3.2,0.5,4.7,1.2
		c0.7,0.3,1.5,1.9,1.3,2.5c-1.1,2.6,0.6,2.8,2.3,3.2c1.7,0.4,3.4,0.8,5.4,1.2c0.1-0.2,0.3-1,0.5-1.7c4.5,0.8,4.8,0.5,3.4-4.1
		c-1-0.1-2-0.1-3.4-0.2c1.7-1.7,3-3.3,4.5-4.5c2.3-1.7,11.8,1.5,12.2,4.4c0.6,4.8,4.1,7.2,7.3,9.7c1,0.7,3.5,0.9,4.4,0.1
		c2.6-2.3,4.5-0.4,6.2,0.7c4.3,2.7,8.6,5.6,12.4,8.9c2.3,2.1,4.4,5,5.3,7.9c0.7,2.2,1.9,3,3.5,3.2c2,0.3,4.2,0.1,6.2-0.2
		c1.7-0.3,2.2,0.2,2,1.8c-0.2,1.5-0.4,3-0.3,4.5c0.1,1.1,0.9,2.2,1.3,3.3c0.7-1,1.3-2.1,1.9-3c1.6,1.8,2.3,6.6,1,9
		c-2,3.7-1.1,5.7,3,6.8c0.8,0.2,1.5,1.2,2.3,1.3c1.6,0.4,3.2,0.8,4.7,1.2c0.4,0.1,0.8,0.7,1.1,0.6c5.2-0.8,8.5,3.2,12.8,4.9
		c0.8,0.3,1.9,0.8,2.5,0.5c3.8-2.1,7.4,0.7,11.1,0.3c3.7-0.4,5.6,2.3,7.3,4.7c2.3,3.4,5,3.9,8.6,2.6c2.6-0.9,4.4,0.9,6.4,2.2
		c4.2,2.8,6.8,6.6,8.7,11.2c0.3,0.6,2.5,1.2,3.2,0.8c3.2-1.9,6.3-1.7,9.6-0.4c1.3,0.5,2.8,0.4,4.4,0.6c2.3,2.2,4.8,4.7,7.4,7
		c3.6,3.2,7.5,6.1,10.7,9.7c1.1,1.3,0.3,4.3,0.3,6.5c0,0.6-0.6,1.1-0.9,1.7c1.3,0.7,2.5,1.2,3.7,1.8c1.8,0.9,5.3-1.5,6-4.1
		c1.2-4.4,2.4-5,7-3.7c0.9,0.2,1.9,0,2.8,0c1.3-0.1,2.6-0.3,3.9-0.5c0.1,0.3,0.1,0.6,0.2,0.9c-0.6,0.2-1.2,0.4-1.8,0.6
		c1.8,3,5.4,4.2,8,2.1c1.6-1.3,2.5-0.6,3.7,0c3.3,1.6,3.7,1.4,4.6-2.1c0.1-0.3,0.6-0.5,0.1-0.1c-1.6-2.5-3-4.8-4.6-7
		c-0.6-0.8-1.5-1.3-2.5-2c0.3-1.1,0.6-2.6,0.9-3.7c-1.3-0.7-2.6-1.1-3.5-1.8c-1.9-1.5-3.9-2.9-5.2-4.8c-0.8-1-0.4-2.9-0.5-4.9
		c2.4,0.3,4.1,0.6,5.8,0.8c3.1,0.3,6.2,0.6,9.3,0.9c2,0.2,3.6,2.9,6,1c1.1,2.1,2.5,4.1,3.2,6.4c0.4,1.2-0.3,2.7-0.5,4.5
		c-0.2,0-1.4,0.2-3.4,0.4c1.3,0.7,1.7,0.9,2.1,1.1c0,0.2,0,0.4,0,0.6c-1.1,0.1-2.2,0.1-3.2,0.2c0.3,1,0.7,2,0.8,2.4
		c1.7,0.5,2.8,0.8,4.1,1.2c2.7-0.4-1-6.4,4.6-5.3c-0.7,0.8-1.2,1.3-1.6,1.8c0.2,0.1,0.3,0.2,0.5,0.3c0.8,0.4,2.3,0.8,2.3,1
		c-0.1,1.4-0.4,3-1.1,4.2c-0.6,1.1-1.9,1.8-3,2.7c0.2,0.3,0.3,0.6,0.5,0.9c0.9-0.3,1.9-0.5,2.8-0.9c1.2-0.4,2.4-1.5,3.6-1.3
		c1.9,0.2,1.4,1.7,0.8,3c-0.1,0.4,0.6,1,0.6,1.5c-0.1,0.7-0.5,1.3-1.1,2.8c1.1,0.9,3,2.5,5.2,4.4c-1.2,4.9,4.2,5,6.8,6.7
		c3.3,2.2,3.8,1.6,4.6,4c2.9,1.4,5.1,2.4,7.3,3.4c-0.1,0.3-0.2,0.6-0.3,0.9c0.4-0.1,0.9-0.1,1.2-0.3c1.2-0.5,2.9-1.8,3.5-1.4
		c2,1.4,4.1,3.1,5.3,5.2c0.9,1.7,0.5,4.1,0.7,6.1c0.2,1.9,0.2,4,0.9,5.8c0.5,1.3,1.8,2.5,2.9,3.4c2.4,1.9,4.1,3.7,1.5,6.9
		c1,0.3,1.7,0.5,2.2,0.6c0,0.9-0.3,1.9,0.1,2.4c3.7,4.6,7.5,9.2,11.4,13.6c0.4,0.5,1.8,0.2,3.1,0.3c0.1,2.3,2.7,3.2,4.8,4.9
		c2.8,2.3,4.2,6.2,6.1,9.4c0.1,0.2-0.2,0.8-0.5,1.1c-0.3,0.3-1,0.6-1,0.8c-0.1,3.5-1.5,7.9,0.1,10.4c2.4,3.7,0.5,7.2,1.2,10.8
		c-0.5-0.4-1-0.8-1.7-1.3c-0.9,1.9-1.5,4.3-4.6,3.1c0.1,0.6,0.2,1.5,0.3,2.4c-2-0.1-4-0.3-6-0.4c0.2-0.2,0.4-0.4,0.6-0.5
		c-1.1-1.6-2-4.5-3.2-4.6c-2.1-0.3-5.2-0.2-6.3,2.7c-0.2,0.5,0.7,1.4,1.3,2.3c-0.8,1.6-1.8,3.7-3.2,6.6c1.3-1,1.8-1.4,2.4-1.8
		c0.7,3.9-1.6,6.1-6.3,6.2c-0.7,0-1.4,0-2,0.3c-3.6,1.6-7.2,3.5-11.1,0.7c-0.4-0.3-1.4-0.4-1.6-0.1c-3.6,4.5-9,2.1-13.4,3.1
		c-1.3,0.3-4.7-1-4.9-4c1.8,2.2,3.6,0.3,5.3-0.1c-0.1,0.6-0.2,1.2-0.4,1.9c1.7-0.6,3.2-1.1,5.1-1.7c-1-1.2-1.8-2.2-2.2-2.7
		c-1.1,1.1-1.8,1.8-2.6,2.5c-0.8-6.6-4.8-1-7.2-1.9c0.7,0.7,1.4,1.4,2,2c-1.6,2.2-3.7,2.6-6.2,2c-1.8-0.5-3.3-0.7-3.2,2.1
		c0.1,1.4-3.6,2.7-4.9,1.6c-2.2-2.1-4.6-1.8-6.8-0.8c-3.7,1.8-5.3-1.5-7.6-2.7c-1.8-0.9-2.8-1.8-5-0.5c-2,1.2-2.4-0.6-2.4-2.3
		c0-1.3-0.2-2.5-0.4-3.8c-0.4,0.3-0.7,0.6-1.1,0.9c-1.1-0.4-2.7-0.4-3.4-1.2c-1.2-1.4-2.1-1.6-3.9-0.9c-2.2,0.8-4.7,0.6-6.2,0.8
		c-1.6,4.1-3.1,7.4-4.3,10.9c-0.4,1.2-0.2,2.7-0.3,4.3c-1-1.1-2-2.2-3.1-3.3c-1.2-1.3-2.2-2.1-2.5,0.7c-0.1,0.9-1.8,1.7-2.9,2.5
		c-1.2,0.9-2.5,1.7-4.6,3c-0.2-0.4-0.7-1.1-1.7-2.7c0,1.8,0,3,0.1,4.5c-0.4,0.2-1.1,0.7-2.1,1.2c-0.4-1-0.8-1.8-1-2.3
		c-3.4,2-6.7,4.1-9.5,5.8c-0.9,2.7-1.6,5.3-2.6,7.9c-0.1,0.2-1.4,0.3-1.8,0c-2.1-1.3-2.6-1.1-3.6,1.2c-0.6,1.5-1.7,2.8-3,4.7
		c-0.5-1.4-0.7-2-1-2.7c-2.6,3.2-4.4,7.3-9.1,8c-0.9,0.1-2.1,0.2-2.7-0.3c-0.5-0.4-0.2-1.7-0.4-2.6c-0.9-3.6-1.8-7.3-2.9-10.8
		c-0.1-0.5-1.5-0.7-2.3-0.8c-0.9,0-4.9,4.3-5.5,5c-0.5,0.6-1.4,1-2.2,1.1c-1.2,0.1-3-0.7-3.6-0.1c-3.7,3.1-6.2,0.4-8.9-1.4
		c-0.3,0.7-0.5,1.5-0.6,1.9c-3.5-0.2-6.7-0.4-9.8-0.6c-0.5,1.1-1.1,2.4-1.8,3.7c3.6,1.1,2.7,4.6,2.2,7.1c-0.3,1.8-2.6,3.2-4.2,4.7
		c-0.3,0.2-1.5-0.1-1.9-0.6c-1.7-1.6-3.2-3.4-4.5-4.7c-2.5,1.4-4.7,2.2-6.4,3.5c-3.2,2.4-2.5-3-5.1-1.7c0.7-1.7,1.1-2.8,1.6-4.2
		c-1.4,0.2-2.3,0.3-3.2,0.5c0.1-0.8,0.6-1.8,0.3-2.5c-1.2-2.6-2.3-5.5-4.2-7.6c-0.7-0.8-3.4-0.1-5.1,0c-0.9,0.1-2.2,0.8-2.6,0.4
		c-3.6-3-5.8,0.8-9,1.1c0-0.7-0.1-2-0.2-3.2c-0.5,0-1.7,0.5-2.2,0.1c-1.6-1.3-2.8-3.1-4.4-4.5c-2.2-2-3.2-0.1-4.4,1.4
		c0,0,0.1-0.1,0.1-0.1c-1.1-2.7-3.3-1.4-5.1-1.2c-0.4,0-1,1.5-0.9,1.7c0.9,1.1,1.1,3.6,3.5,2.1l0.2,0c1.2,2-0.3,2.8-1.6,3.6
		c-4.1,2.5-4.4,3.2-3.2,7.7c0.2,0.6,0.2,1.3,0.3,1.9c0.6,3.9,0.4,4.1-2.8,4.1c-1.6,1.5-2.8,2.6-4.3,4c-1.4-2.2-2.4-4-3.5-5.6
		c-0.3-0.4-1.1-0.9-1.3-0.8c-2.4,1.5-3.3-0.5-3.7-1.9c-0.7-2.6-3.6-2.2-4.6-4.2c-1.3,2.4-2.4,4.6-3.7,7c0-1.8,0-3.7,0-6.2
		c-2.1,1.9-4.1,3.9-6.4,5.9c-0.6-0.5-1.3-1.1-2.3-2c0.8,3.2-1,2.5-3.2,1.6c0.1,2.8,0.1,5.2,0.2,8.2c0.2,0.2,0.8,1.1,1.3,1.8
		c-3.7,0.8-7.2,1.7-10.8,2.3c-1.5,0.2-3-0.1-4.5-0.2c-0.1-0.3-0.3-0.6-0.4-0.8c1.2-0.9,2.4-1.9,3.7-2.8c1.9-1.3,4.7-2.4,1.1-4.9
		c-0.3-0.2-0.1-1-0.2-1.7c-1.6-0.3-3.4-0.6-5.3-0.9c-0.2,0.4-0.4,0.8-0.5,1.1c1.1,0.7,2.1,1.3,3.6,2.3c-1.7,2.6-6.2,4.5-4.9,9.4
		c-1,0.2-1.9,0.5-3.1,0.8c0.7,1.7,1.4,3.2,2,4.7c-2.3-0.1-4.3-0.3-7-0.4c-0.6-1.6-1.4-3.9-2.1-6.2c-0.3,0.1-0.6,0.1-1,0.2
		c0.5,1.6,1,3.1,1.5,4.6c-0.9-0.3-1.8-0.7-2.8-1c0.1,1,0,2.1,0.2,3.1c0.2,0.9,0.9,1.9,0.9,2.8c-0.1,0.7-1.1,1.9-1.5,1.8
		c-2.2-0.2-4.3-0.8-6.8-1.4c0.6,2.1,1.2,4,1.8,6c1.8,0,3.8,0,6.3,0.1c0.2-1,0.5-2.4,0.8-4.3c0.9,1.6,1.6,2.6,2.2,3.7
		c1.5,0.6,2,3.9,4.7,1.9c1-0.6,1.9-1.4,3-1.9c1.5-0.8,3.1-1.3,4.6-2c0,0.1-0.1,0.8-0.2,1.5c1.8-1.2,3.4-3.3,5-3.3
		c2.9,0.1,1.7-1.8,2.1-2.9c0.3-0.6,0.8-1,1.2-1.6c0.3,0.5,0.7,0.9,0.9,1.5c0.7,1.8,2,3.7,2,5.5c-0.1,2-1.4,4-1.9,5.3
		c0.9,1.9,1.4,3.7,2.4,5c0.7,0.9,2.2,1.1,3.3,1.6l-0.1-0.1c-1.6,0.8-3.1,1.7-5.3,2.9c2.2,0.9,4,1.6,5.6,2.2c0.8,1.3,1.5,2.7,2.3,4
		c0.3-0.1,0.7-0.3,1-0.4c0.2-1,0.5-2.1,0.7-3.1l-0.1,0c1,0.6,1.7,2.7,3.4,0.8c-1.9,2.3-3.5,5-7.5,3.3c-2.7-1.2-4.5,0.2-5.7,3
		c-0.4,0.9-2.5,2-3.5,1.7c-2.8-0.7-5.3-2.7-8.1-3c-2.5-0.3-3.7-1.7-5.3-3.1c-0.7-0.7-1.7-1-2.6-1.5c0.3-0.3,0.6-0.6,0.8-0.9
		c-0.8,0.3-1.7,0.7-3.3,1.3c0.7-1.1,1.1-1.6,1.4-2.1c-1.9-0.4-1.9-0.4-8.9,5.7c1.7,0.1,2.9,0.2,4.3,0.3c-0.1,0.6-0.3,1.5-0.5,2.4
		c-0.1,0.8-0.3,1.7-0.7,2.8c-0.1-2.9-1.9-2.7-3.7-2.7c-4.3-0.2-2.2,3.9-3.9,5.5c2.3,1.9,4.4,3.6,6.5,5.3c-1.4,2-3,4.2-4.6,6.5
		c0,0-0.1,0-0.1,0c-0.5-1.2-1.1-2.4-1.7-3.8c0.9,0,1.6,0,2.2,0c-0.8-1.6-1.4-3.3-2.4-4.5c-0.6-0.7-2.1-1.1-3-1
		c-3.5,0.6-8.3-1.7-9.6-5.1c-1.2,0.7-2.4,1.4-3.6,1.9c-1.2,0.5-2.6,0.9-3.7,1.3c0.7-1.7,1.4-3.4,2.1-5c-0.2-0.3-0.4-0.6-0.6-0.9
		c-2.5,1.7-4.1,1.1-5.4-1.3c0.1,1.8,0.2,3.5,0.4,5.6c-1.2-0.6-2.1-1-3.2-1.5c-0.3,1.3-0.6,2.5-0.9,3.7c-0.2,0.1-0.4,0.1-0.6,0.2
		c-0.4-1.3-0.8-2.6-1.4-4.5c-1.5,0.5-3.2,1.1-4.9,1.7c0.1,0.3,0.1,0.7,0.2,1c-0.9-0.3-1.8-0.6-2.7-0.9c-2.3,3.7,1.9,5,2.2,7.7
		c0.3-0.1,0.7-0.2,1-0.4c-0.4-1.1-0.8-2.2-1.5-4c1.2,0.6,2.4,0.9,2.5,1.4c0.2,1.2,0.2,3-0.5,3.6c-1.2,1-3.1,1.2-4.7,1.7
		c-0.1-0.3-0.3-0.5-0.4-0.8c-0.9,1.2-1.7,2.5-2.7,3.9c-0.9-0.3-1.8-0.6-2.6-0.9c1.7,3.1,2.8,6.7,5.2,9c1.6,1.5,3.4,2.2,2.5,4.9
		c1.5,0.2,3,0.5,4.2,0.7c0.9,0.6,1.6,1.2,2.4,1.7c1.6,0.9,2.9,1.8,1.7,4.1c-0.8,1.6-0.8,3.6-1.4,5.4c-0.3,0.9-0.8,2.1-1.5,2.3
		c-0.7,0.2-1.9-0.4-2.6-1c-1.6-1.3-3.1-2.7-4.5-3.9c-1.4,1.1-2.7,2.1-3.6,2.8c-1.5-0.9-2.8-1.6-4.9-2.8c0.7,1.6,1.1,2.4,1.4,3.2
		c-0.1,0.1-0.2,0.4-0.4,0.5c-3.8,1.4-5.6,4.6-5.1,8.8c0.2,1.3-1.4,3.7-2.6,4.3c-0.6,0.3-0.9,1.1-1.3,1.7c-0.4,0.6-0.8,1.2-1.3,2.1
		c-1.3-1.2-2.4-2.3-3.5-3.4c-0.6,1.1-0.2,3.8-2.8,1.9c0,0-0.4,0.5-0.7,0.7c-1.6,1.2-3.2,2.3-5.3,3.7c-0.3-1.8-0.5-2.8-0.6-3.7
		c1.1-0.6,2-1,3-1.6c-3.5-3.3-6.3,1.8-9.6,0.3c0.3,2.6,0.6,2.7,3.9,1.1c0.2,2.4,0.6,4.6,0.5,6.9c0,0.9-1,2.6-1.6,2.6
		c-1.7,0-3.6-0.5-5.2-1.1c-1.1-0.4-1.9-1.5-3.3-2.6c0.8-2.3-1.6-2.3-3.9-2.3c-0.1-0.8-0.3-1.5-0.4-2.2c-0.3-0.1-0.6-0.3-0.9-0.4
		c-0.6,1.1-1.3,2.2-1.9,3.3c0,0,0.1-0.1,0.1-0.1c-0.4-0.8-1.1-1.6-1.2-2.5c-0.1-1.6,0.1-3.2,0.3-5c-2.1,0.1-3.4,0.2-4.7,0.3
		c0.1-1.6,0.2-2.9,0.2-3.9c-2.2-1.2-4.1-2.3-6.2-3.5c0.4-0.7,0.7-1.3,1.3-2.2c-2.2,0.3-4.1,0.5-6.4,0.8c2,2.6,1.3,7.9-1.1,9.3
		c-2.4,1.5-4.6,0.4-5.9-1c-0.1-2.9-0.2-5-0.3-7.5c-2.7-0.6-4.9-2.1-4.5-5.7c0-0.3-0.3-0.6-0.5-0.8c-3-2.2-1.4-3,1-3.7
		c0.4-0.1,0.7-0.4,1.5-0.9c-1-0.4-1.5-0.7-2.1-1c0.1-0.9,0.5-2,0.4-3.1c-0.3-1.8-1-3.6-1.5-5.4c-1.4,1.2-2.9,2.4-4.4,3.5
		c-0.7,0.5-1.7,1.2-2.5,1.1c-2.5-0.4-5-1.1-7.5-1.6c-0.3-0.1-0.6,0-0.9,0.1c-4.9,1.4-6.5-0.2-5.4-5.4c-1.4-0.6-2.8-1.3-4.2-2
		c-1.3,1.5-3,3.4-4.6,5.2c-2-3.3-3.8-6.4-5.6-9.4c-0.9,0.7-1.7,1.4-2.5,2c-0.1-0.2-0.1-0.3-0.2-0.5c-2.7,0.2-5.3,0.4-8,0.4
		c-1,0-2-0.7-2.2-0.8c-2.8,0.6-4.9,1.1-7.5,1.6c0.1,1.1,0.2,2.6,0.4,4.6c0.8-0.5,1.4-0.9,2.3-1.5c-0.8,1.9-1.4,3.6-2,5.3
		c-0.3,0-0.6,0-0.8,0c-1.2-2.5-2.4-4.9-3.5-7.5c-1.4-3.2-2.8-3.7-6.2-2.4c-0.8,0.3-1.9,0-3.1,0c1.8,7.6-3.7,3.4-6.3,4.2
		c0.1-0.7,0.2-1.4,0.3-2.2c-0.5-0.1-0.8-0.3-1.1-0.2c-0.5,0.2-1.3,0.8-1.4,0.7c-2.8-3.1-6.6-0.5-9.7-1.8c-1-0.4-2.4,0.2-3.6,0.4
		c-1.4,0.3-2.9,1-4.3,0.8c-1.2-0.1-2.4-1.2-3.5-1.8c0.7-0.9,1.4-1.7,2.1-2.6c0.2-0.3,0.4-0.5,0.7-1.1c-3.4,0-5.9-1-6.1-4.9
		c-1.5,0.3-2.9,0.6-4.4,0.8c0.2-0.2,0.4-0.4,0.5-0.6c-2.5-2-5-4-7.2-5.8c-1.4,0.5-2.8,1.1-4.2,1.5c-0.1,0-0.5-1.3-1-2.5
		c-0.9,1.2-1.7,2.3-2.9,4c-2,0.2-4.9,0.5-8.2,0.9c0.7,1.5,1.3,2.8,2.2,4.6c-1.8-0.2-3.4-0.4-4.8-0.6c-1,1.2-2.1,2.6-3.1,3.9
		c-0.2-0.1-0.4-0.2-0.6-0.3c0.6-1.1,1.1-2.2,2-3.9c-2.3,0.2-4.1,0.4-5.8,0.6c-0.4,1.4-0.9,2.7-1.5,4.5c-4.2-5.2-9.4-4.4-14.5-4
		c-0.5,0-0.9,1.3-1.8,2.6c-2.5,0.4-6.6-0.6-8.2,4.4c-0.9-1.2-1.6-2.2-3-4c-1.6,2.6-3,5-4.5,7.3c-0.4,0.6-0.9,1.1-1.5,1.5
		c-2,1.3-4.1,2.5-6,3.7c0.1,1.9,3.6,3.1,0.5,4.8c-0.9-0.4-1.8-0.8-2.6-1.1c-0.1,0.8-0.1,1.7-0.4,2.4c-0.2,0.5-0.8,0.9-1.2,1.3
		c-2.1-2.5-2.6,0.7-4.3,1.3c0.4-1.3,0.6-2.3,1-3.6c-2.3,0.7-4.4,1.4-6.4,2c-0.4,0.1-1,0.2-1.3-0.1c-2.8-2.9-6.2-2.3-9.6-1.9
		c-0.7,0.1-1.8-0.2-2.3-0.7c-2.6-3.1-6.2-3.5-9.9-3.6c-0.3,0-0.8,0-1,0.2c-1.8,2.2-3.6,4.4-5.6,6.9c-0.4,0-1.5,0-2.6,0
		c0,0.2,0,0.4-0.1,0.7c1,0.3,1.9,0.6,2.9,0.8c-0.7,1.5-1.3,2.9-1.8,3.9c-2.2-0.8-4.9-1.8-8.4-3.2c1.3-0.4,2.2-0.7,3-0.9
		c-0.2-0.3-0.3-0.6-0.5-0.8c-1.3,0.1-2.7,0.2-4,0.3c0.4-4.4-0.5-5.3-4.3-4c-2-2.5-3.7-5.2-5.9-7.4c-0.7-0.6-2.7,0.1-4,0.2
		c-0.6-1-1.2-2.1-1.9-3.2c-0.2,0.1-0.4,0.2-0.7,0.3c0.5,1.7,1.1,3.3,1.6,4.9c-4.1,4.5-9.7,2.7-13.4,3.4c-2.7-1.1-4.6-1.9-6.8-2.7
		c-0.5,1.8-0.8,3.2-1.4,5.4c-0.4-2-0.7-3.3-0.8-3.8c-1.8-0.1-3.2-0.2-4.6-0.3c-0.6,0-1.3,0-1.9,0.3c-2.1,1-4.2,2.2-6.5,3.4
		c0.4,0.8,0.9,1.8,1.1,2.2c-0.6,1.6-0.9,2.6-1.3,3.6c0,0,0.1,0,0.1,0c-2.2-2.9-4.4-5.7-6.6-8.6c4.6,2.7,4.7,2.7,6.8-2
		c-0.9,0.2-1.6,0.4-2.3,0.5c-0.1-0.2-0.2-0.4-0.3-0.5c0.8-0.6,1.7-1.2,2.7-2c-2.2-0.6,0.5-4.6-3-4.4c-0.1,2-0.3,3.9-0.4,5.7
		c-1.5-0.3-2.6-0.5-3.7-0.7c-0.1,1.1-0.2,2.2-0.3,3.4c-0.7,0.3-1.4,0.4-2,0.8c-1.1,0.9-2,1.9-3.6,3.4c-0.8-4-1.8-7.7-2.2-11.4
		c-0.3-2.5,1.8-3.6,4.7-2.8c1.1,0.3,2,1.1,3.4,1.9c1-1.3,2-2.7,3.3-3.9c0.4-0.3,1.4,0,2.8,0.1c0.8-1.8,1.9-4.1,2.9-6.4
		c-2-0.5-4.4-1-6.6-1.7c-0.2-0.1-0.3-2.1,0.1-2.4c1.5-1,3.2-1.6,4.1-2c-0.4-1.8-0.7-3.1-1.1-4.9c2,1.6,3.3,2.7,5,4.1
		c0-1.6,0-2.4,0-3.5c0.9,0.1,1.6,0.1,2.3,0.1c0-0.8,0.1-1.4,0.1-1.6c-2.5-0.6-4.9-1.2-7.4-1.8c0.2-1.8,0.5-4.2,0.8-6.9
		c1.6-0.2,4.1-0.4,3.5-3.9c1.7,0.9,3.1,1.8,4.6,2.6c0.1-0.2,0.3-0.4,0.4-0.6c-0.2-0.5-0.5-0.9-0.8-1.5c2.8-1.6,7.3-1.4,7.6-6.1
		c-2.3,0.7-4.6,1.2-6.9,2c-1.1,0.4-2.1,1.4-3.1,1.4c-1.4-0.1-2.8-0.9-3.9-2c-1.4-0.4-2.8-0.7-4.2-1.1c-1.7-0.4-3.3-1.7-5.1,0.2
		c-0.4,0.4-2.4-0.5-3.6-1c-1.1-0.4-2.2-1-3.2-1.5c-2.6-1.3-4.6-1.2-5.9,2.4c-0.4-1-0.7-1.5-1.1-2.4c-0.5,0.9-0.9,1.5-1.1,1.8
		c-1-0.7-1.9-1.3-2.8-1.9c-0.4-0.3-1-0.6-1.4-0.6c-3.1,0.4-6.1,1.4-9.2,1.2c-2-0.1-4-1.6-5.7-2.4c0,2.9-0.2,3-4.3,2
		c0.3-0.6,0.6-1.2,1-1.9c-0.8,0.2-1.4,0.2-2,0.4c-0.6,0.2-1.2,0.6-2.2,1.2c-0.5-1.3-1-2.4-1.5-3.6c-0.2,0-0.4,0-0.7-0.1
		c0.1,1.4,0.2,2.8,0.2,3.3c-3.3-0.6-6.9-1.2-10.6-1.8c0.1-1.8,0.1-3.5-2.6-1.5c-1,0.7-2.2,1.1-3.4,1.3c-2.2,0.3-5.4-1.1-4.7,3.5
		c0.1,0.6-2,1.6-3.7,2.9c0.2-1.8,0.3-2.7,0.4-3.8c-3.1-0.5-5.9-0.9-8.9-1.4c-1,2.1-1.4,4.3,2.7,4.8c-0.2,0.3-0.4,0.6-0.6,0.8
		c-2.1-0.7-4.3-1.4-5.4-1.7c-1.5,1.7-2.4,2.7-3.3,3.6c-0.2-0.2-0.5-0.3-0.7-0.5c0.2-0.6,0.5-1.2,0.7-1.9c-2.7,0.4-6.9-2-7.5-4.4
		c-2.6,1.8-6.8,1.7-8.4,0c-0.5,0.6-1,1.2-1.7,2c0.2,0.2,0.6,0.7,1.4,1.5c-1.3,0.1-2.1,0.2-3.1,0.3c0.9,0.8,2,1.5,2.4,2.4
		c0.3,0.7-0.2,1.8-0.4,2.7c-0.3,0-0.7-0.1-1-0.1c0.1-1,0.1-2,0.2-3.1c-4.2,3-7.4,2-13.5-4c-1.1,1.2-2.1,2.4-3.1,3.5
		c-0.5-1-1.1-2.1-1.7-3.3c0.1,3.7,3.8,7.6-1.7,11c1.4,1.2,2.5,2.2,3.7,3.3c-0.2,0.5-0.6,1.3-1.2,2.7c4-1.7,6.8-0.2,9.3,1.9
		c5.1,4.6,5.4,4.7,10.7,1c0.9,0.9,1.7,1.8,2.9,3c0.4-1.2,0.8-2.1,1-3.1c0.1-0.8-0.1-1.6-0.2-2.4c0.3,0,0.6,0,0.9-0.1
		c0.1,1.8,0.2,3.6,0.3,5.6c0.5-0.2,1.2-0.3,1.6-0.7c3.4-3.8,7.8-3.5,12.3-3.6c1.3,0,2.8-0.8,4-1.6c1.8-1.3,2.2-1.3,3.7,0.9
		c3.1-2.5,3.9-2.5,6.1,1c1.6,2.7,5,4.8,4,8.8c0,0.2,1.3,0.8,2.1,0.9c0.4,0.1,1.1-0.4,1.2-0.8c1.8-3.9,5.4-6.2,7.9-9.5
		c1.8-2.4,2.9-5.2,6.7-3.9c2.7,0.9,5.5,1.8,8.5,2.9c3-0.3,6.6-0.6,10.7-0.9c0.3-0.6,0.9-1.7,1.5-2.8c-1.2-0.7-2.3-1.3-3.6-2.1
		c3.5-0.9,4.7,0,6.2,4.2c1.3-1.5,2.3-3.4,3.9-4.5c1-0.7,2.8-0.3,4.2-0.1c0.2,0,0.1,1.9,0.1,3.4c-1.1-0.9-1.6-1.3-2-1.6
		c-1.4,4.9-2.7,9.6-3.9,13.8c1.5,0.2,3.2,0.4,5.4,0.6c-1.9,3.4-4.4,5-7.4,5.9c-0.6,0.2-1.5,0.2-1.8,0.6c-1.9,2.2-4.1,4.2-5.4,6.7
		c-0.8,1.4-0.6,3.7,0,5.4c0.8,2.4,0.3,4-2.1,5.4c0.9,0.8,1.7,1.5,1.9,1.7c-0.9,1.2-1.7,2.2-2.5,3.3c-1,1.4-2,2.5-4.1,1.4
		c-4.8-2.6-5.8-2.4-9.8,1.4c-1,0.9-1.8,2.1-2.8,2.8c-2,1.3-4,2-6.1,0.1c-0.7-0.6-1.5-1-2.5-1.6c0.1-0.5,0.2-1.4,0.2-1.6
		c-1.7-1-3-1.8-4.2-2.5c-1.3,1.1-2.7,3-4.5,3.7c-1.1,0.4-2.8-1.1-4.5-1.8c-0.3,0.7-0.9,2.3-1.6,4.2c-1.3-1.3-2.7-2.6-4.5-4.3
		c0.7,1.8,1.3,3.2,1.9,4.6c-1.4-1-2.9-2-4.1-2.9c0.5,3.6-4,2.8-5.6,4.3c-2.7-0.2-6.1-1.4-7.2-0.2c-1.7,1.6-1.7,4.9,0.5,7.8
		c-3.7-1.1-5.9,0.2-6.8,3.8c-0.1-1-0.3-1.9-0.4-3.3c-1,2.1-1.4,4.2-2.6,5.2c-1.3,1-3.4,1.2-5.2,1.5c-1.3,0.2-2.7,0-4.1,0.2
		c-0.8,0.1-1.5,0.5-2.9,1c-3.5-2.1-7.1,1.3-11.6,3.1c2.8,2,1.5,3.3-0.5,4.4c1.1,2.1,2.2,4,3.3,6c-2.7,0.3-3.2,1.4-0.9,3.5
		c-1.1,0.6-1.9,1-2.7,1.4c-0.7-3.8-3.7-2.2-5.9-2.8c0.9-0.9,1.7-1.8,2.9-2.9c-2.9-1-5.7-1.8-8.2-3.1c-2.2-1.1-4-2.8-6-4.3
		c-0.2,0.3-0.4,0.5-0.6,0.8c0.4,0.4,0.9,0.9,1.6,1.6c-1.3,0.2-2.3,0.5-3.2,0.4c-2.2-0.2-3.7,0.8-4.1,2.8c-0.7,3.2-2.9,5-6,6
		c-0.2-0.6-0.5-1.3-0.9-2.5c-0.3,1.4-0.4,2.3-0.8,4c-1.3-0.9-2.3-1.7-3.6-2.6c-0.2,0.1-1,0.5-1.8,1c-0.4-0.9-0.8-1.8-0.9-2
		c-1.8,0.2-4-0.3-4.7,0.5c-2.6,3.3-4.8,1-6.9,0c-1.2,1.1-2.3,2.1-3.7,3.4c-2.2-2.5-4.2-4.7-6.3-7.1c-3.9,0.9-4.2,0.8-3.7-2.5
		c0.5,0.6,0.9,1.2,1.6,2c0.1-1.2,0.1-2.1,0.2-3.3c-0.9-0.1-2.1-0.5-2.7-0.1c-2.6,1.7-4.1-0.2-5.7-1.5c-2.7-2.2-5.7-2.5-8.9-2
		c-0.5,0.1-1-0.2-1.8-0.4c-0.3,0.9-0.7,2.1-1.3,3.7c-0.6-1.4-1.1-3.1-1.3-3c-2.1,0.4-4.1,1.1-7,2c-3.1-2.5-2.7,3.4-4.1,3.7
		c-3.4-1.2-6-2-8.5-3c-0.6-0.2-0.8-1.3-1.2-1.8c-1.3,0.5-2.8,1.1-4.3,1.7c-0.6-2.5-0.2-5.7-3.9-6.3c-0.3-0.1-0.4-1.5-0.9-3.3
		c-1.2,1.9-2.5,3.3-3,4.9c-0.7,2.1,0.7,4.6,3.3,6.3c-0.7-1.2-1.1-2-1.6-2.8c3.4,1.1,3.9,4,0.8,7.5c1-4.8-2.8-5.3-5.2-5.7
		c-3.5-0.5-5.2-2-5.6-4.3c-2.3-0.3-4-0.6-5.8-0.9c0,0,0.2,0.1,0.2,0.1C1315.7,793.7,1315.3,794.2,1314.8,794.6
		C1314.9,794.7,1314.8,794.6,1314.8,794.6z M1110.8,620c2.7,2,5.3,0.2,8.3,0.3c-3.1-4.6-4.4-4.6-8.3-0.1c0.1-0.5,0.2-1,0.3-1.7
		c-1.6,0.4-2.9,0.7-4.2,1c-0.1,0.3-0.3,0.6-0.4,0.9c1.3,0.8,2.6,1.5,4.5,2.6C1110.9,621.4,1110.8,620.7,1110.8,620z M1638.8,758.9
		c-1.1-5.4-3.6-1.1-5.4-1c0,0.4-0.1,0.8-0.1,1.2c1.7,0,3.5,0,5.2,0c0.4,0.7,1,2.2,1.1,2.1c1.6-0.6,3.2-1.4,4.8-2.2
		c0-0.4-0.1-0.8-0.1-1.2c-1.2-0.6-2.4-1.7-3.5-1.6C1640.1,756.2,1639.5,757.9,1638.8,758.9z M1805.4,741.4c-0.4-2.3-0.8-4.6-1.1-6.8
		c-2.1-0.1-3.9-0.2-5.9-0.4c1.3,2.5,2.7,4.7,3.6,7.1c0.8,2.2,1.7,1.5,2.9,0.6c-0.5,1-1.1,2-1.4,2.7c1.7,0.7,3,1.3,4.9,2.2
		c1-2.6-1.2-6.9,2.8-9.3c-0.3-0.2-0.6-0.4-1-0.5C1808.6,738.6,1807,740,1805.4,741.4z M1440.6,321c-0.8,0-2.5-0.2-4.1-0.3
		c-1.7-0.1-3.6,0.3-5.1-0.3c-2.3-0.9-5.5-1.1-5-5.1c0-0.4-2.2-1.1-3.3-1.6c-0.2-0.1-0.3-0.1-0.5-0.2c0.1-1,0.1-1.9,0.1-2
		c-1.3-0.7-2.3-0.9-2.9-1.6c-4-4.6-4-4.6-9-1.3c-0.3,0.2-0.8,0.2-1,0.3c-2.2-2.6-4.3-4.9-6.7-7.7c-0.2,1.4-0.1,2.4-0.3,2.5
		c-1.3,0.4-2.6,0.6-4,0.9c0.2-0.6,0.4-1.1,0.5-1.6c-0.2-0.1-0.4-0.3-0.5-0.4c-0.6,0.6-1.2,1.3-1.8,1.9c1.3,1,2.6,2,4.1,3.1
		c-1.1,7.2,5.9,4.6,9.3,6.6c-2.1,1.7-4.1,3-2.5,5.8c1.1,1.9,2.2,3.9,3.4,5.9c-1.3,0.7-2.5,1.3-3.7,1.9c0.1,0.2,0.2,0.5,0.3,0.7
		c2.3-0.6,4.6-1.2,7.1-1.9c0.3,1.3,0.4,2.8,0.9,4c0.3,0.7,1.6,1.7,1.8,1.6c2.5-1.7,4,0.1,5.9,1.2c2.1,1.3,4.3,2.4,6.5,3.4
		c0.4,0.2,1.2,0.1,1.5-0.2c1.7-1.6,3.3-3.3,5-4.8c1.2-1,2.5-2,4-2.5c0.3-0.1,1.4,1.8,2.1,2.7c0.2,0,0.4,0,0.5,0
		C1442.3,328.6,1441.5,325.1,1440.6,321z M2205.7,518.9c1.4,3.3,3.6,5.8,3.4,8.1c-0.5,4.5,1.7,7.1,4.4,9.7c1.9,1.9,4.1,3.6,3.2,6.8
		c-0.1,0.5,0.6,1.3,0.9,2c1.3,2.2,2.7,4.5,4,6.7c0.6,1,1.1,2.3,2,3c2.2,1.9,4.6,3.6,6.8,5.5c2.3,2,7.3,1.7,9.6-0.5
		c1-0.9,2.6-1.5,3.9-1.7c2-0.4,5,1,5.7-1.8c0.4-1.5-1.4-3.5-2.2-5.3c-0.2,0.3-0.5,0.6-0.7,0.9c-1.5-0.3-3.3-0.2-4.3-1.1
		c-2.6-2.4,1.7-4.3,0.6-6.9c-2.7-1.1-5.5-2.4-8.7-3.7c-0.4,0.4-1,1-1.7,1.6c-2.2-1.5-4.1-3.7-6.2-3.9c-3.4-0.4-4.4-2.3-5.4-4.9
		c-0.5-1.4-1.5-2.6-1.9-3.3c0.2-1.5,0.3-2.4,0.5-3.4c-0.9,0-1.7-0.1-2.6,0c-1.7,0.3-3.4,0.6-4.8,0.9c-2.4-3.3,0.8-4.6,2.7-7.2
		C2211.9,520,2209.2,519.5,2205.7,518.9z M1038.3,375.4c-4-3.2-8.3-6.6-12.4-9.9c-1,0.8-1.7,1.4-2.7,2.1c-0.4-1.3-0.7-2.3-1.1-3.8
		c-1.3,1.6-2.2,2.7-3.2,4.1c-0.3-0.7-0.6-1.4-0.9-2c-2.6,2.7,1.6,7.2-3.2,9.7c0.4-1.2,0.6-2,0.8-2.7c-1.2,0.5-1.9,1.2-2.1,2.1
		c-1,3.9,5.9,10.5,10.6,10c0.5-0.1,1.1,0,1.7,0.1c1.4,0.3,2.8,0.6,4.7,1c0.1,0.1,0.7,0.9,1.3,1.7c0.7-0.6,1.7-1.2,1.9-1.9
		c0.7-2.6,2.3-3.8,4.6-3.5C1038.2,380.1,1038.3,377.9,1038.3,375.4z M1277.5,738.7c-2.8-1.6-4.6,4-6.6,0.4c-1.4,1.4-2.6,2.7-3.5,3.6
		c1.5,0.7,3.6,1,4.4,2.2c1.5,2.1,3,1.8,5,1.5c1.3-0.2,3.2-0.5,3.9,0.2c2.7,2.7,5.1,1.8,7,0.5c1.7,0.5,2.9,0.8,4.1,1.2
		c-0.6-2.3-1-3.8-1.3-5.3c-0.4-1.5-0.7-3.1-1.1-4.6c-1.2,0.4-2.3,0.9-3.7,1.4c-0.1-1.5-0.2-2.5-0.3-3.7c-1.2,0.9-2.1,1.6-2.3,1.8
		c-2.4-1.1-4.1-2-6.8-3.2C1276.8,736.5,1277,737.2,1277.5,738.7z M1940.6,699.3c2.1-1.1,4.1-2.1,6.1-3.1c-1.1-2-1.9-3.7-2.9-5.5
		c-0.4,0.3-1.2,0.8-2.1,1.4c-0.9-1.7-1.5-3.2-2.4-4.5c-0.4-0.6-1.1-1.3-1.7-1.3c-4.5-0.1-5.8-1-7.1-5.1c-0.4-1.2-1.3-2.3-1.9-3.3
		c-1.1,1.6-1.8,2.7-2.2,3.4c1.4,1.6,2.7,3.1,4,4.6c-0.9,0.6-1.8,1.3-3,2.1c0,2.4,1.9,3.8,4.5,4.8c0.9,0.4,1.4,1.8,2.2,2.7
		c0.5,0.6,1.1,1.5,1.6,1.5C1938.3,696.3,1940.4,696.3,1940.6,699.3z M1963.1,717.9c3.4,0.7,6.2,3.4,10.4,1.9
		c2.3-0.8,5.2,0.2,9.1,0.4c-1.8-2.4-3-4.1-4.3-5.8c-0.3,0.2-0.6,0.4-1,0.6c0.5-0.4,0.9-0.9,2.2-2c-1.9,0.5-2.9,0.8-3.9,1.1
		c-0.2-0.8-0.4-1.4-0.6-2.2c-0.4,1.1-0.7,1.9-1,2.7c-1.3-1-2.3-1.8-3.3-2.6c-0.5,1.1-0.8,1.7-1.1,2.4c-0.7-0.8-1.4-1.6-2.3-2.5
		c-2.3,3.1-4.5-0.3-6.8-0.6c0.1,2.7,0.2,5.4,0.3,8c0.3,0.3,0.6,0.5,0.9,0.8C1962.2,719.2,1962.7,718.5,1963.1,717.9z M1959.2,702.1
		c-3.5-0.7-6.7-1.6-10-1.9c-1.7-0.1-3.6,0.8-5,1.8c-0.5,0.4,0,2.8,0.7,3.8c1.1,1.6,2.7,2.7,4.1,4c1.3-3.9,4,0.7,6.1-1.6
		c-0.5-1-1.1-2.3-1.6-3.3c0.5-0.7,1.1-1.8,1.6-2.6c1.2,1.8,2.1,3,3.2,4.7C1958.7,704.9,1959,703.7,1959.2,702.1z M1466.3,317.7
		c-1.2-0.2-2.6-0.9-3.5-0.5c-4.2,1.9-6.1,5.5-6.7,10.2c0.7,0.4,1.6,0.8,2.5,1.3c-0.2-0.3-0.4-0.6-0.6-0.9c1.5-1.9,2.7-4.8,4.7-5.3
		C1465.4,321.8,1466.2,320.7,1466.3,317.7z M1598.7,744.3c-0.1,0.3-0.1,0.5-0.2,0.8c1.2,1.4,2.3,2.8,3.5,4.2
		c0.1-0.3,0.2-0.6,0.4-0.9c1.3,0.4,2.7,0.9,3.8,1.2c1.2-0.3,2.4-0.7,4-1.1c1.4-2.9,1.4-2.9-5.8-5.3c0.5,0.9,1.1,1.8,1.5,2.6
		C1603.4,745.2,1601.1,744.7,1598.7,744.3z M1519.2,764c0.7-3.2-0.5-5.1-3.4-5.1c-1.8,0-3.5,1-5.2,1.7c-0.6,0.2-0.8,1.1-1.2,1.7
		c0.6,0.4,1.2,1,1.8,1.1C1513.7,763.7,1516.4,763.9,1519.2,764z M1427.1,265.2c-0.1,0.4-0.2,0.8-0.4,1.2c1.4,0.9,2.9,2.5,4.3,2.5
		c4,0,6.1-2.3,6.8-7C1434.3,263.9,1430.9,265.4,1427.1,265.2z M1221,539.8c-0.1-0.3-0.2-0.5-0.3-0.8c-2.8,0.7-5.7,1.4-8.5,2.1
		c0.7-0.4,1.3-0.8,2-1.1c1.1,1.4,2.1,2.8,3.2,4.2c-0.5,0.4-1,0.9-1.5,1.3C1217.6,543.6,1219.3,541.7,1221,539.8z M1936.3,685.1
		c3.1-1.4,1-3.8,1-5.7c0-0.7-0.9-1.9-1.4-1.9c-0.8,0-1.9,0.7-2.4,1.4c-0.4,0.5-0.3,1.6,0,2.2
		C1934.2,682.4,1935.2,683.6,1936.3,685.1z M2204.4,532.2c0.3-0.1,0.7-0.2,1-0.3c0.1-1.7,0.5-3.5,0.2-5.2c-0.1-0.9-1.1-1.7-1.9-2.4
		c-0.2-0.2-1.4,0-1.4,0.2c-0.2,0.9-0.4,1.9-0.1,2.7C2202.9,528.9,2203.7,530.5,2204.4,532.2z M2250.2,546.3c-0.3,0-0.6,0.1-0.9,0.1
		c-0.4,0.7-1,1.5-1.1,2.2c-0.1,1,0.1,2.1,0.4,3c0.1,0.3,1.6,0.5,1.7,0.3c0.4-0.9,0.9-1.9,0.9-2.9
		C2251.1,548.1,2250.5,547.2,2250.2,546.3z M1759.9,174.6c-3.8-1.8-4.6-1.1-4.6,5C1757.1,177.6,1758.4,176.2,1759.9,174.6z
		 M1030.5,335.4c-1.7,1.7-3.1,3-4.8,4.8c2.2,0.6,3.5,1,4.8,1.3C1030.5,339.7,1030.5,338.2,1030.5,335.4z M881.7,392.1
		c0.3,0.1,0.6,0.3,0.8,0.4c3.6-2.4,3.8-2.6,2.7-6.9C883.8,388.4,882.7,390.3,881.7,392.1z M1217.4,669.8c3.7,0,5.4-1.7,4.9-5.1
		C1220.6,666.5,1219.2,668,1217.4,669.8z M1421.9,303.9c-0.1,1.5-0.2,2.9-0.3,4.4c0.2,0.1,0.4,0.3,0.5,0.4c1.1-1.4,2.2-2.9,3.3-4.3
		c-0.3-0.2-0.5-0.5-0.8-0.7C1423.8,303.7,1422.9,303.8,1421.9,303.9z M1579.9,753.6c0.9,0.6,1.8,1.3,2.7,1.9
		c0.4-0.2,0.7-0.4,1.1-0.5c-0.4-1.7-0.9-3.4-1.4-5.3C1581.2,751.3,1580.6,752.3,1579.9,753.6z M1218.4,664.4
		c-1.8-0.1-3.3-0.2-5.1-0.3c0.8,1.6,1.5,2.8,2.1,4C1216.4,666.9,1217.3,665.8,1218.4,664.4z M2252.1,556.2c-0.9,1.2-1.6,2.1-2.1,3
		c-0.3,0.5-0.3,1.2-0.2,1.8c0,0.2,1,0.6,1.1,0.5c0.7-1,1.6-2,2-3.2C2253.1,557.7,2252.4,556.8,2252.1,556.2z M1538.3,738.7
		c1.2-0.6,2.5-1.1,3.6-1.9c0.6-0.5,0.9-1.4,1.4-2.1c-0.4-0.2-0.8-0.4-1.1-0.6C1542,736.6,1536.9,735.3,1538.3,738.7z M1732.6,729.9
		c-0.1,0.3-0.2,0.6-0.3,0.9c0.9,0.8,1.8,1.7,2.3,2.2c1-1.1,1.7-1.8,2.6-2.8C1735.6,730,1734.1,730,1732.6,729.9z"/>
	<path class="st1" d="M1278.6,432.1c-0.8-0.2-1.6-0.3-2.3-0.5c0-0.5-0.3-1.3,0-1.6c0.8-1.1,1.7-2.2,2.8-3.1c0.1-0.1,1.8,1,1.8,1.5
		C1280.8,430,1281.6,432.3,1278.6,432.1z"/>
	<path class="st1" d="M1604,554.5c0,0-0.1-0.2-0.1-0.2C1604,554.3,1604,554.5,1604,554.5z"/>
	<path d="M1274,428.1C1274,428.1,1273.9,428.1,1274,428.1C1273.9,428.1,1274,428.1,1274,428.1z"/>
	<path d="M1272.7,429.5c0,0,0.2,0.1,0.2,0.1C1272.8,429.6,1272.7,429.5,1272.7,429.5z"/>
</g>
</svg>
