<?xml version="1.0" encoding="utf-8"?>
<!-- Generator: Adobe Illustrator 19.0.0, SVG Export Plug-In . SVG Version: 6.00 Build 0)  -->
<svg version="1.1" id="Layer_1" xmlns="http://www.w3.org/2000/svg" xmlns:xlink="http://www.w3.org/1999/xlink" x="0px" y="0px"
	 viewBox="0 0 2500 900" style="enable-background:new 0 0 2500 900;" xml:space="preserve">
<style type="text/css">
	.st0{fill:#55292E;}
	.st1{fill:#55292E;}
</style>
<g>
	<path class="st0" d="M2211.4,1116.3c-1.3-0.5-2.6-1.1-3.9-1.6c-0.7,0.3-1.5,0.6-2.2,0.9c-1.1,0.2-2.2,0.9-3.2,0.7
		c-2.1-0.4-4.1-1.3-6.1-1.9c0,0.4,0,0.8,0,1.2c-1,0.9-2.1,1.8-3.3,3c0.1,0.7,0.2,2.1,0.2,2.6c-2.4,0.8-4.7,1.9-7.2,2.4
		c-1.5,0.3-3.2-0.4-4.8-0.7c0-1.7,0-3.2,0-4.9c0.4,0.1,1.2,0.4,2.5,0.8c-1-1.8-1.8-3.2-2.5-4.5c1.4-1.4,2.7-2.9,1.3-4.8
		c-0.8-1-2.4-1.4-4.4-2.5c1.3,3.1,2.2,5.2,3.1,7.3c-2.7-0.9-2.5,1-2,3.3c-0.4-0.1-0.8-0.2-1.2-0.4c-1.4-2.5-2.8-5-4.3-7.7
		c-2,1.1-4.3,2-6.1-0.6c2.4,0.2,4.2-0.5,5-2.8c-1.1-0.4-1.9-0.7-2.5-0.9c-0.9,1.3-1.7,2.5-2.5,3.7c-1.1-0.4-2.6-0.5-3.3-1.3
		c-1.9-2.1-3.5-2.8-5.5-0.1c-0.9,1.2-2.4,2.1-3.7,3.2c-0.3-0.7-0.8-2-1.6-3.1c-0.3-0.4-1.1-0.7-1.7-0.8c-0.3,0-0.9,0.8-0.8,1.1
		c0.1,0.4,0.7,0.7,1.1,1.1c0.4,0.4,0.8,0.9,1.1,1.2c-3.5,0.4-6.6,0.7-9.7,1c0,0.4,0,0.9,0,1.3c3.1,0,6.2,0.1,9.4,0.1
		c0.3,0,0.9,0.1,0.9,0.3c0.7,3.3,3.2,2.8,5.7,3.3c2.9,0.5,4.3,2.7,3,6c2.6-3.6,5.7-1.5,9.2-1.2c-2.5,1.6-2.2,5.5-6.2,4.8
		c-0.2,0-0.7,2.1-1.3,3.7c0.2,0-0.3,0-1.1-0.1c0.3,0.7,0.6,1.3,0.8,1.9c-0.2,0.2-0.5,0.4-0.7,0.6c-0.7-0.8-1.2-1.7-2-2.3
		c-0.6-0.4-1.5-0.6-2.2-0.6c-0.7,0-1.5,0.2-2.5,0.3c0.5,0.7,1,1.4,1.4,2c-1.3,1.8-2.5,3.4-3.7,5.1c-0.4-0.1-0.8-0.2-1.2-0.3
		c0.1-2.1,0.3-4.2,0.4-6.6c-1.2-0.2-2.4-0.5-3.7-0.7c0.1-5.6-3.9-8.1-8.3-10.7c3.9-3.3-0.8-5-1.1-7.7c-0.6,0.3-1.2,0.6-1.9,0.9
		c0.1,0.4,0.2,0.7,0.4,1c0.3,0.8,0.8,1.6,0.9,2.4c0,0.1-1.4,0.8-1.5,0.7c-0.6-0.6-1.3-1.5-1.2-2.2c0.1-2.8-1.4-3.7-3.9-3.7
		c0,1.6,0.1,3-0.1,4.5c-0.1,0.8-0.6,1.6-0.9,2.4c-0.6-0.5-1.3-0.9-1.9-1.4c-0.3-0.3-0.5-0.7-0.6-0.8c0.8-0.6,1.4-1.1,2-1.6
		c-1.3-1.1-2.6-2.2-4-3.3c0.6-0.5,1.5-1.2,3-2.4c-3.8-1-6.9-1.8-10.7-2.8c0.5-1.2,1.3-3.2,2.1-5.3c-1.6-1.5-1.1-3.6,0.7-4.3
		c0.4-1.9,0.4-3.4,1-4.7c1.3-3-0.6-10.5-3.5-12.5c0.3-1.8,0.6-3.5,0.9-5.3c0.3,0,0.7,0,1-0.1c-1.8-2.9-7.2,2-7.7-3.7
		c4.2-0.7,2.6-4.7,4.2-7.4c-7.2,0.6-11.4,3.4-11.3,6.7c-1.6,0-3.3,0.1-4.9,0.1c0,0.4-0.1,0.7-0.1,1.1c0.6,0.5,1.2,1.1,2.5,2.2
		c-2-0.3-3.2-0.8-4.1-0.4c-0.9,0.4-1.3,1.7-1.8,2.4c-0.8-0.5-1.7-1.1-2.6-1.7c2.1,3-1.3,4.7-1.5,6.9c-0.1,1.5-1.2,2.9-2,4.8
		c-0.9,0-2.5-0.1-3.7-0.2c-6.3,5.4-12.5,10.8-18.5,16c-2.1-0.4-4-0.8-5.1-1c-1.5,1.9-2.4,3.3-3.6,4.4c-1.5,1.4-2.6,0.7-3.2-1.3
		c-0.4-1.2-1.5-2.3-2.5-3.2c-0.8-0.7-1.9-1.1-2.8-1.7c0.1-0.3,0.3-0.5,0.4-0.8c-1.2-0.3-2.4-0.6-3.7-0.8c4.9-1.2,4.9-5.7,5.3-8.6
		c0.5-3.5,2.2-5.3,4.9-7.8c-1.1-0.9-2.1-1.7-3.3-2.7c0.6-0.8,1.5-2.1,2.4-3.4c0.1,0.2,0.2,0.4,0.3,0.6c2.3,6,3.9,6.4,8.3,1.8
		c1.6-1.7,2.9-3.9,4-6c0.2-0.4-1.1-2.4-1.7-2.4c-1.8-0.1-3.6,0.5-5.4,0.9c-5.2,1.1-10-0.4-14.6-2.5c-1.7-0.7-1.5-2.1,0-3.1
		c1.5-1,3.1-2,4.7-3c-0.1-0.3-0.2-0.5-0.4-0.8c-1.7,0.1-3.3,0.2-5.2,0.4c0.8-1.4,1.5-2.5,2-3.3c-2.9-5.1-7.4-6.5-12.7-6
		c-0.7-3.7-3.9-7.1,0.1-10.5c1.3,0.8,2.6,1.9,2.4-1.1c-0.2-2.3-0.1-4.6-0.2-5.9c-2.8-2.1-5.1-3.8-8.1-6.1c3.4-2.2,6.5-4.1,10.2-6.4
		c-3.2-2-5.9-3.7-8.7-5.5c0.4-0.2,0.8-0.5,1.6-0.9c-1.2-0.3-2.1-0.5-3-0.7c0-0.2-0.2-0.5-0.1-0.6c0.9-1.3,3.1-2.5,0-3.7
		c0.9-1,1.9-3.1,2.6-2.9c3.4,0.6,3.4-1.4,3.9-3.7c0.9-4.2,1.1-9.2,3.6-12.1c2.5-3,2.1-6.3,3.9-9.8c0.7,0.4,1.5,0.9,2.2,1.3
		c3.1-2.6,6-5.1,8.9-7.5c0.1,0.2,0.3,0.5,0.4,0.7c0.2-0.9,0.5-1.8,0.6-2.7c0-0.8-0.1-1.7-0.3-2.5c-0.1-0.5-0.9-0.9-0.9-1.2
		c0.9-4-1.8-7-2.8-10.5c-0.2-0.6-1.6-1.4-2.4-1.3c-1.4,0.2-2.7,1-4.3,1.6c-1-2.4-3.5-2.5-6.3-1.1c0.1,0.6,0.3,1.2,0.6,2.7
		c-1.2-0.9-2.1-1.3-2.2-1.8c-0.9-2.9-2.4-2.8-5-2c-2.1,0.7-4.6,0-7.2,0c0,0.3,0.1,1,0.1,1.2c-1.4,1.3-2.4,2.3-3.3,3
		c-0.8-0.6-1.9-1.4-3-2.2c-0.2,1.1-0.4,2.3-0.5,3.4c0.3,0.1,0.6,0.2,0.9,0.3c-1,0.9-1.9,1.8-3,2.5c-3,1.9-3,1.9-1.8,4.1
		c-1.9,0.8-3.9,1.6-6,2.5c0.1,0.3,0.2,0.6,0.3,0.9c2.5,0,4.9,0.1,7.4,0.1c0,0.4,0.1,0.9,0.1,1.3c-0.9,0.1-1.9,0.4-2.8,0.3
		c-1.6-0.3-2.6-0.4-4.1,1.2c-1.3,1.5-4,3.6-7,1.3c-0.2,0.9-0.3,1.5-0.5,2.6c-2.1-5.3-4.7,0.3-6.8-0.7c-0.6-1.3-1.1-2.5-1.6-3.6
		c1.7-0.1,3.4-0.2,5.1-0.3c0-0.5,0.1-1,0.1-1.5c-1.1-0.2-2.3-0.9-3.3-0.6c-0.8,0.2-1.2,1.6-1.8,2.4c-1.1,0.1-2.3,0.1-3.4,0.2
		c-1.3,0.1-2.6,0.2-4,0c-0.5,1.3-0.8,3-3.5,2c-1.3-0.5-2.8,0.4-1.4,2.4c0.8,1.1,1.5,2.2,2,3.5c0.2,0.5-0.4,1.2-0.5,1.6
		c2.1,1.1,4.1,2.2,6.8,3.6c-0.9,1.2-1.7,2.2-2.4,3.1c-0.4,4.2-0.8,8.5-1.2,12.8c-1.4,0.5-2.8,0.9-4,1.5c-0.5,0.2-1.1,1-1.1,1.4
		c0.6,4.4,0.2,9.4,5.1,12c0.3,0.2,0.5,0.7,0.7,1.1c1-0.2,1.9-0.4,3-0.7c0.7,3.2,1.4,6.3,2,9.2c1.7-0.6,3.4-1.9,4.7-1.5
		c2.9,0.7,1.5,3.2,1.1,5c-0.7,3-0.3,3.5,3,3.2c-0.3-0.5-0.6-0.9-0.9-1.3c-0.3-0.3-0.6-0.5-0.9-0.7c1.1-2.3,2.3-1.7,3.8-0.6
		c2.1,1.6,4.2,3.2,6.5,1.3c1.2,2.1,2.2,4,3.5,6.3c-0.1,0.1-0.9,0.8-1.9,1.6c0.8,0.7,1.5,1.3,2.2,1.9c-1.3,0.3-2.5,0.7-3.8,1
		c0.1-0.2,0.2-0.3,0.3-0.5c-3-0.6-5.9-1.3-9.3-2c0.1,2,0.1,3.1,0.2,4.7c-2.3-3.6-2.7-3.7-6.5-2.2c2.5,3.5,4.9,7,7.5,10.6
		c2.3-0.7,2.5-2.1,0-4.7c3.9,0.5,6.8,0.6,9.7,1.3c0.8,0.2,1.8,2,1.6,2.9c-0.2,1.1-1.5,2-2.7,3.4c0.6,0.9,1.3,2.1,2.5,4
		c-1.3-0.1-2.2-0.2-3.3-0.3c0.1,2.1,0.1,4.8,0.2,7.5c0.3,0.1,0.6,0.2,0.9,0.3c1-1,2-2.1,3.2-3.3c0.2,0.6,0.4,1.3,0.6,2
		c0.2-0.2,0.3-0.5,0.5-0.7c1.5,1.2,3.3,2.2,4.5,3.6c0.4,0.4-0.3,2.2-1,3c-0.4,0.5-1.6,0.2-2.5,0.3c-0.1-0.3-0.2-0.6-0.3-0.9
		c-1.3,0.9-2.7,1.7-3.7,2.4c-1-1.4-1.8-2.4-2.6-3.4c-1.5,1.2-3.1,2.4-5.1,4c2.2,0.9,3.4,1.5,4.6,2c-2,2.2-1.7,5.1,0.6,7
		c1.4,1.1,1.1,2.7-0.5,3.7c-1,0.6-1.8,1.6-3.2,2.9c0,0-0.7-0.3-2.1-1c2,4-1.2,4.2-2.9,5.3c-1.2-1.1-2.3-2.3-3.4-3.4
		c0,0.3-0.1,0.5-0.1,0.8c-2.1-0.7-4.2-1.3-6.6-2.1c-0.4,2.5-0.6,4.3-0.9,6.3c-0.9,0.1-2,0.1-2.9,0.2c-1.6,3.2-3.1,6.2-4.7,9.6
		c-0.3-0.3-0.6-0.6-1.1-1c-1.5,3.1-3.3,4.4-6.5,1.6c-1.2-1.1-3.6-0.9-5.1-1.3c-0.8,1.2-1.7,2.6-3,4.4c-1.6-4-3-7.4-4.3-10.9
		c0.2-0.1,0.3-0.3,0.5-0.4c0.7,0.6,1.5,1.3,2.7,2.3c0.1-1.3,0.5-2.6,0.1-3.1c-1-1.2-2.4-2-4.2-3.4c0,0,0.1-1,0.1-1.9
		c-0.2,0.2-0.4,0.3-0.7,0.5c-0.7-0.8-1.6-1.5-2-2.4c-1.3-2.5-2.1-5.3-3.6-7.7c-1.7-2.8-6.1-2.5-8.4,0.7c-1,1.4-3.6,2.1-2.6,4.9
		c0.1,0.4-2.2,2-3.5,2.4c-1.8,0.5-2.4,1.4-2.6,3.2c-0.3,3.1-1.7,3.8-5.4,1.9c2.1,4,7,4.4,8.3,8.6c-1.8,0.1-3.1,0.2-4.6,0.3
		c0-0.5-0.1-1.1-0.2-1.8c-0.3,0-0.7-0.1-1-0.1c-1.2,4.2,1.4,9.2-1,11.7c-3.9,1.7-6.3,3-9,3.8c-2.7,0.8-5.1,3.8-8.5,0.8
		c-0.9-0.8-3.9,0-3.4,4c-1.1-1.9-1.5-2.8-2.5-4.5c-0.1,2.4-0.1,3.8-0.2,5.5c-1-0.2-2.1-0.3-3.4-0.5c0.6,2.4-3.1,5.1,0.5,6.6
		c0.4,2.4,0.6,4.4,1.1,6.4c1.2,4.6-0.2,6.6-5.1,7.5c-1.6,0.3-3.9,1.3-4.4,2.6c-0.6,1.7-0.6,4.9,0.5,5.7c1.9,1.4,4.9,2.1,7.3,1.8
		c2.6-0.3,5.1-1.9,6.8,1.3c0.6,1.1,1.2,3.2,0.8,3.6c-2.2,1.7-0.1,3,0,4c1.1,0.1,2.1,0.2,2.6,0.2c-1,2-1.9,3.8-3,5.9
		c-0.3,0-1.7-0.5-2.6,0c-0.7,0.4-0.9,1.9-1,3.1c-4.3,3.1-9.4,1.9-14.4,2.1c-1.2,0-2.4,1-3.7,1.6c0.7,0.8,1.4,1.7,2.2,2.6
		c-0.9,1.2-2.1,2.9-3.4,4.4c-0.4,0.4-1.4,0.3-2.1,0.2c-0.2,0-0.3-1-0.4-1.6c0.5-0.1,1.1-0.1,2.5-0.3c-1.7-1.5-3.6-2.6-4.8-4.2
		c-2.1-2.8-4,0.8-6.1,0.4c-1.4,1.2-3.1,2.6-5.1,4.4c-5.3-3-4.7,3-6.8,5.5c0.4,0.5,1.1,1.3,2.1,2.5c-1.9,0.5-3.6,1-5.3,1.4
		c-0.3-0.3-0.5-0.5-0.8-0.8c-1,2.5-1.9,4.9-3.3,8.3c1.6,0.1,2.7,0.2,3.8,0.3c0,0-0.2-0.1-0.2-0.1c2,2.5,1.9,3-0.3,4.4
		c0.4,0.5,0.8,0.9,1.3,1.6c-0.7,0-1.1,0-1.5,0c-0.4,0-0.8-0.2-1.5-0.3c0.3,1.1,0.9,2.2,0.7,2.9c-0.2,0.6-1.5,0.8-2.5,1.2
		c1,0.9,1.6,2.2-0.8,2.5c1,1.2,1.7,2.3,2.8,3.6c-1.5,0.5-2.8,0.7-3.8,1.4c-1.2,0.8-3,0.7-3.1,3.3c-0.1,1.4-1.7,4.8-5.2,4.3
		c-0.5-0.1-1.2,1.4-1.8,2.2c-0.2-0.5-0.5-1.3-1.1-2.9c-1.2,3.1-2.1,5.4-2.9,7.5c-2.1,0.4-4.8-2.7-6.7,1.3c-3-0.5-3.2,4.9-7,3.3
		c-0.5-0.2-1.8,1.3-3.1,2.3c-0.2-1-0.4-2.1-0.6-3.2c-1.6,0.8-3.3,1.6-5.4,2.6c1.9,0.8,3.4,1.4,4.9,2c-0.1,0.3-0.2,0.5-0.3,0.8
		c-2.6,0.8-5.3,1.7-8.3,2.6c0.2,0.7,0.5,2.2,0.9,3.8c-0.3,0.1-0.7,0.2-1,0.3c-0.7-1-1.5-2-2.6-3.6c-0.8,1.6-1.4,2.9-2.3,4.8
		c-1.5-0.4-3.7-0.7-5.8-1.5c-3.7-1.3-0.6-4.7-1.8-6.7c-0.2,0.2-0.4,0.4-0.6,0.7c-3-2.9-6-5.7-9-8.6c-0.1,2.9-0.2,6-0.3,8.7
		c-2.2,0.1-4.5,0.1-6.8,0.2c-0.1,0.2-0.2,0.3-0.3,0.5c1.1,0.5,2.2,0.9,2.8,1.2c-0.7,1.1-1.3,2.1-2.1,3.3c-0.3-0.6-0.6-1.3-1.1-2.4
		c-0.5,1-1,1.8-1.6,3c0-1.6-0.1-2.7-0.1-4.6c-0.8,1.4-1.2,2.3-2.1,4c0.1-3-0.1-5.2,0.4-7.2c0.5-2.1,1.6-4,2-5
		c-3-2.5-5.3-4.5-7.8-6.6c-0.7,0.3-1.8,0.9-3,1.4c-0.1,1.4-0.2,2.8-0.2,3.4c-2.9,0.5-5.4,0.9-7.9,1.3c0.2-0.4,0.5-1,0.7-1.4
		c-1.2-1.4-2.4-2.7-3.6-4c0.2-0.2,0.4-0.4,0.7-0.6c-0.5,0.2-1.1,0.3-1.7,0.5c0-0.4-0.2-0.7-0.1-0.9c1.4-1.8,3.8-3.2,2.2-6.1
		c-0.1-0.2,0.1-0.9,0.4-1.2c3.9-3.3,2-6.4-0.4-9.5c4.1-0.7,1.4-4.1,2.4-5.5c-4-1.1-8-2.2-12.1-3.3c-0.1,0.7-0.1,1.2-0.2,2.6
		c-1.2-1.4-2.7-2.3-2.8-3.4c-0.3-2-1.3-1.8-2.7-1.8c-1.6,0-3.2-0.7-4.8-0.9c-1.2-0.1-2.4,0-3.2-0.5c-2.7-1.1-5.7-1.9-8.1-3.4
		c-2.6-1.6-4.8-4-7.2-6c-2.1,1.5-3.2,3.8-6.2,1.9c-1.1-0.7-3.8,1.3-6.1,2.1c-0.9-2.6-1.9-3.6-4.4-2.3c-1.2,0.6-3.6-0.2-5.1-1
		c-1.9-1-1.1-2.1,0.5-3.5c-1.3,0.1-2.6,0.2-3.8,0.3c-0.2,1.3-0.4,2.2-0.6,3.3c-1.2,0-2.3,0-3.3,0c-0.1,3.5-0.6,5.4-4.6,3.9
		c-0.4,0.7-0.9,1.5-1.6,2.8c-2.1-1.2-4.1-2.3-6.1-3.4c-0.8-0.4-2.4-1-2.7-0.6c-0.7,0.9-0.9,2.2-1.4,3.4c-1.8-3-6.9,3.1-8.2-2.9
		c-1.2,0-2.5,0-3.9,0c-1-1.2-2.1-2.5-3-3.5c0.9-1.4,1.8-2.9,2.8-4.5c-3.3,0-6,0-9.1,0c-0.1,0.1-0.5,0.9-0.9,1.7
		c-1.2-0.1-2.4-0.2-4.6-0.3c0.8-0.8,1.4-1.4,2-2c-3.9,1.3-1.7,3.1-0.7,5.1c-5.8,1.4-11.4,2.8-17.5,4.3c1.1,0.4,1.6,0.6,1.8,0.7
		c-1,3.8-0.7,8.1-4.5,10.3c-1.2,0.8-2.3,1.7-3.5,2.5c-1.9,1.3-3.7,2.9-5.7,3.9c-0.7,0.3-2.1-0.7-3.7-1.3c-1.1,1.5-2.5,3.5-3.9,5.5
		c-1.9,1.3-5.9-2.4-6.7,3c-4.2-1.2-4-4.4-3.9-7.7c0.1-2.3,0-4.6-0.1-7.3c-1.8,1.1-2.9,1.8-4.1,2.5c-2.3-3-2.3-8-7.7-7.7
		c0.5-2.9,1.8-5.6,1.2-7.8c-0.6-2.2-3.1-3.9-4.7-5.7c-2.4,0.8-4.5,1.5-6.9,2.3c0-0.2,0.1-1-0.2-1.5c-0.7-1-0.7-2.8-3.2-2.1
		c-1.5,0.4-3.6-0.7-4.3-3.3c-0.9-3.4-1.5-6.4,1.3-9.1c0.3-0.3,0-1.2,0.1-1.8c0-1.2-0.4-2.6,0.2-3.5c1.7-2.9,2.2-6.1,3.2-9.2
		c0.7-2,3.4-3.4,5.7-5.5c-0.3-2.6,1.7-4.7,7.8-7c-0.7,1-1.3,1.9-1.9,2.8c0.1,0.1,0.3,0.3,0.4,0.4c0.4-0.2,0.7-0.4,1.3-0.7
		c0.2,1.4,0.3,2.6,0.6,5c3.1-1.9,5.6-3.4,8.3-5.1c0.2,3.2,0.7,6.1,4.6,6.4c2.3,0.2,4.6,0.4,6.8,0.6c0.6,0.1,1.5,0.2,1.8,0.6
		c2.1,2.9,4.2,1.1,5.9-0.3c2.5-2,4.9-4.2,6.8-6.7c1.5-2.1,2.2-4.8,3.4-7.4c2.2,1,3.6,0.6,5.1-1.4c1.1-1.4,3.2-2.2,5.1-2.9
		c3.2-1.1,4.2-3.1,3.6-6.4c-0.3-2.1,0.2-4.4,0.3-6.6c0.1-2.3,0.1-4.5,0.2-6.8c0-0.4,0.3-0.8,0.6-1.4c0.7,1,1.2,1.8,1.4,2.1
		c2.5-0.5,4.6-0.7,6.5-1.4c1.7-0.6,4-1.2,4.6-2.5c0.7-1.6,0.7-3.9-1.3-5.6c-2.5-2.1-4.6-4.5-6.9-6.8c0,0,0.2-0.2,0.2-0.2
		c0-0.5,0-1,0-1.6c-2.3,0.3-4.9,0.1-6.8,1c-1.9,0.9-3.2,1.5-4.7-0.1c-1.2-1.3-2.3-1.7-4-0.6c-1.3,0.9-2.7,1.3-3.8-0.8
		c-0.3-0.7-2.3-0.7-3.5-0.7c-2.1,0.1-4.3,0.9-3.8-2.9c0.3-2.5-0.4-5.2-0.7-7.7c-2.2-1.5-4.4-3-7-4.8c0.6-1.6,0-3.9-2.5-4.6
		c-2-0.5-4.2,0-6.7,0c0.6-1.1,1.3-1.9,1.6-2.9c0.3-0.8,0.1-2.4,0.1-2.4c-3.7-0.1-2.8-3.4-3.9-5.5c-0.1,0.7-0.3,1.4-0.4,1.8
		c-2.9-0.9-4.3-2.4-2.2-5.6c0.6-0.9,1.1-2.7-0.9-3.7c-0.6-0.3-0.7-1.8-1-3.1c-0.7,0.7-1.4,1.4-1.9,2c0.3-3.7,0.5-7.5,0.8-11.5
		c-0.9-0.5-2-1-3.5-1.7c1.3-0.9,2.4-1.6,3.7-2.4c-0.2-1.3-0.4-2.7-0.7-4.2c-0.6,0.5-1.1,0.9-1.6,1.3c-2-5.2-0.8-8.6,2.3-9.1
		c1-1.5,1.5-2.7,2.4-3.5c1.3-1.4,2.7-2.7,4.3-3.8c2-1.4,3.3-3.2,3.5-5.6c0-0.4,0.4-0.8,0.7-1.1c1.2-1.6,3.6-3.2,3.4-4.6
		c-0.4-2.8-2.1-5.3-3.5-8.3c-1.3,1.1-2.2,1.9-3.2,2.7c-0.2-0.1-0.3-0.2-0.5-0.3c1.2-2.8,2.4-5.6,3.6-8.4c0.8-1.9,1.2-3.9,2.5-5.8
		c0.8-1.1-0.2-4.2-1.2-5.9c-1.7-3.1-1.2-6.2,1.8-8.3c1.9,3.5,3.9,6.9,5.6,10.1c2-1.1,3.3-1.8,5-2.8c-0.1-1.7-0.2-3.7-0.3-6.1
		c-0.5-1-4.4,0.7-2.4-2.8c-0.5-0.1-0.8-0.2-1.1-0.2c-1.2,0-3.1,1.7-3.3-0.7c-0.1-1.2,1.3-3.4,2.4-3.7c1.8-0.5,3.9,0.2,5.6,0.3
		c1.2-2.7,2.8-5.8,3.9-9c0.7-2.2,2.1-3,3.9-4c2-1.2,3.6-3.1,5.4-4.7c0.8-0.7,1.7-1.3,2.7-2.1c-0.8-1.3-4.6-1.2-2.3-4.4
		c0.9,0.7,1.8,1.3,2.6,1.9c2.3-2.3,3.2-7.9,1.7-10.9c1.3-1.1,2.6-2.2,3.9-3.4c-0.8-1.2-1.5-2.3-2.3-3.6c0.8-0.2,1.6-0.4,2.4-0.6
		c-0.4-2.7,2.3-4.7,7.2-5.4c0.4,1.4,0.6,3,1.3,4.1c1.3,2.1,1.9,3.5-2.1,3.4c5.6,2.1,3.9,7.1,5,11.1c7.9-3.6,15.5-7.1,22.9-10.5
		c1.3,1.3,2.5,2.4,3.7,3.5c-0.4,0.8-0.8,1.7-1.6,3.1c1.6-0.3,2.4-0.5,3.2-0.6c0.9,2,1.7,3.9,2.6,5.8c2-2.1,3.6-3.8,5.5-5.7
		c0.7,1,1.1,1.7,1.6,2.3c0.5,0.5,1.3,1.3,1.8,1.2c2.8-0.5,5.6-1,8.3-1.9c2.8-0.9,3.2-2.4,0.7-5.4c-1.6-2-1.9-3.7-1.7-6.3
		c0.2-2.7-1.7-5.4-2.5-8.1c-0.3-0.9-0.4-2-0.8-3.6c1.1,0.8,1.5,1.1,1.8,1.3c1-2.3,2.2-4.6,3.1-7.1c0.2-0.6-0.2-1.8-0.7-2.2
		c-0.6-0.4-1.6-0.2-3-0.3c-0.2-0.3-0.9-1.2-1.6-2.3c3.3-2.1,1.6-4.5,0-6.5c-1.8-2.3-2.2-4.5-1.5-7.3c0.4-1.6,0.3-3.5,0-5.2
		c-0.6-4.2,0.1-6.9,3.3-10.6c0.8,0.5,1.6,1,2.7,1.6c0.2-2.2,0.4-4.3,0.5-5.7c3.5,0.1,6,0.2,7.6,0.3c1.4-1.7,2.5-3,3.6-4.3
		c0.3,0.1,0.6,0.3,1,0.4c-0.6-0.8-1.4-1.6-1.8-2.6c-0.7-1.5-1.5-3-1.6-4.6c-0.2-2.3,0.3-4.7-2.9-5.4c-0.7-0.2-1.2-1.6-1.6-2.6
		c-1-2.5-1.5-5.3-2.8-7.6c-1.6-3-3.7-5.7-5.7-8.4c-0.4-0.6-1.2-0.9-2.5-1.7c0.9-2.4,1.8-5.3,3.2-7.9c1.6-3,1-8.4-1.9-10.1
		c-0.6-0.4-1.8-0.5-2.5-0.1c-1.9,1.1-7,1.4-8.3-0.2c-2.1-2.5-3.7-5.5-5.5-8.3c-1.1-1.8-1.8-3.9-3.2-5.4c-3.8-4-4.7-9.9-2.1-14.8
		c0.5-0.9,1-2.1,0.8-3.1c-0.4-3.2,0.4-6,1.8-8.7c1-2,1.9-3.5,4.4-1.8c0.6,0.5,1.6,0.4,2.5,0.6c0.7-1.5,1.2-2.8,1.9-4
		c0.3-0.5,1.1-1.3,1.4-1.2c3.2,1.4,4.5-1.2,6.4-2.8c0.5-0.5,1.5-0.5,2.9-0.9c-0.1-1.1-0.2-2.9-0.2-4.7c0-1.4-0.4-3.2,0.3-4.2
		c1.9-2.9,4.6-5.2,6.2-8.1c2.4-4.5,6.9-6.1,10.6-8.8c4.3-3.1,8.9-5.6,13.6-8.1c1.5-0.8,3.5-0.6,5.3-0.9c2.7-0.4,5.6,0.3,7.6-2.8
		c1.2-1.8,3.4-2.8,5.7-4.6c0.9,0.5,2.3,1.3,3.7,2.2c-2.9,3.4,2,8.4-3.9,10.6c0.5,0.3,0.9,0.7,1.4,1c2.8-1.9,6.2-3.3,8.3-5.8
		c2.5-3,5.4-3.9,9-3.9c0.9,0,2.2-0.1,2.6-0.7c3.1-4,7.9-2.5,11.9-3.8c0.5-0.2,1.3,0.7,2,0.8c1.2,0.2,2.7,0.5,3.7,0.1
		c2.7-1.1,5.2-2.8,7.9-4c1-0.4,2.5-0.4,3.5,0c3.1,1.1,4.6,0,5.1-2.6c-1.2-1-2.2-1.8-3.2-2.6c1.2-0.7,2.4-1.5,3.8-2
		c1.3-0.4,2.7-0.3,4.9-0.5c-2.9,3.5-0.6,4.8,1.1,5.9c-1.4,1.6-2.8,3.1-3.9,4.7c-0.3,0.4,0.5,2.1,1,2.3c2.7,0.8,5.5,1.4,8.3,1.9
		c3.7,0.7,6.3-1.5,6.4-5.1c0.1-2.9,2.4-3,4.6-3.6c1.9-0.5,3.6-1.8,5.3-2.9c0.2-0.2-0.1-1.7-0.6-2.2c-4.3-4.3-3.6-9.2-1.3-14
		c0.4-0.9,2.5-1.1,3.9-1.5c0.1,0.3,0.3,0.6,0.4,0.9c0.3-0.3,0.6-0.6,0.9-0.9c1.4-1.4,0-4.8,3.6-4.7c2,0.1,4-0.5,6-0.4
		c3.6,0.2,4.9-1.1,3.5-4.4c-0.7-1.6-0.7-2.5,0.9-3.8c2.2-1.9,3.7-4.5,5.5-6.7c0.4-0.5,0.9-1.3,1.4-1.3c5.2-0.2,8.4-3.8,12-6.8
		c0.9-0.7,2.4-1,3.7-1c3.1,0.1,6.1,0.8,9.1,0.9c2.2,0,4.4-0.8,6.6-0.9c1.8-0.1,3.7,0.1,5.5,0.4c2.2,0.4,4.3,2.1,6.3-0.8
		c0.8-1.1,2.8-1.5,4.4-1.9c1.5-0.3,3.1-0.1,4.7,0.7c0.9-0.3,1.8-0.9,2.7-0.8c3.3,0.4,6.6,1,9.9,1.4c0.8,0.1,2.1,0,2.3-0.4
		c1.3-3,3.5-2.4,5.8-1.6c1.1,0.4,2.4,0.4,3.9,0.6c-0.8-1.2-1.4-2.1-1.7-2.5c0.7-1.9,1.2-3.4,1.9-5.5c1.1,0.8,2.2,1.7,3.8,2.8
		c0.6-0.2,1.8-0.5,2.8-0.8c-0.1-1.2-0.1-2.4-0.2-4.5c1.2,0.9,1.8,1.2,2.2,1.6c1.6,1.6,3.1,1.7,4.4-0.2c2-2.8,4.6-3.8,8.1-2.9
		c2.4,0.6,4.6,1,7-0.7c2-1.4,2.2-1.3,0.4-3c-0.4-0.4-0.4-1.2-0.5-1.9c3.3-1.3,6.3-2.8,9.8-1.1c1,0.5,2.6,0,3.9-0.2
		c2.7-0.3,5.4-0.5,8-1.1c1.2-0.2,2.2-1.2,3.4-1.8c3.6,1.6,3.6,1.6,16.1-2c-0.4-1-0.7-2-1.1-3c6.3-5.1,12.5-4.2,18.4,1.1
		c-0.1,0.3-0.5,1.1-0.8,1.9c0,0.1,0,0.2,0.2,0.9c1.6-1.2,3.1-2.2,4.3-3.4c1.8-1.8,3.5-3.8,5.1-5.8c2.3-2.9,1.3-4.7-1.9-6.5
		c-2.6-1.4-4.5-2.2-6.8,0.7c-0.5-1.9-0.7-3.5-1.3-4.8c-0.5-1-1.7-1.7-2.4-2.6c-1.2-1.5-2.9-2.9-3.4-4.7c-0.8-2.8-2.4-2.2-4.5-2.1
		c1.6,1.8,1.9,5.6,0.8,6.5c-1,0.9-5.3-0.3-6.5-1.1c-1.5-1.1-3.3-2-5.1-2.4c-2-0.5-4.1-0.4-6.8-0.5c0.8-1.4,1.1-2.2,1.6-3
		c-0.5-0.3-1.1-0.6-1.8-1.1c3.3-1.3,6.5-2.5,9.6-3.7c-0.1-0.2-0.2-0.5-0.2-0.7c-1,0.2-1.9,0.4-2.8,0.6c-0.2-1.2-0.5-2.4-0.7-3.9
		c1.9-0.5,3.9-0.9,6.1-1.5c0-1.4,0.1-2.9,0.1-3.7c5,0.6,9.7,1.5,14.4,1.6c1,0,2.7-2.3,3-3.8c1-4.5,2-9.1,2.1-13.7
		c0-3.9,1.9-5.1,5-5.8c-0.2-3.7-0.3-7.5-0.5-11.4c-1.1,0.5-2.5,1.2-3.8,1.8c-0.2-0.2-0.4-0.3-0.6-0.5c0.7-0.9,1.2-2.1,2.1-2.7
		c3.9-2.9,7.8-5.7,11.9-8.2c1.8-1.1,4.1-1.7,6,0.4c2.3-2.2,2.2-3.8-0.9-4.4c-3.1-0.6-3.4-1.7-2.3-4.5c0.7-1.8,0.4-3.7-1.7-5.4
		c-1.4-1.2-1.5-3.9-2.3-5.9c-0.6-1.5-1.5-2.8-2.4-4.4c0.8-0.4,2.2-1.2,4.1-2.3c-0.8-1.2-1.7-2.4-2.7-3.9c1.4-0.1,2.7-0.2,3.8-0.3
		c1-2.7,2.1-5.2,3-7.8c0.7-1.9-0.2-2.8-1.9-3.5c-2.1-0.8-3.1-2-1.8-4.5c0.8-1.5,0.7-3.5,1-5.3c0.4-2.3,0.8-5.1,1.6-6.6
		c1.9-3.5,1-7.2,2.4-10.6c0.1-0.3,0.3-0.7,0.3-0.9c-1.9-6.2,2.3-10.4,5-15c1-1.8,2.1-3.6,2.8-5.6c1.6-4.4,4.3-7.7,8.5-10
		c1.9-1,3.1-2.8,3.3-5.1c0.1-0.9,0.4-1.9,0.6-2.8c6.1,0.8,7.9-0.4,10.6-6c0.4-0.8,1.7-1.3,2.7-1.8c0.8-0.4,1.6-0.7,2.2-1.7
		c-0.6,0.2-1.2,0.4-1.8,0.6c-0.3-0.2-0.6-0.4-0.9-0.6c1.6-3,2.8-6.4,5-8.9c1.5-1.7,4.5-2,6.8-3.1c1.9-0.9,2.6-3.8,5.3-3.2
		c1.5,0.3,4,0.5,4.3,1.4c0.5,1.3-0.6,3.1-1.1,4.7c-0.3,1-0.5,2-0.2,3.3c1.4-2.7,2.8-3.4,5.8-2.7c1.9,0.4,4.4-1.7,6.5-2.7
		c4-2,7.8-3.8,12.7-1.9c3.2,1.2,7.1,0.7,10.6,0.7c0.9,0,2.2-1.2,2.5-2.1c0.8-2.3,2-2.3,3.8-1.4c1.9,0.9,3.9,1.7,5.7,2.7
		c0.6,0.3,1.3,1.2,1.4,1.8c0.5,4,1.8,4.7,6.1,5.3c2.2,0.3,4.5,1.7,6.1,3.4c2.3,2.4,3.8,5.6,5.9,8.2c0.8,0.9,2.4,1.8,3.6,1.7
		c3.2-0.2,6.4-0.9,9.6-1.3c2.7-0.4,3.5-1.6,3.4-4.5c-0.1-2.5,0.8-5.7,2.4-7.4c1.8-1.9,4.7-0.8,7,0.7c1.8,1.2,3.8,2.2,5.8,3
		c0.7,0.3,2.1,0.3,2.6-0.2c0.7-0.8,1.3-2.1,1.2-3.1c-0.3-2.3-3.5-5.1-6.6-5.4c1.1-2.4,2.2-4.6,3-6.8c0.5-1.3,0.4-2.9,0.8-4.2
		c0.6-2.2,0.8-4.8,2.2-6.4c2.7-2.9,3.3-5.8,0.7-9.2c2.5-3.1,5-6.2,7.9-9.7c-4,1.3-7.4,2.5-10.7,3.6c-0.1-0.3-0.3-0.6-0.4-0.9
		c0.6-0.4,1.2-0.9,2.1-1.4c-0.5-0.5-1-1.1-1.5-1.6c0-0.3,0-0.4,0.1-0.5c4.6-4.6-0.3-7.4-1.9-10.9c-0.6-1.2-0.1-3.6,0.8-4.7
		c1.3-1.6,3.3-2.8,5.3-3.7c3.7-1.6,6.7-4.5,10.9-5.3c2.4-0.5,2.6-3.1,0.5-4.9c-1.9-1.6-3-3.6-1.9-5.7c1-2.1,2.6-4,5.7-3.4
		c1.1,0.2,2.5-0.7,3.7-0.9c0.9-0.1,1.9,0.3,2.9,0.3c1,0,3-0.2,3-0.4c0.4-3.2,3.5-5.7,2.1-9.4c-0.5-1.4,0.2-3.2,0.4-4.9
		c0.1-1-0.1-2.1,0.3-2.9c0.9-1.8,1.7-4.1,3.2-5.2c2.1-1.5,3.2,0.9,4.3,2.4c0.6,0.8,1.1,1.6,2.3,3.1c0.7-1.8,1.1-3,1.6-4.2
		c0.9-2,1.7-4.2,3.1-6c1.3-1.8,3.1-3.4,4.9-4.8c0.9-0.7,2.2-1.1,3.3-1.1c2.2,0,3.6-0.4,4.9-2.5c1.6-2.5,3.5-5.2,7.5-4.1
		c0.9,0.3,2.6-0.7,3.3-1.6c3.1-3.5,6.8-5,11.5-4.6c1.4,0.1,3-0.8,4.4-1.5c1.5-0.8,2.7-2.3,4.3-3c0.9-0.4,2.9-0.1,3.4,0.6
		c2,3.1,4.6,4.7,8.4,4.7c1.3,0,2.2,0.7,3,2.1c1.1,2.2,3.5,3.9,4.3,6.1c0.8,2.2,0,5,0.5,7.4c0.4,1.7,1.5,3.9,2.9,4.4
		c3,1.3,5.2,2.7,5.9,6.2c0.4,2,5.3,3.8,7.6,3c4.7-1.8,9.4-1.2,14.2-0.6c4,0.5,8.6,2.1,11.6-2.9c0.5-0.9,3.2-0.5,4.9-0.7
		c1.1-0.2,2.1-0.4,3.2-1.1c5.3,1.4,10.1,5.7,16.9,2.9c-1.2-0.7-2.1-1.3-2.9-1.7c0.8-1,1.6-2.1,2.6-2.9c0.5-0.4,1.8-0.5,2.3-0.2
		c2.8,1.8,5.4,3.8,7.9,5.6c-0.9,1.6-1.4,2.5-1.8,3.3c2.7,0.2,5.5-0.3,7.1,0.9c1.7,1.2,2.4,3.9,3.5,5.9c-4.8,3.1-4.8,3.1-1.4,6.9
		c1.2,1.4,2.3,2.6,1.3,4.9c-1.1,2.6,0.5,3.6,3.8,2.7c1.9,3.9,1.9,3.9,6.4,1.1c-0.5-0.6-0.9-1.1-1.6-1.9c2.5,0,4.7,0,6.3,0
		c0.3,4,0.7,7.8,0.9,10.9c2,0.2,3.3,0.3,4.3,0.5c0.3,1.4,0.5,2.4,0.8,3.4c0.7-0.4,1.5-0.8,2.7-1.5c2.3,1.7,5.1,3.7,7.9,5.7
		c0.6,0.4,1.4,0.4,2.1,0.7c0.9,0.4,2.2,0.7,2.4,1.3c0.3,0.8-0.3,1.9-0.6,3.3c4.8,1.5,6.9,5.6,8,10.6c2.8,1.8,6.1,3.9,9.5,6
		c-2.4,3.5-1.7,5.5,2.3,7.4c1.5,0.7,3.2,0.8,3.2,3.1c0,0.5,0.8,1,1.3,1.4c2.2,1.4,4.5,2.7,6.7,3.5c2.9,0.5,5.9,0.8,8.7,1.4
		c2.3,0.5,4.5,1.6,6.8,2.1c2.5,0.5,5.2,0.9,7.8,0.9c3.1,0,3.3-0.6,1.8-3.2c-0.4-0.7-0.6-1.6-1.2-2.9c1.3,0.1,2.5-0.1,2.8,0.4
		c2,3,6.3,4.1,6.8,8.3c0.1,0.7,0.8,1.3,1.3,1.9c1.2,1.9,2.2,3.7,1.3,6.1c-0.3,0.8,0.6,2.2,1.2,3.2c0.5,0.8,1.2,1.5,1.8,2.3
		c-1,1.3-1.9,2.4-2.8,3.6c2.5-0.5,5.2-1.8,6.7-1c1.8,1,2.5,3.9,4.3,5.8c0.1-0.5,0.1-1.1,0.2-1.6c0.1,0.3,0.3,0.5,0.4,0.8
		c2.1-1,4.2-2,6.3-3.1c1.5-0.8,7.7,0.5,9.2,2c1.4,1.4,2.8,2.7,4.2,4.1c0.2-0.2,0.5-0.4,0.7-0.7c-0.3-0.5-0.8-1.5-0.7-1.5
		c3.5-1.8,1.6-6.3,4.2-8.5c0.5-0.4,1.1-0.6,1.5-1c0.9-0.8,1.9-1.5,2.5-2.5c2-3.2,3.8-6.6,5.9-9.8c0.6-0.9,2.2-1.8,3.1-1.6
		c3.4,0.8,5.7-1.5,8.4-2.6c3.8-1.5,5.6-1.4,7.8,1.1c2-0.5,3.7-1,5.4-1.5c2.7-0.7,5.5-1.3,8.4-2c1.1,2.1,3.6,2.6,6.4,1.2
		c1.4-0.7,3-1.4,4.5-1.6c0.8-0.1,2.3,0.8,2.4,1.4c0.5,2.8,2.1,2,3.7,1.4c1.6-0.6,3.3-1.2,5.2-1.9c-0.1-0.2-0.3-1-0.5-1.7
		c4.3-1.8,4.3-2.2,0.6-5.3c-0.9,0.5-1.7,1-3,1.6c0.5-2.4,0.7-4.4,1.4-6.2c1-2.7,10.7-5.1,12.6-2.9c3.1,3.7,7.3,3.8,11.4,4.2
		c1.2,0.1,3.4-1.2,3.7-2.3c0.9-3.3,3.6-2.7,5.6-2.7c5.1,0,10.3,0,15.3,0.8c3.1,0.5,6.4,1.8,8.8,3.8c1.8,1.4,3.2,1.5,4.7,0.8
		c1.9-0.8,3.6-2.1,5.1-3.5c1.3-1.2,2-1.1,2.7,0.4c0.7,1.3,1.3,2.8,2.2,3.9c0.7,0.9,1.9,1.4,2.9,2c0-1.2,0-2.5,0-3.5
		c2.3,0.6,5.5,4.3,5.7,7.1c0.3,4.2,2.2,5.4,6.2,4.1c0.8-0.3,1.9,0.2,2.6-0.1c1.5-0.5,3.1-1.1,4.6-1.6c0.4-0.1,1,0.1,1.3-0.1
		c4-3.5,8.9-1.9,13.4-2.8c0.8-0.2,2.1-0.3,2.4-0.9c2.1-3.9,6.6-3.4,9.5-5.7c2.9-2.3,6-1.1,8.7,0c3.8,1.6,6.3,0.6,8.6-2.4
		c1.7-2.2,4.2-1.7,6.6-1.6c5,0.1,9.3,1.9,13.4,4.7c0.6,0.4,2.7-0.3,3.1-1c1.7-3.4,4.4-4.9,7.9-5.5c1.4-0.3,2.6-1.2,4-1.9
		c3.2,0.6,6.6,1.3,10,1.9c4.7,0.8,9.6,1,14.2,2.4c1.6,0.5,2.6,3.4,3.7,5.3c0.3,0.5,0.1,1.3,0.2,1.9c1.5-0.2,2.8-0.3,4.1-0.5
		c2-0.2,3.6-4.1,2.8-6.7c-1.4-4.4-0.7-5.5,3.9-6.9c0.9-0.3,1.6-1,2.3-1.5c1-0.8,2-1.7,3.1-2.5c0.2,0.2,0.4,0.5,0.6,0.7
		c-0.4,0.5-0.8,1-1.2,1.5c3.1,1.5,6.8,0.6,7.9-2.6c0.7-2,1.8-1.9,3.1-2c3.6-0.4,3.9-0.8,2.7-4.2c-0.1-0.3,0.2-0.7,0-0.1
		c-2.7-1.2-5.1-2.4-7.6-3.4c-0.9-0.4-2-0.2-3.2-0.4c-0.4-1.1-0.9-2.5-1.2-3.5c-1.5,0.1-2.7,0.5-4,0.4c-2.4-0.2-4.8-0.4-7-1.2
		c-1.2-0.5-1.9-2.3-3.1-3.8c2.2-1,3.8-1.7,5.3-2.4c2.8-1.4,5.5-2.9,8.3-4.3c1.8-0.9,4.6,0.5,5.6-2.4c2.1,1.2,4.3,2.1,6.2,3.6
		c1,0.8,1.3,2.4,2,4.1c-0.2,0.1-1.1,0.9-2.7,2.2c1.4-0.1,1.9-0.2,2.4-0.2c0.1,0.2,0.2,0.3,0.3,0.5c-0.9,0.6-1.8,1.3-2.6,1.9
		c0.8,0.7,1.7,1.3,2,1.6c1.6-0.5,2.8-0.9,4.1-1.2c2.1-1.8-4.3-4.8,1-6.9c-0.2,1-0.3,1.7-0.4,2.4c0.2,0,0.4,0.1,0.6,0
		c0.9-0.1,2.4-0.6,2.5-0.4c0.7,1.3,1.3,2.7,1.3,4.1c0,1.3-0.7,2.6-1,3.8c0.3,0.2,0.6,0.3,0.9,0.5c0.6-0.7,1.3-1.4,1.9-2.2
		c0.8-1,1.3-2.6,2.3-3c1.7-0.8,2.1,0.7,2.4,2.1c0.1,0.4,1.1,0.5,1.3,0.9c0.3,0.6,0.3,1.3,0.6,3c1.5,0.2,3.9,0.5,6.7,0.9
		c1.7,4.8,6.2,1.9,9.4,2c4,0.1,4-0.7,6.1,0.9c3.2-0.4,5.6-0.8,8-1.1c0.1,0.3,0.1,0.6,0.2,1c0.3-0.3,0.7-0.6,0.9-0.9
		c0.8-1.1,1.5-3,2.2-3c2.5,0.1,5.1,0.3,7.3,1.5c1.7,0.9,2.6,3.1,3.9,4.7c1.2,1.5,2.4,3.2,3.9,4.4c1.1,0.8,2.8,1.1,4.3,1.3
		c3,0.3,5.5,0.9,5,5c1-0.3,1.7-0.5,2.2-0.7c0.5,0.7,0.8,1.8,1.4,2c5.6,1.9,11.3,3.7,17,5.3c0.6,0.2,1.6-0.8,2.8-1.5
		c1.3,1.9,4,1.2,6.7,1.6c3.5,0.4,6.8,3,10.2,4.6c0.2,0.1,0.3,0.8,0.2,1.2c0,0.4-0.5,1-0.4,1.2c1.8,3,3,7.5,5.7,8.7
		c4,1.8,4.3,5.8,6.8,8.4c-0.6-0.1-1.2-0.1-2.1-0.2c0.3,2.1,1.1,4.4-2.2,5.2c0.4,0.5,1,1.2,1.6,1.8c-1.8,1-3.5,2-5.3,2.9
		c0.1-0.3,0.2-0.5,0.3-0.8c-1.8-0.8-4.1-2.7-5.2-2.1c-2,0.9-4.4,2.6-3.9,5.7c0.1,0.5,1.4,0.8,2.3,1.3c0.2,1.8,0.5,4,0.9,7.3
		c0.6-1.5,0.8-2.1,1-2.8c2.7,2.9,2,6-1.9,8.6c-0.6,0.4-1.2,0.8-1.6,1.3c-2.2,3.3-4.1,6.8-9,6.6c-0.5,0-1.3,0.4-1.4,0.7
		c-0.6,5.7-6.4,6.6-9.6,9.9c-0.9,0.9-4.5,1.7-6.3-0.7c2.7,0.8,3.2-1.7,4.4-3c0.2,0.6,0.5,1.2,0.7,1.8c1.1-1.4,2.1-2.6,3.3-4.2
		c-1.5-0.5-2.7-0.9-3.3-1c-0.3,1.5-0.6,2.5-0.8,3.5c-4.2-5.1-4.6,1.7-7.1,2.3c0.9,0.2,1.9,0.4,2.8,0.6c-0.1,2.7-1.7,4.2-4.1,5
		c-1.8,0.6-3.2,1.2-1.6,3.4c0.8,1.1-1.5,4.3-3.3,4c-3-0.5-4.9,1-6.1,3c-2.1,3.5-5.3,1.6-7.9,1.9c-1.9,0.2-3.4,0-4.4,2.3
		c-1,2.1-2.4,0.8-3.3-0.7c-0.7-1.1-1.6-2-2.4-3c-0.1,0.4-0.3,0.9-0.4,1.3c-1.2,0.3-2.4,1.1-3.5,0.8c-1.8-0.5-2.6-0.2-3.8,1.3
		c-1.4,1.9-3.6,3.1-4.8,4c0.8,4.3,1.5,7.9,2.3,11.5c0.3,1.3,1.3,2.4,2,3.8c-1.4-0.4-2.9-0.8-4.4-1.1c-1.7-0.4-2.9-0.6-1.7,2
		c0.4,0.9-0.6,2.5-1,3.7c-0.6,1.4-1.2,2.8-2.2,5c-0.4-0.2-1.2-0.6-2.9-1.3c1,1.5,1.7,2.5,2.5,3.7c-0.2,0.4-0.6,1.2-1.1,2.1
		c-0.9-0.6-1.7-1.1-2-1.4c-1.7,3.5-3.4,7-4.8,10c0.8,2.8,1.5,5.4,2.1,8c0.1,0.2-1,1-1.5,1c-2.5,0.1-2.8,0.5-2.3,3
		c0.3,1.6,0.1,3.3,0.1,5.6c-1.2-0.9-1.7-1.3-2.3-1.7c-0.4,4.1,0.3,8.5-3.4,11.6c-0.7,0.6-1.7,1.3-2.4,1.2c-0.7-0.1-1.1-1.3-1.7-1.9
		c-2.7-2.6-5.5-5.1-8.3-7.5c-0.4-0.3-1.6,0.2-2.3,0.6c-0.8,0.4-1.8,6.3-1.9,7.2c-0.1,0.7-0.7,1.6-1.3,2.1c-1,0.8-2.8,1-3.1,1.9
		c-1.4,4.6-5,3.6-8.3,3.7c0.2,0.8,0.4,1.5,0.5,1.9c-3.1,1.7-5.9,3.3-8.6,4.8c0.2,1.2,0.3,2.6,0.5,4.1c3.7-1,4.8,2.4,5.7,4.8
		c0.7,1.7-0.4,4.1-1,6.2c-0.1,0.3-1.3,0.7-1.9,0.5c-2.3-0.4-4.6-1.1-6.4-1.5c-1.4,2.5-2.7,4.4-3.5,6.4c-1.4,3.7-3.7-1.2-5.2,1.4
		c-0.4-1.8-0.6-3-0.9-4.4c-1,0.9-1.7,1.5-2.4,2.1c-0.4-0.8-0.5-1.9-1.1-2.3c-2.4-1.6-4.9-3.4-7.6-4.1c-1.1-0.3-2.9,1.7-4.3,2.8
		c-0.7,0.5-1.4,1.8-2,1.8c-4.7-0.6-4.4,3.8-7,5.8c-0.4-0.6-1.2-1.6-1.9-2.5c-0.4,0.3-1.2,1.3-1.8,1.3c-2.1-0.3-4.1-1-6.1-1.4
		c-2.9-0.5-2.8,1.7-3,3.5c0,0,0-0.1,0-0.1c-2.4-1.7-3.6,0.6-5,1.8c-0.3,0.2-0.1,1.8,0.2,1.9c1.3,0.4,2.9,2.4,4.1-0.1l0.1-0.1
		c2,1,1.2,2.5,0.6,3.9c-2.1,4.3-1.9,5,1.5,8.2c0.5,0.4,0.9,1,1.3,1.4c2.6,3,2.6,3.2-0.2,4.9c-0.5,2.1-0.9,3.7-1.4,5.7
		c-2.4-1.1-4.2-2-6-2.8c-0.4-0.2-1.4-0.2-1.5,0c-1.2,2.6-3.1,1.3-4.2,0.4c-2-1.8-4.2,0.1-6.2-1c0.2,2.7,0.4,5.2,0.7,7.9
		c-0.9-1.5-2-3.1-3.4-5.3c-0.7,2.8-1.4,5.5-2.1,8.4c-0.8-0.1-1.7-0.2-3-0.4c2.4,2.3,0.5,2.6-1.9,3.1c1.6,2.4,2.9,4.3,4.6,6.8
		c0.2,0.1,1.2,0.5,2.1,0.8c-2.6,2.7-5.1,5.3-7.8,7.8c-1.1,1-2.6,1.5-3.9,2.3c-0.3-0.2-0.5-0.3-0.8-0.5c0.5-1.4,1-2.9,1.6-4.3
		c0.9-2.1,2.7-4.5-1.7-4.7c-0.3,0-0.6-0.8-1.1-1.4c-1.5,0.6-3.2,1.4-4.9,2.2c0.1,0.4,0.1,0.8,0.2,1.2c1.3,0,2.5,0,4.2,0
		c0,3.1-2.8,7.1,0.9,10.6c-0.7,0.7-1.3,1.4-2.2,2.3c1.5,1.1,2.9,2,4.2,2.9c-2,1.1-3.7,2.1-6.1,3.4c-1.4-1.1-3.3-2.6-5.2-4.1
		c-0.2,0.2-0.5,0.5-0.7,0.7c1.3,1,2.5,2.1,3.8,3.1c-0.9,0.2-1.9,0.4-2.9,0.7c0.6,0.8,1.1,1.8,1.9,2.5c0.7,0.7,1.8,1.1,2.2,1.8
		c0.3,0.6,0.1,2.1-0.3,2.4c-2,1-4.1,1.6-6.4,2.5c1.7,1.4,3.2,2.7,4.8,4.1c1.5-0.9,3.2-2,5.4-3.4c-0.4-1-0.9-2.3-1.7-4.1
		c1.6,0.8,2.8,1.4,3.9,1.9c1.6-0.3,3.8,2.2,4.9-0.9c0.5-1.1,0.9-2.2,1.5-3.2c0.9-1.5,1.9-2.8,2.8-4.1c0,0.1,0.3,0.7,0.7,1.4
		c0.8-2,1.1-4.6,2.4-5.4c2.5-1.5,0.4-2.4,0.2-3.6c-0.1-0.6,0.1-1.3,0.2-2c0.5,0.2,1.1,0.4,1.6,0.7c1.6,1.1,3.7,2,4.6,3.5
		c1,1.7,1,4.1,1.3,5.5c1.8,1.1,3.1,2.3,4.7,2.9c1.1,0.4,2.4-0.2,3.7-0.4l-0.2,0c-0.8,1.6-1.7,3.1-2.9,5.3c2.3-0.4,4.2-0.8,5.9-1.2
		c1.4,0.7,2.7,1.4,4.1,2.1c0.2-0.3,0.4-0.6,0.7-0.9c-0.4-1-0.7-2-1.1-3l-0.1,0.1c1.2,0,2.9,1.3,3.3-1.1c-0.4,3-0.2,6.1-4.5,6.8
		c-3,0.5-3.7,2.6-3.1,5.6c0.2,1-1,3-2,3.3c-2.7,0.9-5.9,0.6-8.4,1.8c-2.3,1.1-4.1,0.6-6.1,0.3c-1-0.2-2,0.1-3,0.1
		c0.1-0.4,0.1-0.8,0.2-1.2c-0.5,0.7-1.1,1.5-2.1,2.9c0-1.4,0-1.9,0-2.5c-1.9,0.7-1.9,0.7-4.4,9.6c1.4-0.8,2.5-1.4,3.7-2.1
		c0.2,0.6,0.5,1.4,0.9,2.3c0.3,0.8,0.7,1.6,0.9,2.7c-1.6-2.4-3-1.2-4.6-0.3c-3.7,2.2,0.2,4.5-0.3,6.7c2.9,0.3,5.7,0.7,8.3,1
		c-0.1,2.4-0.2,5.2-0.3,8c0,0-0.1,0-0.1,0.1c-1.1-0.7-2.2-1.5-3.4-2.3c0.7-0.5,1.3-0.9,1.9-1.2c-1.6-0.9-2.9-2-4.5-2.5
		c-0.9-0.3-2.3,0.2-3,0.8c-2.6,2.4-7.9,3.1-10.9,0.9c-0.7,1.2-1.3,2.5-2,3.6c-0.8,1.1-1.7,2.2-2.4,3.1c-0.3-1.8-0.7-3.6-1-5.3
		c-0.3-0.1-0.6-0.3-1-0.4c-1.2,2.8-2.9,3.2-5.2,1.8c1.1,1.4,2.1,2.8,3.3,4.5c-1.3,0.2-2.3,0.3-3.5,0.5c0.4,1.2,0.8,2.4,1.2,3.6
		c-0.1,0.2-0.3,0.3-0.4,0.5c-1-0.9-2.1-1.7-3.6-3c-1,1.2-2.1,2.6-3.2,4c0.2,0.2,0.5,0.5,0.7,0.7c-0.9,0.2-1.8,0.5-2.8,0.7
		c0.1,4.4,4.3,3.2,6,5.3c0.2-0.3,0.4-0.6,0.7-0.9c-0.9-0.7-1.9-1.4-3.4-2.6c1.3-0.1,2.5-0.5,2.8-0.2c0.8,0.9,1.8,2.4,1.6,3.3
		c-0.5,1.5-1.9,2.7-3,4c-0.3-0.1-0.5-0.3-0.8-0.4c-0.1,1.5-0.1,3-0.2,4.7c-0.9,0.2-1.9,0.4-2.7,0.6c3.1,1.7,6,4.1,9.2,4.8
		c2.2,0.4,4,0,4.8,2.8c1.4-0.6,2.8-1.2,3.9-1.7c1,0,2,0.2,2.9,0.1c1.9-0.1,3.4-0.1,3.6,2.5c0.2,1.8,1.2,3.5,1.7,5.3
		c0.2,0.9,0.5,2.2,0,2.7c-0.5,0.6-1.8,0.6-2.7,0.6c-2.1-0.2-4.1-0.6-5.9-0.9c-0.6,1.7-1.1,3.2-1.5,4.3c-1.8,0.1-3.3,0.2-5.7,0.3
		c1.5,1,2.2,1.4,2.9,1.9c0,0.2,0,0.4-0.1,0.6c-2.4,3.2-2.2,6.9,0.4,10.1c0.9,1,0.8,3.8,0.1,5.1c-0.3,0.6-0.2,1.4-0.2,2.2
		c0,0.7,0,1.5,0,2.5c-1.7-0.4-3.2-0.7-4.8-1c0.1,1.3,1.9,3.4-1.3,3.1c0,0,0,0.7-0.2,1c-0.7,1.8-1.5,3.7-2.4,6
		c-1.3-1.4-1.9-2.1-2.5-2.7c0.6-1,1.1-2,1.7-3c-4.8-0.9-4.4,4.9-7.9,5.4c1.7,2,1.9,1.9,3.9-1.2c1.4,1.9,3,3.6,4.1,5.5
		c0.5,0.8,0.5,2.7,0.1,3c-1.5,0.9-3.2,1.5-5,1.9c-1.1,0.2-2.4-0.2-4.2-0.4c-0.6-2.4-2.6-1.1-4.5,0.1c-0.5-0.6-1-1.1-1.5-1.6
		c-0.3,0.1-0.6,0.1-0.9,0.2c0.1,1.3,0.1,2.5,0.2,3.8c0,0,0-0.1,0-0.1c-0.8-0.5-1.8-0.7-2.3-1.4c-0.9-1.3-1.6-2.7-2.5-4.4
		c-1.7,1.2-2.8,2-3.8,2.8c-0.8-1.4-1.4-2.6-1.9-3.4c-2.5,0.2-4.7,0.3-7.1,0.5c0-0.8-0.1-1.5-0.1-2.6c-1.7,1.4-3.2,2.6-4.9,4.1
		c3.1,1.1,5.3,5.9,4.1,8.5c-1.2,2.5-3.7,2.9-5.5,2.3c-1.6-2.4-2.9-4.1-4.3-6.2c-2.6,0.9-5.3,0.8-6.9-2.4c-0.1-0.2-0.6-0.4-0.9-0.4
		c-3.7-0.2-2.8-1.8-1.2-3.7c0.3-0.3,0.4-0.7,0.8-1.6c-1,0.2-1.7,0.2-2.3,0.3c-0.4-0.8-0.7-2-1.4-2.8c-1.3-1.4-2.8-2.5-4.2-3.7
		c-0.6,1.8-1.1,3.6-1.8,5.3c-0.3,0.9-0.8,2-1.5,2.3c-2.3,1.1-4.8,1.8-7.2,2.7c-0.3,0.1-0.5,0.4-0.7,0.6c-3.4,3.8-5.5,3.3-7.5-1.6
		c-1.5,0.2-3,0.4-4.6,0.7c-0.3,1.9-0.7,4.5-1,6.9c-3.5-1.7-6.7-3.3-9.8-4.9c-0.4,1.1-0.7,2.1-1.1,3.1c-0.1-0.1-0.3-0.2-0.4-0.3
		c-2.1,1.6-4.2,3.2-6.5,4.7c-0.8,0.5-2.1,0.5-2.3,0.6c-2,2-3.6,3.6-5.4,5.4c0.7,0.9,1.6,2.1,2.8,3.7c0.4-0.8,0.7-1.5,1.1-2.5
		c0.4,2,0.8,3.8,1.1,5.5c-0.2,0.2-0.5,0.3-0.7,0.5c-2.3-1.5-4.7-2.9-7-4.4c-2.8-1.9-4.4-1.6-6.5,1.3c-0.5,0.7-1.6,1.1-2.6,1.7
		c5.6,5.4-1.3,4.9-3.1,6.9c-0.3-0.7-0.6-1.3-0.9-2.1c-0.5,0.2-0.8,0.2-1,0.4c-0.3,0.4-0.7,1.4-0.8,1.3c-4-1.1-5.8,3.1-9.2,3.7
		c-1.1,0.2-1.9,1.5-2.8,2.3c-1.1,1-1.9,2.4-3.2,3c-1.1,0.5-2.6,0.3-4,0.4c0.1-1.1,0.3-2.2,0.4-3.3c0-0.3,0-0.7,0-1.4
		c-2.8,1.9-5.5,2.4-7.8-0.8c-1.1,1-2.2,2-3.2,3.1c0-0.3,0.1-0.5,0.1-0.8c-3.2-0.3-6.4-0.7-9.2-1c-0.9,1.2-1.8,2.4-2.7,3.5
		c-0.1,0.1-1.2-0.8-2.2-1.5c-0.1,1.5-0.2,2.9-0.3,4.9c-1.5,1.2-3.8,3.1-6.4,5.2c1.4,0.9,2.7,1.6,4.4,2.7c-1.6,0.8-3.1,1.5-4.4,2.1
		c-0.2,1.6-0.3,3.3-0.5,5c-0.2,0-0.5,0-0.7,0.1c-0.1-1.2-0.3-2.5-0.5-4.4c-1.8,1.4-3.2,2.5-4.6,3.6c0.4,1.4,0.7,2.7,1.2,4.6
		c-6.3-2.1-10.3,1.4-14.4,4.5c-0.4,0.3-0.1,1.6-0.1,3.1c-1.8,1.7-5.9,3.1-4.5,8.1c-1.4-0.5-2.6-1-4.7-1.8c0.1,3.1,0.2,5.8,0.2,8.6
		c0,0.7-0.1,1.4-0.4,2.1c-1,2.2-2.1,4.3-3.1,6.3c1.1,1.5,4.7,0.6,3.1,3.8c-0.9,0.2-1.9,0.3-2.8,0.5c0.4,0.7,0.8,1.5,1,2.2
		c0.1,0.5-0.2,1.1-0.3,1.7c-3.1-1-1.8,2-2.9,3.4c-0.4-1.3-0.7-2.3-1.1-3.6c-1.5,1.8-2.9,3.5-4.4,5.1c-0.3,0.3-0.8,0.7-1.1,0.6
		c-3.9-1-6.5,1.4-9.1,3.6c-0.6,0.5-1.6,0.8-2.3,0.6c-3.9-1.2-7.1,0.4-10.2,2.3c-0.3,0.2-0.7,0.4-0.7,0.7c-0.3,2.8-0.6,5.6-1,8.8
		c-0.3,0.2-1.2,0.8-2.2,1.4c0.1,0.2,0.2,0.4,0.3,0.6c1-0.3,1.9-0.6,2.9-0.9c0.2,1.7,0.5,3.1,0.6,4.3c-2.3,0.5-5.1,1.1-8.8,1.9
		c0.9-1.1,1.5-1.7,2-2.4c-0.3-0.1-0.6-0.3-0.9-0.4c-1.1,0.8-2.1,1.6-3.2,2.5c-2.1-3.9-3.3-4.2-5.8-1.1c-3-1-5.9-2.4-9-3
		c-0.9-0.2-2.2,1.5-3.3,2.3c-1-0.5-2.2-1.1-3.3-1.7c-0.1,0.2-0.2,0.4-0.4,0.6c1.4,1.1,2.7,2.2,4,3.2c-1,6-6.7,7.5-9.4,10.1
		c-2.9,0.5-4.9,0.9-7.2,1.4c0.6,1.8,1,3.1,1.8,5.3c-1.4-1.5-2.4-2.4-2.7-2.7c-1.5,0.9-2.8,1.5-4,2.2c-0.5,0.3-1.1,0.7-1.4,1.3
		c-1.2,2-2.3,4.1-3.6,6.4c0.8,0.4,1.8,1,2.1,1.2c0.4,1.6,0.6,2.7,0.8,3.7c0,0,0.1-0.1,0.1-0.1c-3.4-1.2-6.8-2.4-10.2-3.6
		c5.3-0.2,5.4-0.3,4.6-5.3c-0.6,0.7-1.2,1.2-1.7,1.7c-0.2-0.1-0.3-0.2-0.5-0.3c0.4-0.9,0.7-1.9,1.2-3.1c-2.2,0.7-2-4.2-4.9-2.1
		c1,1.8,1.9,3.4,2.8,5c-1.4,0.6-2.4,1-3.5,1.4c0.5,1,1.1,2,1.6,3c-0.4,0.6-1,1.1-1.2,1.8c-0.4,1.3-0.7,2.7-1.2,4.8
		c-2.9-3-5.7-5.5-8-8.4c-1.6-2-0.4-4,2.4-4.9c1.1-0.3,2.3-0.2,3.8-0.2c0.2-1.6,0.3-3.4,0.7-5.1c0.1-0.5,1.2-0.7,2.4-1.4
		c-0.3-1.9-0.7-4.5-1-7c-2,0.7-4.2,1.5-6.5,2.1c-0.2,0.1-1.4-1.6-1.2-2.1c0.7-1.6,1.8-3.1,2.3-3.9c-1.3-1.3-2.3-2.3-3.6-3.5
		c2.5,0.3,4.2,0.5,6.4,0.7c-0.9-1.3-1.3-2-1.9-2.9c0.8-0.4,1.4-0.8,2-1.1c-0.4-0.7-0.7-1.2-0.8-1.4c-2.5,0.8-4.8,1.6-7.3,2.5
		c-0.8-1.6-1.8-3.8-3.1-6.2c1.2-1,3.2-2.5,0.8-5.2c1.9-0.1,3.6-0.2,5.3-0.3c0-0.3,0-0.5,0-0.8c-0.4-0.3-0.9-0.5-1.5-0.8
		c1.5-2.9,5.4-5.1,3.1-9.2c-1.6,1.8-3.2,3.5-4.7,5.4c-0.7,0.9-1,2.3-1.9,2.8c-1.2,0.7-2.8,0.7-4.4,0.4c-1.4,0.5-2.8,0.9-4.1,1.4
		c-1.7,0.6-3.7,0.4-4.2,2.9c-0.1,0.6-2.3,0.9-3.6,1.1c-1.2,0.3-2.4,0.3-3.5,0.5c-2.9,0.3-4.5,1.5-3.7,5.2c-0.9-0.6-1.4-0.9-2.2-1.5
		c0,1,0.1,1.8,0.1,2.1c-1.2,0-2.3-0.1-3.4-0.1c-0.5,0-1.2,0-1.5,0.3c-2.4,2-4.4,4.5-7,6c-1.7,1-4.2,0.8-6.1,1.1
		c1.6,2.4,1.5,2.7-2.6,4c-0.1-0.7-0.1-1.3-0.2-2.2c-0.6,0.5-1.1,0.9-1.4,1.4c-0.4,0.5-0.6,1.1-1.2,2.1c-1.1-0.8-2.2-1.5-3.2-2.2
		c-0.2,0.1-0.4,0.2-0.6,0.3c0.8,1.1,1.7,2.2,2,2.7c-3.1,1.3-6.4,2.7-9.9,4.2c-0.9-1.6-1.8-3-3,0.1c-0.4,1.1-1.3,2.1-2.2,2.9
		c-1.7,1.5-5.1,2-2,5.5c0.4,0.5-0.8,2.4-1.5,4.5c-0.8-1.6-1.2-2.5-1.7-3.5c-2.8,1.2-5.5,2.4-8.3,3.6c0.3,2.3,1.1,4.4,4.8,2.6
		c0,0.3,0,0.7-0.1,1c-2.2,0.6-4.3,1.2-5.5,1.5c-0.4,2.3-0.6,3.6-0.8,4.9c-0.3,0-0.6,0-0.8,0c-0.1-0.7-0.3-1.3-0.4-2
		c-2.1,1.8-6.9,2-8.7,0.3c-1.2,2.9-4.8,5.1-7.1,4.5c-0.1,0.8-0.2,1.5-0.3,2.6c0.2,0.1,0.9,0.2,2,0.5c-1,0.8-1.7,1.3-2.4,1.9
		c1.2,0.2,2.5,0.2,3.4,0.7c0.6,0.4,0.8,1.6,1.1,2.5c-0.3,0.1-0.6,0.3-0.9,0.4c-0.5-0.9-1-1.7-1.5-2.7c-1.9,4.8-5.2,5.7-13.5,3.9
		c-0.2,1.6-0.5,3.2-0.7,4.6c-1-0.5-2.1-1.2-3.2-1.8c2.1,3.1,7.3,4.3,4.5,10.2c1.8,0.3,3.3,0.5,4.9,0.7c0.1,0.6,0.2,1.4,0.4,2.9
		c2.5-3.5,5.6-3.9,8.8-3.4c6.8,1.1,7.1,1,9.6-5c1.2,0.3,2.4,0.6,4.1,1c-0.3-1.3-0.4-2.2-0.8-3.1c-0.3-0.7-1-1.3-1.5-1.9
		c0.2-0.2,0.5-0.4,0.7-0.6c1.1,1.5,2.1,2.9,3.2,4.5c0.3-0.4,0.9-0.9,1-1.4c0.8-5,4.7-7.2,8.4-9.7c1.1-0.7,1.9-2.2,2.5-3.5
		c0.8-2,1.2-2.3,3.6-1.3c1.3-3.8,1.9-4.3,5.7-2.4c2.9,1.4,6.8,1.3,8.2,5.2c0.1,0.2,1.5,0,2.2-0.3c0.3-0.1,0.7-0.9,0.6-1.3
		c-0.6-4.2,1.2-8.2,1.5-12.3c0.2-2.9-0.4-6,3.5-6.9c2.8-0.7,5.6-1.4,8.7-2.2c2.4-1.9,5.3-4.1,8.5-6.5c-0.1-0.6-0.2-1.9-0.3-3.2
		c-1.4,0.1-2.7,0.1-4.2,0.2c2.5-2.7,3.9-2.6,7.5,0.2c0.2-2,0.1-4.1,0.8-5.9c0.5-1.1,2.2-1.7,3.5-2.3c0.2-0.1,1.1,1.5,1.9,2.8
		c-1.4-0.2-2-0.2-2.6-0.3c1.5,4.9,2.9,9.5,4.2,13.7c1.3-0.7,2.9-1.4,4.9-2.4c0.2,3.9-1,6.6-3,9c-0.4,0.5-1.1,0.9-1.2,1.5
		c-0.4,2.9-1.2,5.8-0.9,8.6c0.1,1.6,1.6,3.4,2.9,4.6c1.9,1.6,2.4,3.2,1.1,5.7c1.2,0.2,2.2,0.3,2.5,0.4c-0.1,1.5-0.2,2.8-0.3,4.1
		c-0.1,1.8-0.3,3.2-2.7,3.4c-5.5,0.4-6.2,1.1-7.5,6.4c-0.3,1.3-0.4,2.7-0.9,3.9c-0.9,2.2-2.3,3.9-5.1,3.4c-0.9-0.2-1.8,0-3,0
		c-0.2-0.5-0.6-1.2-0.7-1.4c-2,0.1-3.5,0.1-4.9,0.1c-0.5,1.7-0.6,4-1.8,5.5c-0.7,0.9-3,0.6-4.8,1c0.2,0.8,0.5,2.4,0.9,4.4
		c-1.8-0.3-3.7-0.7-6.1-1.2c1.6,1.1,2.8,2,4.1,2.8c-1.8-0.1-3.5-0.2-5-0.2c2.4,2.8-1.9,4.5-2.4,6.6c-2.3,1.3-5.8,2.1-6.2,3.7
		c-0.6,2.3,1.2,5.1,4.6,6.3c-3.7,1.1-4.8,3.4-3.7,6.9c-0.6-0.7-1.2-1.5-2.1-2.5c0.3,2.3,1.1,4.3,0.6,5.8c-0.5,1.6-2.3,2.8-3.6,4.1
		c-1,0.9-2.3,1.5-3.3,2.3c-0.6,0.5-1,1.3-1.9,2.4c-4.1,0.1-5.3,4.9-8.1,8.9c3.5,0.2,3,1.9,2,4c2.1,1.1,4,2.2,6,3.3
		c-2.1,1.7-1.9,3,1.1,3.4c-0.6,1.1-1.1,1.8-1.5,2.6c-2.7-2.8-4.3,0.1-6.5,0.8c0.3-1.3,0.5-2.4,0.8-4c-3,0.7-5.7,1.6-8.5,1.8
		c-2.4,0.2-4.9-0.2-7.4-0.3c0,0.3,0,0.6-0.1,0.9c0.6,0.1,1.2,0.3,2.2,0.5c-1,0.9-1.6,1.7-2.5,2.1c-2,1-2.7,2.6-2,4.6
		c1.1,3.1,0.3,5.7-1.8,8.3c-0.5-0.4-1.1-0.8-2.1-1.6c0.5,1.3,0.9,2.1,1.5,3.8c-1.6-0.1-2.8-0.1-4.5-0.2c-0.1,0.3-0.5,1-1,1.8
		c-0.9-0.5-1.7-1-1.9-1.2c-1.5,1.1-3.5,1.9-3.6,2.9c-0.4,4.2-3.5,3.5-5.8,3.7c-0.4,1.6-0.8,3-1.2,4.9c-3.2-0.9-6.1-1.7-9.2-2.6
		c-2.8,2.9-3.2,2.9-4.5-0.1c0.8,0.3,1.4,0.5,2.4,0.8c-0.6-1.1-1-1.8-1.6-2.9c-0.8,0.4-2.1,0.7-2.4,1.4c-1.2,2.8-3.6,2.1-5.6,1.8
		c-3.5-0.4-6.1,1-8.6,3.1c-0.4,0.3-1,0.4-1.7,0.6c0.2,0.9,0.5,2.1,0.9,3.8c-1.3-0.9-2.6-2-2.7-1.9c-1.5,1.5-2.8,3.1-4.8,5.4
		c-3.9-0.4-0.5,4.3-1.5,5.3c-3.5,0.9-6.1,1.6-8.8,2.1c-0.6,0.1-1.4-0.6-1.9-0.9c-0.8,1.2-1.7,2.5-2.7,3.8c-1.9-1.8-3.2-4.7-6.7-3.2
		c-0.3,0.1-1.2-1-2.5-2.2c0,2.3-0.3,4.1,0.1,5.7c0.6,2.2,3,3.5,6.2,3.5c-1.2-0.7-2-1.1-2.9-1.5c3.4-1,5.5,1.3,4.8,5.9
		c-1.8-4.5-5.2-3-7.4-2c-3.2,1.5-5.5,1.1-7-0.6c-2.1,0.9-3.7,1.7-5.3,2.4c0,0,0.2,0,0.2,0
		C2211.7,1115.1,2211.6,1115.7,2211.4,1116.3C2211.5,1116.3,2211.4,1116.3,2211.4,1116.3z M1945.4,1079.8c3.3,0.2,4.6-2.7,7.1-4.2
		c-5.2-2.2-6.1-1.5-7,4.4c-0.2-0.5-0.4-0.9-0.6-1.6c-1.2,1.2-2.1,2.1-3,3.1c0,0.3,0.1,0.6,0.1,1c1.5-0.1,3-0.2,5.2-0.3
		C1946.2,1080.9,1945.8,1080.4,1945.4,1079.8z M2464.6,911c-3.9-3.9-3.6,1-5.1,2.1c0.2,0.3,0.4,0.7,0.5,1c1.5-0.9,3-1.9,4.4-2.8
		c0.7,0.4,2,1.3,2.1,1.2c1-1.4,1.9-3,2.8-4.5c-0.3-0.3-0.5-0.7-0.8-1c-1.3,0.1-2.9-0.1-3.8,0.6C2464.3,908,2464.7,909.8,2464.6,911z
		 M2595.2,806.2c-1.6-1.7-3.1-3.4-4.6-5.1c-1.8,1-3.4,1.9-5.2,2.9c2.4,1.4,4.8,2.5,6.9,4.1c1.8,1.4,2.2,0.3,2.8-1
		c0.1,1.2,0.2,2.3,0.3,3c1.8-0.3,3.3-0.5,5.3-0.9c-0.6-2.8-4.8-5.1-2.7-9.3c-0.4,0-0.7,0-1.1,0.1
		C2596.4,802.1,2595.8,804.2,2595.2,806.2z M2061,649.9c-0.7,0.4-2.2,1.2-3.6,2c-1.5,0.8-2.9,2.2-4.5,2.5c-2.4,0.5-5.2,2-7-1.6
		c-0.2-0.4-2.4,0.3-3.7,0.4c-0.2,0-0.3,0-0.5,0.1c-0.5-0.8-0.9-1.7-1-1.7c-1.5,0.1-2.5,0.5-3.3,0.2c-5.9-1.7-5.9-1.7-8.3,3.8
		c-0.2,0.4-0.6,0.6-0.7,0.8c-3.3-0.9-6.3-1.8-9.8-2.9c0.6,1.2,1.2,2.1,1.1,2.3c-0.8,1-1.8,1.9-2.9,3c-0.1-0.6-0.3-1.1-0.4-1.6
		c-0.2,0-0.4,0-0.6,0c-0.2,0.9-0.3,1.7-0.5,2.6c1.6,0.1,3.3,0.2,5.1,0.4c2.9,6.7,7.5,0.6,11.4,0.5c-0.8,2.5-1.8,4.7,1,6.2
		c2,1,4,2.1,6.1,3.2c-0.8,1.3-1.4,2.5-2.1,3.6c0.2,0.2,0.4,0.3,0.6,0.5c1.6-1.8,3.2-3.5,4.9-5.4c1,1,1.8,2.1,3,2.9
		c0.6,0.4,2.3,0.6,2.4,0.4c1.2-2.8,3.4-2.1,5.6-2.1c2.5-0.1,4.9-0.4,7.4-0.7c0.4-0.1,1-0.6,1.1-1c0.6-2.2,1-4.6,1.6-6.8
		c0.4-1.5,1-3.1,2-4.3c0.2-0.3,2.1,0.7,3.2,1.2c0.1-0.1,0.3-0.2,0.4-0.3C2066.6,655.4,2064,652.9,2061,649.9z M2811.6,402.5
		c3,2,6.2,3,7.2,5c2,4,5.3,5,9,5.8c2.6,0.5,5.4,0.8,6.4,4c0.2,0.5,1.2,0.8,1.8,1.1c2.3,1.2,4.7,2.3,7,3.5c1.1,0.5,2.2,1.3,3.3,1.5
		c2.9,0.5,5.8,0.5,8.7,1c3,0.5,7.1-2.5,7.8-5.6c0.3-1.3,1.4-2.6,2.4-3.6c1.5-1.4,4.8-1.9,3.8-4.6c-0.5-1.5-3.1-2.2-4.7-3.3
		c0,0.4,0,0.8-0.1,1.2c-1.4,0.5-2.9,1.6-4.2,1.4c-3.5-0.6-0.9-4.5-3.2-6.2c-2.9,0.5-5.9,1-9.3,1.6c-0.1,0.5-0.3,1.4-0.5,2.2
		c-2.6,0-5.4-0.9-7.4,0.1c-3.1,1.5-4.9,0.5-7.2-1.2c-1.2-0.9-2.7-1.4-3.4-1.7c-0.6-1.4-1-2.2-1.4-3.1c-0.7,0.5-1.5,0.8-2.2,1.4
		c-1.3,1.1-2.5,2.4-3.5,3.3c-3.8-1.5-1.8-4.3-1.6-7.5C2817.4,400.1,2814.9,401.1,2811.6,402.5z M1752.1,913.2
		c-5.1-0.5-10.5-1.1-15.7-1.6c-0.4,1.2-0.7,2.1-1.1,3.3c-1-0.9-1.8-1.5-3-2.6c-0.2,2-0.3,3.5-0.5,5.1c-0.7-0.4-1.3-0.8-1.9-1.2
		c-0.7,3.7,5.2,5.2,2.6,9.9c-0.4-1.2-0.6-2-0.8-2.7c-0.7,1-0.9,2.1-0.6,2.9c1.3,3.9,10.7,5.6,14.3,2.7c0.4-0.3,0.9-0.6,1.5-0.8
		c1.3-0.5,2.7-1,4.5-1.7c0.1,0,1,0.4,2,0.7c0.2-0.9,0.8-1.9,0.6-2.7c-0.8-2.6-0.1-4.4,2-5.4C1754.5,917.2,1753.4,915.4,1752.1,913.2
		z M2149.8,1089.4c-3.3,0.1-1.7,5.8-5.4,3.9c-0.4,1.9-0.7,3.7-1,4.9c1.7-0.2,3.6-1.1,4.9-0.5c2.3,0.9,3.5-0.1,5-1.4
		c1-0.9,2.4-2.1,3.4-1.9c3.7,0.8,5.3-1.3,6.1-3.4c1.7-0.5,2.8-0.9,4.1-1.2c-1.8-1.6-2.9-2.7-4-3.7c-1.1-1.1-2.3-2.2-3.4-3.3
		c-0.7,1-1.5,2-2.4,3.2c-0.9-1.2-1.5-2-2.3-3c-0.5,1.4-0.9,2.4-1,2.7c-2.6,0.3-4.5,0.6-7.4,1
		C2148,1087.9,2148.6,1088.5,2149.8,1089.4z M2686.2,697.6c1.2-2.1,2.3-4,3.4-6c-2-1.1-3.6-2-5.4-3c-0.2,0.4-0.6,1.3-1,2.3
		c-1.6-0.9-3-1.8-4.5-2.5c-0.6-0.3-1.6-0.5-2.1-0.2c-3.8,2.3-5.4,2.3-8.7-0.4c-1-0.8-2.3-1.2-3.4-1.8c0,1.9-0.1,3.3-0.1,4
		c2,0.6,3.9,1.1,5.9,1.7c-0.4,1-0.8,2-1.4,3.3c1.3,2.1,3.7,2.2,6.4,1.6c1-0.2,2.2,0.7,3.3,1.1c0.7,0.2,1.8,0.7,2.1,0.4
		C2682.6,696.4,2684.4,695.2,2686.2,697.6z M2715.2,701.1c3.2-1.3,7-0.5,9.7-4c1.5-1.9,4.5-2.7,7.9-4.6c-2.8-1.1-4.8-1.8-6.7-2.6
		c-0.2,0.3-0.3,0.7-0.5,1c0.2-0.6,0.3-1.3,0.7-2.9c-1.3,1.5-2,2.2-2.7,3c-0.6-0.6-1.1-1-1.7-1.5c0.2,1.1,0.4,2,0.6,2.8
		c-1.6-0.2-2.9-0.3-4.2-0.4c0.2,1.2,0.3,1.9,0.4,2.6c-1-0.3-2.1-0.6-3.3-0.9c-0.3,3.9-4,2.2-6,3.1c1.6,2.3,3.1,4.4,4.6,6.6
		c0.4,0.1,0.8,0.1,1.2,0.2C2715.1,702.7,2715.2,701.8,2715.2,701.1z M2703.4,689.9c-3.3,1.3-6.5,2.2-9.4,3.8
		c-1.5,0.8-2.6,2.6-3.2,4.2c-0.2,0.6,1.5,2.4,2.6,2.8c1.8,0.7,3.8,0.8,5.6,1.1c-1-4,3.8-1.6,4.2-4.6c-0.9-0.6-2.2-1.3-3.1-1.9
		c0-0.9,0-2.1-0.1-3.1c2,0.8,3.4,1.4,5.2,2.2C2704.5,692.5,2704,691.4,2703.4,689.9z M2080.9,633.2c-1.2,0.5-2.6,0.7-3.2,1.5
		c-2.6,3.9-2.1,8-0.1,12.2c0.7-0.1,1.8-0.1,2.8-0.2c-0.3-0.1-0.6-0.3-0.9-0.4c0.3-2.4-0.3-5.5,1-7
		C2082.3,637.2,2082.4,635.8,2080.9,633.2z M2423,920.4c0.1,0.3,0.2,0.5,0.3,0.8c1.7,0.5,3.5,1.1,5.2,1.6c-0.1-0.3-0.1-0.6-0.2-0.9
		c1.4-0.4,2.7-0.7,3.8-1c0.9-1,1.7-1.9,2.8-3.1c-0.4-3.2-0.4-3.2-7.8-1.4c1,0.5,1.8,0.9,2.7,1.3
		C2427.4,918.6,2425.2,919.5,2423,920.4z M2366.8,980c-1.1-3.1-3.2-4-5.7-2.4c-1.5,0.9-2.4,2.7-3.5,4.3c-0.3,0.5-0.1,1.4-0.1,2.1
		c0.7,0,1.5,0.2,2.1-0.1C2362,982.7,2364.3,981.4,2366.8,980z M2019.5,610.3c0.1,0.4,0.2,0.8,0.3,1.2c1.7-0.1,3.8,0.5,5-0.3
		c3.3-2.2,3.9-5.3,1.9-9.6C2024.9,605.3,2022.8,608.4,2019.5,610.3z M1994.7,952.7c-0.2-0.2-0.4-0.4-0.7-0.5c-2,2.1-4,4.3-6.1,6.4
		c0.4-0.7,0.7-1.4,1.1-2c1.7,0.6,3.3,1.2,5,1.8c-0.2,0.6-0.4,1.3-0.5,1.9C1993.8,957.7,1994.2,955.2,1994.7,952.7z M2675,688
		c1.9-2.9-1.2-3.7-2.3-5.3c-0.4-0.6-1.8-1.1-2.2-0.8c-0.7,0.5-1.2,1.6-1.3,2.4c-0.1,0.6,0.6,1.5,1.2,1.8
		C2671.7,686.9,2673.2,687.3,2675,688z M2817.7,414.4c0.2-0.3,0.5-0.5,0.7-0.8c-0.8-1.5-1.5-3.2-2.6-4.5c-0.6-0.7-1.9-0.8-2.9-1
		c-0.3-0.1-1.1,0.8-1.1,0.9c0.3,0.8,0.7,1.8,1.4,2.3C2814.6,412.5,2816.2,413.4,2817.7,414.4z M2863.8,401.5
		c-0.2,0.2-0.5,0.4-0.7,0.6c0.1,0.8-0.1,1.8,0.3,2.5c0.4,0.9,1.2,1.7,2,2.4c0.2,0.2,1.6-0.4,1.6-0.6c-0.1-1-0.3-2.1-0.8-2.9
		C2865.6,402.6,2864.6,402.1,2863.8,401.5z M2250.4,354c-4.2,0.5-4.4,1.5-1.2,6.7C2249.7,358.1,2250,356.2,2250.4,354z
		 M1723.9,883.8c-0.5,2.4-0.9,4.2-1.5,6.6c2.2-0.7,3.5-1.1,4.7-1.5C1726.2,887.5,1725.4,886.2,1723.9,883.8z M1629.4,1012.1
		c0.3,0,0.6-0.1,1-0.1c1.8-4,1.7-4.3-1.4-7.3C1629.1,1007.8,1629.3,1009.9,1629.4,1012.1z M2062,1064c3.1-2,3.6-4.3,1.4-6.9
		C2062.9,1059.5,2062.5,1061.5,2062,1064z M2036.1,645.6c0.7,1.3,1.4,2.6,2.1,3.8c0.2,0,0.4,0,0.7,0c0.2-1.8,0.3-3.6,0.5-5.4
		c-0.4-0.1-0.7-0.1-1.1-0.2C2037.5,644.5,2036.8,645,2036.1,645.6z M2412.2,938.4c1.1,0,2.2,0.1,3.3,0.1c0.2-0.3,0.4-0.7,0.6-1
		c-1.3-1.2-2.6-2.4-4-3.7C2412.1,935.8,2412.1,936.9,2412.2,938.4z M2059.9,1058.9c-1.6,0.9-2.9,1.6-4.4,2.5
		c1.6,0.9,2.8,1.6,3.9,2.2C2059.6,1062.1,2059.7,1060.7,2059.9,1058.9z M2870.8,408.8c-0.1,1.5-0.2,2.6-0.1,3.7
		c0,0.6,0.4,1.2,0.8,1.6c0.2,0.2,1.1-0.1,1.2-0.2c0.1-1.3,0.2-2.6,0-3.8C2872.4,409.5,2871.4,409.2,2870.8,408.8z M2369.2,948.4
		c0.7-1.2,1.5-2.3,2-3.6c0.3-0.7,0-1.6,0-2.5c-0.4,0-0.9,0.1-1.3,0.1C2371.1,944.6,2366.1,946.2,2369.2,948.4z M2527.8,835.8
		c0.1,0.3,0.2,0.6,0.3,0.9c1.2,0.2,2.4,0.5,3.2,0.6c0.3-1.4,0.5-2.5,0.7-3.8C2530.4,834.4,2529.1,835.1,2527.8,835.8z"/>
	<path class="st1" d="M1018.5,806c0.8,0.1,1.6,0.2,2.4,0.3c0.1,0.5,0.4,1.2,0.2,1.6c-0.7,1.2-1.5,2.3-2.5,3.3
		c-0.1,0.1-1.9-0.8-1.9-1.3C1016.5,808.3,1015.5,806,1018.5,806z"/>
	<path class="st1" d="M683.1,714.2c0,0,0.1,0.2,0.1,0.2C683.2,714.4,683.1,714.2,683.1,714.2z"/>
	<path d="M1023.4,809.5C1023.4,809.5,1023.5,809.5,1023.4,809.5C1023.5,809.5,1023.4,809.5,1023.4,809.5z"/>
	<path d="M1024.6,808c0,0-0.2-0.1-0.2-0.1C1024.5,807.9,1024.6,808,1024.6,808z"/>
</g>
<path class="st0" d="M-105.6,908c0.1-1.4,0.1-2.8,0.2-4.2c-0.5-0.6-1.1-1.2-1.6-1.8c-0.6-0.9-1.6-1.8-1.7-2.8
	c-0.3-2.1-0.2-4.3-0.3-6.4c-0.4,0.1-0.7,0.3-1.1,0.4c-1.2-0.7-2.4-1.3-3.9-2.1c-0.7,0.3-1.9,0.9-2.4,1.1c-1.6-1.9-3.4-3.8-4.7-5.9
	c-0.8-1.3-0.7-3.1-1-4.7c1.6-0.6,3-1.1,4.6-1.6c0,0.5,0.1,1.2,0.1,2.6c1.4-1.6,2.4-2.7,3.4-3.9c1.7,0.8,3.7,1.5,5-0.4
	c0.7-1.1,0.5-2.8,0.8-4.9c-2.5,2.3-4.1,3.9-5.8,5.4c0-2.8-1.8-2.1-3.7-0.8c0-0.4,0-0.8-0.1-1.2c1.9-2.1,3.7-4.3,5.8-6.6
	c-1.7-1.5-3.3-3.3-1.5-5.9c0.6,2.3,1.9,3.8,4.3,3.8c0-1.1,0-2,0-2.6c-1.5-0.4-2.9-0.8-4.3-1.1c0-1.2-0.4-2.6,0.1-3.6
	c1.3-2.5,1.4-4.2-1.8-5.2c-1.5-0.5-2.8-1.5-4.3-2.4c0.5-0.5,1.6-1.5,2.4-2.6c0.3-0.4,0.3-1.3,0.1-1.8c-0.1-0.3-1.1-0.6-1.3-0.4
	c-0.4,0.3-0.4,0.9-0.6,1.4c-0.3,0.6-0.6,1.1-0.8,1.4c-1.5-3.2-2.9-6-4.3-8.8c-0.4,0.2-0.8,0.3-1.2,0.5c1,2.9,2.1,5.9,3.1,8.8
	c0.1,0.3,0.2,0.9,0.1,0.9c-2.9,1.7-1.6,4-1.1,6.4c0.5,2.9-1.1,4.9-4.6,4.9c4.2,1.3,3.4,4.8,4.3,8.3c-2.4-1.8-6-0.2-6.6-4.2
	c0-0.2-2.2,0-3.9,0.1c0.1,0.2-0.1-0.3-0.3-1.1c-0.6,0.5-1.1,1-1.5,1.5c-0.3-0.2-0.6-0.3-0.8-0.5c0.5-0.9,1.2-1.7,1.5-2.7
	c0.2-0.7,0-1.6-0.2-2.3c-0.2-0.7-0.7-1.4-1.1-2.2c-0.5,0.7-1,1.4-1.4,2c-2.1-0.6-4.1-1.2-6-1.8c-0.1-0.4-0.1-0.8-0.2-1.2
	c2-0.6,4-1.2,6.4-1.8c-0.2-1.2-0.4-2.5-0.6-3.7c5.3-1.8,6.3-6.5,7.2-11.4c4.5,2.6,4.5-2.5,6.9-3.7c-0.5-0.5-0.9-0.9-1.5-1.5
	c-0.3,0.3-0.6,0.5-0.8,0.7c-0.6,0.6-1.2,1.2-1.9,1.7c-0.1,0.1-1.2-1-1.2-1.2c0.4-0.7,1-1.7,1.7-1.9c2.6-0.9,3-2.5,2.2-4.9
	c-1.5,0.5-2.8,1.1-4.2,1.5c-0.8,0.2-1.7,0-2.6,0c0.2-0.8,0.4-1.5,0.7-2.3c0.1-0.4,0.5-0.7,0.5-0.8c0.8,0.5,1.5,0.9,2.2,1.4
	c0.6-1.6,1.1-3.2,1.7-4.9c0.6,0.4,1.6,1,3.3,2c-0.4-3.9-0.7-7.1-1-11c1.3,0,3.4,0.1,5.7,0.2c0.8-2,3-2.2,4.3-0.8
	c1.9-0.3,3.4-0.8,4.8-0.7c3.3,0.2,9.6-4.1,10.6-7.5c1.8-0.3,3.5-0.7,5.2-1c0.1,0.3,0.3,0.6,0.4,0.9c2.1-2.6-4.4-6.1,0.9-8.5
	c2.1,3.7,5.4,0.9,8.3,1.4c-3-6.6-7.1-9.6-10.2-8.3c-0.6-1.5-1.2-3-1.8-4.6c-0.4,0.1-0.7,0.2-1.1,0.3c-0.3,0.8-0.6,1.5-1.2,3.1
	c-0.4-1.9-0.4-3.3-1-4c-0.7-0.7-2-0.7-2.9-0.9c0.2-0.9,0.5-1.9,0.7-3c-2.1,3-4.8,0.4-7,0.9c-1.5,0.4-3.1-0.1-5.2-0.2
	c-0.3-0.9-0.7-2.4-1.1-3.5c-7.3-4.1-14.4-8.1-21.4-11.9c-0.3-2.1-0.6-4-0.8-5.1c-2.2-0.8-3.9-1.1-5.3-1.8c-1.9-1-1.6-2.2,0.1-3.4
	c1-0.8,1.7-2.2,2.2-3.4c0.4-1,0.4-2.1,0.6-3.2c0.3,0,0.6,0.1,0.9,0.1c-0.2-1.2-0.3-2.5-0.5-3.7c2.8,4.2,7,2.7,9.9,2
	c3.4-0.7,5.8,0.2,9,1.9c0.5-1.3,0.9-2.6,1.4-4c1,0.3,2.5,0.7,4,1.1c-0.2,0.2-0.3,0.4-0.4,0.5c-4.8,4.2-4.7,5.9,1.2,8.4
	c2.2,0.9,4.7,1.4,7,1.7c0.5,0.1,1.9-1.8,1.7-2.5c-0.5-1.7-1.7-3.2-2.6-4.8c-2.8-4.5-3-9.5-2.6-14.6c0.1-1.8,1.4-2.1,2.9-1
	c1.5,1.1,2.9,2.2,4.4,3.4c0.2-0.2,0.4-0.4,0.6-0.6c-0.7-1.5-1.3-3-2.1-4.7c1.6,0.3,2.8,0.5,3.8,0.7c3.8-4.5,3.6-9.2,1.3-13.9
	c3.3-1.9,5.4-6.1,9.9-3.5c-0.3,1.4-0.9,3.1,1.8,1.9c2.1-0.9,4.3-1.7,5.5-2.2c1-3.4,1.9-6.1,2.9-9.7c3.2,2.5,6.1,4.7,9.5,7.4
	c0.8-3.7,1.5-6.8,2.2-10c0.4,0.3,0.7,0.6,1.4,1.2c-0.2-1.2-0.3-2.2-0.4-3.1c0.2-0.1,0.4-0.3,0.6-0.3c1.5,0.4,3.4,2.1,3.5-1.2
	c1.3,0.5,3.5,0.8,3.6,1.4c0.6,3.4,2.5,2.7,4.8,2.4c4.2-0.6,9-2.1,12.6-0.8c3.7,1.4,6.6-0.2,10.6,0.3c-0.2,0.8-0.3,1.8-0.5,2.5
	c3.5,2,6.8,3.9,10.1,5.8c-0.2,0.2-0.3,0.4-0.5,0.6c0.9-0.1,1.8-0.1,2.7-0.4c0.8-0.2,1.6-0.7,2.2-1.2c0.4-0.3,0.5-1.2,0.9-1.2
	c4.1-0.5,6-4.1,8.9-6.2c0.5-0.4,0.7-2,0.4-2.7c-0.6-1.3-1.8-2.2-3-3.5c1.9-1.8,1.2-4.1-1.1-6.3c-0.5,0.3-1,0.6-2.3,1.5
	c0.5-1.5,0.5-2.4,0.9-2.7c2.4-1.8,1.8-3.2,0.1-5.4c-1.3-1.7-1.6-4.3-2.4-6.7c-0.3,0.1-0.9,0.5-1.1,0.5c-1.7-0.8-3-1.5-4-2
	c0.3-1,0.6-2.3,1-3.6c-1.1,0.2-2.2,0.4-3.4,0.6c0,0.3,0,0.6,0,0.9c-1.1-0.6-2.4-1.1-3.4-1.9c-2.8-2.1-2.8-2.2-4.4-0.3
	c-1.4-1.5-2.9-3.1-4.4-4.8c-0.3,0.2-0.5,0.4-0.8,0.6c0.8,2.3,1.6,4.7,2.4,7c-0.4,0.2-0.8,0.4-1.2,0.6c-0.4-0.8-1-1.6-1.2-2.5
	c-0.3-1.6-0.5-2.6-2.6-3.4c-1.9-0.7-4.8-2.5-3.6-6.1c-0.9,0.1-1.5,0.2-2.6,0.4c4.2-3.8-1.9-4.3-1.7-6.6c1-1,1.9-1.9,2.8-2.8
	c0.7,1.6,1.3,3.1,2,4.7c0.5-0.1,1-0.3,1.4-0.4c-0.1-1.1,0-2.5-0.5-3.3c-0.5-0.6-1.9-0.6-2.9-0.8c-0.4-1-0.9-2.1-1.3-3.1
	c-0.5-1.2-1.1-2.4-1.4-3.8c-1.4-0.1-3.1,0.3-3.1-2.6c0-1.4-1.3-2.5-2.7-0.5c-0.7,1.1-1.6,2.2-2.6,3c-0.4,0.3-1.3,0.1-1.6,0.1
	c-0.3,2.3-0.6,4.6-1.1,7.6c-1.4-0.4-2.7-0.8-3.8-1.2c-4,1.1-8.3,2.2-12.4,3.3c-1-1.2-1.8-2.3-2.8-3.2c-0.4-0.4-1.3-0.7-1.7-0.5
	c-4,2.1-8.7,3.3-9.5,8.8c-0.1,0.4-0.5,0.7-0.8,1.1c0.5,0.9,1.1,1.6,1.7,2.6c-2.8,1.8-5.5,3.5-7.9,5c1.1,1.4,2.9,2.6,3,3.9
	c0.3,3-2.5,2.5-4.3,2.7c-3,0.4-3.4,0.9-2,3.9c0.4-0.5,0.7-0.8,0.9-1.3c0.2-0.3,0.3-0.7,0.4-1.1c2.5,0.3,2.4,1.6,1.9,3.3
	c-0.8,2.5-1.6,5,1,6.5c-1.6,1.8-3,3.5-4.7,5.4c-0.2-0.1-1-0.6-2.2-1.2c-0.4,1-0.7,1.9-1.1,2.7c-0.8-1.1-1.5-2.1-2.3-3.2
	c0.2,0,0.4,0.1,0.6,0.1c-0.4-3-0.8-6-1.3-9.4c-1.9,0.8-2.9,1.2-4.3,1.7c2.5-3.4,2.5-3.8-0.1-6.9c-2.5,3.6-4.9,7-7.4,10.7
	c1.5,1.9,2.8,1.7,4.4-1.7c0.9,3.8,1.7,6.7,2.1,9.5c0.1,0.8-1.3,2.3-2.1,2.5c-1.1,0.1-2.4-0.8-4.1-1.4c-0.7,0.8-1.6,2-2.9,3.7
	c-0.3-1.2-0.6-2.1-0.9-3.2c-2,0.8-4.5,1.7-6.9,2.7c0,0.3,0,0.6,0.1,1c1.3,0.6,2.6,1.2,4.1,1.9c-0.5,0.4-1.1,0.8-1.7,1.2
	c0.3,0.1,0.6,0.2,0.8,0.3c-0.6,1.8-0.9,3.8-1.8,5.5c-0.3,0.5-2.2,0.4-3.1,0.1c-0.6-0.2-0.8-1.5-1.1-2.2c0.2-0.2,0.5-0.4,0.7-0.6
	c-1.3-1-2.5-1.9-3.5-2.7c0.9-1.4,1.6-2.5,2.3-3.6c-1.7-1-3.3-2.1-5.5-3.4c-0.1,2.4-0.2,3.7-0.3,5c-2.7-1.1-5.4,0.1-6.4,2.9
	c-0.6,1.7-2.1,1.9-3.6,0.8c-0.9-0.7-2.1-1.1-3.8-2c0,0,0.1-0.8,0.2-2.3c-3.1,3.3-4.3,0.3-5.9-0.9c0.7-1.5,1.3-2.9,2-4.4
	c-0.3,0-0.5,0.1-0.8,0.1c-0.1-2.2-0.2-4.4-0.3-6.9c-2.5,0.5-4.2,0.9-6.2,1.3c-0.4-0.8-0.8-1.8-1.2-2.7c-3.5-0.4-6.9-0.8-10.6-1.2
	c0.1-0.3,0.3-0.7,0.6-1.3c-3.4-0.4-5.3-1.6-3.7-5.6c0.6-1.5-0.3-3.7-0.5-5.2c-1.4-0.4-3-0.8-5.1-1.3c3.3-2.9,6-5.3,8.7-7.8
	c0.2,0.1,0.4,0.2,0.6,0.3c-0.3,0.9-0.7,1.8-1.3,3.3c1.3-0.4,2.6-0.4,3-1c0.8-1.3,1.1-2.9,1.8-5.1c0,0,0.9-0.3,1.8-0.5
	c-0.2-0.1-0.5-0.3-0.7-0.4c0.5-0.9,0.9-2,1.6-2.7c2-2,4.3-3.8,6-6c2-2.5,0.3-6.6-3.5-7.7c-1.6-0.4-3.2-2.6-5.4-0.7
	c-0.3,0.2-2.7-1.3-3.5-2.5c-1.1-1.6-2.1-1.8-3.9-1.3c-3,0.8-4.1-0.3-3.7-4.5c-3.1,3.3-1.8,8.1-5.3,10.7c-0.7-1.6-1.3-2.8-1.9-4.2
	c0.4-0.2,1-0.5,1.6-0.8c-0.1-0.3-0.1-0.7-0.2-1c-4.4,0.3-8.2,4.5-11.3,3c-2.9-3.1-5-4.9-6.6-7.2c-1.7-2.3-5.3-3.5-3.7-7.7
	c0.5-1.2-1.3-3.7-4.9-1.9c1.4-1.6,2.1-2.4,3.4-3.9c-2.3,0.7-3.6,1.2-5.2,1.7c-0.2-1-0.4-2-0.7-3.4c-2.1,1.4-5.8-1.2-6.1,2.7
	c-2.1,1.2-4,2-5.7,3.2c-4,2.7-6.2,2-8.8-2.3c-0.8-1.4-2.6-3.2-3.9-3.2c-1.8,0-4.8,1.1-5.2,2.4c-0.7,2.3-0.3,5.3,0.7,7.5
	c1.1,2.3,3.5,4.1,1.1,6.8c-0.8,0.9-2.6,2.3-3.1,2c-2.3-1.5-2.9,0.9-3.7,1.3c0.3,1,0.5,2,0.7,2.5c-2.2-0.3-4.2-0.5-6.6-0.8
	c-0.1-0.3-0.1-1.8-0.9-2.4c-0.6-0.6-2.1-0.2-3.3,0.1c-4.3-3-5-8.2-6.9-12.8c-0.5-1.2-1.8-1.9-2.8-2.9c-0.5,1-1.1,1.9-1.7,2.9
	c-1.4-0.5-3.4-1-5.3-1.7c-0.5-0.2-0.8-1.2-0.9-1.9c0-0.2,0.9-0.6,1.3-0.9c0.2,0.5,0.5,0.9,1.1,2.3c0.8-2.1,1.2-4.2,2.3-5.9
	c1.9-2.9-2.1-3.5-2.5-5.6c-1.6-0.9-3.5-2-5.9-3.3c1-6-4.4-3.4-7.5-4.5c-0.3,0.6-0.8,1.4-1.7,2.9c-1.2-1.6-2.1-3.1-3.1-4.5
	c0.2-0.3,0.3-0.7,0.5-1c-2.6-0.1-5.3-0.1-9-0.2c0.4,1.6,0.7,2.6,1,3.7c0,0,0-0.2,0-0.2c-1.7,2.7-2.1,2.8-4.3,1.2
	c-0.3,0.5-0.6,1-1.1,1.7c-0.2-0.6-0.4-1-0.5-1.4c-0.1-0.4-0.1-0.8-0.3-1.5c-1,0.7-1.7,1.6-2.5,1.6c-0.6,0-1.2-1.2-2-2
	c-0.6,1.2-1.5,2.3-2.7,0.1c-0.8,1.3-1.5,2.4-2.4,3.8c-1-1.2-1.6-2.4-2.6-3.1c-1.2-0.8-1.7-2.5-4.2-1.8c-1.3,0.4-5.1,0-5.8-3.4
	c-0.1-0.5-1.7-0.6-2.7-1c0.4-0.4,1.1-0.9,2.4-2c-3.3-0.1-5.8-0.1-8-0.2c-1-1.8,0.9-5.4-3.5-5.9c-0.6-3-5.7-1.4-5.5-5.4
	c0-0.6-1.8-1.2-3.2-2.2c0.9-0.5,1.8-1.1,2.8-1.6c-1.2-1.2-2.6-2.6-4.2-4.2c-0.1,2-0.1,3.7-0.2,5.3c-0.3,0-0.6,0-0.9,0
	c-1.7-2.2-3.4-4.4-5.3-6.9c-0.6,0.4-1.9,1.3-3.3,2.1c-0.2-0.3-0.4-0.6-0.6-0.9c0.7-1,1.4-2.1,2.5-3.7c-1.8-0.2-3.2-0.3-5.3-0.5
	c-0.2-1.5-0.6-3.8-0.6-6c0-3.9,4.2-2.1,5.7-4c-0.3-0.1-0.5-0.2-0.8-0.4c1.7-3.8,3.3-7.6,5-11.4c-2.8,0.9-5.8,1.8-8.3,2.6
	c-0.8-2-1.7-4.2-2.5-6.3c-0.2,0-0.4,0-0.6-0.1c-0.1,1.2-0.1,2.3-0.2,3c-1.3-0.3-2.4-0.5-3.8-0.9c0.4-0.5,1-1,1.8-1.9
	c-1.1-0.2-2-0.3-3.4-0.5c1.5-0.6,2.5-1,4.3-1.7c-1.6-0.2-2.6-0.4-4.4-0.6c2.8-0.9,4.8-1.8,6.9-2.1c2.1-0.3,4.3,0.1,5.3,0.2
	c1.4-3.7,2.4-6.5,3.6-9.6c-0.5-0.5-1.4-1.4-2.3-2.3c-1.3,0.4-2.7,0.8-3.3,1c-1.5-2.6-2.7-4.8-3.9-7c0.4,0,1.1,0.1,1.6,0.2
	c0.9-1.6,1.7-3.2,2.5-4.7c0.3,0.1,0.5,0.3,0.8,0.4c-0.3-0.4-0.7-0.9-1.1-1.4c0.4-0.2,0.6-0.4,0.8-0.3c2.2,0.7,4.3,2.4,6.5,0
	c0.2-0.2,0.9-0.2,1.3,0c4.4,2.5,6.7-0.3,8.8-3.6c2.1,3.6,4.3-0.1,6,0.3c-0.3-4.2-0.7-8.2-1-12.5c-0.7,0.2-1.2,0.3-2.5,0.6
	c0.9-1.6,1.3-3.3,2.2-3.8c1.8-1,1.3-1.8,0.8-3.2c-0.5-1.5-0.4-3.2-0.8-4.8c-0.3-1.1-0.8-2.2-0.6-3.2c0.1-2.9-0.2-6,0.4-8.8
	c0.6-3,2.1-5.9,3.2-8.8c-2.1-1.5-4.7-1.7-3.9-5.2c0.3-1.2-2.5-3.2-4.1-5c2.1-1.7,2.8-3,0.7-5c-1-1-1-3.5-0.8-5.2
	c0.3-2.2,1.6-1.7,3.4-0.7c-0.5-1.2-1-2.3-1.5-3.5c-1.3,0.2-2.2,0.4-3.3,0.6c-0.4-1.1-0.8-2.1-1.1-3.1c-3.4,1.1-5.3,1.3-5.2-3
	c-0.8-0.2-1.7-0.3-3.2-0.6c0.4-2.4,0.8-4.6,1.1-6.9c0.1-0.9,0.1-2.6-0.3-2.7c-1.1-0.4-2.4-0.1-3.6-0.1c2.2-2.7-5.3-5.5-0.1-8.7
	c-0.4-1.2-0.9-2.4-1.3-3.6c0.8-1.4,1.6-2.8,2.3-4c1.6,0.3,3.4,0.7,5.1,1.1c-1.1-3.1-2-5.6-3.1-8.6c-0.1,0-1-0.1-1.9-0.3
	c-0.3-1.2-0.7-2.3-1.3-4.4c1,0.5,1.8,0.8,2.5,1.2c-2.6-3.2-3.5-0.5-5,1.1c-3.3-5-6.5-9.8-10.1-15c0,1.2,0,1.7,0,1.9
	c-3.9,0.4-7.8,2.1-11.2-0.7c-1.2-0.8-2.4-1.6-3.6-2.4c-1.9-1.3-4-2.5-5.6-4.1c-0.6-0.5-0.1-2.2,0-3.9c-1.8-0.5-4.2-1.2-6.5-1.8
	c-1.9-1.3,0.2-6.3-5.1-5.3c-0.3-4.4,2.8-5.3,5.9-6.2c2.2-0.7,4.3-1.6,6.8-2.5c-1.7-1.3-2.7-2.1-3.7-3c2.1-3.2,6.7-4.9,4.7-9.9
	c2.9-0.5,5.9-0.2,7.7-1.6c1.9-1.3,2.6-4.3,3.7-6.4c-1.6-2-3-3.7-4.5-5.7c0.2-0.1,1-0.2,1.4-0.7c0.7-1,2.4-1.6,0.9-3.7
	c-0.9-1.2-0.6-3.6,1.6-5.1c2.9-2,5.5-3.6,9-1.9c0.4,0.2,1.1-0.3,1.7-0.5c1.1-0.4,2.3-1.2,3.3-1c3.3,0.6,6.5,0,9.7-0.1
	c2.2,0,4.3,2,7.1,3.5c2.3-1.2,5,0,9.2,4.9c-1.2-0.3-2.2-0.6-3.3-0.8c-0.1,0.2-0.2,0.3-0.2,0.5c0.3,0.3,0.6,0.6,1.1,1
	c-1.3,0.6-2.4,1.2-4.5,2.2c2.9,2.3,5.1,4.1,7.7,6.1c-2.9,1.3-5.5,2.8-4.4,6.5c0.6,2.2,1.2,4.4,1.7,6.6c0.2,0.6,0.4,1.5,0.1,1.9
	c-2,3,0.4,4.3,2.3,5.4c2.7,1.6,5.6,3.2,8.6,4.1c2.5,0.7,5.2,0.5,8.1,0.7c-0.2,2.4,0.7,3.5,3.1,4.3c1.7,0.5,3.2,2.3,4.4,3.8
	c2.2,2.6,4.3,2.9,7.3,1.2c1.9-1,4.2-1.3,6.3-1.9c2.2-0.7,4.3-1.4,6.5-2.1c0.4-0.1,0.8,0,1.6,0.1c-0.7,1-1.3,1.7-1.5,2
	c1.3,2.2,2.3,4,3.5,5.7c1.1,1.4,2.5,3.4,3.9,3.5c1.7,0.1,4-0.7,4.8-3.1c1.1-3,2.7-5.9,4-8.8c0,0,0.2,0.1,0.2,0.1
	c0.5-0.2,1-0.4,1.5-0.5c-1.1-2.1-1.7-4.5-3.3-6.1c-1.5-1.4-2.5-2.5-1.5-4.5c0.8-1.6,0.8-2.8-0.8-3.9c-1.2-0.9-2.2-2.1-0.5-3.8
	c0.5-0.5-0.1-2.4-0.5-3.5c-0.8-2-2.3-3.7,1.4-4.5c2.5-0.5,4.7-2.1,7-3.2c0.7-2.6,1.4-5.2,2.1-8.2c1.7,0,3.6-1.3,3.4-3.9
	c-0.2-2-1.4-4-2.3-6.3c1.2,0.2,2.3,0.6,3.3,0.6c0.8,0,2.3-0.7,2.3-0.8c-1.2-3.6,2.2-3.8,3.8-5.5c-0.7,0.1-1.4,0.2-1.9,0.3
	c-0.1-3,0.9-4.8,4.5-4c1,0.2,2.9,0.1,3.1-2.1c0.1-0.7,1.5-1.2,2.5-2c-0.9-0.4-1.8-0.8-2.5-1.1c3.6-1,7.2-2.1,11-3.2
	c0.1-1,0.3-2.2,0.4-3.9c1.3,0.9,2.3,1.7,3.6,2.7c1.1-0.6,2.4-1.3,3.7-2.1c-0.7-0.4-1.2-0.7-1.7-1.1c4.2-3.7,7.9-3.7,9.3-0.9
	c1.8,0.4,3,0.5,4.1,1c1.7,0.8,3.4,1.7,5,2.7c2,1.4,4.1,2,6.5,1.3c0.4-0.1,0.9,0.1,1.3,0.3c1.9,0.6,4.3,2.3,5.5,1.7
	c2.5-1.3,4.3-3.8,6.6-6.1c-1.5-0.8-2.6-1.4-3.6-2c0-0.2,0.1-0.4,0.1-0.6c3,0.2,6.1,0.4,9.1,0.5c2.1,0.1,4.1-0.2,6.3,0.4
	c1.4,0.4,3.8-1.6,5.1-3.2c2.3-2.7,5.4-3.2,8.4-1.1c-2.6,3-5.2,6-7.6,8.7c1.7,1.5,2.9,2.5,4.3,3.7c1.6-0.6,3.5-1.4,5.6-2.3
	c0.8-0.8-2.2-3.9,1.8-3.2c-0.1-0.5-0.1-0.8-0.2-1.1c-0.4-1.1-2.7-2.3-0.4-3.3c1.1-0.5,3.6,0,4.3,1c1.1,1.5,1.1,3.7,1.6,5.4
	c3,0.2,6.4,0.7,9.8,0.6c2.3-0.1,3.5,1,5.1,2.3c1.8,1.5,4.1,2.3,6.2,3.5c1,0.5,1.9,1.2,2.9,1.8c1-1.2-0.4-4.7,3.4-3.7
	c-0.3,1.1-0.6,2.1-0.9,3.1c2.9,1.4,8.5,0.3,10.8-2.1c1.5,0.8,3,1.7,4.6,2.5c0.9-1.2,1.7-2.2,2.6-3.4c0.5,0.7,1,1.4,1.4,2
	c2.4-1.3,5.3,0.6,7.5,5c-1.2,0.9-2.6,1.6-3.4,2.7c-1.5,1.9-2.6,3-3.9-0.9c-0.1,6-5.4,6-8.8,8.5c6.1,6.2,12,12.1,17.7,17.9
	c-0.7,1.7-1.4,3.2-2,4.6c-0.9-0.1-1.9-0.2-3.5-0.4c0.8,1.4,1.3,2.1,1.7,2.8c-1.6,1.5-3.1,3-4.6,4.4c2.7,1.2,4.8,2.1,7.2,3.2
	c-0.7,1-1.3,1.6-1.6,2.3c-0.3,0.6-0.8,1.6-0.5,2.1c1.4,2.5,2.9,4.9,4.6,7.2c1.8,2.4,3.3,2.2,5.3-1.2c1.3-2.2,2.8-3,5.3-3.8
	c2.5-0.8,4.5-3.4,6.8-5.2c0.8-0.6,1.7-1.1,3.2-1.9c-0.4,1.3-0.5,1.8-0.6,2.1c2.5,0.2,5.1,0.5,7.7,0.5c0.6,0,1.6-0.8,1.8-1.4
	c0.2-0.7-0.3-1.6-0.7-2.9c0.2-0.3,0.9-1.2,1.6-2.3c3.1,2.4,4.8,0,6.1-2.2c1.5-2.5,3.5-3.6,6.4-3.9c1.7-0.2,3.4-1,4.9-1.8
	c3.7-2,6.6-2.2,11.1-0.5c-0.2,0.9-0.3,1.9-0.6,3.1c2.1-0.6,4.2-1.1,5.5-1.5c1.1,3.4,1.8,5.7,2.3,7.3c2.1,0.8,3.7,1.3,5.3,1.9
	c0,0.3,0,0.7,0,1c0.6-0.9,1.1-1.9,1.8-2.6c1.2-1.1,2.4-2.4,3.8-3.1c2.2-0.9,4.5-1.3,4.1-4.6c-0.1-0.7,1.1-1.7,1.9-2.4
	c2-1.8,4.4-3.2,6.2-5.2c2.2-2.5,4.1-5.4,6-8.3c0.4-0.6,0.4-1.4,0.8-2.9c2.6,0.1,5.6-0.2,8.5,0.3c3.4,0.5,8.2-1.9,8.9-5.2
	c0.1-0.7-0.2-1.9-0.7-2.3c-1.7-1.4-3.7-6.1-2.6-7.9c1.7-2.8,3.9-5.4,5.9-8c1.3-1.7,3.1-3.1,4-4.9c2.4-4.9,7.7-7.8,13.2-7
	c1,0.2,2.3,0.2,3.2-0.3c2.8-1.4,5.7-1.7,8.8-1.3c2.3,0.3,4,0.6,3.2,3.6c-0.2,0.8,0.2,1.7,0.3,2.6c1.6,0.1,3,0.1,4.4,0.4
	c0.6,0.1,1.6,0.6,1.6,0.9c-0.2,3.5,2.6,3.9,4.8,5c0.6,0.3,1,1.2,1.9,2.4c1.1-0.4,2.7-1.2,4.4-1.8c1.3-0.5,2.8-1.4,4-1.2
	c3.3,0.8,6.4,2.6,9.8,3.1c5,0.8,8.1,4.4,11.8,7c4.3,3,8.3,6.5,12.2,10c1.3,1.1,1.8,3.1,2.6,4.7c1.3,2.4,1.7,5.4,5.2,6.2
	c2.1,0.5,3.8,2.3,6.2,3.8c-0.2,1-0.5,2.6-0.8,4.2c-4.1-1.6-7.2,4.7-11.3-0.1c-0.2,0.6-0.3,1.1-0.5,1.7c2.7,2,5.2,4.7,8.2,5.8
	c3.7,1.4,5.5,3.8,6.8,7.1c0.3,0.8,0.9,2,1.6,2.2c4.9,1.5,5.1,6.6,7.6,9.9c0.3,0.4-0.2,1.5,0,2.2c0.3,1.2,0.4,2.7,1.2,3.5
	c2,2.2,4.4,3.9,6.5,6.1c0.7,0.8,1.2,2.2,1.2,3.3c0,3.3,1.6,4.3,4.2,3.9c0.5-1.4,0.9-2.6,1.3-3.9c1.1,0.9,2.3,1.8,3.1,2.9
	c0.8,1.1,1.2,2.5,2.2,4.4c-4.3-1.6-4.7,1.1-5.1,3c-2-0.8-3.9-1.6-5.8-2.1c-0.5-0.1-1.8,1.1-1.8,1.7c0.2,2.8,0.6,5.6,1.1,8.4
	c0.6,3.7,3.5,5.4,7,4.3c2.8-0.9,3.7,1.2,5,3.1c1.1,1.6,2.9,2.8,4.6,4c0.2,0.2,1.6-0.7,1.9-1.3c2.6-5.5,7.4-6.5,12.7-6
	c1,0.1,1.9,2,2.8,3.1c-0.2,0.2-0.5,0.5-0.7,0.7c0.4,0.2,0.8,0.4,1.1,0.6c1.8,0.9,4.5-1.7,5.6,1.8c0.6,1.9,1.9,3.6,2.4,5.5
	c1.1,3.5,2.7,4.2,5.3,1.8c1.3-1.2,2.1-1.5,3.9-0.5c2.5,1.4,5.5,2,8.2,2.9c0.6,0.2,1.5,0.4,1.7,0.8c1.9,4.8,6.4,6.6,10.5,9
	c1,0.6,1.8,1.9,2.2,3.1c0.9,2.9,1.3,6,2.3,8.9c0.7,2.1,2.2,3.9,3.1,5.9c0.7,1.7,1.1,3.5,1.5,5.3c0.4,2.2-0.5,4.8,2.9,5.7
	c1.3,0.3,2.4,2.1,3.2,3.5c0.8,1.3,1.2,2.9,1,4.6c0.6,0.7,1.5,1.4,1.7,2.2c0.8,3.2,1.3,6.6,2.1,9.8c0.2,0.8,0.7,2,1.1,2
	c3.3,0.2,3.5,2.4,3.5,4.9c0,1.2,0.4,2.3,0.8,3.9c0.9-1.2,1.5-2,1.8-2.4c2,0,3.7,0,5.9-0.1c-0.4,1.3-0.8,2.7-1.4,4.5
	c0.4,0.5,1.1,1.5,1.7,2.4c1.1-0.5,2.3-1,4.1-1.7c-0.4,1.5-0.5,2.1-0.8,2.6c-1,2-0.5,3.5,1.7,4.1c3.4,1,5.1,3.1,5.5,6.6
	c0.2,2.4,0.7,4.7,3.1,6.4c2,1.4,2,1.7,2.9-0.7c0.2-0.5,1-0.7,1.6-1.2c2.3,2.6,4.8,4.9,4.4,8.9c-0.1,1.1,0.9,2.4,1.5,3.6
	c1.2,2.4,2.3,4.9,3.7,7.2c0.6,1,1.8,1.7,2.8,2.5c-0.3,4-0.3,4,7.3,14.4c0.8-0.7,1.6-1.4,2.4-2c6.9,4.2,8.2,10.3,5.2,17.6
	c-0.4,0-1.2-0.1-2.1-0.1c-0.1,0-0.2,0.1-0.7,0.5c1.7,1.1,3.1,2.2,4.7,2.9c2.3,1.1,4.8,2,7.2,2.8c3.5,1.1,4.9-0.4,5.5-4
	c0.5-2.9,0.5-5-3-6.2c1.6-1.1,3-1.8,4-2.9c0.8-0.8,1-2.1,1.6-3.2c1-1.7,1.7-3.8,3.2-4.8c2.4-1.7,1.2-3,0.4-4.9
	c-1.1,2.1-4.6,3.7-5.9,2.9c-1.2-0.7-1.6-5-1.2-6.5c0.5-1.8,0.7-3.8,0.5-5.6c-0.2-2-1.1-4-1.8-6.6c1.6,0.2,2.4,0.3,3.3,0.5
	c0.1-0.6,0.2-1.2,0.4-2.1c2.3,2.7,4.6,5.2,6.8,7.8c0.2-0.2,0.4-0.3,0.6-0.5c-0.5-0.8-1-1.7-1.5-2.5c1.1-0.6,2.1-1.3,3.4-2
	c1.1,1.6,2.2,3.4,3.5,5.2c1.3-0.4,2.8-0.9,3.5-1.2c1.1,4.9,1.9,9.6,3.4,14.1c0.3,1,3.1,1.7,4.6,1.5c4.6-0.6,9.3-1.2,13.6-2.7
	c3.7-1.3,5.4,0,7.2,2.7c3.5-1.4,6.9-2.8,10.5-4.3c-0.9-0.9-2-1.9-3-3c0.1-0.2,0.2-0.5,0.3-0.7c1.1,0.3,2.4,0.4,3.3,1
	c4,2.7,8,5.3,11.8,8.3c1.6,1.3,3,3.3,1.7,5.7c2.9,1.4,4.3,0.7,3.8-2.4c-0.5-3.1,0.5-3.8,3.4-3.7c2,0.1,3.6-0.9,4.5-3.5
	c0.6-1.7,3.2-2.8,4.8-4.2c1.2-1.1,2.1-2.4,3.3-3.7c0.7,0.6,1.9,1.6,3.6,3.1c0.8-1.2,1.7-2.4,2.7-3.9c0.6,1.3,1.1,2.5,1.6,3.4
	c2.9,0.1,5.6,0.1,8.4,0.2c2,0,2.6-1.1,2.6-3c0-2.3,0.9-3.6,3.7-3.2c1.7,0.2,3.6-0.5,5.4-0.8c2.3-0.4,5-1,6.8-0.7
	c3.9,0.6,7.2-1.5,10.8-1.4c0.3,0,0.7,0.1,1-0.1c5.2-3.9,10.5-1.3,15.9-0.4c2.1,0.4,4.1,0.8,6.2,0.8c4.7,0,8.7,1.4,12.3,4.6
	c1.6,1.4,3.7,2,6,1.3c0.9-0.3,1.9-0.3,2.8-0.4c1.3,6,3,7.3,9.2,7.9c0.9,0.1,1.8,1.2,2.6,1.9c0.7,0.6,1.2,1.3,2.3,1.5
	c-0.4-0.5-0.8-1-1.2-1.5c0.1-0.4,0.2-0.7,0.3-1.1c3.4,0.5,7,0.4,10,1.7c2.1,0.8,3.4,3.6,5.2,5.3c1.5,1.4,4.5,1.1,4.9,3.9
	c0.2,1.6,0.9,3.9,0.1,4.5c-1.1,0.9-3.2,0.5-4.8,0.6c-1,0.1-2,0.2-3.1,0.9c3,0.4,4.1,1.4,4.5,4.5c0.2,1.9,3.1,3.5,4.8,5.2
	c3.2,3.1,6.2,6.1,6.2,11.3c0,3.4,1.7,6.9,3,10.2c0.3,0.8,1.9,1.7,2.9,1.6c2.4-0.1,2.8,1.1,2.6,3.1c-0.2,2.1-0.3,4.2-0.6,6.3
	c-0.1,0.7-0.6,1.6-1.3,2c-3.6,1.9-3.8,3.3-2.9,7.5c0.5,2.1-0.1,4.9-1.1,6.9c-1.5,3-3.9,5.4-5.7,8.3c-0.6,1-0.8,2.8-0.4,3.9
	c1.3,3,3,5.7,4.5,8.6c1.3,2.4,2.7,2.7,5.4,1.6c2.3-0.9,5.6-1.2,7.8-0.2c2.3,1,2.3,4.1,1.7,6.8c-0.5,2.1-0.8,4.3-0.9,6.4
	c0,0.8,0.5,2.1,1.1,2.3c1,0.4,2.4,0.5,3.3,0c2.1-1,3.6-5.1,2.8-8c2.6,0.2,5,0.5,7.4,0.5c1.4,0,2.8-0.6,4.2-0.7
	c2.3-0.2,4.8-0.9,6.7-0.1c3.6,1.5,6.6,1.1,8.9-2.4c3.7,1.3,7.5,2.6,11.8,4.1c-2.6-3.3-4.8-6.1-7.1-8.9c0.2-0.2,0.5-0.5,0.7-0.7
	c0.6,0.4,1.2,0.9,2,1.5c0.3-0.6,0.7-1.3,1-2c0.3-0.1,0.4-0.1,0.5-0.1c5.9,2.7,6.8-2.8,9.6-5.5c1-1,3.4-1.3,4.7-0.9
	c2,0.7,3.8,2.2,5.3,3.7c2.8,3,6.5,4.8,8.7,8.4c1.2,2.1,3.8,1.4,4.8-1.2c0.9-2.3,2.4-4,4.8-3.7c2.3,0.3,4.7,1.1,5.1,4.2
	c0.2,1.1,1.5,2.1,2.1,3.2c0.4,0.8,0.3,1.9,0.7,2.8c0.4,1,1.2,2.7,1.4,2.7c3.1-0.8,6.5,1.4,9.5-1.2c1.1-1,3.1-0.9,4.7-1.3
	c0.9-0.2,1.9-0.8,2.8-0.7c2,0.2,4.4,0.2,6,1.3c2.1,1.5,0.2,3.3-0.8,4.8c-0.6,0.8-1.1,1.6-2.2,3.2c1.9,0,3.2,0,4.5,0.1
	c2.2,0.2,4.6,0.2,6.7,0.8c2.2,0.6,4.2,1.8,6.2,2.9c0.9,0.6,1.8,1.7,2.1,2.7c0.7,2,1.6,3.2,4,3.8c2.9,0.7,6,1.5,6.4,5.6
	c0.1,0.9,1.5,2.2,2.6,2.6c4.3,1.7,7,4.7,8.2,9.2c0.4,1.4,1.8,2.6,2.9,3.6c1.3,1.1,3.1,1.8,4.3,3c0.7,0.7,1.1,2.7,0.6,3.4
	c-2.2,3-2.9,6-1.5,9.5c0.5,1.2,0.1,2.3-1,3.5c-1.7,1.8-2.5,4.6-4.3,6.1c-1.8,1.5-4.7,1.7-6.8,3c-1.4,0.9-3.1,2.7-3.2,4.2
	c-0.2,3.3-0.8,5.8-3.8,7.6c-1.8,1-1.8,6.3-0.2,8.2c3.3,3.8,4.3,8.4,5.4,13.1c0.9,3.9,1,8.8,6.7,9.9c1,0.2,1.5,2.8,2.3,4.3
	c0.5,1,1.1,1.9,2.1,2.6c0.5,5.5-1.9,11.4,3,16.9c0.3-1.4,0.5-2.4,0.6-3.4c1.2,0.4,2.5,0.7,3.6,1.4c0.6,0.4,1.1,1.5,1,2.1
	c-0.8,3.2-1.7,6.4-2.6,9.4c-1.8-0.3-2.8-0.4-3.7-0.6c0.7,2.6,2.1,5,1.6,7c-0.5,2-2.8,3.6-4.4,5.3c-4.5-3.5-4.5-3.5-6.9,1
	c-0.9,1.6-1.7,3.1-4.2,2.9c-2.8-0.2-3.2,1.7-1.2,4.5c-3,3.2-3,3.2,1.1,6.4c0.4-0.6,0.7-1.2,1.3-2.2c0.8,2.3,1.6,4.5,2.1,5.9
	c-3.7,1.7-7.1,3.3-9.9,4.6c0.5,1.9,0.8,3.2,1,4.2c-1.2,0.7-2,1.3-2.9,1.9c0.6,0.6,1.3,1.1,2.3,2c-0.8,2.8-1.8,6-2.7,9.4
	c-0.2,0.7,0.1,1.5,0,2.2c-0.1,1,0.1,2.3-0.4,2.7c-0.6,0.6-1.9,0.4-3.3,0.6c0.2,5-2.9,8.4-7.2,11.2c-0.7,3.3-1.6,7.1-2.4,10.9
	c-4.1-1.1-5.8,0.3-6.2,4.6c-0.2,1.6,0.3,3.3-1.8,4.1c-0.4,0.2-0.7,1.1-0.8,1.7c-0.5,2.6-1,5.2-1,7.5c0.6,2.9,1.3,5.8,1.7,8.7
	c0.3,2.3,0,4.8,0.3,7.1c0.4,2.6,0.9,5.2,1.8,7.6c1,2.9,1.6,2.9,3.6,0.6c0.5-0.6,1.2-1.1,2.4-2.1c0.3,1.3,0.9,2.3,0.6,2.7
	c-2.1,2.9-1.7,7.3-5.5,9.2c-0.6,0.3-0.9,1.2-1.4,1.8c-1.4,1.7-2.7,3.3-5.3,3.3c-0.9,0-1.9,1.3-2.6,2.2c-0.6,0.7-1,1.6-1.5,2.4
	c-1.6-0.5-2.9-1-4.4-1.4c1.3,2.2,3.5,4.3,3.2,6c-0.3,2-2.8,3.6-3.9,6c0.5-0.1,1.1-0.2,1.6-0.4c-0.2,0.2-0.4,0.4-0.6,0.7
	c1.7,1.6,3.3,3.3,5.1,4.8c1.3,1.1,2.1,7.4,1.2,9.3c-0.8,1.8-1.6,3.5-2.4,5.3c0.3,0.1,0.6,0.3,0.9,0.4c0.4-0.4,1.2-1.2,1.2-1.2
	c2.9,2.6,6.5-0.6,9.4,1.1c0.5,0.3,1,0.8,1.5,1.1c1,0.6,2.1,1.3,3.2,1.5c3.7,0.8,7.5,1.3,11.2,2.2c1,0.3,2.4,1.5,2.5,2.4
	c0.4,3.5,3.4,4.9,5.3,7c2.7,3,3.2,4.8,1.6,7.7c1.2,1.7,2.2,3.1,3.2,4.5c1.6,2.3,3.1,4.7,4.7,7.2c-1.6,1.8-1.2,4.3,1,6.5
	c1.2,1.1,2.3,2.3,3,3.7c0.4,0.7,0.1,2.4-0.5,2.8c-2.5,1.4-1.2,2.6-0.1,3.9c1.1,1.3,2.2,2.7,3.6,4.3c0.2-0.1,0.8-0.6,1.5-1
	c3.1,3.4,3.5,3.3,5.2-1.2c-0.8-0.7-1.5-1.3-2.5-2.2c2.4-0.3,4.4-0.8,6.3-0.8c2.9,0,8.5,8.3,7,10.8c-2.4,4.2-1.1,8.2,0,12.2
	c0.3,1.2,2.3,2.8,3.4,2.7c3.4-0.2,3.8,2.4,4.5,4.3c1.8,4.8,3.5,9.7,4.5,14.6c0.6,3.1,0.4,6.6-0.6,9.5c-0.7,2.2-0.3,3.5,0.8,4.7
	c1.4,1.5,3.2,2.6,5,3.6c1.5,0.8,1.7,1.5,0.5,2.7c-1,1.1-2.2,2.1-2.9,3.4c-0.6,1-0.6,2.3-0.9,3.4c1.2-0.4,2.3-0.9,3.3-1.2
	c0.2,2.4-2.2,6.6-4.7,7.7c-3.8,1.7-4.3,3.9-1.7,7.3c0.5,0.7,0.4,1.8,1,2.4c1,1.3,2.1,2.5,3,3.8c0.3,0.3,0.2,1,0.5,1.2
	c4.6,2.5,4.8,7.7,7.2,11.6c0.4,0.7,1,1.8,1.7,1.9c4.3,0.6,5.5,5.1,8.6,7c3.2,1.9,3.1,5.3,2.9,8.2c-0.2,4.1,1.6,6.1,5.2,7.3
	c2.7,0.9,3,3.4,3.8,5.6c1.7,4.8,1.4,9.4,0.1,14.2c-0.2,0.7,1.2,2.5,2,2.6c3.7,0.4,6.1,2.5,7.9,5.5c0.7,1.2,2,2,3.1,3.2
	c0.5,3.2,1,6.7,1.6,10.1c0.9,4.7,2.3,9.4,2.6,14.2c0.1,1.7-2.3,3.6-3.7,5.3c-0.4,0.4-1.1,0.6-1.7,0.8c0.7,1.3,1.2,2.5,1.8,3.7
	c0.9,1.8,5.1,2,7.3,0.3c3.6-2.8,4.9-2.5,7.8,1.3c0.5,0.7,1.5,1.2,2.2,1.7c1.1,0.7,2.3,1.4,3.4,2c-0.1,0.3-0.3,0.6-0.4,0.8
	c-0.6-0.2-1.2-0.4-1.8-0.6c-0.4,3.4,1.8,6.6,5.1,6.5c2.1-0.1,2.4,1,3,2.3c1.6,3.3,2,3.4,4.9,1.1c0.2-0.2,0.7,0,0.2,0
	c0.2-3,0.5-5.6,0.6-8.3c0-1-0.4-1.9-0.7-3.1c0.9-0.7,2.1-1.7,2.9-2.4c-0.6-1.3-1.4-2.4-1.7-3.6c-0.6-2.3-1.3-4.7-1.3-7
	c0-1.3,1.5-2.6,2.5-4.2c1.7,1.7,2.9,3,4.1,4.2c2.3,2.1,4.6,4.2,6.9,6.4c1.5,1.4,1.1,4.5,4.1,4.5c-0.4,2.4-0.5,4.8-1.3,7
	c-0.4,1.2-1.9,2-3.1,3.3c-0.2-0.1-1.2-0.7-3-1.8c0.6,1.3,0.8,1.7,1,2.2c-0.1,0.2-0.2,0.3-0.4,0.5c-0.9-0.6-1.8-1.2-2.7-1.8
	c-0.3,1-0.7,2-0.8,2.4c1,1.4,1.8,2.4,2.6,3.4c2.4,1.4,3.1-5.7,6.9-1.4c-1,0.2-1.7,0.3-2.4,0.4c0.1,0.2,0.1,0.4,0.2,0.5
	c0.4,0.8,1.4,2,1.2,2.2c-1,1.1-2.1,2.1-3.4,2.7c-1.2,0.5-2.6,0.2-4,0.3c0,0.3-0.1,0.7-0.1,1c0.9,0.3,1.8,0.7,2.7,1
	c1.2,0.4,2.8,0.3,3.6,1.1c1.3,1.3,0.1,2.2-1.2,2.9c-0.3,0.2-0.1,1.2-0.4,1.5c-0.4,0.5-1.2,0.8-2.6,1.6c0.3,1.4,0.9,3.8,1.5,6.6
	c-3.9,3.2,0.3,6.5,1.3,9.5c1.3,3.8,2.1,3.5,1.2,6c1.5,2.9,2.7,5,3.8,7.2c-0.3,0.2-0.6,0.4-0.8,0.5c0.4,0.2,0.8,0.4,1.2,0.5
	c1.2,0.4,3.4,0.4,3.6,1c0.8,2.3,1.4,5,1.1,7.3c-0.3,1.9-2.1,3.5-3.1,5.3c-1,1.7-2.2,3.3-2.8,5.1c-0.4,1.4-0.1,3,0.3,4.5
	c0.8,2.9,1,5.5-3,6.4c0.6,0.8,1.1,1.4,1.4,1.8c-0.5,0.7-1.4,1.4-1.4,2c0.2,5.9,0.4,11.9,0.8,17.8c0,0.7,1.3,1.2,2.3,2.1
	c-1.3,1.9,0.2,4.1,0.8,6.9c0.8,3.5-0.4,7.4-0.9,11.2c0,0.3-0.7,0.5-1.1,0.6c-0.4,0.1-1.1-0.1-1.3,0.1c-2.2,2.7-6,5.4-6.2,8.3
	c-0.4,4.4-4,6-5.6,9.3c-0.2-0.6-0.3-1.2-0.5-2c-1.8,1-3.8,2.5-5.6-0.3c-0.3,0.6-0.7,1.3-1.2,2.1c-1.5-1.3-3.1-2.7-4.6-4
	c0.3,0,0.6,0,0.8,0c0.1-1.9,1.1-4.8,0.2-5.6c-1.5-1.5-4-3.3-6.7-1.7c-0.4,0.3-0.3,1.6-0.4,2.6c-1.6,0.8-3.6,1.9-6.6,3.3
	c1.6,0,2.3,0,3,0c-1.8,3.5-5,3.9-8.8,1.1c-0.5-0.4-1.1-0.9-1.8-1c-3.8-0.9-7.8-1.6-9.2-6.2c-0.1-0.4-0.9-1.1-1.2-1
	c-5.6,1.4-8.4-3.7-12.6-5.7c-1.2-0.6-3.1-3.6-1.5-6.2c0.2,2.8,2.6,2.4,4.3,3.1c-0.5,0.4-0.9,0.8-1.5,1.3c1.7,0.6,3.2,1.1,5.1,1.7
	c-0.1-1.5-0.1-2.9-0.1-3.4c-1.6,0.2-2.6,0.3-3.6,0.5c3.4-5.7-3.2-3.8-4.5-5.9c0.1,0.9,0.3,1.9,0.4,2.8c-2.6,0.8-4.5-0.2-6.1-2.1
	c-1.2-1.5-2.2-2.6-3.8-0.3c-0.8,1.1-4.5,0-4.8-1.7c-0.5-3-2.6-4.3-4.9-4.7c-4-0.8-3.3-4.4-4.4-6.8c-0.9-1.8-1.2-3.1-3.7-3.4
	c-2.3-0.2-1.6-1.9-0.5-3.3c0.8-1,1.3-2.2,2-3.2c-0.5,0-0.9,0-1.4,0c-0.7-1-1.9-1.9-2-3c-0.2-1.8-0.7-2.5-2.5-3.1
	c-2.2-0.7-4.2-2.4-5.4-3.1c-3.7,2.3-6.9,4.1-10,6.1c-1.1,0.7-1.8,2-2.9,3.2c-0.1-1.5-0.3-3-0.4-4.6c-0.2-1.8-0.5-2.9-2.4-0.9
	c-0.7,0.7-2.5,0.3-3.8,0.3c-1.5,0-3-0.2-5.5-0.4c0-0.4,0.1-1.4,0.2-3.2c-1.1,1.5-1.8,2.4-2.7,3.6c-0.5-0.1-1.3-0.2-2.4-0.3
	c0.3-1,0.5-1.9,0.6-2.4c-3.9-0.4-7.8-0.8-11-1.2c-2.3,1.7-4.5,3.3-6.8,4.7c-0.2,0.1-1.3-0.6-1.5-1.1c-0.9-2.3-1.4-2.4-3.6-1.2
	c-1.4,0.8-3.1,1.2-5.2,2c0.5-1.5,0.6-2.1,0.8-2.7c-4,1-7.9,3.2-12.1,0.8c-0.8-0.4-1.8-1.1-1.9-1.9c-0.1-0.6,0.9-1.5,1.2-2.3
	c1.5-3.4,2.9-6.9,4.2-10.4c0.2-0.5-0.7-1.5-1.4-2c-0.7-0.6-6.5,0.4-7.4,0.7c-0.7,0.2-1.8-0.1-2.4-0.5c-1-0.6-1.9-2.3-2.8-2.3
	c-4.8,0.3-5.1-3.4-6.2-6.5c-0.7,0.4-1.3,0.9-1.7,1.1c-2.6-2.3-5.1-4.4-7.4-6.4c-1.1,0.5-2.3,1.2-3.7,1.9c2.2,3.1-0.7,5.3-2.5,7
	c-1.3,1.2-4,1-6.2,1.2c-0.4,0-1.1-1-1.2-1.6c-0.4-2.3-0.5-4.7-0.7-6.5c-2.8-0.5-5-1.1-7.2-1.1c-4,0-0.1-3.9-3.1-4.4
	c1.6-1,2.6-1.6,3.8-2.4c-1.2-0.7-2-1.1-2.8-1.6c0.6-0.6,1.6-1.1,1.7-1.8c0.6-2.8,1.5-5.8,1.3-8.6c-0.1-1.1-2.6-2.1-4.1-3.1
	c-0.7-0.5-2.2-0.7-2.3-1.3c-1.1-4.6-5.1-2.8-7.8-4.6c0.4-0.6,1.1-1.6,1.7-2.6c-0.4-0.3-1.7-0.7-1.8-1.3c-0.5-2-0.4-4.2-0.8-6.2
	c-0.5-2.9-2.5-2-4.3-1.6c0,0,0.1,0,0.1,0c0.8-2.9-1.8-3.1-3.4-4.1c-0.3-0.2-1.7,0.5-1.7,0.8c0.1,1.4-1.3,3.5,1.5,3.8l0.1,0.1
	c-0.3,2.3-1.9,2-3.4,1.9c-4.7-0.5-5.4-0.1-7.2,4.2c-0.3,0.6-0.6,1.2-0.9,1.7c-1.9,3.5-2.2,3.5-4.7,1.5c-2.2,0.2-3.8,0.4-5.9,0.6
	c0.3-2.6,0.5-4.6,0.6-6.6c0-0.5-0.3-1.4-0.6-1.4c-2.9-0.2-2.3-2.4-1.8-3.8c1-2.5-1.6-3.9-1.1-6.1c-2.5,1.1-4.7,2.2-7.2,3.3
	c1.1-1.4,2.3-3,3.8-5c-2.8,0.3-5.6,0.6-8.7,0.9c-0.2-0.8-0.4-1.7-0.6-3c-1.3,3-2.3,1.4-3.5-0.7c-1.7,2.3-3,4.2-4.9,6.7
	c0,0.3,0,1.3-0.1,2.2c-3.4-1.6-6.8-3-10-4.7c-1.3-0.7-2.3-1.9-3.5-2.9c0.1-0.3,0.1-0.6,0.2-0.9c1.5,0,3.1-0.1,4.6,0
	c2.3,0.1,5.1,1,3.9-3.2c-0.1-0.3,0.5-0.9,0.9-1.5c-1.1-1.2-2.4-2.5-3.7-3.9c-0.4,0.2-0.7,0.4-1.1,0.6c0.4,1.2,0.9,2.4,1.5,4
	c-2.9,1-7.7-0.2-9.6,4.5c-0.9-0.4-1.8-0.8-3-1.3c-0.5,1.8-0.9,3.4-1.3,4.9c-1.7-1.5-3.2-2.8-5.3-4.6c0.5-1.6,1.3-3.9,2.1-6.3
	c-0.3-0.1-0.6-0.3-0.9-0.4c-0.5,1.6-1.1,3.1-1.6,4.6c-0.5-0.8-1.1-1.7-1.6-2.5c-0.6,0.9-1.3,1.7-1.7,2.6c-0.4,0.9-0.4,2.1-1,2.7
	c-0.4,0.5-2,0.8-2.3,0.5c-1.6-1.5-2.9-3.3-4.5-5.2c-0.8,2-1.5,4-2.2,5.9c1.4,1.1,3,2.3,5,3.9c0.8-0.7,1.8-1.7,3.3-3
	c-0.2,1.8-0.3,3.1-0.5,4.3c0.8,1.4-0.7,4.3,2.6,4.3c1.2,0.1,2.4,0.1,3.5,0.3c1.7,0.3,3.3,0.8,4.9,1.2c-0.1,0.1-0.6,0.6-1.1,1.1
	c2.1,0.1,4.7-0.6,5.9,0.4c2.3,1.8,2.4-0.4,3.4-1c0.6-0.3,1.3-0.3,1.9-0.5c0,0.6,0,1.2-0.1,1.7c-0.5,1.9-0.6,4.1-1.8,5.5
	c-1.3,1.6-3.5,2.4-4.7,3.1c-0.5,2.1-1.1,3.8-1.1,5.4c0,1.1,1.1,2.2,1.6,3.3l-0.1-0.1c-1.7-0.3-3.5-0.5-6-0.9c1.2,2,2.2,3.7,3.1,5.2
	c-0.2,1.5-0.4,3.1-0.6,4.6c0.4,0.1,0.7,0.2,1.1,0.3c0.8-0.7,1.6-1.4,2.5-2l-0.1,0c0.5,1.1-0.3,3.2,2.2,2.7c-2.9,0.6-5.9,1.9-7.9-1.9
	c-1.4-2.6-3.7-2.6-6.3-1.1c-0.9,0.5-3.2,0.1-3.8-0.7c-1.8-2.3-2.6-5.4-4.6-7.3c-1.8-1.8-2-3.6-2.3-5.7c-0.2-1-0.7-1.9-1.1-2.8
	c0.4-0.1,0.8-0.1,1.2-0.2c-0.9-0.2-1.7-0.5-3.4-1c1.3-0.5,1.8-0.6,2.4-0.8c-1.3-1.5-1.3-1.5-10.5-0.8c1.2,1.1,2.2,1.9,3.2,2.8
	c-0.5,0.4-1.2,1-1.8,1.6c-0.6,0.6-1.2,1.2-2.2,1.8c1.7-2.4,0.1-3.3-1.3-4.4c-3.3-2.7-4.2,1.8-6.4,2c0.7,2.8,1.3,5.6,1.9,8.2
	c-2.3,0.7-4.9,1.6-7.6,2.4c0,0,0-0.1-0.1-0.1c0.3-1.3,0.6-2.6,1-4c0.7,0.5,1.3,1,1.8,1.3c0.3-1.8,0.9-3.4,0.9-5.1
	c0-0.9-0.9-2.1-1.8-2.6c-3.2-1.6-5.6-6.4-4.6-9.9c-1.4-0.2-2.7-0.3-4.1-0.7c-1.3-0.3-2.6-0.8-3.8-1.2c1.6-0.9,3.1-1.8,4.7-2.7
	c0-0.3,0.1-0.7,0.1-1c-3-0.2-3.9-1.6-3.5-4.3c-1,1.5-1.9,3-3.1,4.7c-0.6-1.2-1-2-1.6-3.1c-1,0.8-2,1.6-2.9,2.4
	c-0.2-0.1-0.4-0.2-0.6-0.2c0.5-1.3,0.9-2.5,1.6-4.4c-1.5-0.5-3.2-1.1-4.9-1.6c-0.1,0.3-0.3,0.6-0.4,0.9c-0.5-0.8-1.1-1.6-1.6-2.4
	c-4.1,1.6-1.5,5.2-3,7.4c0.3,0.1,0.7,0.2,1,0.3c0.3-1.1,0.7-2.3,1.2-4.1c0.6,1.2,1.4,2.2,1.1,2.6c-0.6,1-1.6,2.6-2.5,2.6
	c-1.6,0-3.2-0.9-4.7-1.5c0-0.3,0.1-0.6,0.1-0.9c-1.4,0.5-2.9,0.9-4.5,1.5c-0.5-0.8-1-1.6-1.5-2.3c-0.5,3.5-1.8,7-1.4,10.3
	c0.3,2.2,1.4,3.8-1,5.4c1.1,1.1,2.1,2.2,2.9,3.1c0.3,1,0.5,1.9,0.9,2.8c0.7,1.7,1.2,3.2-1.2,4.3c-1.6,0.8-2.8,2.4-4.3,3.4
	c-0.7,0.5-1.9,1.2-2.5,0.9c-0.7-0.3-1.2-1.5-1.5-2.4c-0.5-2-0.8-4.1-1.2-5.8c-1.8,0-3.4,0-4.6,0c-0.7-1.7-1.3-3-2.2-5.2
	c-0.4,1.7-0.6,2.5-0.8,3.4c-0.2,0-0.4,0.2-0.6,0.1c-3.8-1.2-7.3,0.2-9.4,3.9c-0.7,1.2-3.3,2.1-4.7,1.9c-0.7-0.1-1.4,0.3-2.1,0.6
	c-0.7,0.2-1.4,0.5-2.3,0.9c-0.3-1.8-0.5-3.3-0.7-4.9c-1.2,0.5-2.5,2.9-3.4-0.2c0,0-0.6,0.2-1,0.2c-2-0.1-4-0.1-6.5-0.2
	c0.9-1.6,1.3-2.5,1.7-3.3c1.2,0.2,2.2,0.4,3.3,0.6c-0.8-4.8-6.1-2.4-7.8-5.6c-1.3,2.3-1.2,2.5,2.4,3.2c-1.3,2-2.3,4-3.8,5.8
	c-0.6,0.7-2.4,1.4-2.8,1.1c-1.4-1.1-2.6-2.5-3.5-4c-0.6-1-0.6-2.3-1.1-4c2-1.4,0.1-2.8-1.7-4.2c0.4-0.7,0.7-1.3,1-2
	c-0.2-0.3-0.3-0.6-0.5-0.8c-1.2,0.5-2.3,1-3.5,1.4c0,0,0.1,0,0.1,0c0.2-0.9,0.1-2,0.5-2.7c0.9-1.3,2-2.4,3.3-3.8
	c-1.8-1.2-2.8-1.9-3.9-2.7c1-1.2,1.9-2.2,2.5-2.9c-1-2.3-1.9-4.3-2.8-6.5c0.7-0.3,1.4-0.6,2.4-1c-1.9-1.1-3.5-2.1-5.5-3.3
	c0,3.3-3.7,7-6.5,6.7c-2.8-0.3-3.9-2.5-4.1-4.4c1.7-2.3,2.9-4.1,4.3-6.2c-1.7-2.1-2.6-4.7-0.1-7.3c0.2-0.2,0.2-0.7,0.1-1
	c-1.1-3.6,0.7-3.3,3.1-2.4c0.4,0.1,0.8,0.1,1.7,0.2c-0.5-0.9-0.8-1.5-1.1-2.1c0.7-0.7,1.7-1.3,2.1-2.2c0.9-1.6,1.4-3.4,2.1-5.2
	c-1.9,0.1-3.7,0.2-5.6,0.1c-0.9,0-2.1-0.1-2.7-0.6c-1.8-1.8-3.3-3.9-5-5.8c-0.2-0.2-0.5-0.4-0.8-0.5c-4.8-1.9-5-4.1-1-7.6
	c-0.7-1.4-1.4-2.7-2.2-4.1c-1.9,0.4-4.4,0.9-6.8,1.4c0.4-3.9,0.8-7.4,1.2-10.9c-1.1,0-2.2,0-3.2,0.1c0.1-0.2,0.1-0.3,0.2-0.5
	c-2.2-1.5-4.5-2.9-6.6-4.5c-0.8-0.6-1.2-1.8-1.3-2c-2.6-1.2-4.6-2.1-6.9-3.2c-0.6,0.9-1.4,2.2-2.5,3.9c0.9,0.1,1.7,0.1,2.8,0.2
	c-1.8,1.1-3.3,2-4.8,2.9c-0.2-0.2-0.5-0.3-0.7-0.5c0.6-2.7,1.1-5.4,1.8-8c0.8-3.3,0-4.7-3.4-5.7c-0.8-0.3-1.5-1.1-2.5-1.8
	c-3.1,7.1-5,0.5-7.6-0.5c0.5-0.5,1.1-1,1.6-1.6c-0.3-0.4-0.5-0.7-0.7-0.8c-0.5-0.2-1.5-0.2-1.5-0.3c-0.3-4.1-4.9-4.4-6.6-7.4
	c-0.5-0.9-2.1-1.3-3.2-1.9c-1.3-0.7-2.9-1-3.9-2c-0.9-0.9-1.1-2.4-1.7-3.6c1.1-0.3,2.2-0.5,3.3-0.8c0.3-0.1,0.6-0.2,1.3-0.5
	c-2.7-2-4.1-4.3-1.9-7.6c-1.3-0.7-2.7-1.3-4-2c0.3,0,0.5-0.1,0.8-0.1c-0.8-3.1-1.5-6.2-2.2-9c-1.5-0.4-2.9-0.8-4.2-1.4
	c-0.1,0,0.3-1.4,0.7-2.6c-1.5,0.4-2.8,0.8-4.7,1.4c-1.7-1-4.2-2.5-7.1-4.3c-0.3,1.6-0.6,3.1-1,5c-1.3-1.2-2.4-2.4-3.5-3.4
	c-1.6,0.4-3.2,0.8-4.8,1.2c-0.1-0.2-0.2-0.4-0.3-0.6c1.1-0.6,2.3-1.1,3.9-1.9c-1.9-1.2-3.5-2.2-4.9-3.1c-1.2,0.8-2.3,1.6-3.9,2.7
	c-0.2-6.6-4.8-9.2-9.1-12c-0.4-0.3-1.5,0.5-3,1c-2.2-1.2-4.9-4.5-9.2-1.5c0-1.5,0-2.8,0.1-5c-2.9,1.1-5.4,2.2-8,3.1
	c-0.6,0.2-1.4,0.4-2.1,0.3c-2.4-0.2-4.7-0.5-7-0.7c-1.1,1.5,1,4.6-2.5,4.2c-0.5-0.8-0.9-1.7-1.4-2.5c-0.6,0.6-1.1,1.3-1.8,1.7
	c-0.5,0.3-1.1,0.2-1.7,0.3c-0.2-3.2-2.5-1-4.2-1.6c1.1-0.8,1.9-1.5,3-2.3c-2.2-0.8-4.3-1.6-6.3-2.3c-0.4-0.1-0.9-0.5-1-0.8
	c-0.4-4-3.5-5.6-6.5-7.4c-0.6-0.4-1.3-1.3-1.4-1.9c-0.2-4.1-2.8-6.5-5.7-8.8c-0.3-0.2-0.6-0.5-0.9-0.5c-2.8,0.6-5.5,1.3-8.6,2.1
	c-0.3-0.2-1.2-0.9-2.1-1.5c-0.2,0.2-0.3,0.3-0.5,0.5c0.6,0.8,1.2,1.6,1.8,2.4c-1.5,0.8-2.8,1.5-3.8,2c-1.3-2-2.7-4.4-4.8-7.7
	c1.3,0.5,2.1,0.8,2.9,1.1c0-0.3,0.1-0.6,0.1-1c-1.1-0.7-2.3-1.5-3.4-2.2c3-3.3,2.8-4.5-1-5.8c0-3.2,0.2-6.4-0.3-9.5
	c-0.1-0.9-2.2-1.5-3.3-2.3c0.2-1.2,0.3-2.4,0.5-3.7c-0.2,0-0.5-0.1-0.7-0.1c-0.6,1.7-1.1,3.3-1.7,4.9c-6,1.1-9.3-3.8-12.7-5.4
	c-1.5-2.5-2.5-4.3-3.7-6.3c-1.5,1.2-2.6,2.1-4.4,3.5c0.9-1.9,1.5-3.1,1.7-3.5c-1.3-1.2-2.4-2.1-3.5-3c-0.5-0.4-1.1-0.8-1.7-0.9
	c-2.3-0.5-4.7-0.8-7.3-1.2c-0.2,0.9-0.4,2-0.4,2.4c-1.4,0.9-2.3,1.5-3.2,2.1c0,0,0.1,0.1,0.1,0.1c0-3.6,0-7.2-0.1-10.9
	c2,4.9,2.1,5,6.6,2.5c-0.8-0.4-1.5-0.7-2.2-1c0-0.2,0.1-0.4,0.1-0.6c1,0,2,0.1,3.3,0.1c-1.4-1.8,3.2-3.3,0.3-5.3
	c-1.3,1.5-2.6,3-3.8,4.3c-1-1.1-1.7-2-2.5-2.8c-0.7,0.8-1.5,1.7-2.2,2.5c-0.7-0.2-1.4-0.6-2.1-0.5c-1.4,0-2.8,0.3-4.9,0.5
	c1.8-3.7,3.2-7.2,5.2-10.4c1.3-2.2,3.6-1.8,5.4,0.6c0.7,0.9,0.9,2.1,1.5,3.5c1.6-0.4,3.3-0.9,5-1.1c0.5-0.1,1.1,0.9,2.2,1.8
	c1.7-0.9,4-2.1,6.2-3.3c-1.3-1.6-2.9-3.4-4.2-5.4c-0.1-0.2,1.1-1.9,1.6-1.9c1.8,0.1,3.5,0.7,4.5,0.9c0.8-1.6,1.3-2.9,2.1-4.5
	c0.6,2.5,1,4.2,1.5,6.3c1-1.3,1.5-2,2.1-2.8c0.6,0.6,1.2,1,1.7,1.5c0.5-0.6,0.9-1.1,1.1-1.2c-1.6-2-3.2-4-4.8-6c1.3-1.3,2.9-3,4.8-5
	c1.4,0.8,3.5,2.1,5.1-1c0.7,1.8,1.4,3.3,2.1,4.9c0.2-0.1,0.5-0.2,0.7-0.2c0.1-0.5,0.2-1,0.3-1.7c3.2,0.4,6.6,3.3,9.7-0.3
	c-2.3-0.9-4.4-1.8-6.7-2.6c-1.1-0.4-2.5-0.2-3.3-0.8c-1.1-0.9-1.7-2.4-1.9-4c-0.9-1.1-1.8-2.3-2.7-3.4c-1.1-1.4-1.6-3.3-4.2-3
	c-0.6,0.1-1.6-1.9-2.3-3c-0.6-1-1.1-2.1-1.6-3.2c-1.2-2.6-3-3.7-6.1-1.7c0.3-1.1,0.4-1.6,0.6-2.6c-0.9,0.4-1.7,0.7-1.9,0.8
	c-0.4-1.1-0.7-2.2-1.1-3.3c-0.2-0.5-0.4-1.1-0.8-1.3c-2.7-1.5-5.7-2.6-8.1-4.6c-1.6-1.3-2.2-3.7-3.1-5.4c-1.7,2.3-2,2.3-4.6-1.1
	c0.6-0.3,1.2-0.6,2-0.9c-0.7-0.3-1.3-0.7-1.9-0.9c-0.6-0.2-1.3-0.2-2.4-0.4c0.3-1.3,0.7-2.5,1-3.8c-0.2-0.2-0.3-0.3-0.5-0.5
	c-0.8,1.2-1.5,2.3-1.8,2.8c-2.3-2.5-4.8-5.1-7.3-7.8c1.2-1.4,2.2-2.7-1.1-2.8c-1.2,0-2.4-0.5-3.5-1c-2-1.1-3.7-4.1-5.8,0
	c-0.3,0.6-2.6,0.1-4.7,0.1c1.3-1.3,1.9-2,2.7-2.8c-2.1-2.3-4.1-4.4-6.2-6.6c-2,1.1-3.7,2.5-0.8,5.4c-0.3,0.1-0.7,0.2-1,0.3
	c-1.3-1.8-2.6-3.7-3.3-4.7c-2.3,0.4-3.6,0.6-4.9,0.9c-0.1-0.3-0.2-0.5-0.3-0.8c0.6-0.3,1.1-0.7,1.7-1.1c-2.4-1.3-4.2-5.8-3.3-8.1
	c-3.1-0.1-6.4-2.8-6.7-5.1c-0.7,0.2-1.5,0.3-2.6,0.6c0,0.2,0.1,0.9,0.2,2.1c-1.1-0.7-1.8-1.1-2.6-1.6c0.2,1.2,0.7,2.4,0.5,3.4
	c-0.2,0.7-1.3,1.3-1.9,1.9c-0.2-0.2-0.5-0.5-0.7-0.7c0.6-0.7,1.3-1.5,2.1-2.4c-5.1-0.2-7.1-2.9-8.3-11.4c-1.6,0.3-3.1,0.6-4.5,0.9
	c0.2-1.1,0.4-2.4,0.6-3.6c-2.2,3-1.6,8.4-8,7.7c0.4,1.8,0.7,3.3,1,4.8c-0.5,0.3-1.3,0.7-2.6,1.4c4.2,1.1,5.6,3.9,6.2,7.2
	c1.3,6.8,1.5,7,7.9,7.3c0.1,1.2,0.3,2.5,0.5,4.2c1.1-0.7,2-1.2,2.6-1.8c0.6-0.6,0.8-1.4,1.3-2.1c0.3,0.2,0.5,0.3,0.8,0.5
	c-1,1.5-2,3-3.2,4.6c0.5,0.1,1.1,0.5,1.7,0.4c5-1,8.3,1.9,11.9,4.6c1.1,0.8,2.7,1.1,4.1,1.1c2.2,0.1,2.6,0.3,2.4,2.9
	c4-0.1,4.7,0.4,4.2,4.5c-0.3,3.2,1.1,6.9-2.1,9.5c-0.1,0.1,0.6,1.4,1.1,2c0.2,0.3,1.1,0.3,1.5,0.1c3.8-2,8.1-1.6,12-2.8
	c2.8-0.8,5.5-2.4,7.7,0.9c1.6,2.4,3.2,4.8,5,7.4c2.6,1.6,5.6,3.6,9,5.7c0.6-0.3,1.7-0.8,2.9-1.3c-0.5-1.3-1-2.5-1.6-3.9
	c3.4,1.4,3.8,2.8,2.3,7.1c1.9-0.5,3.9-1.3,5.8-1.2c1.2,0.1,2.4,1.5,3.3,2.5c0.1,0.1-1.1,1.6-1.9,2.7c-0.3-1.4-0.5-1.9-0.6-2.5
	c-4.1,3.1-8,6-11.4,8.6c1.1,1,2.3,2.2,3.9,3.8c-3.6,1.5-6.5,1.3-9.5,0.2c-0.6-0.2-1.3-0.8-1.8-0.6c-2.8,0.5-5.8,0.9-8.4,2
	c-1.5,0.7-2.7,2.6-3.3,4.3c-0.9,2.4-2.2,3.4-4.9,3c0.2,1.2,0.4,2.2,0.5,2.5c-1.4,0.4-2.7,0.7-4,1.1c-1.7,0.5-3.1,0.8-4.1-1.4
	c-2.2-5-3.1-5.4-8.6-4.9c-1.3,0.1-2.6,0.6-3.9,0.5c-2.3-0.1-4.5-0.8-4.9-3.7c-0.2-0.9-0.6-1.7-1-2.8c0.4-0.4,1-1,1.1-1.1
	c-0.7-1.8-1.3-3.3-1.8-4.6c-1.7,0.1-3.9,0.8-5.8,0.2c-1.1-0.3-1.6-2.6-2.5-4.2c-0.7,0.4-2.1,1.3-3.8,2.3c-0.3-1.8-0.6-3.7-1-6.2
	c-0.5,1.9-0.9,3.3-1.3,4.8c-0.5-1.7-1-3.4-1.5-4.8c-1.8,3.2-4.9-0.2-7.1,0c-2-1.8-4-4.8-5.6-4.6c-2.4,0.3-4.4,2.9-4.4,6.5
	c-2.3-3.1-4.8-3.4-7.7-1.2c0.5-0.8,0.9-1.7,1.6-2.9c-2.1,1.1-3.6,2.5-5.2,2.5c-1.7,0-3.4-1.2-5-2c-1.2-0.6-2.2-1.6-3.3-2.3
	c-0.7-0.4-1.5-0.5-2.9-1c-1.5-3.8-6.4-3.3-11.1-4.6c1,3.3-0.8,3.5-3,3.2c-0.4,2.3-0.7,4.5-1.1,6.8c-2.3-1.4-3.4-0.8-2.8,2.2
	c-1.3-0.2-2.1-0.4-3-0.5c1.7-3.4-1.6-4-3-5.8c1.3-0.2,2.5-0.4,4-0.6c-1.7-2.6-3.4-4.8-4.6-7.4c-1.1-2.2-1.5-4.7-2.2-7
	c-0.3,0.1-0.6,0.2-0.9,0.3c0.1,0.6,0.2,1.2,0.3,2.3c-1.2-0.7-2.1-1-2.8-1.6c-1.6-1.5-3.4-1.6-5-0.3c-2.5,2.1-5.3,2.2-8.4,1.1
	c0.2-0.6,0.4-1.3,0.8-2.5c-1.1,0.9-1.7,1.5-3,2.7c-0.5-1.5-0.8-2.7-1.3-4.3c-0.3,0-1.1-0.2-2-0.3c0.2-1,0.4-1.9,0.5-2.1
	c-1.6-1-3-2.7-4-2.4c-4.1,1-4.5-2.1-5.5-4.2c-1.7,0.2-3.1,0.3-5,0.5c-0.2-3.3-0.5-6.3-0.7-9.5c-3.7-1.6-3.8-2-1.4-4.3
	c0,0.8,0,1.5,0.1,2.6c0.8-0.9,1.4-1.6,2.1-2.5c-0.7-0.6-1.4-1.7-2.1-1.7c-3.1-0.2-3.1-2.7-3.6-4.6c-0.8-3.4-3-5.4-5.9-7
	c-0.4-0.2-0.7-0.8-1.2-1.4c-0.8,0.5-1.8,1.2-3.2,2.2c0.4-1.5,1-3.1,0.8-3.2c-1.9-0.9-3.9-1.6-6.8-2.7c-0.9-3.8-4.2,1.1-5.5,0.4
	c-2-3-3.6-5.2-4.9-7.6c-0.3-0.5,0.1-1.5,0.2-2.1c-1.4-0.4-2.9-0.8-4.5-1.2c1-2.4,3.3-4.6,0.7-7.4c-0.2-0.3,0.5-1.5,1.2-3.2
	c-2.2,0.8-4,1.1-5.3,2c-1.8,1.3-2.2,4-1.2,7c0.2-1.4,0.3-2.3,0.5-3.2c2.1,2.9,0.6,5.6-3.9,6.5c3.7-3.2,1-5.9-0.7-7.6
	c-2.5-2.5-2.9-4.8-1.8-6.8c-1.6-1.6-2.8-2.9-4.1-4.2c0,0,0.1,0.2,0.1,0.2C-104.4,907.8-105,907.9-105.6,908
	C-105.6,908-105.6,908-105.6,908z M-161.9,645.4c1,3.2,4,3.4,6.4,5.3c0.3-5.6-0.7-6.3-6.5-5.1c0.4-0.3,0.8-0.7,1.3-1.2
	c-1.5-0.7-2.7-1.2-3.9-1.8c-0.3,0.2-0.6,0.3-0.9,0.5c0.6,1.4,1.2,2.8,2,4.8C-162.7,646.6-162.3,646-161.9,645.4z M173.7,1076
	c2.4-5-2.2-3-3.7-4.1c-0.3,0.3-0.5,0.6-0.8,0.9c1.4,1.1,2.8,2.1,4.1,3.2c-0.1,0.8-0.5,2.4-0.4,2.4c1.7,0.5,3.4,0.8,5.2,1.2
	c0.2-0.3,0.4-0.7,0.7-1c-0.6-1.2-0.9-2.8-1.8-3.4C176.4,1074.7,174.8,1075.7,173.7,1076z M316.7,1163.1c1.1-2,2.2-4.1,3.2-6.1
	c-1.6-1.4-2.9-2.5-4.5-3.9c-0.5,2.8-0.7,5.4-1.5,7.9c-0.7,2.2,0.5,2.2,1.9,2.3c-1,0.5-2.1,1-2.8,1.3c0.9,1.6,1.6,2.9,2.6,4.7
	c2.4-1.5,3.2-6.2,7.9-5.7c-0.1-0.3-0.3-0.7-0.4-1C321,1162.8,318.9,1163,316.7,1163.1z M281.7,607.6c-0.6-0.5-1.8-1.6-3.1-2.7
	c-1.3-1.1-3-2-3.9-3.3c-1.3-2.1-3.7-4.2-0.9-7.1c0.3-0.3-1.1-2.2-1.7-3.3c-0.1-0.2-0.2-0.3-0.2-0.5c0.6-0.7,1.3-1.4,1.3-1.5
	c-0.6-1.3-1.3-2.2-1.3-3c-0.4-6.1-0.4-6.1-6.4-6.5c-0.4,0-0.8-0.3-1-0.4c-0.2-3.4-0.4-6.5-0.7-10.2c-1,1-1.5,1.9-1.8,1.8
	c-1.3-0.4-2.4-1.1-3.8-1.7c0.5-0.3,0.9-0.6,1.4-0.9c-0.1-0.2-0.1-0.4-0.2-0.6c-0.9,0.1-1.7,0.3-2.6,0.4c0.4,1.6,0.9,3.2,1.4,4.9
	c-5.3,5,1.9,7.2,3.4,10.9c-2.6,0.1-5.1-0.1-5.5,3.1c-0.3,2.2-0.6,4.4-0.9,6.8c-1.5-0.3-2.8-0.5-4.1-0.7c-0.1,0.2-0.2,0.5-0.2,0.7
	c2.2,0.9,4.4,1.8,6.8,2.8c-0.6,1.2-1.4,2.4-1.7,3.8c-0.2,0.7,0.2,2.4,0.4,2.4c3,0.1,3.1,2.5,3.9,4.5c0.9,2.3,2,4.5,3.1,6.7
	c0.2,0.4,0.9,0.8,1.3,0.7c2.3-0.2,4.6-0.6,6.9-0.8c1.6-0.1,3.2-0.1,4.7,0.4c0.3,0.1,0,2.2,0,3.4c0.1,0.1,0.3,0.2,0.4,0.3
	C278.3,614.7,279.9,611.4,281.7,607.6z M770,1229c-0.8,3.5-0.7,6.8-2.3,8.5c-3.1,3.3-2.9,6.7-2.4,10.4c0.4,2.7,1.1,5.3-1.6,7.3
	c-0.4,0.3-0.4,1.4-0.5,2.1c-0.3,2.6-0.6,5.2-0.9,7.8c-0.1,1.2-0.5,2.5-0.2,3.6c0.5,2.9,1.5,5.6,2,8.5c0.6,3,4.8,5.8,7.9,5.4
	c1.4-0.1,2.9,0.4,4.2,1c1.9,0.9,3.4,3.8,5.6,2c1.2-1,1-3.7,1.5-5.6c-0.4,0.1-0.7,0.2-1.1,0.3c-1-1.1-2.5-2.2-2.8-3.4
	c-0.7-3.5,4-2.4,4.7-5.1c-1.4-2.5-3-5.2-4.6-8.2c-0.5,0.1-1.4,0.2-2.3,0.3c-0.9-2.5-1-5.4-2.6-6.9c-2.4-2.4-2.2-4.5-1.3-7.2
	c0.4-1.4,0.4-3,0.5-3.8c1.1-1.1,1.7-1.7,2.4-2.4c-0.7-0.5-1.3-1.1-2-1.6c-1.5-0.8-3.1-1.6-4.4-2.2c0.1-4.1,3.4-3.2,6.5-4.1
	C774.2,1233.6,772.4,1231.6,770,1229z M-71.2,406.9c-1.3-5-2.6-10.2-3.9-15.3c-1.3,0-2.2,0-3.4,0.1c0.5-1.3,0.8-2.2,1.4-3.7
	c-2,0.5-3.4,0.9-5,1.3c0.2-0.8,0.3-1.5,0.5-2.2c-3.7,0.6-3.1,6.7-8.4,5.8c1-0.8,1.6-1.2,2.3-1.7c-1.2-0.3-2.2-0.2-3,0.4
	c-3.2,2.5-1.6,11.9,2.3,14.4c0.5,0.3,0.9,0.7,1.3,1.1c1,1.1,1.9,2.2,3.2,3.6c0,0.1,0,1.1,0,2.1c0.9-0.1,2.1,0.1,2.7-0.3
	c2.1-1.6,4.1-1.6,5.8,0C-74.1,410.6-72.8,408.9-71.2,406.9z M-101.3,840.9c-1.3-3-6.1,0.4-5.5-3.7c-1.9,0.3-3.7,0.6-5,0.7
	c0.8,1.5,2.2,3,2.2,4.5c-0.1,2.5,1.3,3.3,3,4.2c1.2,0.6,2.8,1.5,3,2.5c0.5,3.8,3,4.5,5.3,4.6c1.1,1.4,1.8,2.4,2.6,3.4
	c0.9-2.2,1.5-3.6,2.2-5c0.6-1.5,1.3-2.9,2-4.3c-1.2-0.4-2.4-0.7-3.8-1.1c0.8-1.2,1.3-2.1,2-3.2c-1.5,0-2.6,0-2.9,0
	c-1.2-2.3-2.1-4.1-3.5-6.7C-100.6,838.6-100.8,839.4-101.3,840.9z M449.8,1211.6c2.3,0.4,4.6,0.8,6.8,1.2c0.4-2.2,0.7-4.1,1-6.1
	c-0.5,0-1.4-0.1-2.5-0.2c0.3-1.9,0.7-3.4,0.8-5.1c0.1-0.7-0.1-1.7-0.5-2c-3.5-2.8-4-4.3-2.6-8.4c0.4-1.2,0.3-2.6,0.5-3.8
	c-1.8,0.6-3.1,1.1-3.8,1.3c0.1,2.1,0.3,4.1,0.4,6.1c-1.1-0.1-2.2-0.1-3.6-0.2c-1.5,1.9-0.8,4.2,0.7,6.6c0.5,0.9,0,2.3,0.1,3.4
	c0,0.7,0,1.9,0.3,2.1C449.7,1207.9,451.4,1209.2,449.8,1211.6z M456.4,1240.1c2.3,2.6,2.9,6.4,7.1,7.8c2.3,0.8,4.1,3.3,7,5.8
	c0-3,0.1-5.1,0.1-7.2c-0.4,0-0.8-0.1-1.1-0.1c0.6-0.1,1.3-0.1,2.9-0.3c-1.9-0.7-2.8-1.1-3.8-1.5c0.3-0.8,0.5-1.4,0.9-2.2
	c-1,0.6-1.7,1.1-2.5,1.6c-0.4-1.5-0.7-2.8-1.1-4.1c-1.1,0.6-1.7,0.9-2.3,1.2c-0.1-1.1-0.2-2.1-0.3-3.4c-3.8,1.1-3.4-3-5-4.6
	c-1.6,2.2-3.1,4.4-4.6,6.5c0.1,0.4,0.2,0.8,0.2,1.1C454.9,1240.6,455.8,1240.3,456.4,1240.1z M462.9,1225.2
	c-2.3-2.6-4.3-5.4-6.8-7.5c-1.2-1.1-3.4-1.6-5.1-1.6c-0.6,0-1.7,2.2-1.8,3.4c-0.1,1.9,0.5,3.8,0.8,5.7c3.4-2.3,2.8,3,5.8,2.4
	c0.2-1,0.5-2.5,0.8-3.6c0.8-0.3,1.9-0.7,2.9-1.1c-0.1,2.2-0.2,3.7-0.3,5.7C460.9,1227.1,461.8,1226.3,462.9,1225.2z M304.1,620.6
	c-0.9-0.9-1.5-2.3-2.5-2.5c-4.5-1.1-8.2,0.7-11.5,4.1c0.3,0.7,0.7,1.6,1.2,2.6c0-0.3,0-0.7,0.1-1c2.3-0.6,5.1-2.1,6.9-1.4
	C300.8,623.3,302.2,622.9,304.1,620.6z M150.7,1040.1c-0.2,0.2-0.4,0.3-0.6,0.5c0.1,1.8,0.2,3.6,0.3,5.4c0.3-0.2,0.6-0.3,0.8-0.5
	c0.8,1.2,1.6,2.3,2.3,3.3c1.2,0.5,2.3,0.9,3.9,1.6c2.9-1.5,2.9-1.5-1.4-7.8c-0.1,1.1-0.2,2-0.3,3
	C153.9,1043.7,152.3,1041.9,150.7,1040.1z M75.5,1007.6c2.5-2.1,2.7-4.4,0.4-6.2c-1.4-1.1-3.4-1.4-5.2-1.8c-0.6-0.1-1.3,0.4-2,0.7
	c0.2,0.6,0.3,1.5,0.8,1.9C71.3,1004,73.3,1005.7,75.5,1007.6z M304.7,555.1c-0.3,0.2-0.7,0.5-1,0.7c0.6,1.6,0.8,3.7,1.9,4.6
	c3.2,2.4,6.3,1.8,9.6-1.4C311.3,558.4,307.7,557.5,304.7,555.1z M-25.7,648.4c0.1-0.3,0.2-0.5,0.3-0.8c-2.7-1.2-5.4-2.3-8.1-3.5
	c0.8,0.1,1.5,0.2,2.3,0.3c0,1.8,0,3.5,0,5.3c-0.7,0-1.3,0.1-2,0.1C-30.7,649.3-28.2,648.9-25.7,648.4z M455,1197.8
	c3.3,0.8,3.1-2.4,4.2-3.9c0.4-0.5,0.4-2.1,0-2.4c-0.7-0.5-1.9-0.6-2.7-0.4c-0.6,0.1-1.2,1.1-1.3,1.7
	C455,1194.4,455.1,1195.9,455,1197.8z M760.9,1238.7c0.3,0.1,0.7,0.3,1,0.4c1.1-1.3,2.5-2.5,3.3-4c0.4-0.8,0.2-2,0-3.1
	c-0.1-0.3-1.1-0.8-1.2-0.7c-0.7,0.6-1.4,1.3-1.7,2.1C761.7,1235.2,761.4,1237,760.9,1238.7z M788.8,1277.7c-0.3-0.2-0.5-0.3-0.8-0.5
	c-0.8,0.4-1.7,0.5-2.3,1.1c-0.7,0.7-1.2,1.7-1.5,2.7c-0.1,0.3,1,1.4,1.1,1.3c0.9-0.4,1.9-1,2.5-1.8
	C788.4,1279.7,788.5,1278.6,788.8,1277.7z M624.4,684.9c-1.9-3.8-3-3.6-6.7,1.2C620.3,685.6,622.2,685.2,624.4,684.9z M-53.2,370.4
	c-2.4,0.3-4.3,0.6-6.8,0.9c1.4,1.8,2.2,2.9,3,3.9C-55.8,373.8-54.9,372.6-53.2,370.4z M-205.9,325.3c0.1,0.3,0.3,0.6,0.4,0.9
	c4.3,0.3,4.6,0.2,6.4-3.8C-202,323.5-203.9,324.4-205.9,325.3z M-107.4,749.7c2.9,2.2,5.3,1.9,7-1
	C-102.8,749-104.8,749.3-107.4,749.7z M277.2,582.7c-1,1.1-1.9,2.2-2.9,3.3c0.1,0.2,0.1,0.4,0.2,0.6c1.8-0.5,3.5-0.9,5.3-1.4
	c-0.1-0.4-0.1-0.7-0.2-1.1C278.8,583.7,278,583.2,277.2,582.7z M130,1036.1c0.3,1,0.7,2.1,1,3.1c0.4,0.1,0.8,0.1,1.2,0.2
	c0.7-1.6,1.4-3.3,2.1-5C132.5,1035.1,131.4,1035.5,130,1036.1z M-103.3,745.9c-1.4-1.2-2.5-2.2-3.8-3.3c-0.3,1.8-0.5,3.1-0.8,4.5
	C-106.4,746.7-105,746.4-103.3,745.9z M784.3,1286.7c-1.4,0.4-2.5,0.7-3.5,1.1c-0.5,0.2-1,0.8-1.2,1.3c-0.1,0.2,0.5,1.1,0.5,1
	c1.2-0.4,2.5-0.6,3.5-1.3C784.1,1288.6,784.1,1287.4,784.3,1286.7z M106,999.1c1.4,0.2,2.7,0.6,4,0.6c0.8,0,1.6-0.5,2.3-0.8
	c-0.2-0.4-0.3-0.8-0.5-1.2C110.2,999.6,107,995.4,106,999.1z M265.9,1109.8c-0.3,0.2-0.5,0.4-0.8,0.5c0.2,1.2,0.4,2.4,0.5,3.2
	c1.5-0.2,2.5-0.4,3.8-0.6C268.1,1111.8,267,1110.8,265.9,1109.8z"/>
</svg>
